M48
; DRILL file {KiCad 8.0.2} date 2024-07-01T07:59:07+0200
; FORMAT={-:-/ absolute / metric / decimal}
; #@! TF.CreationDate,2024-07-01T07:59:07+02:00
; #@! TF.GenerationSoftware,Kicad,Pcbnew,8.0.2
; #@! TF.FileFunction,Plated,1,2,PTH
FMAT,2
METRIC
; #@! TA.AperFunction,Plated,PTH,ViaDrill
T1C0.400
; #@! TA.AperFunction,Plated,PTH,ComponentDrill
T2C0.900
; #@! TA.AperFunction,Plated,PTH,ComponentDrill
T3C1.000
; #@! TA.AperFunction,Plated,PTH,ComponentDrill
T4C1.016
; #@! TA.AperFunction,Plated,PTH,ComponentDrill
T5C1.300
%
G90
G05
T1
X38.1Y-69.85
X46.355Y-27.55
X53.942Y-73.708
X58.082Y-76.939
X60.363Y-75.009
X61.764Y-79.971
X64.588Y-77.0
X66.04Y-37.592
X75.692Y-37.592
X78.08Y-44.226
X78.316Y-52.276
X78.967Y-38.257
X78.967Y-45.076
X79.847Y-45.953
X80.2Y-35.472
X80.211Y-54.259
X80.923Y-31.75
X80.967Y-33.02
X81.042Y-56.665
X81.176Y-39.539
X82.114Y-49.472
X84.423Y-52.082
X85.319Y-34.586
X85.937Y-30.837
X85.984Y-55.948
X86.557Y-49.749
X89.21Y-33.108
X90.278Y-33.238
X90.563Y-53.48
T2
X32.385Y-23.495
X32.385Y-48.895
X34.925Y-23.495
X34.925Y-48.895
X37.465Y-23.495
X37.465Y-48.895
X40.005Y-23.495
X40.005Y-48.895
X42.545Y-23.495
X42.545Y-48.895
X45.085Y-23.495
X45.085Y-48.895
X47.625Y-23.495
X47.625Y-48.895
X50.165Y-23.495
X50.165Y-48.895
X52.705Y-23.495
X52.705Y-48.895
X55.245Y-23.495
X55.245Y-48.895
X57.785Y-23.495
X57.785Y-48.895
X60.325Y-23.495
X60.325Y-48.895
X62.865Y-23.495
X62.865Y-48.895
X65.405Y-23.495
X65.405Y-48.895
X67.945Y-23.495
X67.945Y-48.895
T3
X46.875Y-69.85
X46.875Y-72.39
X46.875Y-74.93
X46.875Y-77.47
X46.875Y-80.01
X46.875Y-82.55
T4
X70.866Y-64.389
X70.866Y-82.931
X73.406Y-64.389
X73.406Y-82.931
X81.534Y-64.389
X81.534Y-82.931
X84.074Y-64.389
X84.074Y-82.931
T5
X97.536Y-25.64
X97.536Y-30.64
X97.536Y-35.64
X97.536Y-40.64
X97.536Y-45.88
X97.536Y-50.88
X97.536Y-55.88
X97.536Y-60.88
X97.536Y-66.28
X97.536Y-71.28
X97.536Y-76.28
X97.536Y-81.28
M30
