G04 #@! TF.GenerationSoftware,KiCad,Pcbnew,8.0.2*
G04 #@! TF.CreationDate,2024-07-01T07:58:36+02:00*
G04 #@! TF.ProjectId,energiRegistrationForHA,656e6572-6769-4526-9567-697374726174,0*
G04 #@! TF.SameCoordinates,Original*
G04 #@! TF.FileFunction,Legend,Bot*
G04 #@! TF.FilePolarity,Positive*
%FSLAX46Y46*%
G04 Gerber Fmt 4.6, Leading zero omitted, Abs format (unit mm)*
G04 Created by KiCad (PCBNEW 8.0.2) date 2024-07-01 07:58:36*
%MOMM*%
%LPD*%
G01*
G04 APERTURE LIST*
G04 Aperture macros list*
%AMRoundRect*
0 Rectangle with rounded corners*
0 $1 Rounding radius*
0 $2 $3 $4 $5 $6 $7 $8 $9 X,Y pos of 4 corners*
0 Add a 4 corners polygon primitive as box body*
4,1,4,$2,$3,$4,$5,$6,$7,$8,$9,$2,$3,0*
0 Add four circle primitives for the rounded corners*
1,1,$1+$1,$2,$3*
1,1,$1+$1,$4,$5*
1,1,$1+$1,$6,$7*
1,1,$1+$1,$8,$9*
0 Add four rect primitives between the rounded corners*
20,1,$1+$1,$2,$3,$4,$5,0*
20,1,$1+$1,$4,$5,$6,$7,0*
20,1,$1+$1,$6,$7,$8,$9,0*
20,1,$1+$1,$8,$9,$2,$3,0*%
G04 Aperture macros list end*
%ADD10C,0.100000*%
%ADD11C,0.101600*%
%ADD12C,0.152400*%
%ADD13C,2.132000*%
%ADD14RoundRect,0.050000X1.300000X-1.300000X1.300000X1.300000X-1.300000X1.300000X-1.300000X-1.300000X0*%
%ADD15C,2.700000*%
%ADD16RoundRect,0.050000X-0.762000X0.762000X-0.762000X-0.762000X0.762000X-0.762000X0.762000X0.762000X0*%
%ADD17C,1.624000*%
%ADD18RoundRect,0.050000X-0.850000X-0.850000X0.850000X-0.850000X0.850000X0.850000X-0.850000X0.850000X0*%
%ADD19O,1.800000X1.800000*%
G04 APERTURE END LIST*
D10*
X70485580Y-81357115D02*
X71485580Y-81357115D01*
X70485580Y-80880925D02*
X71485580Y-80880925D01*
X71485580Y-80880925D02*
X70485580Y-80309497D01*
X70485580Y-80309497D02*
X71485580Y-80309497D01*
X70866533Y-79833306D02*
X70866533Y-79071402D01*
X83693580Y-81357115D02*
X84693580Y-81357115D01*
X83693580Y-80880925D02*
X84693580Y-80880925D01*
X84693580Y-80880925D02*
X83693580Y-80309497D01*
X83693580Y-80309497D02*
X84693580Y-80309497D01*
X84074533Y-79833306D02*
X84074533Y-79071402D01*
X83693580Y-79452354D02*
X84455485Y-79452354D01*
X84693580Y-73546639D02*
X84693580Y-73356163D01*
X84693580Y-73356163D02*
X84645961Y-73260925D01*
X84645961Y-73260925D02*
X84550723Y-73165687D01*
X84550723Y-73165687D02*
X84360247Y-73118068D01*
X84360247Y-73118068D02*
X84026914Y-73118068D01*
X84026914Y-73118068D02*
X83836438Y-73165687D01*
X83836438Y-73165687D02*
X83741200Y-73260925D01*
X83741200Y-73260925D02*
X83693580Y-73356163D01*
X83693580Y-73356163D02*
X83693580Y-73546639D01*
X83693580Y-73546639D02*
X83741200Y-73641877D01*
X83741200Y-73641877D02*
X83836438Y-73737115D01*
X83836438Y-73737115D02*
X84026914Y-73784734D01*
X84026914Y-73784734D02*
X84360247Y-73784734D01*
X84360247Y-73784734D02*
X84550723Y-73737115D01*
X84550723Y-73737115D02*
X84645961Y-73641877D01*
X84645961Y-73641877D02*
X84693580Y-73546639D01*
X84693580Y-72689496D02*
X83884057Y-72689496D01*
X83884057Y-72689496D02*
X83788819Y-72641877D01*
X83788819Y-72641877D02*
X83741200Y-72594258D01*
X83741200Y-72594258D02*
X83693580Y-72499020D01*
X83693580Y-72499020D02*
X83693580Y-72308544D01*
X83693580Y-72308544D02*
X83741200Y-72213306D01*
X83741200Y-72213306D02*
X83788819Y-72165687D01*
X83788819Y-72165687D02*
X83884057Y-72118068D01*
X83884057Y-72118068D02*
X84693580Y-72118068D01*
X84693580Y-71784734D02*
X84693580Y-71213306D01*
X83693580Y-71499020D02*
X84693580Y-71499020D01*
X84074533Y-70879972D02*
X84074533Y-70118068D01*
X83693580Y-70499020D02*
X84455485Y-70499020D01*
X84693580Y-68975210D02*
X84693580Y-68356163D01*
X84693580Y-68356163D02*
X84312628Y-68689496D01*
X84312628Y-68689496D02*
X84312628Y-68546639D01*
X84312628Y-68546639D02*
X84265009Y-68451401D01*
X84265009Y-68451401D02*
X84217390Y-68403782D01*
X84217390Y-68403782D02*
X84122152Y-68356163D01*
X84122152Y-68356163D02*
X83884057Y-68356163D01*
X83884057Y-68356163D02*
X83788819Y-68403782D01*
X83788819Y-68403782D02*
X83741200Y-68451401D01*
X83741200Y-68451401D02*
X83693580Y-68546639D01*
X83693580Y-68546639D02*
X83693580Y-68832353D01*
X83693580Y-68832353D02*
X83741200Y-68927591D01*
X83741200Y-68927591D02*
X83788819Y-68975210D01*
X83741200Y-67879972D02*
X83693580Y-67879972D01*
X83693580Y-67879972D02*
X83598342Y-67927591D01*
X83598342Y-67927591D02*
X83550723Y-67975210D01*
X84693580Y-67546639D02*
X84693580Y-66927592D01*
X84693580Y-66927592D02*
X84312628Y-67260925D01*
X84312628Y-67260925D02*
X84312628Y-67118068D01*
X84312628Y-67118068D02*
X84265009Y-67022830D01*
X84265009Y-67022830D02*
X84217390Y-66975211D01*
X84217390Y-66975211D02*
X84122152Y-66927592D01*
X84122152Y-66927592D02*
X83884057Y-66927592D01*
X83884057Y-66927592D02*
X83788819Y-66975211D01*
X83788819Y-66975211D02*
X83741200Y-67022830D01*
X83741200Y-67022830D02*
X83693580Y-67118068D01*
X83693580Y-67118068D02*
X83693580Y-67403782D01*
X83693580Y-67403782D02*
X83741200Y-67499020D01*
X83741200Y-67499020D02*
X83788819Y-67546639D01*
X84693580Y-66641877D02*
X83693580Y-66308544D01*
X83693580Y-66308544D02*
X84693580Y-65975211D01*
X71485580Y-69482639D02*
X71485580Y-69292163D01*
X71485580Y-69292163D02*
X71437961Y-69196925D01*
X71437961Y-69196925D02*
X71342723Y-69101687D01*
X71342723Y-69101687D02*
X71152247Y-69054068D01*
X71152247Y-69054068D02*
X70818914Y-69054068D01*
X70818914Y-69054068D02*
X70628438Y-69101687D01*
X70628438Y-69101687D02*
X70533200Y-69196925D01*
X70533200Y-69196925D02*
X70485580Y-69292163D01*
X70485580Y-69292163D02*
X70485580Y-69482639D01*
X70485580Y-69482639D02*
X70533200Y-69577877D01*
X70533200Y-69577877D02*
X70628438Y-69673115D01*
X70628438Y-69673115D02*
X70818914Y-69720734D01*
X70818914Y-69720734D02*
X71152247Y-69720734D01*
X71152247Y-69720734D02*
X71342723Y-69673115D01*
X71342723Y-69673115D02*
X71437961Y-69577877D01*
X71437961Y-69577877D02*
X71485580Y-69482639D01*
X71485580Y-68625496D02*
X70676057Y-68625496D01*
X70676057Y-68625496D02*
X70580819Y-68577877D01*
X70580819Y-68577877D02*
X70533200Y-68530258D01*
X70533200Y-68530258D02*
X70485580Y-68435020D01*
X70485580Y-68435020D02*
X70485580Y-68244544D01*
X70485580Y-68244544D02*
X70533200Y-68149306D01*
X70533200Y-68149306D02*
X70580819Y-68101687D01*
X70580819Y-68101687D02*
X70676057Y-68054068D01*
X70676057Y-68054068D02*
X71485580Y-68054068D01*
X71485580Y-67720734D02*
X71485580Y-67149306D01*
X70485580Y-67435020D02*
X71485580Y-67435020D01*
X70866533Y-66815972D02*
X70866533Y-66054068D01*
D11*
X53969270Y-46199538D02*
X53969270Y-46961538D01*
X53969270Y-46961538D02*
X54150699Y-46961538D01*
X54150699Y-46961538D02*
X54259556Y-46925252D01*
X54259556Y-46925252D02*
X54332127Y-46852681D01*
X54332127Y-46852681D02*
X54368413Y-46780109D01*
X54368413Y-46780109D02*
X54404699Y-46634966D01*
X54404699Y-46634966D02*
X54404699Y-46526109D01*
X54404699Y-46526109D02*
X54368413Y-46380966D01*
X54368413Y-46380966D02*
X54332127Y-46308395D01*
X54332127Y-46308395D02*
X54259556Y-46235824D01*
X54259556Y-46235824D02*
X54150699Y-46199538D01*
X54150699Y-46199538D02*
X53969270Y-46199538D01*
X54658699Y-46961538D02*
X55130413Y-46961538D01*
X55130413Y-46961538D02*
X54876413Y-46671252D01*
X54876413Y-46671252D02*
X54985270Y-46671252D01*
X54985270Y-46671252D02*
X55057842Y-46634966D01*
X55057842Y-46634966D02*
X55094127Y-46598681D01*
X55094127Y-46598681D02*
X55130413Y-46526109D01*
X55130413Y-46526109D02*
X55130413Y-46344681D01*
X55130413Y-46344681D02*
X55094127Y-46272109D01*
X55094127Y-46272109D02*
X55057842Y-46235824D01*
X55057842Y-46235824D02*
X54985270Y-46199538D01*
X54985270Y-46199538D02*
X54767556Y-46199538D01*
X54767556Y-46199538D02*
X54694984Y-46235824D01*
X54694984Y-46235824D02*
X54658699Y-46272109D01*
X55420698Y-46888966D02*
X55456984Y-46925252D01*
X55456984Y-46925252D02*
X55529556Y-46961538D01*
X55529556Y-46961538D02*
X55710984Y-46961538D01*
X55710984Y-46961538D02*
X55783556Y-46925252D01*
X55783556Y-46925252D02*
X55819841Y-46888966D01*
X55819841Y-46888966D02*
X55856127Y-46816395D01*
X55856127Y-46816395D02*
X55856127Y-46743824D01*
X55856127Y-46743824D02*
X55819841Y-46634966D01*
X55819841Y-46634966D02*
X55384413Y-46199538D01*
X55384413Y-46199538D02*
X55856127Y-46199538D01*
X36189270Y-24863538D02*
X36189270Y-25625538D01*
X36189270Y-25625538D02*
X36370699Y-25625538D01*
X36370699Y-25625538D02*
X36479556Y-25589252D01*
X36479556Y-25589252D02*
X36552127Y-25516681D01*
X36552127Y-25516681D02*
X36588413Y-25444109D01*
X36588413Y-25444109D02*
X36624699Y-25298966D01*
X36624699Y-25298966D02*
X36624699Y-25190109D01*
X36624699Y-25190109D02*
X36588413Y-25044966D01*
X36588413Y-25044966D02*
X36552127Y-24972395D01*
X36552127Y-24972395D02*
X36479556Y-24899824D01*
X36479556Y-24899824D02*
X36370699Y-24863538D01*
X36370699Y-24863538D02*
X36189270Y-24863538D01*
X37350413Y-24863538D02*
X36914984Y-24863538D01*
X37132699Y-24863538D02*
X37132699Y-25625538D01*
X37132699Y-25625538D02*
X37060127Y-25516681D01*
X37060127Y-25516681D02*
X36987556Y-25444109D01*
X36987556Y-25444109D02*
X36914984Y-25407824D01*
X38039841Y-25625538D02*
X37676984Y-25625538D01*
X37676984Y-25625538D02*
X37640698Y-25262681D01*
X37640698Y-25262681D02*
X37676984Y-25298966D01*
X37676984Y-25298966D02*
X37749556Y-25335252D01*
X37749556Y-25335252D02*
X37930984Y-25335252D01*
X37930984Y-25335252D02*
X38003556Y-25298966D01*
X38003556Y-25298966D02*
X38039841Y-25262681D01*
X38039841Y-25262681D02*
X38076127Y-25190109D01*
X38076127Y-25190109D02*
X38076127Y-25008681D01*
X38076127Y-25008681D02*
X38039841Y-24936109D01*
X38039841Y-24936109D02*
X38003556Y-24899824D01*
X38003556Y-24899824D02*
X37930984Y-24863538D01*
X37930984Y-24863538D02*
X37749556Y-24863538D01*
X37749556Y-24863538D02*
X37676984Y-24899824D01*
X37676984Y-24899824D02*
X37640698Y-24936109D01*
X51429270Y-46199538D02*
X51429270Y-46961538D01*
X51429270Y-46961538D02*
X51610699Y-46961538D01*
X51610699Y-46961538D02*
X51719556Y-46925252D01*
X51719556Y-46925252D02*
X51792127Y-46852681D01*
X51792127Y-46852681D02*
X51828413Y-46780109D01*
X51828413Y-46780109D02*
X51864699Y-46634966D01*
X51864699Y-46634966D02*
X51864699Y-46526109D01*
X51864699Y-46526109D02*
X51828413Y-46380966D01*
X51828413Y-46380966D02*
X51792127Y-46308395D01*
X51792127Y-46308395D02*
X51719556Y-46235824D01*
X51719556Y-46235824D02*
X51610699Y-46199538D01*
X51610699Y-46199538D02*
X51429270Y-46199538D01*
X52118699Y-46961538D02*
X52590413Y-46961538D01*
X52590413Y-46961538D02*
X52336413Y-46671252D01*
X52336413Y-46671252D02*
X52445270Y-46671252D01*
X52445270Y-46671252D02*
X52517842Y-46634966D01*
X52517842Y-46634966D02*
X52554127Y-46598681D01*
X52554127Y-46598681D02*
X52590413Y-46526109D01*
X52590413Y-46526109D02*
X52590413Y-46344681D01*
X52590413Y-46344681D02*
X52554127Y-46272109D01*
X52554127Y-46272109D02*
X52517842Y-46235824D01*
X52517842Y-46235824D02*
X52445270Y-46199538D01*
X52445270Y-46199538D02*
X52227556Y-46199538D01*
X52227556Y-46199538D02*
X52154984Y-46235824D01*
X52154984Y-46235824D02*
X52118699Y-46272109D01*
X52844413Y-46961538D02*
X53316127Y-46961538D01*
X53316127Y-46961538D02*
X53062127Y-46671252D01*
X53062127Y-46671252D02*
X53170984Y-46671252D01*
X53170984Y-46671252D02*
X53243556Y-46634966D01*
X53243556Y-46634966D02*
X53279841Y-46598681D01*
X53279841Y-46598681D02*
X53316127Y-46526109D01*
X53316127Y-46526109D02*
X53316127Y-46344681D01*
X53316127Y-46344681D02*
X53279841Y-46272109D01*
X53279841Y-46272109D02*
X53243556Y-46235824D01*
X53243556Y-46235824D02*
X53170984Y-46199538D01*
X53170984Y-46199538D02*
X52953270Y-46199538D01*
X52953270Y-46199538D02*
X52880698Y-46235824D01*
X52880698Y-46235824D02*
X52844413Y-46272109D01*
X51429270Y-24863538D02*
X51429270Y-25625538D01*
X51429270Y-25625538D02*
X51610699Y-25625538D01*
X51610699Y-25625538D02*
X51719556Y-25589252D01*
X51719556Y-25589252D02*
X51792127Y-25516681D01*
X51792127Y-25516681D02*
X51828413Y-25444109D01*
X51828413Y-25444109D02*
X51864699Y-25298966D01*
X51864699Y-25298966D02*
X51864699Y-25190109D01*
X51864699Y-25190109D02*
X51828413Y-25044966D01*
X51828413Y-25044966D02*
X51792127Y-24972395D01*
X51792127Y-24972395D02*
X51719556Y-24899824D01*
X51719556Y-24899824D02*
X51610699Y-24863538D01*
X51610699Y-24863538D02*
X51429270Y-24863538D01*
X52590413Y-24863538D02*
X52154984Y-24863538D01*
X52372699Y-24863538D02*
X52372699Y-25625538D01*
X52372699Y-25625538D02*
X52300127Y-25516681D01*
X52300127Y-25516681D02*
X52227556Y-25444109D01*
X52227556Y-25444109D02*
X52154984Y-25407824D01*
X53025841Y-25298966D02*
X52953270Y-25335252D01*
X52953270Y-25335252D02*
X52916984Y-25371538D01*
X52916984Y-25371538D02*
X52880698Y-25444109D01*
X52880698Y-25444109D02*
X52880698Y-25480395D01*
X52880698Y-25480395D02*
X52916984Y-25552966D01*
X52916984Y-25552966D02*
X52953270Y-25589252D01*
X52953270Y-25589252D02*
X53025841Y-25625538D01*
X53025841Y-25625538D02*
X53170984Y-25625538D01*
X53170984Y-25625538D02*
X53243556Y-25589252D01*
X53243556Y-25589252D02*
X53279841Y-25552966D01*
X53279841Y-25552966D02*
X53316127Y-25480395D01*
X53316127Y-25480395D02*
X53316127Y-25444109D01*
X53316127Y-25444109D02*
X53279841Y-25371538D01*
X53279841Y-25371538D02*
X53243556Y-25335252D01*
X53243556Y-25335252D02*
X53170984Y-25298966D01*
X53170984Y-25298966D02*
X53025841Y-25298966D01*
X53025841Y-25298966D02*
X52953270Y-25262681D01*
X52953270Y-25262681D02*
X52916984Y-25226395D01*
X52916984Y-25226395D02*
X52880698Y-25153824D01*
X52880698Y-25153824D02*
X52880698Y-25008681D01*
X52880698Y-25008681D02*
X52916984Y-24936109D01*
X52916984Y-24936109D02*
X52953270Y-24899824D01*
X52953270Y-24899824D02*
X53025841Y-24863538D01*
X53025841Y-24863538D02*
X53170984Y-24863538D01*
X53170984Y-24863538D02*
X53243556Y-24899824D01*
X53243556Y-24899824D02*
X53279841Y-24936109D01*
X53279841Y-24936109D02*
X53316127Y-25008681D01*
X53316127Y-25008681D02*
X53316127Y-25153824D01*
X53316127Y-25153824D02*
X53279841Y-25226395D01*
X53279841Y-25226395D02*
X53243556Y-25262681D01*
X53243556Y-25262681D02*
X53170984Y-25298966D01*
X56509270Y-24863538D02*
X56509270Y-25625538D01*
X56509270Y-25625538D02*
X56690699Y-25625538D01*
X56690699Y-25625538D02*
X56799556Y-25589252D01*
X56799556Y-25589252D02*
X56872127Y-25516681D01*
X56872127Y-25516681D02*
X56908413Y-25444109D01*
X56908413Y-25444109D02*
X56944699Y-25298966D01*
X56944699Y-25298966D02*
X56944699Y-25190109D01*
X56944699Y-25190109D02*
X56908413Y-25044966D01*
X56908413Y-25044966D02*
X56872127Y-24972395D01*
X56872127Y-24972395D02*
X56799556Y-24899824D01*
X56799556Y-24899824D02*
X56690699Y-24863538D01*
X56690699Y-24863538D02*
X56509270Y-24863538D01*
X57234984Y-25552966D02*
X57271270Y-25589252D01*
X57271270Y-25589252D02*
X57343842Y-25625538D01*
X57343842Y-25625538D02*
X57525270Y-25625538D01*
X57525270Y-25625538D02*
X57597842Y-25589252D01*
X57597842Y-25589252D02*
X57634127Y-25552966D01*
X57634127Y-25552966D02*
X57670413Y-25480395D01*
X57670413Y-25480395D02*
X57670413Y-25407824D01*
X57670413Y-25407824D02*
X57634127Y-25298966D01*
X57634127Y-25298966D02*
X57198699Y-24863538D01*
X57198699Y-24863538D02*
X57670413Y-24863538D01*
X58396127Y-24863538D02*
X57960698Y-24863538D01*
X58178413Y-24863538D02*
X58178413Y-25625538D01*
X58178413Y-25625538D02*
X58105841Y-25516681D01*
X58105841Y-25516681D02*
X58033270Y-25444109D01*
X58033270Y-25444109D02*
X57960698Y-25407824D01*
X53969270Y-24863538D02*
X53969270Y-25625538D01*
X53969270Y-25625538D02*
X54150699Y-25625538D01*
X54150699Y-25625538D02*
X54259556Y-25589252D01*
X54259556Y-25589252D02*
X54332127Y-25516681D01*
X54332127Y-25516681D02*
X54368413Y-25444109D01*
X54368413Y-25444109D02*
X54404699Y-25298966D01*
X54404699Y-25298966D02*
X54404699Y-25190109D01*
X54404699Y-25190109D02*
X54368413Y-25044966D01*
X54368413Y-25044966D02*
X54332127Y-24972395D01*
X54332127Y-24972395D02*
X54259556Y-24899824D01*
X54259556Y-24899824D02*
X54150699Y-24863538D01*
X54150699Y-24863538D02*
X53969270Y-24863538D01*
X55130413Y-24863538D02*
X54694984Y-24863538D01*
X54912699Y-24863538D02*
X54912699Y-25625538D01*
X54912699Y-25625538D02*
X54840127Y-25516681D01*
X54840127Y-25516681D02*
X54767556Y-25444109D01*
X54767556Y-25444109D02*
X54694984Y-25407824D01*
X55493270Y-24863538D02*
X55638413Y-24863538D01*
X55638413Y-24863538D02*
X55710984Y-24899824D01*
X55710984Y-24899824D02*
X55747270Y-24936109D01*
X55747270Y-24936109D02*
X55819841Y-25044966D01*
X55819841Y-25044966D02*
X55856127Y-25190109D01*
X55856127Y-25190109D02*
X55856127Y-25480395D01*
X55856127Y-25480395D02*
X55819841Y-25552966D01*
X55819841Y-25552966D02*
X55783556Y-25589252D01*
X55783556Y-25589252D02*
X55710984Y-25625538D01*
X55710984Y-25625538D02*
X55565841Y-25625538D01*
X55565841Y-25625538D02*
X55493270Y-25589252D01*
X55493270Y-25589252D02*
X55456984Y-25552966D01*
X55456984Y-25552966D02*
X55420698Y-25480395D01*
X55420698Y-25480395D02*
X55420698Y-25298966D01*
X55420698Y-25298966D02*
X55456984Y-25226395D01*
X55456984Y-25226395D02*
X55493270Y-25190109D01*
X55493270Y-25190109D02*
X55565841Y-25153824D01*
X55565841Y-25153824D02*
X55710984Y-25153824D01*
X55710984Y-25153824D02*
X55783556Y-25190109D01*
X55783556Y-25190109D02*
X55819841Y-25226395D01*
X55819841Y-25226395D02*
X55856127Y-25298966D01*
X41365714Y-46199538D02*
X41365714Y-46961538D01*
X41365714Y-46961538D02*
X41547143Y-46961538D01*
X41547143Y-46961538D02*
X41656000Y-46925252D01*
X41656000Y-46925252D02*
X41728571Y-46852681D01*
X41728571Y-46852681D02*
X41764857Y-46780109D01*
X41764857Y-46780109D02*
X41801143Y-46634966D01*
X41801143Y-46634966D02*
X41801143Y-46526109D01*
X41801143Y-46526109D02*
X41764857Y-46380966D01*
X41764857Y-46380966D02*
X41728571Y-46308395D01*
X41728571Y-46308395D02*
X41656000Y-46235824D01*
X41656000Y-46235824D02*
X41547143Y-46199538D01*
X41547143Y-46199538D02*
X41365714Y-46199538D01*
X42526857Y-46199538D02*
X42091428Y-46199538D01*
X42309143Y-46199538D02*
X42309143Y-46961538D01*
X42309143Y-46961538D02*
X42236571Y-46852681D01*
X42236571Y-46852681D02*
X42164000Y-46780109D01*
X42164000Y-46780109D02*
X42091428Y-46743824D01*
X43180000Y-46707538D02*
X43180000Y-46199538D01*
X42998571Y-46997824D02*
X42817142Y-46453538D01*
X42817142Y-46453538D02*
X43288857Y-46453538D01*
X34090428Y-46925252D02*
X34017857Y-46961538D01*
X34017857Y-46961538D02*
X33908999Y-46961538D01*
X33908999Y-46961538D02*
X33800142Y-46925252D01*
X33800142Y-46925252D02*
X33727571Y-46852681D01*
X33727571Y-46852681D02*
X33691285Y-46780109D01*
X33691285Y-46780109D02*
X33654999Y-46634966D01*
X33654999Y-46634966D02*
X33654999Y-46526109D01*
X33654999Y-46526109D02*
X33691285Y-46380966D01*
X33691285Y-46380966D02*
X33727571Y-46308395D01*
X33727571Y-46308395D02*
X33800142Y-46235824D01*
X33800142Y-46235824D02*
X33908999Y-46199538D01*
X33908999Y-46199538D02*
X33981571Y-46199538D01*
X33981571Y-46199538D02*
X34090428Y-46235824D01*
X34090428Y-46235824D02*
X34126714Y-46272109D01*
X34126714Y-46272109D02*
X34126714Y-46526109D01*
X34126714Y-46526109D02*
X33981571Y-46526109D01*
X34453285Y-46199538D02*
X34453285Y-46961538D01*
X34453285Y-46961538D02*
X34888714Y-46199538D01*
X34888714Y-46199538D02*
X34888714Y-46961538D01*
X35251571Y-46199538D02*
X35251571Y-46961538D01*
X35251571Y-46961538D02*
X35433000Y-46961538D01*
X35433000Y-46961538D02*
X35541857Y-46925252D01*
X35541857Y-46925252D02*
X35614428Y-46852681D01*
X35614428Y-46852681D02*
X35650714Y-46780109D01*
X35650714Y-46780109D02*
X35687000Y-46634966D01*
X35687000Y-46634966D02*
X35687000Y-46526109D01*
X35687000Y-46526109D02*
X35650714Y-46380966D01*
X35650714Y-46380966D02*
X35614428Y-46308395D01*
X35614428Y-46308395D02*
X35541857Y-46235824D01*
X35541857Y-46235824D02*
X35433000Y-46199538D01*
X35433000Y-46199538D02*
X35251571Y-46199538D01*
X56763270Y-46199538D02*
X56763270Y-46961538D01*
X56763270Y-46961538D02*
X56944699Y-46961538D01*
X56944699Y-46961538D02*
X57053556Y-46925252D01*
X57053556Y-46925252D02*
X57126127Y-46852681D01*
X57126127Y-46852681D02*
X57162413Y-46780109D01*
X57162413Y-46780109D02*
X57198699Y-46634966D01*
X57198699Y-46634966D02*
X57198699Y-46526109D01*
X57198699Y-46526109D02*
X57162413Y-46380966D01*
X57162413Y-46380966D02*
X57126127Y-46308395D01*
X57126127Y-46308395D02*
X57053556Y-46235824D01*
X57053556Y-46235824D02*
X56944699Y-46199538D01*
X56944699Y-46199538D02*
X56763270Y-46199538D01*
X57452699Y-46961538D02*
X57924413Y-46961538D01*
X57924413Y-46961538D02*
X57670413Y-46671252D01*
X57670413Y-46671252D02*
X57779270Y-46671252D01*
X57779270Y-46671252D02*
X57851842Y-46634966D01*
X57851842Y-46634966D02*
X57888127Y-46598681D01*
X57888127Y-46598681D02*
X57924413Y-46526109D01*
X57924413Y-46526109D02*
X57924413Y-46344681D01*
X57924413Y-46344681D02*
X57888127Y-46272109D01*
X57888127Y-46272109D02*
X57851842Y-46235824D01*
X57851842Y-46235824D02*
X57779270Y-46199538D01*
X57779270Y-46199538D02*
X57561556Y-46199538D01*
X57561556Y-46199538D02*
X57488984Y-46235824D01*
X57488984Y-46235824D02*
X57452699Y-46272109D01*
X58613841Y-46961538D02*
X58250984Y-46961538D01*
X58250984Y-46961538D02*
X58214698Y-46598681D01*
X58214698Y-46598681D02*
X58250984Y-46634966D01*
X58250984Y-46634966D02*
X58323556Y-46671252D01*
X58323556Y-46671252D02*
X58504984Y-46671252D01*
X58504984Y-46671252D02*
X58577556Y-46634966D01*
X58577556Y-46634966D02*
X58613841Y-46598681D01*
X58613841Y-46598681D02*
X58650127Y-46526109D01*
X58650127Y-46526109D02*
X58650127Y-46344681D01*
X58650127Y-46344681D02*
X58613841Y-46272109D01*
X58613841Y-46272109D02*
X58577556Y-46235824D01*
X58577556Y-46235824D02*
X58504984Y-46199538D01*
X58504984Y-46199538D02*
X58323556Y-46199538D01*
X58323556Y-46199538D02*
X58250984Y-46235824D01*
X58250984Y-46235824D02*
X58214698Y-46272109D01*
X66923270Y-24863538D02*
X66923270Y-25625538D01*
X66923270Y-25625538D02*
X67104699Y-25625538D01*
X67104699Y-25625538D02*
X67213556Y-25589252D01*
X67213556Y-25589252D02*
X67286127Y-25516681D01*
X67286127Y-25516681D02*
X67322413Y-25444109D01*
X67322413Y-25444109D02*
X67358699Y-25298966D01*
X67358699Y-25298966D02*
X67358699Y-25190109D01*
X67358699Y-25190109D02*
X67322413Y-25044966D01*
X67322413Y-25044966D02*
X67286127Y-24972395D01*
X67286127Y-24972395D02*
X67213556Y-24899824D01*
X67213556Y-24899824D02*
X67104699Y-24863538D01*
X67104699Y-24863538D02*
X66923270Y-24863538D01*
X67648984Y-25552966D02*
X67685270Y-25589252D01*
X67685270Y-25589252D02*
X67757842Y-25625538D01*
X67757842Y-25625538D02*
X67939270Y-25625538D01*
X67939270Y-25625538D02*
X68011842Y-25589252D01*
X68011842Y-25589252D02*
X68048127Y-25552966D01*
X68048127Y-25552966D02*
X68084413Y-25480395D01*
X68084413Y-25480395D02*
X68084413Y-25407824D01*
X68084413Y-25407824D02*
X68048127Y-25298966D01*
X68048127Y-25298966D02*
X67612699Y-24863538D01*
X67612699Y-24863538D02*
X68084413Y-24863538D01*
X68338413Y-25625538D02*
X68810127Y-25625538D01*
X68810127Y-25625538D02*
X68556127Y-25335252D01*
X68556127Y-25335252D02*
X68664984Y-25335252D01*
X68664984Y-25335252D02*
X68737556Y-25298966D01*
X68737556Y-25298966D02*
X68773841Y-25262681D01*
X68773841Y-25262681D02*
X68810127Y-25190109D01*
X68810127Y-25190109D02*
X68810127Y-25008681D01*
X68810127Y-25008681D02*
X68773841Y-24936109D01*
X68773841Y-24936109D02*
X68737556Y-24899824D01*
X68737556Y-24899824D02*
X68664984Y-24863538D01*
X68664984Y-24863538D02*
X68447270Y-24863538D01*
X68447270Y-24863538D02*
X68374698Y-24899824D01*
X68374698Y-24899824D02*
X68338413Y-24936109D01*
X59484699Y-24863538D02*
X59230699Y-25226395D01*
X59049270Y-24863538D02*
X59049270Y-25625538D01*
X59049270Y-25625538D02*
X59339556Y-25625538D01*
X59339556Y-25625538D02*
X59412127Y-25589252D01*
X59412127Y-25589252D02*
X59448413Y-25552966D01*
X59448413Y-25552966D02*
X59484699Y-25480395D01*
X59484699Y-25480395D02*
X59484699Y-25371538D01*
X59484699Y-25371538D02*
X59448413Y-25298966D01*
X59448413Y-25298966D02*
X59412127Y-25262681D01*
X59412127Y-25262681D02*
X59339556Y-25226395D01*
X59339556Y-25226395D02*
X59049270Y-25226395D01*
X59738699Y-25625538D02*
X60246699Y-24863538D01*
X60246699Y-25625538D02*
X59738699Y-24863538D01*
X60682127Y-25625538D02*
X60754698Y-25625538D01*
X60754698Y-25625538D02*
X60827270Y-25589252D01*
X60827270Y-25589252D02*
X60863556Y-25552966D01*
X60863556Y-25552966D02*
X60899841Y-25480395D01*
X60899841Y-25480395D02*
X60936127Y-25335252D01*
X60936127Y-25335252D02*
X60936127Y-25153824D01*
X60936127Y-25153824D02*
X60899841Y-25008681D01*
X60899841Y-25008681D02*
X60863556Y-24936109D01*
X60863556Y-24936109D02*
X60827270Y-24899824D01*
X60827270Y-24899824D02*
X60754698Y-24863538D01*
X60754698Y-24863538D02*
X60682127Y-24863538D01*
X60682127Y-24863538D02*
X60609556Y-24899824D01*
X60609556Y-24899824D02*
X60573270Y-24936109D01*
X60573270Y-24936109D02*
X60536984Y-25008681D01*
X60536984Y-25008681D02*
X60500698Y-25153824D01*
X60500698Y-25153824D02*
X60500698Y-25335252D01*
X60500698Y-25335252D02*
X60536984Y-25480395D01*
X60536984Y-25480395D02*
X60573270Y-25552966D01*
X60573270Y-25552966D02*
X60609556Y-25589252D01*
X60609556Y-25589252D02*
X60682127Y-25625538D01*
X36285714Y-46199538D02*
X36285714Y-46961538D01*
X36285714Y-46961538D02*
X36467143Y-46961538D01*
X36467143Y-46961538D02*
X36576000Y-46925252D01*
X36576000Y-46925252D02*
X36648571Y-46852681D01*
X36648571Y-46852681D02*
X36684857Y-46780109D01*
X36684857Y-46780109D02*
X36721143Y-46634966D01*
X36721143Y-46634966D02*
X36721143Y-46526109D01*
X36721143Y-46526109D02*
X36684857Y-46380966D01*
X36684857Y-46380966D02*
X36648571Y-46308395D01*
X36648571Y-46308395D02*
X36576000Y-46235824D01*
X36576000Y-46235824D02*
X36467143Y-46199538D01*
X36467143Y-46199538D02*
X36285714Y-46199538D01*
X37446857Y-46199538D02*
X37011428Y-46199538D01*
X37229143Y-46199538D02*
X37229143Y-46961538D01*
X37229143Y-46961538D02*
X37156571Y-46852681D01*
X37156571Y-46852681D02*
X37084000Y-46780109D01*
X37084000Y-46780109D02*
X37011428Y-46743824D01*
X37700857Y-46961538D02*
X38172571Y-46961538D01*
X38172571Y-46961538D02*
X37918571Y-46671252D01*
X37918571Y-46671252D02*
X38027428Y-46671252D01*
X38027428Y-46671252D02*
X38100000Y-46634966D01*
X38100000Y-46634966D02*
X38136285Y-46598681D01*
X38136285Y-46598681D02*
X38172571Y-46526109D01*
X38172571Y-46526109D02*
X38172571Y-46344681D01*
X38172571Y-46344681D02*
X38136285Y-46272109D01*
X38136285Y-46272109D02*
X38100000Y-46235824D01*
X38100000Y-46235824D02*
X38027428Y-46199538D01*
X38027428Y-46199538D02*
X37809714Y-46199538D01*
X37809714Y-46199538D02*
X37737142Y-46235824D01*
X37737142Y-46235824D02*
X37700857Y-46272109D01*
D12*
X70368465Y-38417022D02*
X70332179Y-38489594D01*
X70332179Y-38489594D02*
X70332179Y-38634737D01*
X70332179Y-38634737D02*
X70368465Y-38707308D01*
X70368465Y-38707308D02*
X70441036Y-38743594D01*
X70441036Y-38743594D02*
X70731322Y-38743594D01*
X70731322Y-38743594D02*
X70803893Y-38707308D01*
X70803893Y-38707308D02*
X70840179Y-38634737D01*
X70840179Y-38634737D02*
X70840179Y-38489594D01*
X70840179Y-38489594D02*
X70803893Y-38417022D01*
X70803893Y-38417022D02*
X70731322Y-38380737D01*
X70731322Y-38380737D02*
X70658750Y-38380737D01*
X70658750Y-38380737D02*
X70586179Y-38743594D01*
X70368465Y-38090451D02*
X70332179Y-38017879D01*
X70332179Y-38017879D02*
X70332179Y-37872736D01*
X70332179Y-37872736D02*
X70368465Y-37800165D01*
X70368465Y-37800165D02*
X70441036Y-37763879D01*
X70441036Y-37763879D02*
X70477322Y-37763879D01*
X70477322Y-37763879D02*
X70549893Y-37800165D01*
X70549893Y-37800165D02*
X70586179Y-37872736D01*
X70586179Y-37872736D02*
X70586179Y-37981594D01*
X70586179Y-37981594D02*
X70622465Y-38054165D01*
X70622465Y-38054165D02*
X70695036Y-38090451D01*
X70695036Y-38090451D02*
X70731322Y-38090451D01*
X70731322Y-38090451D02*
X70803893Y-38054165D01*
X70803893Y-38054165D02*
X70840179Y-37981594D01*
X70840179Y-37981594D02*
X70840179Y-37872736D01*
X70840179Y-37872736D02*
X70803893Y-37800165D01*
X70840179Y-37437308D02*
X70078179Y-37437308D01*
X70803893Y-37437308D02*
X70840179Y-37364737D01*
X70840179Y-37364737D02*
X70840179Y-37219594D01*
X70840179Y-37219594D02*
X70803893Y-37147022D01*
X70803893Y-37147022D02*
X70767607Y-37110737D01*
X70767607Y-37110737D02*
X70695036Y-37074451D01*
X70695036Y-37074451D02*
X70477322Y-37074451D01*
X70477322Y-37074451D02*
X70404750Y-37110737D01*
X70404750Y-37110737D02*
X70368465Y-37147022D01*
X70368465Y-37147022D02*
X70332179Y-37219594D01*
X70332179Y-37219594D02*
X70332179Y-37364737D01*
X70332179Y-37364737D02*
X70368465Y-37437308D01*
X71094179Y-36820450D02*
X71094179Y-36348736D01*
X71094179Y-36348736D02*
X70803893Y-36602736D01*
X70803893Y-36602736D02*
X70803893Y-36493879D01*
X70803893Y-36493879D02*
X70767607Y-36421308D01*
X70767607Y-36421308D02*
X70731322Y-36385022D01*
X70731322Y-36385022D02*
X70658750Y-36348736D01*
X70658750Y-36348736D02*
X70477322Y-36348736D01*
X70477322Y-36348736D02*
X70404750Y-36385022D01*
X70404750Y-36385022D02*
X70368465Y-36421308D01*
X70368465Y-36421308D02*
X70332179Y-36493879D01*
X70332179Y-36493879D02*
X70332179Y-36711593D01*
X70332179Y-36711593D02*
X70368465Y-36784165D01*
X70368465Y-36784165D02*
X70404750Y-36820450D01*
X71021607Y-36058451D02*
X71057893Y-36022165D01*
X71057893Y-36022165D02*
X71094179Y-35949594D01*
X71094179Y-35949594D02*
X71094179Y-35768165D01*
X71094179Y-35768165D02*
X71057893Y-35695594D01*
X71057893Y-35695594D02*
X71021607Y-35659308D01*
X71021607Y-35659308D02*
X70949036Y-35623022D01*
X70949036Y-35623022D02*
X70876465Y-35623022D01*
X70876465Y-35623022D02*
X70767607Y-35659308D01*
X70767607Y-35659308D02*
X70332179Y-36094736D01*
X70332179Y-36094736D02*
X70332179Y-35623022D01*
X70332179Y-34715880D02*
X71094179Y-34715880D01*
X71094179Y-34715880D02*
X71094179Y-34534451D01*
X71094179Y-34534451D02*
X71057893Y-34425594D01*
X71057893Y-34425594D02*
X70985322Y-34353023D01*
X70985322Y-34353023D02*
X70912750Y-34316737D01*
X70912750Y-34316737D02*
X70767607Y-34280451D01*
X70767607Y-34280451D02*
X70658750Y-34280451D01*
X70658750Y-34280451D02*
X70513607Y-34316737D01*
X70513607Y-34316737D02*
X70441036Y-34353023D01*
X70441036Y-34353023D02*
X70368465Y-34425594D01*
X70368465Y-34425594D02*
X70332179Y-34534451D01*
X70332179Y-34534451D02*
X70332179Y-34715880D01*
X70368465Y-33663594D02*
X70332179Y-33736166D01*
X70332179Y-33736166D02*
X70332179Y-33881309D01*
X70332179Y-33881309D02*
X70368465Y-33953880D01*
X70368465Y-33953880D02*
X70441036Y-33990166D01*
X70441036Y-33990166D02*
X70731322Y-33990166D01*
X70731322Y-33990166D02*
X70803893Y-33953880D01*
X70803893Y-33953880D02*
X70840179Y-33881309D01*
X70840179Y-33881309D02*
X70840179Y-33736166D01*
X70840179Y-33736166D02*
X70803893Y-33663594D01*
X70803893Y-33663594D02*
X70731322Y-33627309D01*
X70731322Y-33627309D02*
X70658750Y-33627309D01*
X70658750Y-33627309D02*
X70586179Y-33990166D01*
X70840179Y-33373308D02*
X70332179Y-33191880D01*
X70332179Y-33191880D02*
X70840179Y-33010451D01*
X70332179Y-32720166D02*
X71094179Y-32720166D01*
X70332179Y-32284737D02*
X70767607Y-32611309D01*
X71094179Y-32284737D02*
X70658750Y-32720166D01*
X70332179Y-31958166D02*
X70840179Y-31958166D01*
X71094179Y-31958166D02*
X71057893Y-31994452D01*
X71057893Y-31994452D02*
X71021607Y-31958166D01*
X71021607Y-31958166D02*
X71057893Y-31921880D01*
X71057893Y-31921880D02*
X71094179Y-31958166D01*
X71094179Y-31958166D02*
X71021607Y-31958166D01*
X70840179Y-31704166D02*
X70840179Y-31413880D01*
X71094179Y-31595309D02*
X70441036Y-31595309D01*
X70441036Y-31595309D02*
X70368465Y-31559023D01*
X70368465Y-31559023D02*
X70332179Y-31486452D01*
X70332179Y-31486452D02*
X70332179Y-31413880D01*
D11*
X31296428Y-46961538D02*
X31550428Y-46199538D01*
X31550428Y-46199538D02*
X31804428Y-46961538D01*
X32058428Y-46199538D02*
X32058428Y-46961538D01*
X32421285Y-46199538D02*
X32421285Y-46961538D01*
X32421285Y-46961538D02*
X32856714Y-46199538D01*
X32856714Y-46199538D02*
X32856714Y-46961538D01*
X61480413Y-25625538D02*
X61915842Y-25625538D01*
X61698127Y-24863538D02*
X61698127Y-25625538D01*
X62097270Y-25625538D02*
X62605270Y-24863538D01*
X62605270Y-25625538D02*
X62097270Y-24863538D01*
X63040698Y-25625538D02*
X63113269Y-25625538D01*
X63113269Y-25625538D02*
X63185841Y-25589252D01*
X63185841Y-25589252D02*
X63222127Y-25552966D01*
X63222127Y-25552966D02*
X63258412Y-25480395D01*
X63258412Y-25480395D02*
X63294698Y-25335252D01*
X63294698Y-25335252D02*
X63294698Y-25153824D01*
X63294698Y-25153824D02*
X63258412Y-25008681D01*
X63258412Y-25008681D02*
X63222127Y-24936109D01*
X63222127Y-24936109D02*
X63185841Y-24899824D01*
X63185841Y-24899824D02*
X63113269Y-24863538D01*
X63113269Y-24863538D02*
X63040698Y-24863538D01*
X63040698Y-24863538D02*
X62968127Y-24899824D01*
X62968127Y-24899824D02*
X62931841Y-24936109D01*
X62931841Y-24936109D02*
X62895555Y-25008681D01*
X62895555Y-25008681D02*
X62859269Y-25153824D01*
X62859269Y-25153824D02*
X62859269Y-25335252D01*
X62859269Y-25335252D02*
X62895555Y-25480395D01*
X62895555Y-25480395D02*
X62931841Y-25552966D01*
X62931841Y-25552966D02*
X62968127Y-25589252D01*
X62968127Y-25589252D02*
X63040698Y-25625538D01*
X46240413Y-25625538D02*
X46675842Y-25625538D01*
X46458127Y-24863538D02*
X46458127Y-25625538D01*
X46857270Y-25625538D02*
X47365270Y-24863538D01*
X47365270Y-25625538D02*
X46857270Y-24863538D01*
X47619269Y-25552966D02*
X47655555Y-25589252D01*
X47655555Y-25589252D02*
X47728127Y-25625538D01*
X47728127Y-25625538D02*
X47909555Y-25625538D01*
X47909555Y-25625538D02*
X47982127Y-25589252D01*
X47982127Y-25589252D02*
X48018412Y-25552966D01*
X48018412Y-25552966D02*
X48054698Y-25480395D01*
X48054698Y-25480395D02*
X48054698Y-25407824D01*
X48054698Y-25407824D02*
X48018412Y-25298966D01*
X48018412Y-25298966D02*
X47582984Y-24863538D01*
X47582984Y-24863538D02*
X48054698Y-24863538D01*
X33836428Y-25589252D02*
X33763857Y-25625538D01*
X33763857Y-25625538D02*
X33654999Y-25625538D01*
X33654999Y-25625538D02*
X33546142Y-25589252D01*
X33546142Y-25589252D02*
X33473571Y-25516681D01*
X33473571Y-25516681D02*
X33437285Y-25444109D01*
X33437285Y-25444109D02*
X33400999Y-25298966D01*
X33400999Y-25298966D02*
X33400999Y-25190109D01*
X33400999Y-25190109D02*
X33437285Y-25044966D01*
X33437285Y-25044966D02*
X33473571Y-24972395D01*
X33473571Y-24972395D02*
X33546142Y-24899824D01*
X33546142Y-24899824D02*
X33654999Y-24863538D01*
X33654999Y-24863538D02*
X33727571Y-24863538D01*
X33727571Y-24863538D02*
X33836428Y-24899824D01*
X33836428Y-24899824D02*
X33872714Y-24936109D01*
X33872714Y-24936109D02*
X33872714Y-25190109D01*
X33872714Y-25190109D02*
X33727571Y-25190109D01*
X34199285Y-24863538D02*
X34199285Y-25625538D01*
X34199285Y-25625538D02*
X34634714Y-24863538D01*
X34634714Y-24863538D02*
X34634714Y-25625538D01*
X34997571Y-24863538D02*
X34997571Y-25625538D01*
X34997571Y-25625538D02*
X35179000Y-25625538D01*
X35179000Y-25625538D02*
X35287857Y-25589252D01*
X35287857Y-25589252D02*
X35360428Y-25516681D01*
X35360428Y-25516681D02*
X35396714Y-25444109D01*
X35396714Y-25444109D02*
X35433000Y-25298966D01*
X35433000Y-25298966D02*
X35433000Y-25190109D01*
X35433000Y-25190109D02*
X35396714Y-25044966D01*
X35396714Y-25044966D02*
X35360428Y-24972395D01*
X35360428Y-24972395D02*
X35287857Y-24899824D01*
X35287857Y-24899824D02*
X35179000Y-24863538D01*
X35179000Y-24863538D02*
X34997571Y-24863538D01*
X61988413Y-46961538D02*
X62242413Y-46199538D01*
X62242413Y-46199538D02*
X62496413Y-46961538D01*
X62750413Y-46199538D02*
X62750413Y-46961538D01*
X62750413Y-46961538D02*
X63185842Y-46199538D01*
X63185842Y-46199538D02*
X63185842Y-46961538D01*
X30933572Y-25625538D02*
X31405286Y-25625538D01*
X31405286Y-25625538D02*
X31151286Y-25335252D01*
X31151286Y-25335252D02*
X31260143Y-25335252D01*
X31260143Y-25335252D02*
X31332715Y-25298966D01*
X31332715Y-25298966D02*
X31369000Y-25262681D01*
X31369000Y-25262681D02*
X31405286Y-25190109D01*
X31405286Y-25190109D02*
X31405286Y-25008681D01*
X31405286Y-25008681D02*
X31369000Y-24936109D01*
X31369000Y-24936109D02*
X31332715Y-24899824D01*
X31332715Y-24899824D02*
X31260143Y-24863538D01*
X31260143Y-24863538D02*
X31042429Y-24863538D01*
X31042429Y-24863538D02*
X30969857Y-24899824D01*
X30969857Y-24899824D02*
X30933572Y-24936109D01*
X31623000Y-25625538D02*
X31877000Y-24863538D01*
X31877000Y-24863538D02*
X32131000Y-25625538D01*
X32312429Y-25625538D02*
X32784143Y-25625538D01*
X32784143Y-25625538D02*
X32530143Y-25335252D01*
X32530143Y-25335252D02*
X32639000Y-25335252D01*
X32639000Y-25335252D02*
X32711572Y-25298966D01*
X32711572Y-25298966D02*
X32747857Y-25262681D01*
X32747857Y-25262681D02*
X32784143Y-25190109D01*
X32784143Y-25190109D02*
X32784143Y-25008681D01*
X32784143Y-25008681D02*
X32747857Y-24936109D01*
X32747857Y-24936109D02*
X32711572Y-24899824D01*
X32711572Y-24899824D02*
X32639000Y-24863538D01*
X32639000Y-24863538D02*
X32421286Y-24863538D01*
X32421286Y-24863538D02*
X32348714Y-24899824D01*
X32348714Y-24899824D02*
X32312429Y-24936109D01*
X38983270Y-24863538D02*
X38983270Y-25625538D01*
X38983270Y-25625538D02*
X39164699Y-25625538D01*
X39164699Y-25625538D02*
X39273556Y-25589252D01*
X39273556Y-25589252D02*
X39346127Y-25516681D01*
X39346127Y-25516681D02*
X39382413Y-25444109D01*
X39382413Y-25444109D02*
X39418699Y-25298966D01*
X39418699Y-25298966D02*
X39418699Y-25190109D01*
X39418699Y-25190109D02*
X39382413Y-25044966D01*
X39382413Y-25044966D02*
X39346127Y-24972395D01*
X39346127Y-24972395D02*
X39273556Y-24899824D01*
X39273556Y-24899824D02*
X39164699Y-24863538D01*
X39164699Y-24863538D02*
X38983270Y-24863538D01*
X39708984Y-25552966D02*
X39745270Y-25589252D01*
X39745270Y-25589252D02*
X39817842Y-25625538D01*
X39817842Y-25625538D02*
X39999270Y-25625538D01*
X39999270Y-25625538D02*
X40071842Y-25589252D01*
X40071842Y-25589252D02*
X40108127Y-25552966D01*
X40108127Y-25552966D02*
X40144413Y-25480395D01*
X40144413Y-25480395D02*
X40144413Y-25407824D01*
X40144413Y-25407824D02*
X40108127Y-25298966D01*
X40108127Y-25298966D02*
X39672699Y-24863538D01*
X39672699Y-24863538D02*
X40144413Y-24863538D01*
X41523270Y-24863538D02*
X41523270Y-25625538D01*
X41523270Y-25625538D02*
X41704699Y-25625538D01*
X41704699Y-25625538D02*
X41813556Y-25589252D01*
X41813556Y-25589252D02*
X41886127Y-25516681D01*
X41886127Y-25516681D02*
X41922413Y-25444109D01*
X41922413Y-25444109D02*
X41958699Y-25298966D01*
X41958699Y-25298966D02*
X41958699Y-25190109D01*
X41958699Y-25190109D02*
X41922413Y-25044966D01*
X41922413Y-25044966D02*
X41886127Y-24972395D01*
X41886127Y-24972395D02*
X41813556Y-24899824D01*
X41813556Y-24899824D02*
X41704699Y-24863538D01*
X41704699Y-24863538D02*
X41523270Y-24863538D01*
X42611842Y-25371538D02*
X42611842Y-24863538D01*
X42430413Y-25661824D02*
X42248984Y-25117538D01*
X42248984Y-25117538D02*
X42720699Y-25117538D01*
X38825714Y-46199538D02*
X38825714Y-46961538D01*
X38825714Y-46961538D02*
X39007143Y-46961538D01*
X39007143Y-46961538D02*
X39116000Y-46925252D01*
X39116000Y-46925252D02*
X39188571Y-46852681D01*
X39188571Y-46852681D02*
X39224857Y-46780109D01*
X39224857Y-46780109D02*
X39261143Y-46634966D01*
X39261143Y-46634966D02*
X39261143Y-46526109D01*
X39261143Y-46526109D02*
X39224857Y-46380966D01*
X39224857Y-46380966D02*
X39188571Y-46308395D01*
X39188571Y-46308395D02*
X39116000Y-46235824D01*
X39116000Y-46235824D02*
X39007143Y-46199538D01*
X39007143Y-46199538D02*
X38825714Y-46199538D01*
X39986857Y-46199538D02*
X39551428Y-46199538D01*
X39769143Y-46199538D02*
X39769143Y-46961538D01*
X39769143Y-46961538D02*
X39696571Y-46852681D01*
X39696571Y-46852681D02*
X39624000Y-46780109D01*
X39624000Y-46780109D02*
X39551428Y-46743824D01*
X40277142Y-46888966D02*
X40313428Y-46925252D01*
X40313428Y-46925252D02*
X40386000Y-46961538D01*
X40386000Y-46961538D02*
X40567428Y-46961538D01*
X40567428Y-46961538D02*
X40640000Y-46925252D01*
X40640000Y-46925252D02*
X40676285Y-46888966D01*
X40676285Y-46888966D02*
X40712571Y-46816395D01*
X40712571Y-46816395D02*
X40712571Y-46743824D01*
X40712571Y-46743824D02*
X40676285Y-46634966D01*
X40676285Y-46634966D02*
X40240857Y-46199538D01*
X40240857Y-46199538D02*
X40712571Y-46199538D01*
X43905714Y-46199538D02*
X43905714Y-46961538D01*
X43905714Y-46961538D02*
X44087143Y-46961538D01*
X44087143Y-46961538D02*
X44196000Y-46925252D01*
X44196000Y-46925252D02*
X44268571Y-46852681D01*
X44268571Y-46852681D02*
X44304857Y-46780109D01*
X44304857Y-46780109D02*
X44341143Y-46634966D01*
X44341143Y-46634966D02*
X44341143Y-46526109D01*
X44341143Y-46526109D02*
X44304857Y-46380966D01*
X44304857Y-46380966D02*
X44268571Y-46308395D01*
X44268571Y-46308395D02*
X44196000Y-46235824D01*
X44196000Y-46235824D02*
X44087143Y-46199538D01*
X44087143Y-46199538D02*
X43905714Y-46199538D01*
X44631428Y-46888966D02*
X44667714Y-46925252D01*
X44667714Y-46925252D02*
X44740286Y-46961538D01*
X44740286Y-46961538D02*
X44921714Y-46961538D01*
X44921714Y-46961538D02*
X44994286Y-46925252D01*
X44994286Y-46925252D02*
X45030571Y-46888966D01*
X45030571Y-46888966D02*
X45066857Y-46816395D01*
X45066857Y-46816395D02*
X45066857Y-46743824D01*
X45066857Y-46743824D02*
X45030571Y-46634966D01*
X45030571Y-46634966D02*
X44595143Y-46199538D01*
X44595143Y-46199538D02*
X45066857Y-46199538D01*
X45320857Y-46961538D02*
X45828857Y-46961538D01*
X45828857Y-46961538D02*
X45502285Y-46199538D01*
X66923270Y-46598681D02*
X67177270Y-46598681D01*
X67286127Y-46199538D02*
X66923270Y-46199538D01*
X66923270Y-46199538D02*
X66923270Y-46961538D01*
X66923270Y-46961538D02*
X67286127Y-46961538D01*
X67612699Y-46199538D02*
X67612699Y-46961538D01*
X67612699Y-46961538D02*
X68048128Y-46199538D01*
X68048128Y-46199538D02*
X68048128Y-46961538D01*
X64528413Y-46961538D02*
X64782413Y-46199538D01*
X64782413Y-46199538D02*
X65036413Y-46961538D01*
X65290413Y-46199538D02*
X65290413Y-46961538D01*
X65290413Y-46961538D02*
X65580699Y-46961538D01*
X65580699Y-46961538D02*
X65653270Y-46925252D01*
X65653270Y-46925252D02*
X65689556Y-46888966D01*
X65689556Y-46888966D02*
X65725842Y-46816395D01*
X65725842Y-46816395D02*
X65725842Y-46707538D01*
X65725842Y-46707538D02*
X65689556Y-46634966D01*
X65689556Y-46634966D02*
X65653270Y-46598681D01*
X65653270Y-46598681D02*
X65580699Y-46562395D01*
X65580699Y-46562395D02*
X65290413Y-46562395D01*
X44244699Y-24863538D02*
X43990699Y-25226395D01*
X43809270Y-24863538D02*
X43809270Y-25625538D01*
X43809270Y-25625538D02*
X44099556Y-25625538D01*
X44099556Y-25625538D02*
X44172127Y-25589252D01*
X44172127Y-25589252D02*
X44208413Y-25552966D01*
X44208413Y-25552966D02*
X44244699Y-25480395D01*
X44244699Y-25480395D02*
X44244699Y-25371538D01*
X44244699Y-25371538D02*
X44208413Y-25298966D01*
X44208413Y-25298966D02*
X44172127Y-25262681D01*
X44172127Y-25262681D02*
X44099556Y-25226395D01*
X44099556Y-25226395D02*
X43809270Y-25226395D01*
X44498699Y-25625538D02*
X45006699Y-24863538D01*
X45006699Y-25625538D02*
X44498699Y-24863538D01*
X45260698Y-25552966D02*
X45296984Y-25589252D01*
X45296984Y-25589252D02*
X45369556Y-25625538D01*
X45369556Y-25625538D02*
X45550984Y-25625538D01*
X45550984Y-25625538D02*
X45623556Y-25589252D01*
X45623556Y-25589252D02*
X45659841Y-25552966D01*
X45659841Y-25552966D02*
X45696127Y-25480395D01*
X45696127Y-25480395D02*
X45696127Y-25407824D01*
X45696127Y-25407824D02*
X45659841Y-25298966D01*
X45659841Y-25298966D02*
X45224413Y-24863538D01*
X45224413Y-24863538D02*
X45696127Y-24863538D01*
X49143270Y-24863538D02*
X49143270Y-25625538D01*
X49143270Y-25625538D02*
X49324699Y-25625538D01*
X49324699Y-25625538D02*
X49433556Y-25589252D01*
X49433556Y-25589252D02*
X49506127Y-25516681D01*
X49506127Y-25516681D02*
X49542413Y-25444109D01*
X49542413Y-25444109D02*
X49578699Y-25298966D01*
X49578699Y-25298966D02*
X49578699Y-25190109D01*
X49578699Y-25190109D02*
X49542413Y-25044966D01*
X49542413Y-25044966D02*
X49506127Y-24972395D01*
X49506127Y-24972395D02*
X49433556Y-24899824D01*
X49433556Y-24899824D02*
X49324699Y-24863538D01*
X49324699Y-24863538D02*
X49143270Y-24863538D01*
X50268127Y-25625538D02*
X49905270Y-25625538D01*
X49905270Y-25625538D02*
X49868984Y-25262681D01*
X49868984Y-25262681D02*
X49905270Y-25298966D01*
X49905270Y-25298966D02*
X49977842Y-25335252D01*
X49977842Y-25335252D02*
X50159270Y-25335252D01*
X50159270Y-25335252D02*
X50231842Y-25298966D01*
X50231842Y-25298966D02*
X50268127Y-25262681D01*
X50268127Y-25262681D02*
X50304413Y-25190109D01*
X50304413Y-25190109D02*
X50304413Y-25008681D01*
X50304413Y-25008681D02*
X50268127Y-24936109D01*
X50268127Y-24936109D02*
X50231842Y-24899824D01*
X50231842Y-24899824D02*
X50159270Y-24863538D01*
X50159270Y-24863538D02*
X49977842Y-24863538D01*
X49977842Y-24863538D02*
X49905270Y-24899824D01*
X49905270Y-24899824D02*
X49868984Y-24936109D01*
X64129270Y-24863538D02*
X64129270Y-25625538D01*
X64129270Y-25625538D02*
X64310699Y-25625538D01*
X64310699Y-25625538D02*
X64419556Y-25589252D01*
X64419556Y-25589252D02*
X64492127Y-25516681D01*
X64492127Y-25516681D02*
X64528413Y-25444109D01*
X64528413Y-25444109D02*
X64564699Y-25298966D01*
X64564699Y-25298966D02*
X64564699Y-25190109D01*
X64564699Y-25190109D02*
X64528413Y-25044966D01*
X64528413Y-25044966D02*
X64492127Y-24972395D01*
X64492127Y-24972395D02*
X64419556Y-24899824D01*
X64419556Y-24899824D02*
X64310699Y-24863538D01*
X64310699Y-24863538D02*
X64129270Y-24863538D01*
X64854984Y-25552966D02*
X64891270Y-25589252D01*
X64891270Y-25589252D02*
X64963842Y-25625538D01*
X64963842Y-25625538D02*
X65145270Y-25625538D01*
X65145270Y-25625538D02*
X65217842Y-25589252D01*
X65217842Y-25589252D02*
X65254127Y-25552966D01*
X65254127Y-25552966D02*
X65290413Y-25480395D01*
X65290413Y-25480395D02*
X65290413Y-25407824D01*
X65290413Y-25407824D02*
X65254127Y-25298966D01*
X65254127Y-25298966D02*
X64818699Y-24863538D01*
X64818699Y-24863538D02*
X65290413Y-24863538D01*
X65580698Y-25552966D02*
X65616984Y-25589252D01*
X65616984Y-25589252D02*
X65689556Y-25625538D01*
X65689556Y-25625538D02*
X65870984Y-25625538D01*
X65870984Y-25625538D02*
X65943556Y-25589252D01*
X65943556Y-25589252D02*
X65979841Y-25552966D01*
X65979841Y-25552966D02*
X66016127Y-25480395D01*
X66016127Y-25480395D02*
X66016127Y-25407824D01*
X66016127Y-25407824D02*
X65979841Y-25298966D01*
X65979841Y-25298966D02*
X65544413Y-24863538D01*
X65544413Y-24863538D02*
X66016127Y-24863538D01*
X46445714Y-46199538D02*
X46445714Y-46961538D01*
X46445714Y-46961538D02*
X46627143Y-46961538D01*
X46627143Y-46961538D02*
X46736000Y-46925252D01*
X46736000Y-46925252D02*
X46808571Y-46852681D01*
X46808571Y-46852681D02*
X46844857Y-46780109D01*
X46844857Y-46780109D02*
X46881143Y-46634966D01*
X46881143Y-46634966D02*
X46881143Y-46526109D01*
X46881143Y-46526109D02*
X46844857Y-46380966D01*
X46844857Y-46380966D02*
X46808571Y-46308395D01*
X46808571Y-46308395D02*
X46736000Y-46235824D01*
X46736000Y-46235824D02*
X46627143Y-46199538D01*
X46627143Y-46199538D02*
X46445714Y-46199538D01*
X47171428Y-46888966D02*
X47207714Y-46925252D01*
X47207714Y-46925252D02*
X47280286Y-46961538D01*
X47280286Y-46961538D02*
X47461714Y-46961538D01*
X47461714Y-46961538D02*
X47534286Y-46925252D01*
X47534286Y-46925252D02*
X47570571Y-46888966D01*
X47570571Y-46888966D02*
X47606857Y-46816395D01*
X47606857Y-46816395D02*
X47606857Y-46743824D01*
X47606857Y-46743824D02*
X47570571Y-46634966D01*
X47570571Y-46634966D02*
X47135143Y-46199538D01*
X47135143Y-46199538D02*
X47606857Y-46199538D01*
X48260000Y-46961538D02*
X48114857Y-46961538D01*
X48114857Y-46961538D02*
X48042285Y-46925252D01*
X48042285Y-46925252D02*
X48006000Y-46888966D01*
X48006000Y-46888966D02*
X47933428Y-46780109D01*
X47933428Y-46780109D02*
X47897142Y-46634966D01*
X47897142Y-46634966D02*
X47897142Y-46344681D01*
X47897142Y-46344681D02*
X47933428Y-46272109D01*
X47933428Y-46272109D02*
X47969714Y-46235824D01*
X47969714Y-46235824D02*
X48042285Y-46199538D01*
X48042285Y-46199538D02*
X48187428Y-46199538D01*
X48187428Y-46199538D02*
X48260000Y-46235824D01*
X48260000Y-46235824D02*
X48296285Y-46272109D01*
X48296285Y-46272109D02*
X48332571Y-46344681D01*
X48332571Y-46344681D02*
X48332571Y-46526109D01*
X48332571Y-46526109D02*
X48296285Y-46598681D01*
X48296285Y-46598681D02*
X48260000Y-46634966D01*
X48260000Y-46634966D02*
X48187428Y-46671252D01*
X48187428Y-46671252D02*
X48042285Y-46671252D01*
X48042285Y-46671252D02*
X47969714Y-46634966D01*
X47969714Y-46634966D02*
X47933428Y-46598681D01*
X47933428Y-46598681D02*
X47897142Y-46526109D01*
X59303270Y-46199538D02*
X59303270Y-46961538D01*
X59303270Y-46961538D02*
X59484699Y-46961538D01*
X59484699Y-46961538D02*
X59593556Y-46925252D01*
X59593556Y-46925252D02*
X59666127Y-46852681D01*
X59666127Y-46852681D02*
X59702413Y-46780109D01*
X59702413Y-46780109D02*
X59738699Y-46634966D01*
X59738699Y-46634966D02*
X59738699Y-46526109D01*
X59738699Y-46526109D02*
X59702413Y-46380966D01*
X59702413Y-46380966D02*
X59666127Y-46308395D01*
X59666127Y-46308395D02*
X59593556Y-46235824D01*
X59593556Y-46235824D02*
X59484699Y-46199538D01*
X59484699Y-46199538D02*
X59303270Y-46199538D01*
X59992699Y-46961538D02*
X60464413Y-46961538D01*
X60464413Y-46961538D02*
X60210413Y-46671252D01*
X60210413Y-46671252D02*
X60319270Y-46671252D01*
X60319270Y-46671252D02*
X60391842Y-46634966D01*
X60391842Y-46634966D02*
X60428127Y-46598681D01*
X60428127Y-46598681D02*
X60464413Y-46526109D01*
X60464413Y-46526109D02*
X60464413Y-46344681D01*
X60464413Y-46344681D02*
X60428127Y-46272109D01*
X60428127Y-46272109D02*
X60391842Y-46235824D01*
X60391842Y-46235824D02*
X60319270Y-46199538D01*
X60319270Y-46199538D02*
X60101556Y-46199538D01*
X60101556Y-46199538D02*
X60028984Y-46235824D01*
X60028984Y-46235824D02*
X59992699Y-46272109D01*
X61117556Y-46707538D02*
X61117556Y-46199538D01*
X60936127Y-46997824D02*
X60754698Y-46453538D01*
X60754698Y-46453538D02*
X61226413Y-46453538D01*
X48985714Y-46199538D02*
X48985714Y-46961538D01*
X48985714Y-46961538D02*
X49167143Y-46961538D01*
X49167143Y-46961538D02*
X49276000Y-46925252D01*
X49276000Y-46925252D02*
X49348571Y-46852681D01*
X49348571Y-46852681D02*
X49384857Y-46780109D01*
X49384857Y-46780109D02*
X49421143Y-46634966D01*
X49421143Y-46634966D02*
X49421143Y-46526109D01*
X49421143Y-46526109D02*
X49384857Y-46380966D01*
X49384857Y-46380966D02*
X49348571Y-46308395D01*
X49348571Y-46308395D02*
X49276000Y-46235824D01*
X49276000Y-46235824D02*
X49167143Y-46199538D01*
X49167143Y-46199538D02*
X48985714Y-46199538D01*
X49711428Y-46888966D02*
X49747714Y-46925252D01*
X49747714Y-46925252D02*
X49820286Y-46961538D01*
X49820286Y-46961538D02*
X50001714Y-46961538D01*
X50001714Y-46961538D02*
X50074286Y-46925252D01*
X50074286Y-46925252D02*
X50110571Y-46888966D01*
X50110571Y-46888966D02*
X50146857Y-46816395D01*
X50146857Y-46816395D02*
X50146857Y-46743824D01*
X50146857Y-46743824D02*
X50110571Y-46634966D01*
X50110571Y-46634966D02*
X49675143Y-46199538D01*
X49675143Y-46199538D02*
X50146857Y-46199538D01*
X50836285Y-46961538D02*
X50473428Y-46961538D01*
X50473428Y-46961538D02*
X50437142Y-46598681D01*
X50437142Y-46598681D02*
X50473428Y-46634966D01*
X50473428Y-46634966D02*
X50546000Y-46671252D01*
X50546000Y-46671252D02*
X50727428Y-46671252D01*
X50727428Y-46671252D02*
X50800000Y-46634966D01*
X50800000Y-46634966D02*
X50836285Y-46598681D01*
X50836285Y-46598681D02*
X50872571Y-46526109D01*
X50872571Y-46526109D02*
X50872571Y-46344681D01*
X50872571Y-46344681D02*
X50836285Y-46272109D01*
X50836285Y-46272109D02*
X50800000Y-46235824D01*
X50800000Y-46235824D02*
X50727428Y-46199538D01*
X50727428Y-46199538D02*
X50546000Y-46199538D01*
X50546000Y-46199538D02*
X50473428Y-46235824D01*
X50473428Y-46235824D02*
X50437142Y-46272109D01*
%LPC*%
D13*
X84074000Y-82931000D03*
X81534000Y-82931000D03*
X73406000Y-82931000D03*
X70866000Y-82931000D03*
X84074000Y-64389000D03*
X81534000Y-64389000D03*
X73406000Y-64389000D03*
X70866000Y-64389000D03*
D14*
X97536000Y-60880000D03*
D15*
X97536000Y-55880000D03*
X97536000Y-50880000D03*
X97536000Y-45880000D03*
D14*
X97536000Y-40640000D03*
D15*
X97536000Y-35640000D03*
X97536000Y-30640000D03*
X97536000Y-25640000D03*
D14*
X97536000Y-81280000D03*
D15*
X97536000Y-76280000D03*
X97536000Y-71280000D03*
X97536000Y-66280000D03*
D16*
X67945000Y-23495000D03*
D17*
X65405000Y-23495000D03*
X62865000Y-23495000D03*
X60325000Y-23495000D03*
X57785000Y-23495000D03*
X55245000Y-23495000D03*
X52705000Y-23495000D03*
X50165000Y-23495000D03*
X47625000Y-23495000D03*
X45085000Y-23495000D03*
X42545000Y-23495000D03*
X40005000Y-23495000D03*
X37465000Y-23495000D03*
X34925000Y-23495000D03*
X32385000Y-23495000D03*
X32385000Y-48895000D03*
X34925000Y-48895000D03*
X37465000Y-48895000D03*
X40005000Y-48895000D03*
X42545000Y-48895000D03*
X45085000Y-48895000D03*
X47625000Y-48895000D03*
X50165000Y-48895000D03*
X52705000Y-48895000D03*
X55245000Y-48895000D03*
X57785000Y-48895000D03*
X60325000Y-48895000D03*
X62865000Y-48895000D03*
X65405000Y-48895000D03*
X67945000Y-48895000D03*
D18*
X46875500Y-82550000D03*
D19*
X46875500Y-80010000D03*
X46875500Y-77470000D03*
X46875500Y-74930000D03*
X46875500Y-72390000D03*
X46875500Y-69850000D03*
%LPD*%
M02*
