G04 #@! TF.GenerationSoftware,KiCad,Pcbnew,8.0.2*
G04 #@! TF.CreationDate,2024-07-01T07:58:37+02:00*
G04 #@! TF.ProjectId,energiRegistrationForHA,656e6572-6769-4526-9567-697374726174,0*
G04 #@! TF.SameCoordinates,Original*
G04 #@! TF.FileFunction,Soldermask,Bot*
G04 #@! TF.FilePolarity,Negative*
%FSLAX46Y46*%
G04 Gerber Fmt 4.6, Leading zero omitted, Abs format (unit mm)*
G04 Created by KiCad (PCBNEW 8.0.2) date 2024-07-01 07:58:37*
%MOMM*%
%LPD*%
G01*
G04 APERTURE LIST*
G04 APERTURE END LIST*
G36*
X70914339Y-81869761D02*
G01*
X70964336Y-81869761D01*
X71020016Y-81880169D01*
X71073966Y-81885483D01*
X71114950Y-81897915D01*
X71157665Y-81905900D01*
X71216820Y-81928816D01*
X71273941Y-81946144D01*
X71306579Y-81963589D01*
X71341064Y-81976949D01*
X71400983Y-82014049D01*
X71458238Y-82044653D01*
X71482294Y-82064395D01*
X71508278Y-82080484D01*
X71565853Y-82132970D01*
X71619776Y-82177224D01*
X71635754Y-82196694D01*
X71653625Y-82212985D01*
X71705504Y-82281684D01*
X71752347Y-82338762D01*
X71761405Y-82355708D01*
X71772150Y-82369937D01*
X71814893Y-82455778D01*
X71850856Y-82523059D01*
X71854691Y-82535704D01*
X71859815Y-82545993D01*
X71890091Y-82652404D01*
X71911517Y-82723034D01*
X71912220Y-82730177D01*
X71913638Y-82735159D01*
X71928367Y-82894122D01*
X71932000Y-82931000D01*
X71928367Y-82967880D01*
X71913638Y-83126840D01*
X71912220Y-83131821D01*
X71911517Y-83138966D01*
X71890087Y-83209610D01*
X71859815Y-83316006D01*
X71854692Y-83326293D01*
X71850856Y-83338941D01*
X71814886Y-83406234D01*
X71772150Y-83492062D01*
X71761406Y-83506288D01*
X71752347Y-83523238D01*
X71705494Y-83580327D01*
X71653625Y-83649014D01*
X71635758Y-83665301D01*
X71619776Y-83684776D01*
X71565842Y-83729038D01*
X71508278Y-83781515D01*
X71482299Y-83797600D01*
X71458238Y-83817347D01*
X71400971Y-83847956D01*
X71341064Y-83885050D01*
X71306586Y-83898406D01*
X71273941Y-83915856D01*
X71216808Y-83933186D01*
X71157665Y-83956099D01*
X71114957Y-83964082D01*
X71073966Y-83976517D01*
X71020013Y-83981830D01*
X70964336Y-83992239D01*
X70914339Y-83992239D01*
X70866000Y-83997000D01*
X70817661Y-83992239D01*
X70767664Y-83992239D01*
X70711985Y-83981830D01*
X70658034Y-83976517D01*
X70617043Y-83964082D01*
X70574334Y-83956099D01*
X70515186Y-83933185D01*
X70458059Y-83915856D01*
X70425416Y-83898408D01*
X70390935Y-83885050D01*
X70331020Y-83847952D01*
X70273762Y-83817347D01*
X70249703Y-83797603D01*
X70223721Y-83781515D01*
X70166147Y-83729029D01*
X70112224Y-83684776D01*
X70096244Y-83665305D01*
X70078374Y-83649014D01*
X70026492Y-83580312D01*
X69979653Y-83523238D01*
X69970595Y-83506292D01*
X69959849Y-83492062D01*
X69917098Y-83406207D01*
X69881144Y-83338941D01*
X69877308Y-83326298D01*
X69872184Y-83316006D01*
X69841896Y-83209557D01*
X69820483Y-83138966D01*
X69819779Y-83131826D01*
X69818361Y-83126840D01*
X69803615Y-82967708D01*
X69800000Y-82931000D01*
X69803615Y-82894294D01*
X69818361Y-82735159D01*
X69819779Y-82730171D01*
X69820483Y-82723034D01*
X69841891Y-82652457D01*
X69872184Y-82545993D01*
X69877309Y-82535699D01*
X69881144Y-82523059D01*
X69917091Y-82455806D01*
X69959849Y-82369937D01*
X69970597Y-82355704D01*
X69979653Y-82338762D01*
X70026483Y-82281699D01*
X70078374Y-82212985D01*
X70096248Y-82196690D01*
X70112224Y-82177224D01*
X70166136Y-82132979D01*
X70223721Y-82080484D01*
X70249708Y-82064392D01*
X70273762Y-82044653D01*
X70331008Y-82014053D01*
X70390935Y-81976949D01*
X70425423Y-81963588D01*
X70458059Y-81946144D01*
X70515175Y-81928818D01*
X70574334Y-81905900D01*
X70617050Y-81897915D01*
X70658034Y-81885483D01*
X70711982Y-81880169D01*
X70767664Y-81869761D01*
X70817661Y-81869761D01*
X70866000Y-81865000D01*
X70914339Y-81869761D01*
G37*
G36*
X73454339Y-81869761D02*
G01*
X73504336Y-81869761D01*
X73560016Y-81880169D01*
X73613966Y-81885483D01*
X73654950Y-81897915D01*
X73697665Y-81905900D01*
X73756820Y-81928816D01*
X73813941Y-81946144D01*
X73846579Y-81963589D01*
X73881064Y-81976949D01*
X73940983Y-82014049D01*
X73998238Y-82044653D01*
X74022294Y-82064395D01*
X74048278Y-82080484D01*
X74105853Y-82132970D01*
X74159776Y-82177224D01*
X74175754Y-82196694D01*
X74193625Y-82212985D01*
X74245504Y-82281684D01*
X74292347Y-82338762D01*
X74301405Y-82355708D01*
X74312150Y-82369937D01*
X74354893Y-82455778D01*
X74390856Y-82523059D01*
X74394691Y-82535704D01*
X74399815Y-82545993D01*
X74430091Y-82652404D01*
X74451517Y-82723034D01*
X74452220Y-82730177D01*
X74453638Y-82735159D01*
X74468367Y-82894122D01*
X74472000Y-82931000D01*
X74468367Y-82967880D01*
X74453638Y-83126840D01*
X74452220Y-83131821D01*
X74451517Y-83138966D01*
X74430087Y-83209610D01*
X74399815Y-83316006D01*
X74394692Y-83326293D01*
X74390856Y-83338941D01*
X74354886Y-83406234D01*
X74312150Y-83492062D01*
X74301406Y-83506288D01*
X74292347Y-83523238D01*
X74245494Y-83580327D01*
X74193625Y-83649014D01*
X74175758Y-83665301D01*
X74159776Y-83684776D01*
X74105842Y-83729038D01*
X74048278Y-83781515D01*
X74022299Y-83797600D01*
X73998238Y-83817347D01*
X73940971Y-83847956D01*
X73881064Y-83885050D01*
X73846586Y-83898406D01*
X73813941Y-83915856D01*
X73756808Y-83933186D01*
X73697665Y-83956099D01*
X73654957Y-83964082D01*
X73613966Y-83976517D01*
X73560013Y-83981830D01*
X73504336Y-83992239D01*
X73454339Y-83992239D01*
X73406000Y-83997000D01*
X73357661Y-83992239D01*
X73307664Y-83992239D01*
X73251985Y-83981830D01*
X73198034Y-83976517D01*
X73157043Y-83964082D01*
X73114334Y-83956099D01*
X73055186Y-83933185D01*
X72998059Y-83915856D01*
X72965416Y-83898408D01*
X72930935Y-83885050D01*
X72871020Y-83847952D01*
X72813762Y-83817347D01*
X72789703Y-83797603D01*
X72763721Y-83781515D01*
X72706147Y-83729029D01*
X72652224Y-83684776D01*
X72636244Y-83665305D01*
X72618374Y-83649014D01*
X72566492Y-83580312D01*
X72519653Y-83523238D01*
X72510595Y-83506292D01*
X72499849Y-83492062D01*
X72457098Y-83406207D01*
X72421144Y-83338941D01*
X72417308Y-83326298D01*
X72412184Y-83316006D01*
X72381896Y-83209557D01*
X72360483Y-83138966D01*
X72359779Y-83131826D01*
X72358361Y-83126840D01*
X72343615Y-82967708D01*
X72340000Y-82931000D01*
X72343615Y-82894294D01*
X72358361Y-82735159D01*
X72359779Y-82730171D01*
X72360483Y-82723034D01*
X72381891Y-82652457D01*
X72412184Y-82545993D01*
X72417309Y-82535699D01*
X72421144Y-82523059D01*
X72457091Y-82455806D01*
X72499849Y-82369937D01*
X72510597Y-82355704D01*
X72519653Y-82338762D01*
X72566483Y-82281699D01*
X72618374Y-82212985D01*
X72636248Y-82196690D01*
X72652224Y-82177224D01*
X72706136Y-82132979D01*
X72763721Y-82080484D01*
X72789708Y-82064392D01*
X72813762Y-82044653D01*
X72871008Y-82014053D01*
X72930935Y-81976949D01*
X72965423Y-81963588D01*
X72998059Y-81946144D01*
X73055175Y-81928818D01*
X73114334Y-81905900D01*
X73157050Y-81897915D01*
X73198034Y-81885483D01*
X73251982Y-81880169D01*
X73307664Y-81869761D01*
X73357661Y-81869761D01*
X73406000Y-81865000D01*
X73454339Y-81869761D01*
G37*
G36*
X81582339Y-81869761D02*
G01*
X81632336Y-81869761D01*
X81688016Y-81880169D01*
X81741966Y-81885483D01*
X81782950Y-81897915D01*
X81825665Y-81905900D01*
X81884820Y-81928816D01*
X81941941Y-81946144D01*
X81974579Y-81963589D01*
X82009064Y-81976949D01*
X82068983Y-82014049D01*
X82126238Y-82044653D01*
X82150294Y-82064395D01*
X82176278Y-82080484D01*
X82233853Y-82132970D01*
X82287776Y-82177224D01*
X82303754Y-82196694D01*
X82321625Y-82212985D01*
X82373504Y-82281684D01*
X82420347Y-82338762D01*
X82429405Y-82355708D01*
X82440150Y-82369937D01*
X82482893Y-82455778D01*
X82518856Y-82523059D01*
X82522691Y-82535704D01*
X82527815Y-82545993D01*
X82558091Y-82652404D01*
X82579517Y-82723034D01*
X82580220Y-82730177D01*
X82581638Y-82735159D01*
X82596367Y-82894122D01*
X82600000Y-82931000D01*
X82596367Y-82967880D01*
X82581638Y-83126840D01*
X82580220Y-83131821D01*
X82579517Y-83138966D01*
X82558087Y-83209610D01*
X82527815Y-83316006D01*
X82522692Y-83326293D01*
X82518856Y-83338941D01*
X82482886Y-83406234D01*
X82440150Y-83492062D01*
X82429406Y-83506288D01*
X82420347Y-83523238D01*
X82373494Y-83580327D01*
X82321625Y-83649014D01*
X82303758Y-83665301D01*
X82287776Y-83684776D01*
X82233842Y-83729038D01*
X82176278Y-83781515D01*
X82150299Y-83797600D01*
X82126238Y-83817347D01*
X82068971Y-83847956D01*
X82009064Y-83885050D01*
X81974586Y-83898406D01*
X81941941Y-83915856D01*
X81884808Y-83933186D01*
X81825665Y-83956099D01*
X81782957Y-83964082D01*
X81741966Y-83976517D01*
X81688013Y-83981830D01*
X81632336Y-83992239D01*
X81582339Y-83992239D01*
X81534000Y-83997000D01*
X81485661Y-83992239D01*
X81435664Y-83992239D01*
X81379985Y-83981830D01*
X81326034Y-83976517D01*
X81285043Y-83964082D01*
X81242334Y-83956099D01*
X81183186Y-83933185D01*
X81126059Y-83915856D01*
X81093416Y-83898408D01*
X81058935Y-83885050D01*
X80999020Y-83847952D01*
X80941762Y-83817347D01*
X80917703Y-83797603D01*
X80891721Y-83781515D01*
X80834147Y-83729029D01*
X80780224Y-83684776D01*
X80764244Y-83665305D01*
X80746374Y-83649014D01*
X80694492Y-83580312D01*
X80647653Y-83523238D01*
X80638595Y-83506292D01*
X80627849Y-83492062D01*
X80585098Y-83406207D01*
X80549144Y-83338941D01*
X80545308Y-83326298D01*
X80540184Y-83316006D01*
X80509896Y-83209557D01*
X80488483Y-83138966D01*
X80487779Y-83131826D01*
X80486361Y-83126840D01*
X80471615Y-82967708D01*
X80468000Y-82931000D01*
X80471615Y-82894294D01*
X80486361Y-82735159D01*
X80487779Y-82730171D01*
X80488483Y-82723034D01*
X80509891Y-82652457D01*
X80540184Y-82545993D01*
X80545309Y-82535699D01*
X80549144Y-82523059D01*
X80585091Y-82455806D01*
X80627849Y-82369937D01*
X80638597Y-82355704D01*
X80647653Y-82338762D01*
X80694483Y-82281699D01*
X80746374Y-82212985D01*
X80764248Y-82196690D01*
X80780224Y-82177224D01*
X80834136Y-82132979D01*
X80891721Y-82080484D01*
X80917708Y-82064392D01*
X80941762Y-82044653D01*
X80999008Y-82014053D01*
X81058935Y-81976949D01*
X81093423Y-81963588D01*
X81126059Y-81946144D01*
X81183175Y-81928818D01*
X81242334Y-81905900D01*
X81285050Y-81897915D01*
X81326034Y-81885483D01*
X81379982Y-81880169D01*
X81435664Y-81869761D01*
X81485661Y-81869761D01*
X81534000Y-81865000D01*
X81582339Y-81869761D01*
G37*
G36*
X84122339Y-81869761D02*
G01*
X84172336Y-81869761D01*
X84228016Y-81880169D01*
X84281966Y-81885483D01*
X84322950Y-81897915D01*
X84365665Y-81905900D01*
X84424820Y-81928816D01*
X84481941Y-81946144D01*
X84514579Y-81963589D01*
X84549064Y-81976949D01*
X84608983Y-82014049D01*
X84666238Y-82044653D01*
X84690294Y-82064395D01*
X84716278Y-82080484D01*
X84773853Y-82132970D01*
X84827776Y-82177224D01*
X84843754Y-82196694D01*
X84861625Y-82212985D01*
X84913504Y-82281684D01*
X84960347Y-82338762D01*
X84969405Y-82355708D01*
X84980150Y-82369937D01*
X85022893Y-82455778D01*
X85058856Y-82523059D01*
X85062691Y-82535704D01*
X85067815Y-82545993D01*
X85098091Y-82652404D01*
X85119517Y-82723034D01*
X85120220Y-82730177D01*
X85121638Y-82735159D01*
X85136367Y-82894122D01*
X85140000Y-82931000D01*
X85136367Y-82967880D01*
X85121638Y-83126840D01*
X85120220Y-83131821D01*
X85119517Y-83138966D01*
X85098087Y-83209610D01*
X85067815Y-83316006D01*
X85062692Y-83326293D01*
X85058856Y-83338941D01*
X85022886Y-83406234D01*
X84980150Y-83492062D01*
X84969406Y-83506288D01*
X84960347Y-83523238D01*
X84913494Y-83580327D01*
X84861625Y-83649014D01*
X84843758Y-83665301D01*
X84827776Y-83684776D01*
X84773842Y-83729038D01*
X84716278Y-83781515D01*
X84690299Y-83797600D01*
X84666238Y-83817347D01*
X84608971Y-83847956D01*
X84549064Y-83885050D01*
X84514586Y-83898406D01*
X84481941Y-83915856D01*
X84424808Y-83933186D01*
X84365665Y-83956099D01*
X84322957Y-83964082D01*
X84281966Y-83976517D01*
X84228013Y-83981830D01*
X84172336Y-83992239D01*
X84122339Y-83992239D01*
X84074000Y-83997000D01*
X84025661Y-83992239D01*
X83975664Y-83992239D01*
X83919985Y-83981830D01*
X83866034Y-83976517D01*
X83825043Y-83964082D01*
X83782334Y-83956099D01*
X83723186Y-83933185D01*
X83666059Y-83915856D01*
X83633416Y-83898408D01*
X83598935Y-83885050D01*
X83539020Y-83847952D01*
X83481762Y-83817347D01*
X83457703Y-83797603D01*
X83431721Y-83781515D01*
X83374147Y-83729029D01*
X83320224Y-83684776D01*
X83304244Y-83665305D01*
X83286374Y-83649014D01*
X83234492Y-83580312D01*
X83187653Y-83523238D01*
X83178595Y-83506292D01*
X83167849Y-83492062D01*
X83125098Y-83406207D01*
X83089144Y-83338941D01*
X83085308Y-83326298D01*
X83080184Y-83316006D01*
X83049896Y-83209557D01*
X83028483Y-83138966D01*
X83027779Y-83131826D01*
X83026361Y-83126840D01*
X83011615Y-82967708D01*
X83008000Y-82931000D01*
X83011615Y-82894294D01*
X83026361Y-82735159D01*
X83027779Y-82730171D01*
X83028483Y-82723034D01*
X83049891Y-82652457D01*
X83080184Y-82545993D01*
X83085309Y-82535699D01*
X83089144Y-82523059D01*
X83125091Y-82455806D01*
X83167849Y-82369937D01*
X83178597Y-82355704D01*
X83187653Y-82338762D01*
X83234483Y-82281699D01*
X83286374Y-82212985D01*
X83304248Y-82196690D01*
X83320224Y-82177224D01*
X83374136Y-82132979D01*
X83431721Y-82080484D01*
X83457708Y-82064392D01*
X83481762Y-82044653D01*
X83539008Y-82014053D01*
X83598935Y-81976949D01*
X83633423Y-81963588D01*
X83666059Y-81946144D01*
X83723175Y-81928818D01*
X83782334Y-81905900D01*
X83825050Y-81897915D01*
X83866034Y-81885483D01*
X83919982Y-81880169D01*
X83975664Y-81869761D01*
X84025661Y-81869761D01*
X84074000Y-81865000D01*
X84122339Y-81869761D01*
G37*
G36*
X47744634Y-81653806D02*
G01*
X47760855Y-81664645D01*
X47771694Y-81680866D01*
X47775500Y-81700000D01*
X47775500Y-83400000D01*
X47771694Y-83419134D01*
X47760855Y-83435355D01*
X47744634Y-83446194D01*
X47725500Y-83450000D01*
X46025500Y-83450000D01*
X46006366Y-83446194D01*
X45990145Y-83435355D01*
X45979306Y-83419134D01*
X45975500Y-83400000D01*
X45975500Y-81700000D01*
X45979306Y-81680866D01*
X45990145Y-81664645D01*
X46006366Y-81653806D01*
X46025500Y-81650000D01*
X47725500Y-81650000D01*
X47744634Y-81653806D01*
G37*
G36*
X98855134Y-79933806D02*
G01*
X98871355Y-79944645D01*
X98882194Y-79960866D01*
X98886000Y-79980000D01*
X98886000Y-82580000D01*
X98882194Y-82599134D01*
X98871355Y-82615355D01*
X98855134Y-82626194D01*
X98836000Y-82630000D01*
X96236000Y-82630000D01*
X96216866Y-82626194D01*
X96200645Y-82615355D01*
X96189806Y-82599134D01*
X96186000Y-82580000D01*
X96186000Y-79980000D01*
X96189806Y-79960866D01*
X96200645Y-79944645D01*
X96216866Y-79933806D01*
X96236000Y-79930000D01*
X98836000Y-79930000D01*
X98855134Y-79933806D01*
G37*
G36*
X46923107Y-79114930D02*
G01*
X46969576Y-79114930D01*
X47009702Y-79123459D01*
X47051033Y-79127530D01*
X47102960Y-79143282D01*
X47153615Y-79154049D01*
X47186027Y-79168479D01*
X47219821Y-79178731D01*
X47273523Y-79207435D01*
X47325500Y-79230577D01*
X47349665Y-79248134D01*
X47375378Y-79261878D01*
X47427833Y-79304927D01*
X47477718Y-79341170D01*
X47493912Y-79359155D01*
X47511725Y-79373774D01*
X47559589Y-79432097D01*
X47603615Y-79480993D01*
X47612865Y-79497015D01*
X47623621Y-79510121D01*
X47663408Y-79584557D01*
X47697691Y-79643937D01*
X47701634Y-79656074D01*
X47706768Y-79665678D01*
X47735068Y-79758971D01*
X47755833Y-79822879D01*
X47756564Y-79829834D01*
X47757969Y-79834466D01*
X47771651Y-79973385D01*
X47775500Y-80010000D01*
X47771651Y-80046617D01*
X47757969Y-80185533D01*
X47756564Y-80190164D01*
X47755833Y-80197121D01*
X47735063Y-80261042D01*
X47706768Y-80354321D01*
X47701635Y-80363923D01*
X47697691Y-80376063D01*
X47663401Y-80435454D01*
X47623621Y-80509878D01*
X47612867Y-80522981D01*
X47603615Y-80539007D01*
X47559580Y-80587912D01*
X47511725Y-80646225D01*
X47493915Y-80660840D01*
X47477718Y-80678830D01*
X47427823Y-80715080D01*
X47375378Y-80758121D01*
X47349671Y-80771861D01*
X47325500Y-80789423D01*
X47273512Y-80812569D01*
X47219821Y-80841268D01*
X47186034Y-80851517D01*
X47153615Y-80865951D01*
X47102949Y-80876720D01*
X47051033Y-80892469D01*
X47009710Y-80896538D01*
X46969576Y-80905070D01*
X46923097Y-80905070D01*
X46875500Y-80909758D01*
X46827903Y-80905070D01*
X46781424Y-80905070D01*
X46741289Y-80896539D01*
X46699966Y-80892469D01*
X46648046Y-80876719D01*
X46597385Y-80865951D01*
X46564967Y-80851517D01*
X46531178Y-80841268D01*
X46477481Y-80812566D01*
X46425500Y-80789423D01*
X46401331Y-80771863D01*
X46375621Y-80758121D01*
X46323167Y-80715074D01*
X46273282Y-80678830D01*
X46257087Y-80660843D01*
X46239274Y-80646225D01*
X46191408Y-80587899D01*
X46147385Y-80539007D01*
X46138134Y-80522985D01*
X46127378Y-80509878D01*
X46087585Y-80435431D01*
X46053309Y-80376063D01*
X46049366Y-80363928D01*
X46044231Y-80354321D01*
X46015921Y-80260996D01*
X45995167Y-80197121D01*
X45994436Y-80190169D01*
X45993030Y-80185533D01*
X45979332Y-80046466D01*
X45975500Y-80010000D01*
X45979332Y-79973536D01*
X45993030Y-79834466D01*
X45994436Y-79829829D01*
X45995167Y-79822879D01*
X46015916Y-79759017D01*
X46044231Y-79665678D01*
X46049366Y-79656069D01*
X46053309Y-79643937D01*
X46087578Y-79584581D01*
X46127378Y-79510121D01*
X46138136Y-79497011D01*
X46147385Y-79480993D01*
X46191398Y-79432110D01*
X46239274Y-79373774D01*
X46257090Y-79359152D01*
X46273282Y-79341170D01*
X46323157Y-79304933D01*
X46375621Y-79261878D01*
X46401336Y-79248132D01*
X46425500Y-79230577D01*
X46477470Y-79207438D01*
X46531178Y-79178731D01*
X46564974Y-79168478D01*
X46597385Y-79154049D01*
X46648035Y-79143282D01*
X46699966Y-79127530D01*
X46741298Y-79123459D01*
X46781424Y-79114930D01*
X46827893Y-79114930D01*
X46875500Y-79110241D01*
X46923107Y-79114930D01*
G37*
G36*
X46923107Y-76574930D02*
G01*
X46969576Y-76574930D01*
X47009702Y-76583459D01*
X47051033Y-76587530D01*
X47102960Y-76603282D01*
X47153615Y-76614049D01*
X47186027Y-76628479D01*
X47219821Y-76638731D01*
X47273523Y-76667435D01*
X47325500Y-76690577D01*
X47349665Y-76708134D01*
X47375378Y-76721878D01*
X47427833Y-76764927D01*
X47477718Y-76801170D01*
X47493912Y-76819155D01*
X47511725Y-76833774D01*
X47559589Y-76892097D01*
X47603615Y-76940993D01*
X47612865Y-76957015D01*
X47623621Y-76970121D01*
X47663408Y-77044557D01*
X47697691Y-77103937D01*
X47701634Y-77116074D01*
X47706768Y-77125678D01*
X47735068Y-77218971D01*
X47755833Y-77282879D01*
X47756564Y-77289834D01*
X47757969Y-77294466D01*
X47771651Y-77433385D01*
X47775500Y-77470000D01*
X47771651Y-77506617D01*
X47757969Y-77645533D01*
X47756564Y-77650164D01*
X47755833Y-77657121D01*
X47735063Y-77721042D01*
X47706768Y-77814321D01*
X47701635Y-77823923D01*
X47697691Y-77836063D01*
X47663401Y-77895454D01*
X47623621Y-77969878D01*
X47612867Y-77982981D01*
X47603615Y-77999007D01*
X47559580Y-78047912D01*
X47511725Y-78106225D01*
X47493915Y-78120840D01*
X47477718Y-78138830D01*
X47427823Y-78175080D01*
X47375378Y-78218121D01*
X47349671Y-78231861D01*
X47325500Y-78249423D01*
X47273512Y-78272569D01*
X47219821Y-78301268D01*
X47186034Y-78311517D01*
X47153615Y-78325951D01*
X47102949Y-78336720D01*
X47051033Y-78352469D01*
X47009710Y-78356538D01*
X46969576Y-78365070D01*
X46923097Y-78365070D01*
X46875500Y-78369758D01*
X46827903Y-78365070D01*
X46781424Y-78365070D01*
X46741289Y-78356539D01*
X46699966Y-78352469D01*
X46648046Y-78336719D01*
X46597385Y-78325951D01*
X46564967Y-78311517D01*
X46531178Y-78301268D01*
X46477481Y-78272566D01*
X46425500Y-78249423D01*
X46401331Y-78231863D01*
X46375621Y-78218121D01*
X46323167Y-78175074D01*
X46273282Y-78138830D01*
X46257087Y-78120843D01*
X46239274Y-78106225D01*
X46191408Y-78047899D01*
X46147385Y-77999007D01*
X46138134Y-77982985D01*
X46127378Y-77969878D01*
X46087585Y-77895431D01*
X46053309Y-77836063D01*
X46049366Y-77823928D01*
X46044231Y-77814321D01*
X46015921Y-77720996D01*
X45995167Y-77657121D01*
X45994436Y-77650169D01*
X45993030Y-77645533D01*
X45979332Y-77506466D01*
X45975500Y-77470000D01*
X45979332Y-77433536D01*
X45993030Y-77294466D01*
X45994436Y-77289829D01*
X45995167Y-77282879D01*
X46015916Y-77219017D01*
X46044231Y-77125678D01*
X46049366Y-77116069D01*
X46053309Y-77103937D01*
X46087578Y-77044581D01*
X46127378Y-76970121D01*
X46138136Y-76957011D01*
X46147385Y-76940993D01*
X46191398Y-76892110D01*
X46239274Y-76833774D01*
X46257090Y-76819152D01*
X46273282Y-76801170D01*
X46323157Y-76764933D01*
X46375621Y-76721878D01*
X46401336Y-76708132D01*
X46425500Y-76690577D01*
X46477470Y-76667438D01*
X46531178Y-76638731D01*
X46564974Y-76628478D01*
X46597385Y-76614049D01*
X46648035Y-76603282D01*
X46699966Y-76587530D01*
X46741298Y-76583459D01*
X46781424Y-76574930D01*
X46827893Y-76574930D01*
X46875500Y-76570241D01*
X46923107Y-76574930D01*
G37*
G36*
X97590657Y-74934782D02*
G01*
X97647468Y-74934782D01*
X97710085Y-74945230D01*
X97770425Y-74950510D01*
X97817808Y-74963206D01*
X97867361Y-74971475D01*
X97933834Y-74994295D01*
X97997727Y-75011415D01*
X98036864Y-75029665D01*
X98078219Y-75043862D01*
X98146166Y-75080633D01*
X98211000Y-75110866D01*
X98241522Y-75132238D01*
X98274288Y-75149970D01*
X98340990Y-75201885D01*
X98403763Y-75245840D01*
X98425884Y-75267961D01*
X98450213Y-75286897D01*
X98512705Y-75354782D01*
X98570160Y-75412237D01*
X98584663Y-75432950D01*
X98601202Y-75450916D01*
X98656380Y-75535372D01*
X98705134Y-75605000D01*
X98713271Y-75622450D01*
X98723139Y-75637554D01*
X98767922Y-75739650D01*
X98804585Y-75818273D01*
X98807999Y-75831016D01*
X98812691Y-75841712D01*
X98844117Y-75965810D01*
X98865490Y-76045575D01*
X98866109Y-76052654D01*
X98867419Y-76057826D01*
X98882751Y-76242868D01*
X98886000Y-76280000D01*
X98882751Y-76317134D01*
X98867419Y-76502173D01*
X98866109Y-76507343D01*
X98865490Y-76514425D01*
X98844112Y-76594207D01*
X98812691Y-76718287D01*
X98808000Y-76728980D01*
X98804585Y-76741727D01*
X98767915Y-76820364D01*
X98723139Y-76922445D01*
X98713272Y-76937546D01*
X98705134Y-76955000D01*
X98656370Y-77024641D01*
X98601202Y-77109083D01*
X98584666Y-77127045D01*
X98570160Y-77147763D01*
X98512694Y-77205228D01*
X98450213Y-77273102D01*
X98425888Y-77292034D01*
X98403763Y-77314160D01*
X98340977Y-77358122D01*
X98274288Y-77410029D01*
X98241528Y-77427757D01*
X98211000Y-77449134D01*
X98146152Y-77479372D01*
X98078219Y-77516137D01*
X98036872Y-77530331D01*
X97997727Y-77548585D01*
X97933821Y-77565708D01*
X97867361Y-77588524D01*
X97817816Y-77596791D01*
X97770425Y-77609490D01*
X97710082Y-77614769D01*
X97647468Y-77625218D01*
X97590657Y-77625218D01*
X97536000Y-77630000D01*
X97481343Y-77625218D01*
X97424532Y-77625218D01*
X97361917Y-77614769D01*
X97301575Y-77609490D01*
X97254185Y-77596791D01*
X97204638Y-77588524D01*
X97138174Y-77565707D01*
X97074273Y-77548585D01*
X97035130Y-77530332D01*
X96993780Y-77516137D01*
X96925839Y-77479369D01*
X96861000Y-77449134D01*
X96830474Y-77427759D01*
X96797711Y-77410029D01*
X96731012Y-77358116D01*
X96668237Y-77314160D01*
X96646114Y-77292037D01*
X96621786Y-77273102D01*
X96559293Y-77205216D01*
X96501840Y-77147763D01*
X96487336Y-77127049D01*
X96470797Y-77109083D01*
X96415614Y-77024620D01*
X96366866Y-76955000D01*
X96358729Y-76937551D01*
X96348860Y-76922445D01*
X96304067Y-76820328D01*
X96267415Y-76741727D01*
X96264001Y-76728986D01*
X96259308Y-76718287D01*
X96227869Y-76594139D01*
X96206510Y-76514425D01*
X96205891Y-76507349D01*
X96204580Y-76502173D01*
X96189230Y-76316918D01*
X96186000Y-76280000D01*
X96189229Y-76243084D01*
X96204580Y-76057826D01*
X96205891Y-76052648D01*
X96206510Y-76045575D01*
X96227864Y-75965878D01*
X96259308Y-75841712D01*
X96264001Y-75831011D01*
X96267415Y-75818273D01*
X96304060Y-75739687D01*
X96348860Y-75637554D01*
X96358731Y-75622444D01*
X96366866Y-75605000D01*
X96415604Y-75535393D01*
X96470797Y-75450916D01*
X96487339Y-75432946D01*
X96501840Y-75412237D01*
X96559281Y-75354795D01*
X96621786Y-75286897D01*
X96646119Y-75267957D01*
X96668237Y-75245840D01*
X96730999Y-75201892D01*
X96797711Y-75149970D01*
X96830480Y-75132235D01*
X96861000Y-75110866D01*
X96925826Y-75080636D01*
X96993780Y-75043862D01*
X97035138Y-75029663D01*
X97074273Y-75011415D01*
X97138161Y-74994296D01*
X97204638Y-74971475D01*
X97254192Y-74963205D01*
X97301575Y-74950510D01*
X97361913Y-74945230D01*
X97424532Y-74934782D01*
X97481343Y-74934782D01*
X97536000Y-74930000D01*
X97590657Y-74934782D01*
G37*
G36*
X46923107Y-74034930D02*
G01*
X46969576Y-74034930D01*
X47009702Y-74043459D01*
X47051033Y-74047530D01*
X47102960Y-74063282D01*
X47153615Y-74074049D01*
X47186027Y-74088479D01*
X47219821Y-74098731D01*
X47273523Y-74127435D01*
X47325500Y-74150577D01*
X47349665Y-74168134D01*
X47375378Y-74181878D01*
X47427833Y-74224927D01*
X47477718Y-74261170D01*
X47493912Y-74279155D01*
X47511725Y-74293774D01*
X47559589Y-74352097D01*
X47603615Y-74400993D01*
X47612865Y-74417015D01*
X47623621Y-74430121D01*
X47663408Y-74504557D01*
X47697691Y-74563937D01*
X47701634Y-74576074D01*
X47706768Y-74585678D01*
X47735068Y-74678971D01*
X47755833Y-74742879D01*
X47756564Y-74749834D01*
X47757969Y-74754466D01*
X47771651Y-74893385D01*
X47775500Y-74930000D01*
X47771651Y-74966617D01*
X47757969Y-75105533D01*
X47756564Y-75110164D01*
X47755833Y-75117121D01*
X47735063Y-75181042D01*
X47706768Y-75274321D01*
X47701635Y-75283923D01*
X47697691Y-75296063D01*
X47663401Y-75355454D01*
X47623621Y-75429878D01*
X47612867Y-75442981D01*
X47603615Y-75459007D01*
X47559580Y-75507912D01*
X47511725Y-75566225D01*
X47493915Y-75580840D01*
X47477718Y-75598830D01*
X47427823Y-75635080D01*
X47375378Y-75678121D01*
X47349671Y-75691861D01*
X47325500Y-75709423D01*
X47273512Y-75732569D01*
X47219821Y-75761268D01*
X47186034Y-75771517D01*
X47153615Y-75785951D01*
X47102949Y-75796720D01*
X47051033Y-75812469D01*
X47009710Y-75816538D01*
X46969576Y-75825070D01*
X46923097Y-75825070D01*
X46875500Y-75829758D01*
X46827903Y-75825070D01*
X46781424Y-75825070D01*
X46741289Y-75816539D01*
X46699966Y-75812469D01*
X46648046Y-75796719D01*
X46597385Y-75785951D01*
X46564967Y-75771517D01*
X46531178Y-75761268D01*
X46477481Y-75732566D01*
X46425500Y-75709423D01*
X46401331Y-75691863D01*
X46375621Y-75678121D01*
X46323167Y-75635074D01*
X46273282Y-75598830D01*
X46257087Y-75580843D01*
X46239274Y-75566225D01*
X46191408Y-75507899D01*
X46147385Y-75459007D01*
X46138134Y-75442985D01*
X46127378Y-75429878D01*
X46087585Y-75355431D01*
X46053309Y-75296063D01*
X46049366Y-75283928D01*
X46044231Y-75274321D01*
X46015921Y-75180996D01*
X45995167Y-75117121D01*
X45994436Y-75110169D01*
X45993030Y-75105533D01*
X45979332Y-74966466D01*
X45975500Y-74930000D01*
X45979332Y-74893536D01*
X45993030Y-74754466D01*
X45994436Y-74749829D01*
X45995167Y-74742879D01*
X46015916Y-74679017D01*
X46044231Y-74585678D01*
X46049366Y-74576069D01*
X46053309Y-74563937D01*
X46087578Y-74504581D01*
X46127378Y-74430121D01*
X46138136Y-74417011D01*
X46147385Y-74400993D01*
X46191398Y-74352110D01*
X46239274Y-74293774D01*
X46257090Y-74279152D01*
X46273282Y-74261170D01*
X46323157Y-74224933D01*
X46375621Y-74181878D01*
X46401336Y-74168132D01*
X46425500Y-74150577D01*
X46477470Y-74127438D01*
X46531178Y-74098731D01*
X46564974Y-74088478D01*
X46597385Y-74074049D01*
X46648035Y-74063282D01*
X46699966Y-74047530D01*
X46741298Y-74043459D01*
X46781424Y-74034930D01*
X46827893Y-74034930D01*
X46875500Y-74030241D01*
X46923107Y-74034930D01*
G37*
G36*
X46923107Y-71494930D02*
G01*
X46969576Y-71494930D01*
X47009702Y-71503459D01*
X47051033Y-71507530D01*
X47102960Y-71523282D01*
X47153615Y-71534049D01*
X47186027Y-71548479D01*
X47219821Y-71558731D01*
X47273523Y-71587435D01*
X47325500Y-71610577D01*
X47349665Y-71628134D01*
X47375378Y-71641878D01*
X47427833Y-71684927D01*
X47477718Y-71721170D01*
X47493912Y-71739155D01*
X47511725Y-71753774D01*
X47559589Y-71812097D01*
X47603615Y-71860993D01*
X47612865Y-71877015D01*
X47623621Y-71890121D01*
X47663408Y-71964557D01*
X47697691Y-72023937D01*
X47701634Y-72036074D01*
X47706768Y-72045678D01*
X47735068Y-72138971D01*
X47755833Y-72202879D01*
X47756564Y-72209834D01*
X47757969Y-72214466D01*
X47771651Y-72353385D01*
X47775500Y-72390000D01*
X47771651Y-72426617D01*
X47757969Y-72565533D01*
X47756564Y-72570164D01*
X47755833Y-72577121D01*
X47735063Y-72641042D01*
X47706768Y-72734321D01*
X47701635Y-72743923D01*
X47697691Y-72756063D01*
X47663401Y-72815454D01*
X47623621Y-72889878D01*
X47612867Y-72902981D01*
X47603615Y-72919007D01*
X47559580Y-72967912D01*
X47511725Y-73026225D01*
X47493915Y-73040840D01*
X47477718Y-73058830D01*
X47427823Y-73095080D01*
X47375378Y-73138121D01*
X47349671Y-73151861D01*
X47325500Y-73169423D01*
X47273512Y-73192569D01*
X47219821Y-73221268D01*
X47186034Y-73231517D01*
X47153615Y-73245951D01*
X47102949Y-73256720D01*
X47051033Y-73272469D01*
X47009710Y-73276538D01*
X46969576Y-73285070D01*
X46923097Y-73285070D01*
X46875500Y-73289758D01*
X46827903Y-73285070D01*
X46781424Y-73285070D01*
X46741289Y-73276539D01*
X46699966Y-73272469D01*
X46648046Y-73256719D01*
X46597385Y-73245951D01*
X46564967Y-73231517D01*
X46531178Y-73221268D01*
X46477481Y-73192566D01*
X46425500Y-73169423D01*
X46401331Y-73151863D01*
X46375621Y-73138121D01*
X46323167Y-73095074D01*
X46273282Y-73058830D01*
X46257087Y-73040843D01*
X46239274Y-73026225D01*
X46191408Y-72967899D01*
X46147385Y-72919007D01*
X46138134Y-72902985D01*
X46127378Y-72889878D01*
X46087585Y-72815431D01*
X46053309Y-72756063D01*
X46049366Y-72743928D01*
X46044231Y-72734321D01*
X46015921Y-72640996D01*
X45995167Y-72577121D01*
X45994436Y-72570169D01*
X45993030Y-72565533D01*
X45979332Y-72426466D01*
X45975500Y-72390000D01*
X45979332Y-72353536D01*
X45993030Y-72214466D01*
X45994436Y-72209829D01*
X45995167Y-72202879D01*
X46015916Y-72139017D01*
X46044231Y-72045678D01*
X46049366Y-72036069D01*
X46053309Y-72023937D01*
X46087578Y-71964581D01*
X46127378Y-71890121D01*
X46138136Y-71877011D01*
X46147385Y-71860993D01*
X46191398Y-71812110D01*
X46239274Y-71753774D01*
X46257090Y-71739152D01*
X46273282Y-71721170D01*
X46323157Y-71684933D01*
X46375621Y-71641878D01*
X46401336Y-71628132D01*
X46425500Y-71610577D01*
X46477470Y-71587438D01*
X46531178Y-71558731D01*
X46564974Y-71548478D01*
X46597385Y-71534049D01*
X46648035Y-71523282D01*
X46699966Y-71507530D01*
X46741298Y-71503459D01*
X46781424Y-71494930D01*
X46827893Y-71494930D01*
X46875500Y-71490241D01*
X46923107Y-71494930D01*
G37*
G36*
X97590657Y-69934782D02*
G01*
X97647468Y-69934782D01*
X97710085Y-69945230D01*
X97770425Y-69950510D01*
X97817808Y-69963206D01*
X97867361Y-69971475D01*
X97933834Y-69994295D01*
X97997727Y-70011415D01*
X98036864Y-70029665D01*
X98078219Y-70043862D01*
X98146166Y-70080633D01*
X98211000Y-70110866D01*
X98241522Y-70132238D01*
X98274288Y-70149970D01*
X98340990Y-70201885D01*
X98403763Y-70245840D01*
X98425884Y-70267961D01*
X98450213Y-70286897D01*
X98512705Y-70354782D01*
X98570160Y-70412237D01*
X98584663Y-70432950D01*
X98601202Y-70450916D01*
X98656380Y-70535372D01*
X98705134Y-70605000D01*
X98713271Y-70622450D01*
X98723139Y-70637554D01*
X98767922Y-70739650D01*
X98804585Y-70818273D01*
X98807999Y-70831016D01*
X98812691Y-70841712D01*
X98844117Y-70965810D01*
X98865490Y-71045575D01*
X98866109Y-71052654D01*
X98867419Y-71057826D01*
X98882751Y-71242868D01*
X98886000Y-71280000D01*
X98882751Y-71317134D01*
X98867419Y-71502173D01*
X98866109Y-71507343D01*
X98865490Y-71514425D01*
X98844112Y-71594207D01*
X98812691Y-71718287D01*
X98808000Y-71728980D01*
X98804585Y-71741727D01*
X98767915Y-71820364D01*
X98723139Y-71922445D01*
X98713272Y-71937546D01*
X98705134Y-71955000D01*
X98656370Y-72024641D01*
X98601202Y-72109083D01*
X98584666Y-72127045D01*
X98570160Y-72147763D01*
X98512694Y-72205228D01*
X98450213Y-72273102D01*
X98425888Y-72292034D01*
X98403763Y-72314160D01*
X98340977Y-72358122D01*
X98274288Y-72410029D01*
X98241528Y-72427757D01*
X98211000Y-72449134D01*
X98146152Y-72479372D01*
X98078219Y-72516137D01*
X98036872Y-72530331D01*
X97997727Y-72548585D01*
X97933821Y-72565708D01*
X97867361Y-72588524D01*
X97817816Y-72596791D01*
X97770425Y-72609490D01*
X97710082Y-72614769D01*
X97647468Y-72625218D01*
X97590657Y-72625218D01*
X97536000Y-72630000D01*
X97481343Y-72625218D01*
X97424532Y-72625218D01*
X97361917Y-72614769D01*
X97301575Y-72609490D01*
X97254185Y-72596791D01*
X97204638Y-72588524D01*
X97138174Y-72565707D01*
X97074273Y-72548585D01*
X97035130Y-72530332D01*
X96993780Y-72516137D01*
X96925839Y-72479369D01*
X96861000Y-72449134D01*
X96830474Y-72427759D01*
X96797711Y-72410029D01*
X96731012Y-72358116D01*
X96668237Y-72314160D01*
X96646114Y-72292037D01*
X96621786Y-72273102D01*
X96559293Y-72205216D01*
X96501840Y-72147763D01*
X96487336Y-72127049D01*
X96470797Y-72109083D01*
X96415614Y-72024620D01*
X96366866Y-71955000D01*
X96358729Y-71937551D01*
X96348860Y-71922445D01*
X96304067Y-71820328D01*
X96267415Y-71741727D01*
X96264001Y-71728986D01*
X96259308Y-71718287D01*
X96227869Y-71594139D01*
X96206510Y-71514425D01*
X96205891Y-71507349D01*
X96204580Y-71502173D01*
X96189230Y-71316918D01*
X96186000Y-71280000D01*
X96189229Y-71243084D01*
X96204580Y-71057826D01*
X96205891Y-71052648D01*
X96206510Y-71045575D01*
X96227864Y-70965878D01*
X96259308Y-70841712D01*
X96264001Y-70831011D01*
X96267415Y-70818273D01*
X96304060Y-70739687D01*
X96348860Y-70637554D01*
X96358731Y-70622444D01*
X96366866Y-70605000D01*
X96415604Y-70535393D01*
X96470797Y-70450916D01*
X96487339Y-70432946D01*
X96501840Y-70412237D01*
X96559281Y-70354795D01*
X96621786Y-70286897D01*
X96646119Y-70267957D01*
X96668237Y-70245840D01*
X96730999Y-70201892D01*
X96797711Y-70149970D01*
X96830480Y-70132235D01*
X96861000Y-70110866D01*
X96925826Y-70080636D01*
X96993780Y-70043862D01*
X97035138Y-70029663D01*
X97074273Y-70011415D01*
X97138161Y-69994296D01*
X97204638Y-69971475D01*
X97254192Y-69963205D01*
X97301575Y-69950510D01*
X97361913Y-69945230D01*
X97424532Y-69934782D01*
X97481343Y-69934782D01*
X97536000Y-69930000D01*
X97590657Y-69934782D01*
G37*
G36*
X46923107Y-68954930D02*
G01*
X46969576Y-68954930D01*
X47009702Y-68963459D01*
X47051033Y-68967530D01*
X47102960Y-68983282D01*
X47153615Y-68994049D01*
X47186027Y-69008479D01*
X47219821Y-69018731D01*
X47273523Y-69047435D01*
X47325500Y-69070577D01*
X47349665Y-69088134D01*
X47375378Y-69101878D01*
X47427833Y-69144927D01*
X47477718Y-69181170D01*
X47493912Y-69199155D01*
X47511725Y-69213774D01*
X47559589Y-69272097D01*
X47603615Y-69320993D01*
X47612865Y-69337015D01*
X47623621Y-69350121D01*
X47663408Y-69424557D01*
X47697691Y-69483937D01*
X47701634Y-69496074D01*
X47706768Y-69505678D01*
X47735068Y-69598971D01*
X47755833Y-69662879D01*
X47756564Y-69669834D01*
X47757969Y-69674466D01*
X47771651Y-69813385D01*
X47775500Y-69850000D01*
X47771651Y-69886617D01*
X47757969Y-70025533D01*
X47756564Y-70030164D01*
X47755833Y-70037121D01*
X47735063Y-70101042D01*
X47706768Y-70194321D01*
X47701635Y-70203923D01*
X47697691Y-70216063D01*
X47663401Y-70275454D01*
X47623621Y-70349878D01*
X47612867Y-70362981D01*
X47603615Y-70379007D01*
X47559580Y-70427912D01*
X47511725Y-70486225D01*
X47493915Y-70500840D01*
X47477718Y-70518830D01*
X47427823Y-70555080D01*
X47375378Y-70598121D01*
X47349671Y-70611861D01*
X47325500Y-70629423D01*
X47273512Y-70652569D01*
X47219821Y-70681268D01*
X47186034Y-70691517D01*
X47153615Y-70705951D01*
X47102949Y-70716720D01*
X47051033Y-70732469D01*
X47009710Y-70736538D01*
X46969576Y-70745070D01*
X46923097Y-70745070D01*
X46875500Y-70749758D01*
X46827903Y-70745070D01*
X46781424Y-70745070D01*
X46741289Y-70736539D01*
X46699966Y-70732469D01*
X46648046Y-70716719D01*
X46597385Y-70705951D01*
X46564967Y-70691517D01*
X46531178Y-70681268D01*
X46477481Y-70652566D01*
X46425500Y-70629423D01*
X46401331Y-70611863D01*
X46375621Y-70598121D01*
X46323167Y-70555074D01*
X46273282Y-70518830D01*
X46257087Y-70500843D01*
X46239274Y-70486225D01*
X46191408Y-70427899D01*
X46147385Y-70379007D01*
X46138134Y-70362985D01*
X46127378Y-70349878D01*
X46087585Y-70275431D01*
X46053309Y-70216063D01*
X46049366Y-70203928D01*
X46044231Y-70194321D01*
X46015921Y-70100996D01*
X45995167Y-70037121D01*
X45994436Y-70030169D01*
X45993030Y-70025533D01*
X45979332Y-69886466D01*
X45975500Y-69850000D01*
X45979332Y-69813536D01*
X45993030Y-69674466D01*
X45994436Y-69669829D01*
X45995167Y-69662879D01*
X46015916Y-69599017D01*
X46044231Y-69505678D01*
X46049366Y-69496069D01*
X46053309Y-69483937D01*
X46087578Y-69424581D01*
X46127378Y-69350121D01*
X46138136Y-69337011D01*
X46147385Y-69320993D01*
X46191398Y-69272110D01*
X46239274Y-69213774D01*
X46257090Y-69199152D01*
X46273282Y-69181170D01*
X46323157Y-69144933D01*
X46375621Y-69101878D01*
X46401336Y-69088132D01*
X46425500Y-69070577D01*
X46477470Y-69047438D01*
X46531178Y-69018731D01*
X46564974Y-69008478D01*
X46597385Y-68994049D01*
X46648035Y-68983282D01*
X46699966Y-68967530D01*
X46741298Y-68963459D01*
X46781424Y-68954930D01*
X46827893Y-68954930D01*
X46875500Y-68950241D01*
X46923107Y-68954930D01*
G37*
G36*
X97590657Y-64934782D02*
G01*
X97647468Y-64934782D01*
X97710085Y-64945230D01*
X97770425Y-64950510D01*
X97817808Y-64963206D01*
X97867361Y-64971475D01*
X97933834Y-64994295D01*
X97997727Y-65011415D01*
X98036864Y-65029665D01*
X98078219Y-65043862D01*
X98146166Y-65080633D01*
X98211000Y-65110866D01*
X98241522Y-65132238D01*
X98274288Y-65149970D01*
X98340990Y-65201885D01*
X98403763Y-65245840D01*
X98425884Y-65267961D01*
X98450213Y-65286897D01*
X98512705Y-65354782D01*
X98570160Y-65412237D01*
X98584663Y-65432950D01*
X98601202Y-65450916D01*
X98656380Y-65535372D01*
X98705134Y-65605000D01*
X98713271Y-65622450D01*
X98723139Y-65637554D01*
X98767922Y-65739650D01*
X98804585Y-65818273D01*
X98807999Y-65831016D01*
X98812691Y-65841712D01*
X98844117Y-65965810D01*
X98865490Y-66045575D01*
X98866109Y-66052654D01*
X98867419Y-66057826D01*
X98882751Y-66242868D01*
X98886000Y-66280000D01*
X98882751Y-66317134D01*
X98867419Y-66502173D01*
X98866109Y-66507343D01*
X98865490Y-66514425D01*
X98844112Y-66594207D01*
X98812691Y-66718287D01*
X98808000Y-66728980D01*
X98804585Y-66741727D01*
X98767915Y-66820364D01*
X98723139Y-66922445D01*
X98713272Y-66937546D01*
X98705134Y-66955000D01*
X98656370Y-67024641D01*
X98601202Y-67109083D01*
X98584666Y-67127045D01*
X98570160Y-67147763D01*
X98512694Y-67205228D01*
X98450213Y-67273102D01*
X98425888Y-67292034D01*
X98403763Y-67314160D01*
X98340977Y-67358122D01*
X98274288Y-67410029D01*
X98241528Y-67427757D01*
X98211000Y-67449134D01*
X98146152Y-67479372D01*
X98078219Y-67516137D01*
X98036872Y-67530331D01*
X97997727Y-67548585D01*
X97933821Y-67565708D01*
X97867361Y-67588524D01*
X97817816Y-67596791D01*
X97770425Y-67609490D01*
X97710082Y-67614769D01*
X97647468Y-67625218D01*
X97590657Y-67625218D01*
X97536000Y-67630000D01*
X97481343Y-67625218D01*
X97424532Y-67625218D01*
X97361917Y-67614769D01*
X97301575Y-67609490D01*
X97254185Y-67596791D01*
X97204638Y-67588524D01*
X97138174Y-67565707D01*
X97074273Y-67548585D01*
X97035130Y-67530332D01*
X96993780Y-67516137D01*
X96925839Y-67479369D01*
X96861000Y-67449134D01*
X96830474Y-67427759D01*
X96797711Y-67410029D01*
X96731012Y-67358116D01*
X96668237Y-67314160D01*
X96646114Y-67292037D01*
X96621786Y-67273102D01*
X96559293Y-67205216D01*
X96501840Y-67147763D01*
X96487336Y-67127049D01*
X96470797Y-67109083D01*
X96415614Y-67024620D01*
X96366866Y-66955000D01*
X96358729Y-66937551D01*
X96348860Y-66922445D01*
X96304067Y-66820328D01*
X96267415Y-66741727D01*
X96264001Y-66728986D01*
X96259308Y-66718287D01*
X96227869Y-66594139D01*
X96206510Y-66514425D01*
X96205891Y-66507349D01*
X96204580Y-66502173D01*
X96189230Y-66316918D01*
X96186000Y-66280000D01*
X96189229Y-66243084D01*
X96204580Y-66057826D01*
X96205891Y-66052648D01*
X96206510Y-66045575D01*
X96227864Y-65965878D01*
X96259308Y-65841712D01*
X96264001Y-65831011D01*
X96267415Y-65818273D01*
X96304060Y-65739687D01*
X96348860Y-65637554D01*
X96358731Y-65622444D01*
X96366866Y-65605000D01*
X96415604Y-65535393D01*
X96470797Y-65450916D01*
X96487339Y-65432946D01*
X96501840Y-65412237D01*
X96559281Y-65354795D01*
X96621786Y-65286897D01*
X96646119Y-65267957D01*
X96668237Y-65245840D01*
X96730999Y-65201892D01*
X96797711Y-65149970D01*
X96830480Y-65132235D01*
X96861000Y-65110866D01*
X96925826Y-65080636D01*
X96993780Y-65043862D01*
X97035138Y-65029663D01*
X97074273Y-65011415D01*
X97138161Y-64994296D01*
X97204638Y-64971475D01*
X97254192Y-64963205D01*
X97301575Y-64950510D01*
X97361913Y-64945230D01*
X97424532Y-64934782D01*
X97481343Y-64934782D01*
X97536000Y-64930000D01*
X97590657Y-64934782D01*
G37*
G36*
X70914339Y-63327761D02*
G01*
X70964336Y-63327761D01*
X71020016Y-63338169D01*
X71073966Y-63343483D01*
X71114950Y-63355915D01*
X71157665Y-63363900D01*
X71216820Y-63386816D01*
X71273941Y-63404144D01*
X71306579Y-63421589D01*
X71341064Y-63434949D01*
X71400983Y-63472049D01*
X71458238Y-63502653D01*
X71482294Y-63522395D01*
X71508278Y-63538484D01*
X71565853Y-63590970D01*
X71619776Y-63635224D01*
X71635754Y-63654694D01*
X71653625Y-63670985D01*
X71705504Y-63739684D01*
X71752347Y-63796762D01*
X71761405Y-63813708D01*
X71772150Y-63827937D01*
X71814893Y-63913778D01*
X71850856Y-63981059D01*
X71854691Y-63993704D01*
X71859815Y-64003993D01*
X71890091Y-64110404D01*
X71911517Y-64181034D01*
X71912220Y-64188177D01*
X71913638Y-64193159D01*
X71928367Y-64352122D01*
X71932000Y-64389000D01*
X71928367Y-64425880D01*
X71913638Y-64584840D01*
X71912220Y-64589821D01*
X71911517Y-64596966D01*
X71890087Y-64667610D01*
X71859815Y-64774006D01*
X71854692Y-64784293D01*
X71850856Y-64796941D01*
X71814886Y-64864234D01*
X71772150Y-64950062D01*
X71761406Y-64964288D01*
X71752347Y-64981238D01*
X71705494Y-65038327D01*
X71653625Y-65107014D01*
X71635758Y-65123301D01*
X71619776Y-65142776D01*
X71565842Y-65187038D01*
X71508278Y-65239515D01*
X71482299Y-65255600D01*
X71458238Y-65275347D01*
X71400971Y-65305956D01*
X71341064Y-65343050D01*
X71306586Y-65356406D01*
X71273941Y-65373856D01*
X71216808Y-65391186D01*
X71157665Y-65414099D01*
X71114957Y-65422082D01*
X71073966Y-65434517D01*
X71020013Y-65439830D01*
X70964336Y-65450239D01*
X70914339Y-65450239D01*
X70866000Y-65455000D01*
X70817661Y-65450239D01*
X70767664Y-65450239D01*
X70711985Y-65439830D01*
X70658034Y-65434517D01*
X70617043Y-65422082D01*
X70574334Y-65414099D01*
X70515186Y-65391185D01*
X70458059Y-65373856D01*
X70425416Y-65356408D01*
X70390935Y-65343050D01*
X70331020Y-65305952D01*
X70273762Y-65275347D01*
X70249703Y-65255603D01*
X70223721Y-65239515D01*
X70166147Y-65187029D01*
X70112224Y-65142776D01*
X70096244Y-65123305D01*
X70078374Y-65107014D01*
X70026492Y-65038312D01*
X69979653Y-64981238D01*
X69970595Y-64964292D01*
X69959849Y-64950062D01*
X69917098Y-64864207D01*
X69881144Y-64796941D01*
X69877308Y-64784298D01*
X69872184Y-64774006D01*
X69841896Y-64667557D01*
X69820483Y-64596966D01*
X69819779Y-64589826D01*
X69818361Y-64584840D01*
X69803615Y-64425708D01*
X69800000Y-64389000D01*
X69803615Y-64352294D01*
X69818361Y-64193159D01*
X69819779Y-64188171D01*
X69820483Y-64181034D01*
X69841891Y-64110457D01*
X69872184Y-64003993D01*
X69877309Y-63993699D01*
X69881144Y-63981059D01*
X69917091Y-63913806D01*
X69959849Y-63827937D01*
X69970597Y-63813704D01*
X69979653Y-63796762D01*
X70026483Y-63739699D01*
X70078374Y-63670985D01*
X70096248Y-63654690D01*
X70112224Y-63635224D01*
X70166136Y-63590979D01*
X70223721Y-63538484D01*
X70249708Y-63522392D01*
X70273762Y-63502653D01*
X70331008Y-63472053D01*
X70390935Y-63434949D01*
X70425423Y-63421588D01*
X70458059Y-63404144D01*
X70515175Y-63386818D01*
X70574334Y-63363900D01*
X70617050Y-63355915D01*
X70658034Y-63343483D01*
X70711982Y-63338169D01*
X70767664Y-63327761D01*
X70817661Y-63327761D01*
X70866000Y-63323000D01*
X70914339Y-63327761D01*
G37*
G36*
X73454339Y-63327761D02*
G01*
X73504336Y-63327761D01*
X73560016Y-63338169D01*
X73613966Y-63343483D01*
X73654950Y-63355915D01*
X73697665Y-63363900D01*
X73756820Y-63386816D01*
X73813941Y-63404144D01*
X73846579Y-63421589D01*
X73881064Y-63434949D01*
X73940983Y-63472049D01*
X73998238Y-63502653D01*
X74022294Y-63522395D01*
X74048278Y-63538484D01*
X74105853Y-63590970D01*
X74159776Y-63635224D01*
X74175754Y-63654694D01*
X74193625Y-63670985D01*
X74245504Y-63739684D01*
X74292347Y-63796762D01*
X74301405Y-63813708D01*
X74312150Y-63827937D01*
X74354893Y-63913778D01*
X74390856Y-63981059D01*
X74394691Y-63993704D01*
X74399815Y-64003993D01*
X74430091Y-64110404D01*
X74451517Y-64181034D01*
X74452220Y-64188177D01*
X74453638Y-64193159D01*
X74468367Y-64352122D01*
X74472000Y-64389000D01*
X74468367Y-64425880D01*
X74453638Y-64584840D01*
X74452220Y-64589821D01*
X74451517Y-64596966D01*
X74430087Y-64667610D01*
X74399815Y-64774006D01*
X74394692Y-64784293D01*
X74390856Y-64796941D01*
X74354886Y-64864234D01*
X74312150Y-64950062D01*
X74301406Y-64964288D01*
X74292347Y-64981238D01*
X74245494Y-65038327D01*
X74193625Y-65107014D01*
X74175758Y-65123301D01*
X74159776Y-65142776D01*
X74105842Y-65187038D01*
X74048278Y-65239515D01*
X74022299Y-65255600D01*
X73998238Y-65275347D01*
X73940971Y-65305956D01*
X73881064Y-65343050D01*
X73846586Y-65356406D01*
X73813941Y-65373856D01*
X73756808Y-65391186D01*
X73697665Y-65414099D01*
X73654957Y-65422082D01*
X73613966Y-65434517D01*
X73560013Y-65439830D01*
X73504336Y-65450239D01*
X73454339Y-65450239D01*
X73406000Y-65455000D01*
X73357661Y-65450239D01*
X73307664Y-65450239D01*
X73251985Y-65439830D01*
X73198034Y-65434517D01*
X73157043Y-65422082D01*
X73114334Y-65414099D01*
X73055186Y-65391185D01*
X72998059Y-65373856D01*
X72965416Y-65356408D01*
X72930935Y-65343050D01*
X72871020Y-65305952D01*
X72813762Y-65275347D01*
X72789703Y-65255603D01*
X72763721Y-65239515D01*
X72706147Y-65187029D01*
X72652224Y-65142776D01*
X72636244Y-65123305D01*
X72618374Y-65107014D01*
X72566492Y-65038312D01*
X72519653Y-64981238D01*
X72510595Y-64964292D01*
X72499849Y-64950062D01*
X72457098Y-64864207D01*
X72421144Y-64796941D01*
X72417308Y-64784298D01*
X72412184Y-64774006D01*
X72381896Y-64667557D01*
X72360483Y-64596966D01*
X72359779Y-64589826D01*
X72358361Y-64584840D01*
X72343615Y-64425708D01*
X72340000Y-64389000D01*
X72343615Y-64352294D01*
X72358361Y-64193159D01*
X72359779Y-64188171D01*
X72360483Y-64181034D01*
X72381891Y-64110457D01*
X72412184Y-64003993D01*
X72417309Y-63993699D01*
X72421144Y-63981059D01*
X72457091Y-63913806D01*
X72499849Y-63827937D01*
X72510597Y-63813704D01*
X72519653Y-63796762D01*
X72566483Y-63739699D01*
X72618374Y-63670985D01*
X72636248Y-63654690D01*
X72652224Y-63635224D01*
X72706136Y-63590979D01*
X72763721Y-63538484D01*
X72789708Y-63522392D01*
X72813762Y-63502653D01*
X72871008Y-63472053D01*
X72930935Y-63434949D01*
X72965423Y-63421588D01*
X72998059Y-63404144D01*
X73055175Y-63386818D01*
X73114334Y-63363900D01*
X73157050Y-63355915D01*
X73198034Y-63343483D01*
X73251982Y-63338169D01*
X73307664Y-63327761D01*
X73357661Y-63327761D01*
X73406000Y-63323000D01*
X73454339Y-63327761D01*
G37*
G36*
X81582339Y-63327761D02*
G01*
X81632336Y-63327761D01*
X81688016Y-63338169D01*
X81741966Y-63343483D01*
X81782950Y-63355915D01*
X81825665Y-63363900D01*
X81884820Y-63386816D01*
X81941941Y-63404144D01*
X81974579Y-63421589D01*
X82009064Y-63434949D01*
X82068983Y-63472049D01*
X82126238Y-63502653D01*
X82150294Y-63522395D01*
X82176278Y-63538484D01*
X82233853Y-63590970D01*
X82287776Y-63635224D01*
X82303754Y-63654694D01*
X82321625Y-63670985D01*
X82373504Y-63739684D01*
X82420347Y-63796762D01*
X82429405Y-63813708D01*
X82440150Y-63827937D01*
X82482893Y-63913778D01*
X82518856Y-63981059D01*
X82522691Y-63993704D01*
X82527815Y-64003993D01*
X82558091Y-64110404D01*
X82579517Y-64181034D01*
X82580220Y-64188177D01*
X82581638Y-64193159D01*
X82596367Y-64352122D01*
X82600000Y-64389000D01*
X82596367Y-64425880D01*
X82581638Y-64584840D01*
X82580220Y-64589821D01*
X82579517Y-64596966D01*
X82558087Y-64667610D01*
X82527815Y-64774006D01*
X82522692Y-64784293D01*
X82518856Y-64796941D01*
X82482886Y-64864234D01*
X82440150Y-64950062D01*
X82429406Y-64964288D01*
X82420347Y-64981238D01*
X82373494Y-65038327D01*
X82321625Y-65107014D01*
X82303758Y-65123301D01*
X82287776Y-65142776D01*
X82233842Y-65187038D01*
X82176278Y-65239515D01*
X82150299Y-65255600D01*
X82126238Y-65275347D01*
X82068971Y-65305956D01*
X82009064Y-65343050D01*
X81974586Y-65356406D01*
X81941941Y-65373856D01*
X81884808Y-65391186D01*
X81825665Y-65414099D01*
X81782957Y-65422082D01*
X81741966Y-65434517D01*
X81688013Y-65439830D01*
X81632336Y-65450239D01*
X81582339Y-65450239D01*
X81534000Y-65455000D01*
X81485661Y-65450239D01*
X81435664Y-65450239D01*
X81379985Y-65439830D01*
X81326034Y-65434517D01*
X81285043Y-65422082D01*
X81242334Y-65414099D01*
X81183186Y-65391185D01*
X81126059Y-65373856D01*
X81093416Y-65356408D01*
X81058935Y-65343050D01*
X80999020Y-65305952D01*
X80941762Y-65275347D01*
X80917703Y-65255603D01*
X80891721Y-65239515D01*
X80834147Y-65187029D01*
X80780224Y-65142776D01*
X80764244Y-65123305D01*
X80746374Y-65107014D01*
X80694492Y-65038312D01*
X80647653Y-64981238D01*
X80638595Y-64964292D01*
X80627849Y-64950062D01*
X80585098Y-64864207D01*
X80549144Y-64796941D01*
X80545308Y-64784298D01*
X80540184Y-64774006D01*
X80509896Y-64667557D01*
X80488483Y-64596966D01*
X80487779Y-64589826D01*
X80486361Y-64584840D01*
X80471615Y-64425708D01*
X80468000Y-64389000D01*
X80471615Y-64352294D01*
X80486361Y-64193159D01*
X80487779Y-64188171D01*
X80488483Y-64181034D01*
X80509891Y-64110457D01*
X80540184Y-64003993D01*
X80545309Y-63993699D01*
X80549144Y-63981059D01*
X80585091Y-63913806D01*
X80627849Y-63827937D01*
X80638597Y-63813704D01*
X80647653Y-63796762D01*
X80694483Y-63739699D01*
X80746374Y-63670985D01*
X80764248Y-63654690D01*
X80780224Y-63635224D01*
X80834136Y-63590979D01*
X80891721Y-63538484D01*
X80917708Y-63522392D01*
X80941762Y-63502653D01*
X80999008Y-63472053D01*
X81058935Y-63434949D01*
X81093423Y-63421588D01*
X81126059Y-63404144D01*
X81183175Y-63386818D01*
X81242334Y-63363900D01*
X81285050Y-63355915D01*
X81326034Y-63343483D01*
X81379982Y-63338169D01*
X81435664Y-63327761D01*
X81485661Y-63327761D01*
X81534000Y-63323000D01*
X81582339Y-63327761D01*
G37*
G36*
X84122339Y-63327761D02*
G01*
X84172336Y-63327761D01*
X84228016Y-63338169D01*
X84281966Y-63343483D01*
X84322950Y-63355915D01*
X84365665Y-63363900D01*
X84424820Y-63386816D01*
X84481941Y-63404144D01*
X84514579Y-63421589D01*
X84549064Y-63434949D01*
X84608983Y-63472049D01*
X84666238Y-63502653D01*
X84690294Y-63522395D01*
X84716278Y-63538484D01*
X84773853Y-63590970D01*
X84827776Y-63635224D01*
X84843754Y-63654694D01*
X84861625Y-63670985D01*
X84913504Y-63739684D01*
X84960347Y-63796762D01*
X84969405Y-63813708D01*
X84980150Y-63827937D01*
X85022893Y-63913778D01*
X85058856Y-63981059D01*
X85062691Y-63993704D01*
X85067815Y-64003993D01*
X85098091Y-64110404D01*
X85119517Y-64181034D01*
X85120220Y-64188177D01*
X85121638Y-64193159D01*
X85136367Y-64352122D01*
X85140000Y-64389000D01*
X85136367Y-64425880D01*
X85121638Y-64584840D01*
X85120220Y-64589821D01*
X85119517Y-64596966D01*
X85098087Y-64667610D01*
X85067815Y-64774006D01*
X85062692Y-64784293D01*
X85058856Y-64796941D01*
X85022886Y-64864234D01*
X84980150Y-64950062D01*
X84969406Y-64964288D01*
X84960347Y-64981238D01*
X84913494Y-65038327D01*
X84861625Y-65107014D01*
X84843758Y-65123301D01*
X84827776Y-65142776D01*
X84773842Y-65187038D01*
X84716278Y-65239515D01*
X84690299Y-65255600D01*
X84666238Y-65275347D01*
X84608971Y-65305956D01*
X84549064Y-65343050D01*
X84514586Y-65356406D01*
X84481941Y-65373856D01*
X84424808Y-65391186D01*
X84365665Y-65414099D01*
X84322957Y-65422082D01*
X84281966Y-65434517D01*
X84228013Y-65439830D01*
X84172336Y-65450239D01*
X84122339Y-65450239D01*
X84074000Y-65455000D01*
X84025661Y-65450239D01*
X83975664Y-65450239D01*
X83919985Y-65439830D01*
X83866034Y-65434517D01*
X83825043Y-65422082D01*
X83782334Y-65414099D01*
X83723186Y-65391185D01*
X83666059Y-65373856D01*
X83633416Y-65356408D01*
X83598935Y-65343050D01*
X83539020Y-65305952D01*
X83481762Y-65275347D01*
X83457703Y-65255603D01*
X83431721Y-65239515D01*
X83374147Y-65187029D01*
X83320224Y-65142776D01*
X83304244Y-65123305D01*
X83286374Y-65107014D01*
X83234492Y-65038312D01*
X83187653Y-64981238D01*
X83178595Y-64964292D01*
X83167849Y-64950062D01*
X83125098Y-64864207D01*
X83089144Y-64796941D01*
X83085308Y-64784298D01*
X83080184Y-64774006D01*
X83049896Y-64667557D01*
X83028483Y-64596966D01*
X83027779Y-64589826D01*
X83026361Y-64584840D01*
X83011615Y-64425708D01*
X83008000Y-64389000D01*
X83011615Y-64352294D01*
X83026361Y-64193159D01*
X83027779Y-64188171D01*
X83028483Y-64181034D01*
X83049891Y-64110457D01*
X83080184Y-64003993D01*
X83085309Y-63993699D01*
X83089144Y-63981059D01*
X83125091Y-63913806D01*
X83167849Y-63827937D01*
X83178597Y-63813704D01*
X83187653Y-63796762D01*
X83234483Y-63739699D01*
X83286374Y-63670985D01*
X83304248Y-63654690D01*
X83320224Y-63635224D01*
X83374136Y-63590979D01*
X83431721Y-63538484D01*
X83457708Y-63522392D01*
X83481762Y-63502653D01*
X83539008Y-63472053D01*
X83598935Y-63434949D01*
X83633423Y-63421588D01*
X83666059Y-63404144D01*
X83723175Y-63386818D01*
X83782334Y-63363900D01*
X83825050Y-63355915D01*
X83866034Y-63343483D01*
X83919982Y-63338169D01*
X83975664Y-63327761D01*
X84025661Y-63327761D01*
X84074000Y-63323000D01*
X84122339Y-63327761D01*
G37*
G36*
X98855134Y-59533806D02*
G01*
X98871355Y-59544645D01*
X98882194Y-59560866D01*
X98886000Y-59580000D01*
X98886000Y-62180000D01*
X98882194Y-62199134D01*
X98871355Y-62215355D01*
X98855134Y-62226194D01*
X98836000Y-62230000D01*
X96236000Y-62230000D01*
X96216866Y-62226194D01*
X96200645Y-62215355D01*
X96189806Y-62199134D01*
X96186000Y-62180000D01*
X96186000Y-59580000D01*
X96189806Y-59560866D01*
X96200645Y-59544645D01*
X96216866Y-59533806D01*
X96236000Y-59530000D01*
X98836000Y-59530000D01*
X98855134Y-59533806D01*
G37*
G36*
X97590657Y-54534782D02*
G01*
X97647468Y-54534782D01*
X97710085Y-54545230D01*
X97770425Y-54550510D01*
X97817808Y-54563206D01*
X97867361Y-54571475D01*
X97933834Y-54594295D01*
X97997727Y-54611415D01*
X98036864Y-54629665D01*
X98078219Y-54643862D01*
X98146166Y-54680633D01*
X98211000Y-54710866D01*
X98241522Y-54732238D01*
X98274288Y-54749970D01*
X98340990Y-54801885D01*
X98403763Y-54845840D01*
X98425884Y-54867961D01*
X98450213Y-54886897D01*
X98512705Y-54954782D01*
X98570160Y-55012237D01*
X98584663Y-55032950D01*
X98601202Y-55050916D01*
X98656380Y-55135372D01*
X98705134Y-55205000D01*
X98713271Y-55222450D01*
X98723139Y-55237554D01*
X98767922Y-55339650D01*
X98804585Y-55418273D01*
X98807999Y-55431016D01*
X98812691Y-55441712D01*
X98844117Y-55565810D01*
X98865490Y-55645575D01*
X98866109Y-55652654D01*
X98867419Y-55657826D01*
X98882751Y-55842868D01*
X98886000Y-55880000D01*
X98882751Y-55917134D01*
X98867419Y-56102173D01*
X98866109Y-56107343D01*
X98865490Y-56114425D01*
X98844112Y-56194207D01*
X98812691Y-56318287D01*
X98808000Y-56328980D01*
X98804585Y-56341727D01*
X98767915Y-56420364D01*
X98723139Y-56522445D01*
X98713272Y-56537546D01*
X98705134Y-56555000D01*
X98656370Y-56624641D01*
X98601202Y-56709083D01*
X98584666Y-56727045D01*
X98570160Y-56747763D01*
X98512694Y-56805228D01*
X98450213Y-56873102D01*
X98425888Y-56892034D01*
X98403763Y-56914160D01*
X98340977Y-56958122D01*
X98274288Y-57010029D01*
X98241528Y-57027757D01*
X98211000Y-57049134D01*
X98146152Y-57079372D01*
X98078219Y-57116137D01*
X98036872Y-57130331D01*
X97997727Y-57148585D01*
X97933821Y-57165708D01*
X97867361Y-57188524D01*
X97817816Y-57196791D01*
X97770425Y-57209490D01*
X97710082Y-57214769D01*
X97647468Y-57225218D01*
X97590657Y-57225218D01*
X97536000Y-57230000D01*
X97481343Y-57225218D01*
X97424532Y-57225218D01*
X97361917Y-57214769D01*
X97301575Y-57209490D01*
X97254185Y-57196791D01*
X97204638Y-57188524D01*
X97138174Y-57165707D01*
X97074273Y-57148585D01*
X97035130Y-57130332D01*
X96993780Y-57116137D01*
X96925839Y-57079369D01*
X96861000Y-57049134D01*
X96830474Y-57027759D01*
X96797711Y-57010029D01*
X96731012Y-56958116D01*
X96668237Y-56914160D01*
X96646114Y-56892037D01*
X96621786Y-56873102D01*
X96559293Y-56805216D01*
X96501840Y-56747763D01*
X96487336Y-56727049D01*
X96470797Y-56709083D01*
X96415614Y-56624620D01*
X96366866Y-56555000D01*
X96358729Y-56537551D01*
X96348860Y-56522445D01*
X96304067Y-56420328D01*
X96267415Y-56341727D01*
X96264001Y-56328986D01*
X96259308Y-56318287D01*
X96227869Y-56194139D01*
X96206510Y-56114425D01*
X96205891Y-56107349D01*
X96204580Y-56102173D01*
X96189230Y-55916918D01*
X96186000Y-55880000D01*
X96189229Y-55843084D01*
X96204580Y-55657826D01*
X96205891Y-55652648D01*
X96206510Y-55645575D01*
X96227864Y-55565878D01*
X96259308Y-55441712D01*
X96264001Y-55431011D01*
X96267415Y-55418273D01*
X96304060Y-55339687D01*
X96348860Y-55237554D01*
X96358731Y-55222444D01*
X96366866Y-55205000D01*
X96415604Y-55135393D01*
X96470797Y-55050916D01*
X96487339Y-55032946D01*
X96501840Y-55012237D01*
X96559281Y-54954795D01*
X96621786Y-54886897D01*
X96646119Y-54867957D01*
X96668237Y-54845840D01*
X96730999Y-54801892D01*
X96797711Y-54749970D01*
X96830480Y-54732235D01*
X96861000Y-54710866D01*
X96925826Y-54680636D01*
X96993780Y-54643862D01*
X97035138Y-54629663D01*
X97074273Y-54611415D01*
X97138161Y-54594296D01*
X97204638Y-54571475D01*
X97254192Y-54563205D01*
X97301575Y-54550510D01*
X97361913Y-54545230D01*
X97424532Y-54534782D01*
X97481343Y-54534782D01*
X97536000Y-54530000D01*
X97590657Y-54534782D01*
G37*
G36*
X97590657Y-49534782D02*
G01*
X97647468Y-49534782D01*
X97710085Y-49545230D01*
X97770425Y-49550510D01*
X97817808Y-49563206D01*
X97867361Y-49571475D01*
X97933834Y-49594295D01*
X97997727Y-49611415D01*
X98036864Y-49629665D01*
X98078219Y-49643862D01*
X98146166Y-49680633D01*
X98211000Y-49710866D01*
X98241522Y-49732238D01*
X98274288Y-49749970D01*
X98340990Y-49801885D01*
X98403763Y-49845840D01*
X98425884Y-49867961D01*
X98450213Y-49886897D01*
X98512705Y-49954782D01*
X98570160Y-50012237D01*
X98584663Y-50032950D01*
X98601202Y-50050916D01*
X98656380Y-50135372D01*
X98705134Y-50205000D01*
X98713271Y-50222450D01*
X98723139Y-50237554D01*
X98767922Y-50339650D01*
X98804585Y-50418273D01*
X98807999Y-50431016D01*
X98812691Y-50441712D01*
X98844117Y-50565810D01*
X98865490Y-50645575D01*
X98866109Y-50652654D01*
X98867419Y-50657826D01*
X98882751Y-50842868D01*
X98886000Y-50880000D01*
X98882751Y-50917134D01*
X98867419Y-51102173D01*
X98866109Y-51107343D01*
X98865490Y-51114425D01*
X98844112Y-51194207D01*
X98812691Y-51318287D01*
X98808000Y-51328980D01*
X98804585Y-51341727D01*
X98767915Y-51420364D01*
X98723139Y-51522445D01*
X98713272Y-51537546D01*
X98705134Y-51555000D01*
X98656370Y-51624641D01*
X98601202Y-51709083D01*
X98584666Y-51727045D01*
X98570160Y-51747763D01*
X98512694Y-51805228D01*
X98450213Y-51873102D01*
X98425888Y-51892034D01*
X98403763Y-51914160D01*
X98340977Y-51958122D01*
X98274288Y-52010029D01*
X98241528Y-52027757D01*
X98211000Y-52049134D01*
X98146152Y-52079372D01*
X98078219Y-52116137D01*
X98036872Y-52130331D01*
X97997727Y-52148585D01*
X97933821Y-52165708D01*
X97867361Y-52188524D01*
X97817816Y-52196791D01*
X97770425Y-52209490D01*
X97710082Y-52214769D01*
X97647468Y-52225218D01*
X97590657Y-52225218D01*
X97536000Y-52230000D01*
X97481343Y-52225218D01*
X97424532Y-52225218D01*
X97361917Y-52214769D01*
X97301575Y-52209490D01*
X97254185Y-52196791D01*
X97204638Y-52188524D01*
X97138174Y-52165707D01*
X97074273Y-52148585D01*
X97035130Y-52130332D01*
X96993780Y-52116137D01*
X96925839Y-52079369D01*
X96861000Y-52049134D01*
X96830474Y-52027759D01*
X96797711Y-52010029D01*
X96731012Y-51958116D01*
X96668237Y-51914160D01*
X96646114Y-51892037D01*
X96621786Y-51873102D01*
X96559293Y-51805216D01*
X96501840Y-51747763D01*
X96487336Y-51727049D01*
X96470797Y-51709083D01*
X96415614Y-51624620D01*
X96366866Y-51555000D01*
X96358729Y-51537551D01*
X96348860Y-51522445D01*
X96304067Y-51420328D01*
X96267415Y-51341727D01*
X96264001Y-51328986D01*
X96259308Y-51318287D01*
X96227869Y-51194139D01*
X96206510Y-51114425D01*
X96205891Y-51107349D01*
X96204580Y-51102173D01*
X96189230Y-50916918D01*
X96186000Y-50880000D01*
X96189229Y-50843084D01*
X96204580Y-50657826D01*
X96205891Y-50652648D01*
X96206510Y-50645575D01*
X96227864Y-50565878D01*
X96259308Y-50441712D01*
X96264001Y-50431011D01*
X96267415Y-50418273D01*
X96304060Y-50339687D01*
X96348860Y-50237554D01*
X96358731Y-50222444D01*
X96366866Y-50205000D01*
X96415604Y-50135393D01*
X96470797Y-50050916D01*
X96487339Y-50032946D01*
X96501840Y-50012237D01*
X96559281Y-49954795D01*
X96621786Y-49886897D01*
X96646119Y-49867957D01*
X96668237Y-49845840D01*
X96730999Y-49801892D01*
X96797711Y-49749970D01*
X96830480Y-49732235D01*
X96861000Y-49710866D01*
X96925826Y-49680636D01*
X96993780Y-49643862D01*
X97035138Y-49629663D01*
X97074273Y-49611415D01*
X97138161Y-49594296D01*
X97204638Y-49571475D01*
X97254192Y-49563205D01*
X97301575Y-49550510D01*
X97361913Y-49545230D01*
X97424532Y-49534782D01*
X97481343Y-49534782D01*
X97536000Y-49530000D01*
X97590657Y-49534782D01*
G37*
G36*
X32426908Y-48087722D02*
G01*
X32469850Y-48087722D01*
X32518294Y-48098018D01*
X32565687Y-48103359D01*
X32600148Y-48115417D01*
X32635836Y-48123003D01*
X32687262Y-48145899D01*
X32737314Y-48163413D01*
X32763367Y-48179783D01*
X32790860Y-48192024D01*
X32842126Y-48229271D01*
X32891274Y-48260153D01*
X32908923Y-48277802D01*
X32928148Y-48291770D01*
X32975676Y-48344555D01*
X33019847Y-48388726D01*
X33030006Y-48404895D01*
X33041702Y-48417884D01*
X33081707Y-48487176D01*
X33116587Y-48542686D01*
X33120942Y-48555132D01*
X33126545Y-48564837D01*
X33155241Y-48653155D01*
X33176641Y-48714313D01*
X33177452Y-48721513D01*
X33178986Y-48726234D01*
X33192892Y-48858547D01*
X33197000Y-48895000D01*
X33192892Y-48931455D01*
X33178986Y-49063765D01*
X33177452Y-49068484D01*
X33176641Y-49075687D01*
X33155236Y-49136857D01*
X33126545Y-49225162D01*
X33120943Y-49234864D01*
X33116587Y-49247314D01*
X33081700Y-49302834D01*
X33041702Y-49372115D01*
X33030009Y-49385101D01*
X33019847Y-49401274D01*
X32975667Y-49445453D01*
X32928148Y-49498229D01*
X32908927Y-49512193D01*
X32891274Y-49529847D01*
X32842115Y-49560735D01*
X32790860Y-49597975D01*
X32763372Y-49610213D01*
X32737314Y-49626587D01*
X32687251Y-49644104D01*
X32635836Y-49666996D01*
X32600154Y-49674580D01*
X32565687Y-49686641D01*
X32518291Y-49691981D01*
X32469850Y-49702278D01*
X32426908Y-49702278D01*
X32385000Y-49707000D01*
X32343092Y-49702278D01*
X32300150Y-49702278D01*
X32251708Y-49691981D01*
X32204313Y-49686641D01*
X32169846Y-49674580D01*
X32134163Y-49666996D01*
X32082743Y-49644102D01*
X32032686Y-49626587D01*
X32006629Y-49610214D01*
X31979139Y-49597975D01*
X31927876Y-49560730D01*
X31878726Y-49529847D01*
X31861075Y-49512196D01*
X31841851Y-49498229D01*
X31794322Y-49445443D01*
X31750153Y-49401274D01*
X31739993Y-49385104D01*
X31728297Y-49372115D01*
X31688286Y-49302815D01*
X31653413Y-49247314D01*
X31649058Y-49234869D01*
X31643454Y-49225162D01*
X31614749Y-49136817D01*
X31593359Y-49075687D01*
X31592547Y-49068489D01*
X31591013Y-49063765D01*
X31577092Y-48931323D01*
X31573000Y-48895000D01*
X31577092Y-48858679D01*
X31591013Y-48726234D01*
X31592548Y-48721509D01*
X31593359Y-48714313D01*
X31614744Y-48653195D01*
X31643454Y-48564837D01*
X31649059Y-48555128D01*
X31653413Y-48542686D01*
X31688279Y-48487196D01*
X31728297Y-48417884D01*
X31739995Y-48404891D01*
X31750153Y-48388726D01*
X31794313Y-48344565D01*
X31841851Y-48291770D01*
X31861078Y-48277800D01*
X31878726Y-48260153D01*
X31927872Y-48229271D01*
X31979139Y-48192025D01*
X32006630Y-48179784D01*
X32032686Y-48163413D01*
X32082735Y-48145900D01*
X32134165Y-48123002D01*
X32169855Y-48115415D01*
X32204313Y-48103359D01*
X32251703Y-48098019D01*
X32300150Y-48087722D01*
X32343092Y-48087722D01*
X32385000Y-48083000D01*
X32426908Y-48087722D01*
G37*
G36*
X34966908Y-48087722D02*
G01*
X35009850Y-48087722D01*
X35058294Y-48098018D01*
X35105687Y-48103359D01*
X35140148Y-48115417D01*
X35175836Y-48123003D01*
X35227262Y-48145899D01*
X35277314Y-48163413D01*
X35303367Y-48179783D01*
X35330860Y-48192024D01*
X35382126Y-48229271D01*
X35431274Y-48260153D01*
X35448923Y-48277802D01*
X35468148Y-48291770D01*
X35515676Y-48344555D01*
X35559847Y-48388726D01*
X35570006Y-48404895D01*
X35581702Y-48417884D01*
X35621707Y-48487176D01*
X35656587Y-48542686D01*
X35660942Y-48555132D01*
X35666545Y-48564837D01*
X35695241Y-48653155D01*
X35716641Y-48714313D01*
X35717452Y-48721513D01*
X35718986Y-48726234D01*
X35732892Y-48858547D01*
X35737000Y-48895000D01*
X35732892Y-48931455D01*
X35718986Y-49063765D01*
X35717452Y-49068484D01*
X35716641Y-49075687D01*
X35695236Y-49136857D01*
X35666545Y-49225162D01*
X35660943Y-49234864D01*
X35656587Y-49247314D01*
X35621700Y-49302834D01*
X35581702Y-49372115D01*
X35570009Y-49385101D01*
X35559847Y-49401274D01*
X35515667Y-49445453D01*
X35468148Y-49498229D01*
X35448927Y-49512193D01*
X35431274Y-49529847D01*
X35382115Y-49560735D01*
X35330860Y-49597975D01*
X35303372Y-49610213D01*
X35277314Y-49626587D01*
X35227251Y-49644104D01*
X35175836Y-49666996D01*
X35140154Y-49674580D01*
X35105687Y-49686641D01*
X35058291Y-49691981D01*
X35009850Y-49702278D01*
X34966908Y-49702278D01*
X34925000Y-49707000D01*
X34883092Y-49702278D01*
X34840150Y-49702278D01*
X34791708Y-49691981D01*
X34744313Y-49686641D01*
X34709846Y-49674580D01*
X34674163Y-49666996D01*
X34622743Y-49644102D01*
X34572686Y-49626587D01*
X34546629Y-49610214D01*
X34519139Y-49597975D01*
X34467876Y-49560730D01*
X34418726Y-49529847D01*
X34401075Y-49512196D01*
X34381851Y-49498229D01*
X34334322Y-49445443D01*
X34290153Y-49401274D01*
X34279993Y-49385104D01*
X34268297Y-49372115D01*
X34228286Y-49302815D01*
X34193413Y-49247314D01*
X34189058Y-49234869D01*
X34183454Y-49225162D01*
X34154749Y-49136817D01*
X34133359Y-49075687D01*
X34132547Y-49068489D01*
X34131013Y-49063765D01*
X34117092Y-48931323D01*
X34113000Y-48895000D01*
X34117092Y-48858679D01*
X34131013Y-48726234D01*
X34132548Y-48721509D01*
X34133359Y-48714313D01*
X34154744Y-48653195D01*
X34183454Y-48564837D01*
X34189059Y-48555128D01*
X34193413Y-48542686D01*
X34228279Y-48487196D01*
X34268297Y-48417884D01*
X34279995Y-48404891D01*
X34290153Y-48388726D01*
X34334313Y-48344565D01*
X34381851Y-48291770D01*
X34401078Y-48277800D01*
X34418726Y-48260153D01*
X34467872Y-48229271D01*
X34519139Y-48192025D01*
X34546630Y-48179784D01*
X34572686Y-48163413D01*
X34622735Y-48145900D01*
X34674165Y-48123002D01*
X34709855Y-48115415D01*
X34744313Y-48103359D01*
X34791703Y-48098019D01*
X34840150Y-48087722D01*
X34883092Y-48087722D01*
X34925000Y-48083000D01*
X34966908Y-48087722D01*
G37*
G36*
X37506908Y-48087722D02*
G01*
X37549850Y-48087722D01*
X37598294Y-48098018D01*
X37645687Y-48103359D01*
X37680148Y-48115417D01*
X37715836Y-48123003D01*
X37767262Y-48145899D01*
X37817314Y-48163413D01*
X37843367Y-48179783D01*
X37870860Y-48192024D01*
X37922126Y-48229271D01*
X37971274Y-48260153D01*
X37988923Y-48277802D01*
X38008148Y-48291770D01*
X38055676Y-48344555D01*
X38099847Y-48388726D01*
X38110006Y-48404895D01*
X38121702Y-48417884D01*
X38161707Y-48487176D01*
X38196587Y-48542686D01*
X38200942Y-48555132D01*
X38206545Y-48564837D01*
X38235241Y-48653155D01*
X38256641Y-48714313D01*
X38257452Y-48721513D01*
X38258986Y-48726234D01*
X38272892Y-48858547D01*
X38277000Y-48895000D01*
X38272892Y-48931455D01*
X38258986Y-49063765D01*
X38257452Y-49068484D01*
X38256641Y-49075687D01*
X38235236Y-49136857D01*
X38206545Y-49225162D01*
X38200943Y-49234864D01*
X38196587Y-49247314D01*
X38161700Y-49302834D01*
X38121702Y-49372115D01*
X38110009Y-49385101D01*
X38099847Y-49401274D01*
X38055667Y-49445453D01*
X38008148Y-49498229D01*
X37988927Y-49512193D01*
X37971274Y-49529847D01*
X37922115Y-49560735D01*
X37870860Y-49597975D01*
X37843372Y-49610213D01*
X37817314Y-49626587D01*
X37767251Y-49644104D01*
X37715836Y-49666996D01*
X37680154Y-49674580D01*
X37645687Y-49686641D01*
X37598291Y-49691981D01*
X37549850Y-49702278D01*
X37506908Y-49702278D01*
X37465000Y-49707000D01*
X37423092Y-49702278D01*
X37380150Y-49702278D01*
X37331708Y-49691981D01*
X37284313Y-49686641D01*
X37249846Y-49674580D01*
X37214163Y-49666996D01*
X37162743Y-49644102D01*
X37112686Y-49626587D01*
X37086629Y-49610214D01*
X37059139Y-49597975D01*
X37007876Y-49560730D01*
X36958726Y-49529847D01*
X36941075Y-49512196D01*
X36921851Y-49498229D01*
X36874322Y-49445443D01*
X36830153Y-49401274D01*
X36819993Y-49385104D01*
X36808297Y-49372115D01*
X36768286Y-49302815D01*
X36733413Y-49247314D01*
X36729058Y-49234869D01*
X36723454Y-49225162D01*
X36694749Y-49136817D01*
X36673359Y-49075687D01*
X36672547Y-49068489D01*
X36671013Y-49063765D01*
X36657092Y-48931323D01*
X36653000Y-48895000D01*
X36657092Y-48858679D01*
X36671013Y-48726234D01*
X36672548Y-48721509D01*
X36673359Y-48714313D01*
X36694744Y-48653195D01*
X36723454Y-48564837D01*
X36729059Y-48555128D01*
X36733413Y-48542686D01*
X36768279Y-48487196D01*
X36808297Y-48417884D01*
X36819995Y-48404891D01*
X36830153Y-48388726D01*
X36874313Y-48344565D01*
X36921851Y-48291770D01*
X36941078Y-48277800D01*
X36958726Y-48260153D01*
X37007872Y-48229271D01*
X37059139Y-48192025D01*
X37086630Y-48179784D01*
X37112686Y-48163413D01*
X37162735Y-48145900D01*
X37214165Y-48123002D01*
X37249855Y-48115415D01*
X37284313Y-48103359D01*
X37331703Y-48098019D01*
X37380150Y-48087722D01*
X37423092Y-48087722D01*
X37465000Y-48083000D01*
X37506908Y-48087722D01*
G37*
G36*
X40046908Y-48087722D02*
G01*
X40089850Y-48087722D01*
X40138294Y-48098018D01*
X40185687Y-48103359D01*
X40220148Y-48115417D01*
X40255836Y-48123003D01*
X40307262Y-48145899D01*
X40357314Y-48163413D01*
X40383367Y-48179783D01*
X40410860Y-48192024D01*
X40462126Y-48229271D01*
X40511274Y-48260153D01*
X40528923Y-48277802D01*
X40548148Y-48291770D01*
X40595676Y-48344555D01*
X40639847Y-48388726D01*
X40650006Y-48404895D01*
X40661702Y-48417884D01*
X40701707Y-48487176D01*
X40736587Y-48542686D01*
X40740942Y-48555132D01*
X40746545Y-48564837D01*
X40775241Y-48653155D01*
X40796641Y-48714313D01*
X40797452Y-48721513D01*
X40798986Y-48726234D01*
X40812892Y-48858547D01*
X40817000Y-48895000D01*
X40812892Y-48931455D01*
X40798986Y-49063765D01*
X40797452Y-49068484D01*
X40796641Y-49075687D01*
X40775236Y-49136857D01*
X40746545Y-49225162D01*
X40740943Y-49234864D01*
X40736587Y-49247314D01*
X40701700Y-49302834D01*
X40661702Y-49372115D01*
X40650009Y-49385101D01*
X40639847Y-49401274D01*
X40595667Y-49445453D01*
X40548148Y-49498229D01*
X40528927Y-49512193D01*
X40511274Y-49529847D01*
X40462115Y-49560735D01*
X40410860Y-49597975D01*
X40383372Y-49610213D01*
X40357314Y-49626587D01*
X40307251Y-49644104D01*
X40255836Y-49666996D01*
X40220154Y-49674580D01*
X40185687Y-49686641D01*
X40138291Y-49691981D01*
X40089850Y-49702278D01*
X40046908Y-49702278D01*
X40005000Y-49707000D01*
X39963092Y-49702278D01*
X39920150Y-49702278D01*
X39871708Y-49691981D01*
X39824313Y-49686641D01*
X39789846Y-49674580D01*
X39754163Y-49666996D01*
X39702743Y-49644102D01*
X39652686Y-49626587D01*
X39626629Y-49610214D01*
X39599139Y-49597975D01*
X39547876Y-49560730D01*
X39498726Y-49529847D01*
X39481075Y-49512196D01*
X39461851Y-49498229D01*
X39414322Y-49445443D01*
X39370153Y-49401274D01*
X39359993Y-49385104D01*
X39348297Y-49372115D01*
X39308286Y-49302815D01*
X39273413Y-49247314D01*
X39269058Y-49234869D01*
X39263454Y-49225162D01*
X39234749Y-49136817D01*
X39213359Y-49075687D01*
X39212547Y-49068489D01*
X39211013Y-49063765D01*
X39197092Y-48931323D01*
X39193000Y-48895000D01*
X39197092Y-48858679D01*
X39211013Y-48726234D01*
X39212548Y-48721509D01*
X39213359Y-48714313D01*
X39234744Y-48653195D01*
X39263454Y-48564837D01*
X39269059Y-48555128D01*
X39273413Y-48542686D01*
X39308279Y-48487196D01*
X39348297Y-48417884D01*
X39359995Y-48404891D01*
X39370153Y-48388726D01*
X39414313Y-48344565D01*
X39461851Y-48291770D01*
X39481078Y-48277800D01*
X39498726Y-48260153D01*
X39547872Y-48229271D01*
X39599139Y-48192025D01*
X39626630Y-48179784D01*
X39652686Y-48163413D01*
X39702735Y-48145900D01*
X39754165Y-48123002D01*
X39789855Y-48115415D01*
X39824313Y-48103359D01*
X39871703Y-48098019D01*
X39920150Y-48087722D01*
X39963092Y-48087722D01*
X40005000Y-48083000D01*
X40046908Y-48087722D01*
G37*
G36*
X42586908Y-48087722D02*
G01*
X42629850Y-48087722D01*
X42678294Y-48098018D01*
X42725687Y-48103359D01*
X42760148Y-48115417D01*
X42795836Y-48123003D01*
X42847262Y-48145899D01*
X42897314Y-48163413D01*
X42923367Y-48179783D01*
X42950860Y-48192024D01*
X43002126Y-48229271D01*
X43051274Y-48260153D01*
X43068923Y-48277802D01*
X43088148Y-48291770D01*
X43135676Y-48344555D01*
X43179847Y-48388726D01*
X43190006Y-48404895D01*
X43201702Y-48417884D01*
X43241707Y-48487176D01*
X43276587Y-48542686D01*
X43280942Y-48555132D01*
X43286545Y-48564837D01*
X43315241Y-48653155D01*
X43336641Y-48714313D01*
X43337452Y-48721513D01*
X43338986Y-48726234D01*
X43352892Y-48858547D01*
X43357000Y-48895000D01*
X43352892Y-48931455D01*
X43338986Y-49063765D01*
X43337452Y-49068484D01*
X43336641Y-49075687D01*
X43315236Y-49136857D01*
X43286545Y-49225162D01*
X43280943Y-49234864D01*
X43276587Y-49247314D01*
X43241700Y-49302834D01*
X43201702Y-49372115D01*
X43190009Y-49385101D01*
X43179847Y-49401274D01*
X43135667Y-49445453D01*
X43088148Y-49498229D01*
X43068927Y-49512193D01*
X43051274Y-49529847D01*
X43002115Y-49560735D01*
X42950860Y-49597975D01*
X42923372Y-49610213D01*
X42897314Y-49626587D01*
X42847251Y-49644104D01*
X42795836Y-49666996D01*
X42760154Y-49674580D01*
X42725687Y-49686641D01*
X42678291Y-49691981D01*
X42629850Y-49702278D01*
X42586908Y-49702278D01*
X42545000Y-49707000D01*
X42503092Y-49702278D01*
X42460150Y-49702278D01*
X42411708Y-49691981D01*
X42364313Y-49686641D01*
X42329846Y-49674580D01*
X42294163Y-49666996D01*
X42242743Y-49644102D01*
X42192686Y-49626587D01*
X42166629Y-49610214D01*
X42139139Y-49597975D01*
X42087876Y-49560730D01*
X42038726Y-49529847D01*
X42021075Y-49512196D01*
X42001851Y-49498229D01*
X41954322Y-49445443D01*
X41910153Y-49401274D01*
X41899993Y-49385104D01*
X41888297Y-49372115D01*
X41848286Y-49302815D01*
X41813413Y-49247314D01*
X41809058Y-49234869D01*
X41803454Y-49225162D01*
X41774749Y-49136817D01*
X41753359Y-49075687D01*
X41752547Y-49068489D01*
X41751013Y-49063765D01*
X41737092Y-48931323D01*
X41733000Y-48895000D01*
X41737092Y-48858679D01*
X41751013Y-48726234D01*
X41752548Y-48721509D01*
X41753359Y-48714313D01*
X41774744Y-48653195D01*
X41803454Y-48564837D01*
X41809059Y-48555128D01*
X41813413Y-48542686D01*
X41848279Y-48487196D01*
X41888297Y-48417884D01*
X41899995Y-48404891D01*
X41910153Y-48388726D01*
X41954313Y-48344565D01*
X42001851Y-48291770D01*
X42021078Y-48277800D01*
X42038726Y-48260153D01*
X42087872Y-48229271D01*
X42139139Y-48192025D01*
X42166630Y-48179784D01*
X42192686Y-48163413D01*
X42242735Y-48145900D01*
X42294165Y-48123002D01*
X42329855Y-48115415D01*
X42364313Y-48103359D01*
X42411703Y-48098019D01*
X42460150Y-48087722D01*
X42503092Y-48087722D01*
X42545000Y-48083000D01*
X42586908Y-48087722D01*
G37*
G36*
X45126908Y-48087722D02*
G01*
X45169850Y-48087722D01*
X45218294Y-48098018D01*
X45265687Y-48103359D01*
X45300148Y-48115417D01*
X45335836Y-48123003D01*
X45387262Y-48145899D01*
X45437314Y-48163413D01*
X45463367Y-48179783D01*
X45490860Y-48192024D01*
X45542126Y-48229271D01*
X45591274Y-48260153D01*
X45608923Y-48277802D01*
X45628148Y-48291770D01*
X45675676Y-48344555D01*
X45719847Y-48388726D01*
X45730006Y-48404895D01*
X45741702Y-48417884D01*
X45781707Y-48487176D01*
X45816587Y-48542686D01*
X45820942Y-48555132D01*
X45826545Y-48564837D01*
X45855241Y-48653155D01*
X45876641Y-48714313D01*
X45877452Y-48721513D01*
X45878986Y-48726234D01*
X45892892Y-48858547D01*
X45897000Y-48895000D01*
X45892892Y-48931455D01*
X45878986Y-49063765D01*
X45877452Y-49068484D01*
X45876641Y-49075687D01*
X45855236Y-49136857D01*
X45826545Y-49225162D01*
X45820943Y-49234864D01*
X45816587Y-49247314D01*
X45781700Y-49302834D01*
X45741702Y-49372115D01*
X45730009Y-49385101D01*
X45719847Y-49401274D01*
X45675667Y-49445453D01*
X45628148Y-49498229D01*
X45608927Y-49512193D01*
X45591274Y-49529847D01*
X45542115Y-49560735D01*
X45490860Y-49597975D01*
X45463372Y-49610213D01*
X45437314Y-49626587D01*
X45387251Y-49644104D01*
X45335836Y-49666996D01*
X45300154Y-49674580D01*
X45265687Y-49686641D01*
X45218291Y-49691981D01*
X45169850Y-49702278D01*
X45126908Y-49702278D01*
X45085000Y-49707000D01*
X45043092Y-49702278D01*
X45000150Y-49702278D01*
X44951708Y-49691981D01*
X44904313Y-49686641D01*
X44869846Y-49674580D01*
X44834163Y-49666996D01*
X44782743Y-49644102D01*
X44732686Y-49626587D01*
X44706629Y-49610214D01*
X44679139Y-49597975D01*
X44627876Y-49560730D01*
X44578726Y-49529847D01*
X44561075Y-49512196D01*
X44541851Y-49498229D01*
X44494322Y-49445443D01*
X44450153Y-49401274D01*
X44439993Y-49385104D01*
X44428297Y-49372115D01*
X44388286Y-49302815D01*
X44353413Y-49247314D01*
X44349058Y-49234869D01*
X44343454Y-49225162D01*
X44314749Y-49136817D01*
X44293359Y-49075687D01*
X44292547Y-49068489D01*
X44291013Y-49063765D01*
X44277092Y-48931323D01*
X44273000Y-48895000D01*
X44277092Y-48858679D01*
X44291013Y-48726234D01*
X44292548Y-48721509D01*
X44293359Y-48714313D01*
X44314744Y-48653195D01*
X44343454Y-48564837D01*
X44349059Y-48555128D01*
X44353413Y-48542686D01*
X44388279Y-48487196D01*
X44428297Y-48417884D01*
X44439995Y-48404891D01*
X44450153Y-48388726D01*
X44494313Y-48344565D01*
X44541851Y-48291770D01*
X44561078Y-48277800D01*
X44578726Y-48260153D01*
X44627872Y-48229271D01*
X44679139Y-48192025D01*
X44706630Y-48179784D01*
X44732686Y-48163413D01*
X44782735Y-48145900D01*
X44834165Y-48123002D01*
X44869855Y-48115415D01*
X44904313Y-48103359D01*
X44951703Y-48098019D01*
X45000150Y-48087722D01*
X45043092Y-48087722D01*
X45085000Y-48083000D01*
X45126908Y-48087722D01*
G37*
G36*
X47666908Y-48087722D02*
G01*
X47709850Y-48087722D01*
X47758294Y-48098018D01*
X47805687Y-48103359D01*
X47840148Y-48115417D01*
X47875836Y-48123003D01*
X47927262Y-48145899D01*
X47977314Y-48163413D01*
X48003367Y-48179783D01*
X48030860Y-48192024D01*
X48082126Y-48229271D01*
X48131274Y-48260153D01*
X48148923Y-48277802D01*
X48168148Y-48291770D01*
X48215676Y-48344555D01*
X48259847Y-48388726D01*
X48270006Y-48404895D01*
X48281702Y-48417884D01*
X48321707Y-48487176D01*
X48356587Y-48542686D01*
X48360942Y-48555132D01*
X48366545Y-48564837D01*
X48395241Y-48653155D01*
X48416641Y-48714313D01*
X48417452Y-48721513D01*
X48418986Y-48726234D01*
X48432892Y-48858547D01*
X48437000Y-48895000D01*
X48432892Y-48931455D01*
X48418986Y-49063765D01*
X48417452Y-49068484D01*
X48416641Y-49075687D01*
X48395236Y-49136857D01*
X48366545Y-49225162D01*
X48360943Y-49234864D01*
X48356587Y-49247314D01*
X48321700Y-49302834D01*
X48281702Y-49372115D01*
X48270009Y-49385101D01*
X48259847Y-49401274D01*
X48215667Y-49445453D01*
X48168148Y-49498229D01*
X48148927Y-49512193D01*
X48131274Y-49529847D01*
X48082115Y-49560735D01*
X48030860Y-49597975D01*
X48003372Y-49610213D01*
X47977314Y-49626587D01*
X47927251Y-49644104D01*
X47875836Y-49666996D01*
X47840154Y-49674580D01*
X47805687Y-49686641D01*
X47758291Y-49691981D01*
X47709850Y-49702278D01*
X47666908Y-49702278D01*
X47625000Y-49707000D01*
X47583092Y-49702278D01*
X47540150Y-49702278D01*
X47491708Y-49691981D01*
X47444313Y-49686641D01*
X47409846Y-49674580D01*
X47374163Y-49666996D01*
X47322743Y-49644102D01*
X47272686Y-49626587D01*
X47246629Y-49610214D01*
X47219139Y-49597975D01*
X47167876Y-49560730D01*
X47118726Y-49529847D01*
X47101075Y-49512196D01*
X47081851Y-49498229D01*
X47034322Y-49445443D01*
X46990153Y-49401274D01*
X46979993Y-49385104D01*
X46968297Y-49372115D01*
X46928286Y-49302815D01*
X46893413Y-49247314D01*
X46889058Y-49234869D01*
X46883454Y-49225162D01*
X46854749Y-49136817D01*
X46833359Y-49075687D01*
X46832547Y-49068489D01*
X46831013Y-49063765D01*
X46817092Y-48931323D01*
X46813000Y-48895000D01*
X46817092Y-48858679D01*
X46831013Y-48726234D01*
X46832548Y-48721509D01*
X46833359Y-48714313D01*
X46854744Y-48653195D01*
X46883454Y-48564837D01*
X46889059Y-48555128D01*
X46893413Y-48542686D01*
X46928279Y-48487196D01*
X46968297Y-48417884D01*
X46979995Y-48404891D01*
X46990153Y-48388726D01*
X47034313Y-48344565D01*
X47081851Y-48291770D01*
X47101078Y-48277800D01*
X47118726Y-48260153D01*
X47167872Y-48229271D01*
X47219139Y-48192025D01*
X47246630Y-48179784D01*
X47272686Y-48163413D01*
X47322735Y-48145900D01*
X47374165Y-48123002D01*
X47409855Y-48115415D01*
X47444313Y-48103359D01*
X47491703Y-48098019D01*
X47540150Y-48087722D01*
X47583092Y-48087722D01*
X47625000Y-48083000D01*
X47666908Y-48087722D01*
G37*
G36*
X50206908Y-48087722D02*
G01*
X50249850Y-48087722D01*
X50298294Y-48098018D01*
X50345687Y-48103359D01*
X50380148Y-48115417D01*
X50415836Y-48123003D01*
X50467262Y-48145899D01*
X50517314Y-48163413D01*
X50543367Y-48179783D01*
X50570860Y-48192024D01*
X50622126Y-48229271D01*
X50671274Y-48260153D01*
X50688923Y-48277802D01*
X50708148Y-48291770D01*
X50755676Y-48344555D01*
X50799847Y-48388726D01*
X50810006Y-48404895D01*
X50821702Y-48417884D01*
X50861707Y-48487176D01*
X50896587Y-48542686D01*
X50900942Y-48555132D01*
X50906545Y-48564837D01*
X50935241Y-48653155D01*
X50956641Y-48714313D01*
X50957452Y-48721513D01*
X50958986Y-48726234D01*
X50972892Y-48858547D01*
X50977000Y-48895000D01*
X50972892Y-48931455D01*
X50958986Y-49063765D01*
X50957452Y-49068484D01*
X50956641Y-49075687D01*
X50935236Y-49136857D01*
X50906545Y-49225162D01*
X50900943Y-49234864D01*
X50896587Y-49247314D01*
X50861700Y-49302834D01*
X50821702Y-49372115D01*
X50810009Y-49385101D01*
X50799847Y-49401274D01*
X50755667Y-49445453D01*
X50708148Y-49498229D01*
X50688927Y-49512193D01*
X50671274Y-49529847D01*
X50622115Y-49560735D01*
X50570860Y-49597975D01*
X50543372Y-49610213D01*
X50517314Y-49626587D01*
X50467251Y-49644104D01*
X50415836Y-49666996D01*
X50380154Y-49674580D01*
X50345687Y-49686641D01*
X50298291Y-49691981D01*
X50249850Y-49702278D01*
X50206908Y-49702278D01*
X50165000Y-49707000D01*
X50123092Y-49702278D01*
X50080150Y-49702278D01*
X50031708Y-49691981D01*
X49984313Y-49686641D01*
X49949846Y-49674580D01*
X49914163Y-49666996D01*
X49862743Y-49644102D01*
X49812686Y-49626587D01*
X49786629Y-49610214D01*
X49759139Y-49597975D01*
X49707876Y-49560730D01*
X49658726Y-49529847D01*
X49641075Y-49512196D01*
X49621851Y-49498229D01*
X49574322Y-49445443D01*
X49530153Y-49401274D01*
X49519993Y-49385104D01*
X49508297Y-49372115D01*
X49468286Y-49302815D01*
X49433413Y-49247314D01*
X49429058Y-49234869D01*
X49423454Y-49225162D01*
X49394749Y-49136817D01*
X49373359Y-49075687D01*
X49372547Y-49068489D01*
X49371013Y-49063765D01*
X49357092Y-48931323D01*
X49353000Y-48895000D01*
X49357092Y-48858679D01*
X49371013Y-48726234D01*
X49372548Y-48721509D01*
X49373359Y-48714313D01*
X49394744Y-48653195D01*
X49423454Y-48564837D01*
X49429059Y-48555128D01*
X49433413Y-48542686D01*
X49468279Y-48487196D01*
X49508297Y-48417884D01*
X49519995Y-48404891D01*
X49530153Y-48388726D01*
X49574313Y-48344565D01*
X49621851Y-48291770D01*
X49641078Y-48277800D01*
X49658726Y-48260153D01*
X49707872Y-48229271D01*
X49759139Y-48192025D01*
X49786630Y-48179784D01*
X49812686Y-48163413D01*
X49862735Y-48145900D01*
X49914165Y-48123002D01*
X49949855Y-48115415D01*
X49984313Y-48103359D01*
X50031703Y-48098019D01*
X50080150Y-48087722D01*
X50123092Y-48087722D01*
X50165000Y-48083000D01*
X50206908Y-48087722D01*
G37*
G36*
X52746908Y-48087722D02*
G01*
X52789850Y-48087722D01*
X52838294Y-48098018D01*
X52885687Y-48103359D01*
X52920148Y-48115417D01*
X52955836Y-48123003D01*
X53007262Y-48145899D01*
X53057314Y-48163413D01*
X53083367Y-48179783D01*
X53110860Y-48192024D01*
X53162126Y-48229271D01*
X53211274Y-48260153D01*
X53228923Y-48277802D01*
X53248148Y-48291770D01*
X53295676Y-48344555D01*
X53339847Y-48388726D01*
X53350006Y-48404895D01*
X53361702Y-48417884D01*
X53401707Y-48487176D01*
X53436587Y-48542686D01*
X53440942Y-48555132D01*
X53446545Y-48564837D01*
X53475241Y-48653155D01*
X53496641Y-48714313D01*
X53497452Y-48721513D01*
X53498986Y-48726234D01*
X53512892Y-48858547D01*
X53517000Y-48895000D01*
X53512892Y-48931455D01*
X53498986Y-49063765D01*
X53497452Y-49068484D01*
X53496641Y-49075687D01*
X53475236Y-49136857D01*
X53446545Y-49225162D01*
X53440943Y-49234864D01*
X53436587Y-49247314D01*
X53401700Y-49302834D01*
X53361702Y-49372115D01*
X53350009Y-49385101D01*
X53339847Y-49401274D01*
X53295667Y-49445453D01*
X53248148Y-49498229D01*
X53228927Y-49512193D01*
X53211274Y-49529847D01*
X53162115Y-49560735D01*
X53110860Y-49597975D01*
X53083372Y-49610213D01*
X53057314Y-49626587D01*
X53007251Y-49644104D01*
X52955836Y-49666996D01*
X52920154Y-49674580D01*
X52885687Y-49686641D01*
X52838291Y-49691981D01*
X52789850Y-49702278D01*
X52746908Y-49702278D01*
X52705000Y-49707000D01*
X52663092Y-49702278D01*
X52620150Y-49702278D01*
X52571708Y-49691981D01*
X52524313Y-49686641D01*
X52489846Y-49674580D01*
X52454163Y-49666996D01*
X52402743Y-49644102D01*
X52352686Y-49626587D01*
X52326629Y-49610214D01*
X52299139Y-49597975D01*
X52247876Y-49560730D01*
X52198726Y-49529847D01*
X52181075Y-49512196D01*
X52161851Y-49498229D01*
X52114322Y-49445443D01*
X52070153Y-49401274D01*
X52059993Y-49385104D01*
X52048297Y-49372115D01*
X52008286Y-49302815D01*
X51973413Y-49247314D01*
X51969058Y-49234869D01*
X51963454Y-49225162D01*
X51934749Y-49136817D01*
X51913359Y-49075687D01*
X51912547Y-49068489D01*
X51911013Y-49063765D01*
X51897092Y-48931323D01*
X51893000Y-48895000D01*
X51897092Y-48858679D01*
X51911013Y-48726234D01*
X51912548Y-48721509D01*
X51913359Y-48714313D01*
X51934744Y-48653195D01*
X51963454Y-48564837D01*
X51969059Y-48555128D01*
X51973413Y-48542686D01*
X52008279Y-48487196D01*
X52048297Y-48417884D01*
X52059995Y-48404891D01*
X52070153Y-48388726D01*
X52114313Y-48344565D01*
X52161851Y-48291770D01*
X52181078Y-48277800D01*
X52198726Y-48260153D01*
X52247872Y-48229271D01*
X52299139Y-48192025D01*
X52326630Y-48179784D01*
X52352686Y-48163413D01*
X52402735Y-48145900D01*
X52454165Y-48123002D01*
X52489855Y-48115415D01*
X52524313Y-48103359D01*
X52571703Y-48098019D01*
X52620150Y-48087722D01*
X52663092Y-48087722D01*
X52705000Y-48083000D01*
X52746908Y-48087722D01*
G37*
G36*
X55286908Y-48087722D02*
G01*
X55329850Y-48087722D01*
X55378294Y-48098018D01*
X55425687Y-48103359D01*
X55460148Y-48115417D01*
X55495836Y-48123003D01*
X55547262Y-48145899D01*
X55597314Y-48163413D01*
X55623367Y-48179783D01*
X55650860Y-48192024D01*
X55702126Y-48229271D01*
X55751274Y-48260153D01*
X55768923Y-48277802D01*
X55788148Y-48291770D01*
X55835676Y-48344555D01*
X55879847Y-48388726D01*
X55890006Y-48404895D01*
X55901702Y-48417884D01*
X55941707Y-48487176D01*
X55976587Y-48542686D01*
X55980942Y-48555132D01*
X55986545Y-48564837D01*
X56015241Y-48653155D01*
X56036641Y-48714313D01*
X56037452Y-48721513D01*
X56038986Y-48726234D01*
X56052892Y-48858547D01*
X56057000Y-48895000D01*
X56052892Y-48931455D01*
X56038986Y-49063765D01*
X56037452Y-49068484D01*
X56036641Y-49075687D01*
X56015236Y-49136857D01*
X55986545Y-49225162D01*
X55980943Y-49234864D01*
X55976587Y-49247314D01*
X55941700Y-49302834D01*
X55901702Y-49372115D01*
X55890009Y-49385101D01*
X55879847Y-49401274D01*
X55835667Y-49445453D01*
X55788148Y-49498229D01*
X55768927Y-49512193D01*
X55751274Y-49529847D01*
X55702115Y-49560735D01*
X55650860Y-49597975D01*
X55623372Y-49610213D01*
X55597314Y-49626587D01*
X55547251Y-49644104D01*
X55495836Y-49666996D01*
X55460154Y-49674580D01*
X55425687Y-49686641D01*
X55378291Y-49691981D01*
X55329850Y-49702278D01*
X55286908Y-49702278D01*
X55245000Y-49707000D01*
X55203092Y-49702278D01*
X55160150Y-49702278D01*
X55111708Y-49691981D01*
X55064313Y-49686641D01*
X55029846Y-49674580D01*
X54994163Y-49666996D01*
X54942743Y-49644102D01*
X54892686Y-49626587D01*
X54866629Y-49610214D01*
X54839139Y-49597975D01*
X54787876Y-49560730D01*
X54738726Y-49529847D01*
X54721075Y-49512196D01*
X54701851Y-49498229D01*
X54654322Y-49445443D01*
X54610153Y-49401274D01*
X54599993Y-49385104D01*
X54588297Y-49372115D01*
X54548286Y-49302815D01*
X54513413Y-49247314D01*
X54509058Y-49234869D01*
X54503454Y-49225162D01*
X54474749Y-49136817D01*
X54453359Y-49075687D01*
X54452547Y-49068489D01*
X54451013Y-49063765D01*
X54437092Y-48931323D01*
X54433000Y-48895000D01*
X54437092Y-48858679D01*
X54451013Y-48726234D01*
X54452548Y-48721509D01*
X54453359Y-48714313D01*
X54474744Y-48653195D01*
X54503454Y-48564837D01*
X54509059Y-48555128D01*
X54513413Y-48542686D01*
X54548279Y-48487196D01*
X54588297Y-48417884D01*
X54599995Y-48404891D01*
X54610153Y-48388726D01*
X54654313Y-48344565D01*
X54701851Y-48291770D01*
X54721078Y-48277800D01*
X54738726Y-48260153D01*
X54787872Y-48229271D01*
X54839139Y-48192025D01*
X54866630Y-48179784D01*
X54892686Y-48163413D01*
X54942735Y-48145900D01*
X54994165Y-48123002D01*
X55029855Y-48115415D01*
X55064313Y-48103359D01*
X55111703Y-48098019D01*
X55160150Y-48087722D01*
X55203092Y-48087722D01*
X55245000Y-48083000D01*
X55286908Y-48087722D01*
G37*
G36*
X57826908Y-48087722D02*
G01*
X57869850Y-48087722D01*
X57918294Y-48098018D01*
X57965687Y-48103359D01*
X58000148Y-48115417D01*
X58035836Y-48123003D01*
X58087262Y-48145899D01*
X58137314Y-48163413D01*
X58163367Y-48179783D01*
X58190860Y-48192024D01*
X58242126Y-48229271D01*
X58291274Y-48260153D01*
X58308923Y-48277802D01*
X58328148Y-48291770D01*
X58375676Y-48344555D01*
X58419847Y-48388726D01*
X58430006Y-48404895D01*
X58441702Y-48417884D01*
X58481707Y-48487176D01*
X58516587Y-48542686D01*
X58520942Y-48555132D01*
X58526545Y-48564837D01*
X58555241Y-48653155D01*
X58576641Y-48714313D01*
X58577452Y-48721513D01*
X58578986Y-48726234D01*
X58592892Y-48858547D01*
X58597000Y-48895000D01*
X58592892Y-48931455D01*
X58578986Y-49063765D01*
X58577452Y-49068484D01*
X58576641Y-49075687D01*
X58555236Y-49136857D01*
X58526545Y-49225162D01*
X58520943Y-49234864D01*
X58516587Y-49247314D01*
X58481700Y-49302834D01*
X58441702Y-49372115D01*
X58430009Y-49385101D01*
X58419847Y-49401274D01*
X58375667Y-49445453D01*
X58328148Y-49498229D01*
X58308927Y-49512193D01*
X58291274Y-49529847D01*
X58242115Y-49560735D01*
X58190860Y-49597975D01*
X58163372Y-49610213D01*
X58137314Y-49626587D01*
X58087251Y-49644104D01*
X58035836Y-49666996D01*
X58000154Y-49674580D01*
X57965687Y-49686641D01*
X57918291Y-49691981D01*
X57869850Y-49702278D01*
X57826908Y-49702278D01*
X57785000Y-49707000D01*
X57743092Y-49702278D01*
X57700150Y-49702278D01*
X57651708Y-49691981D01*
X57604313Y-49686641D01*
X57569846Y-49674580D01*
X57534163Y-49666996D01*
X57482743Y-49644102D01*
X57432686Y-49626587D01*
X57406629Y-49610214D01*
X57379139Y-49597975D01*
X57327876Y-49560730D01*
X57278726Y-49529847D01*
X57261075Y-49512196D01*
X57241851Y-49498229D01*
X57194322Y-49445443D01*
X57150153Y-49401274D01*
X57139993Y-49385104D01*
X57128297Y-49372115D01*
X57088286Y-49302815D01*
X57053413Y-49247314D01*
X57049058Y-49234869D01*
X57043454Y-49225162D01*
X57014749Y-49136817D01*
X56993359Y-49075687D01*
X56992547Y-49068489D01*
X56991013Y-49063765D01*
X56977092Y-48931323D01*
X56973000Y-48895000D01*
X56977092Y-48858679D01*
X56991013Y-48726234D01*
X56992548Y-48721509D01*
X56993359Y-48714313D01*
X57014744Y-48653195D01*
X57043454Y-48564837D01*
X57049059Y-48555128D01*
X57053413Y-48542686D01*
X57088279Y-48487196D01*
X57128297Y-48417884D01*
X57139995Y-48404891D01*
X57150153Y-48388726D01*
X57194313Y-48344565D01*
X57241851Y-48291770D01*
X57261078Y-48277800D01*
X57278726Y-48260153D01*
X57327872Y-48229271D01*
X57379139Y-48192025D01*
X57406630Y-48179784D01*
X57432686Y-48163413D01*
X57482735Y-48145900D01*
X57534165Y-48123002D01*
X57569855Y-48115415D01*
X57604313Y-48103359D01*
X57651703Y-48098019D01*
X57700150Y-48087722D01*
X57743092Y-48087722D01*
X57785000Y-48083000D01*
X57826908Y-48087722D01*
G37*
G36*
X60366908Y-48087722D02*
G01*
X60409850Y-48087722D01*
X60458294Y-48098018D01*
X60505687Y-48103359D01*
X60540148Y-48115417D01*
X60575836Y-48123003D01*
X60627262Y-48145899D01*
X60677314Y-48163413D01*
X60703367Y-48179783D01*
X60730860Y-48192024D01*
X60782126Y-48229271D01*
X60831274Y-48260153D01*
X60848923Y-48277802D01*
X60868148Y-48291770D01*
X60915676Y-48344555D01*
X60959847Y-48388726D01*
X60970006Y-48404895D01*
X60981702Y-48417884D01*
X61021707Y-48487176D01*
X61056587Y-48542686D01*
X61060942Y-48555132D01*
X61066545Y-48564837D01*
X61095241Y-48653155D01*
X61116641Y-48714313D01*
X61117452Y-48721513D01*
X61118986Y-48726234D01*
X61132892Y-48858547D01*
X61137000Y-48895000D01*
X61132892Y-48931455D01*
X61118986Y-49063765D01*
X61117452Y-49068484D01*
X61116641Y-49075687D01*
X61095236Y-49136857D01*
X61066545Y-49225162D01*
X61060943Y-49234864D01*
X61056587Y-49247314D01*
X61021700Y-49302834D01*
X60981702Y-49372115D01*
X60970009Y-49385101D01*
X60959847Y-49401274D01*
X60915667Y-49445453D01*
X60868148Y-49498229D01*
X60848927Y-49512193D01*
X60831274Y-49529847D01*
X60782115Y-49560735D01*
X60730860Y-49597975D01*
X60703372Y-49610213D01*
X60677314Y-49626587D01*
X60627251Y-49644104D01*
X60575836Y-49666996D01*
X60540154Y-49674580D01*
X60505687Y-49686641D01*
X60458291Y-49691981D01*
X60409850Y-49702278D01*
X60366908Y-49702278D01*
X60325000Y-49707000D01*
X60283092Y-49702278D01*
X60240150Y-49702278D01*
X60191708Y-49691981D01*
X60144313Y-49686641D01*
X60109846Y-49674580D01*
X60074163Y-49666996D01*
X60022743Y-49644102D01*
X59972686Y-49626587D01*
X59946629Y-49610214D01*
X59919139Y-49597975D01*
X59867876Y-49560730D01*
X59818726Y-49529847D01*
X59801075Y-49512196D01*
X59781851Y-49498229D01*
X59734322Y-49445443D01*
X59690153Y-49401274D01*
X59679993Y-49385104D01*
X59668297Y-49372115D01*
X59628286Y-49302815D01*
X59593413Y-49247314D01*
X59589058Y-49234869D01*
X59583454Y-49225162D01*
X59554749Y-49136817D01*
X59533359Y-49075687D01*
X59532547Y-49068489D01*
X59531013Y-49063765D01*
X59517092Y-48931323D01*
X59513000Y-48895000D01*
X59517092Y-48858679D01*
X59531013Y-48726234D01*
X59532548Y-48721509D01*
X59533359Y-48714313D01*
X59554744Y-48653195D01*
X59583454Y-48564837D01*
X59589059Y-48555128D01*
X59593413Y-48542686D01*
X59628279Y-48487196D01*
X59668297Y-48417884D01*
X59679995Y-48404891D01*
X59690153Y-48388726D01*
X59734313Y-48344565D01*
X59781851Y-48291770D01*
X59801078Y-48277800D01*
X59818726Y-48260153D01*
X59867872Y-48229271D01*
X59919139Y-48192025D01*
X59946630Y-48179784D01*
X59972686Y-48163413D01*
X60022735Y-48145900D01*
X60074165Y-48123002D01*
X60109855Y-48115415D01*
X60144313Y-48103359D01*
X60191703Y-48098019D01*
X60240150Y-48087722D01*
X60283092Y-48087722D01*
X60325000Y-48083000D01*
X60366908Y-48087722D01*
G37*
G36*
X62906908Y-48087722D02*
G01*
X62949850Y-48087722D01*
X62998294Y-48098018D01*
X63045687Y-48103359D01*
X63080148Y-48115417D01*
X63115836Y-48123003D01*
X63167262Y-48145899D01*
X63217314Y-48163413D01*
X63243367Y-48179783D01*
X63270860Y-48192024D01*
X63322126Y-48229271D01*
X63371274Y-48260153D01*
X63388923Y-48277802D01*
X63408148Y-48291770D01*
X63455676Y-48344555D01*
X63499847Y-48388726D01*
X63510006Y-48404895D01*
X63521702Y-48417884D01*
X63561707Y-48487176D01*
X63596587Y-48542686D01*
X63600942Y-48555132D01*
X63606545Y-48564837D01*
X63635241Y-48653155D01*
X63656641Y-48714313D01*
X63657452Y-48721513D01*
X63658986Y-48726234D01*
X63672892Y-48858547D01*
X63677000Y-48895000D01*
X63672892Y-48931455D01*
X63658986Y-49063765D01*
X63657452Y-49068484D01*
X63656641Y-49075687D01*
X63635236Y-49136857D01*
X63606545Y-49225162D01*
X63600943Y-49234864D01*
X63596587Y-49247314D01*
X63561700Y-49302834D01*
X63521702Y-49372115D01*
X63510009Y-49385101D01*
X63499847Y-49401274D01*
X63455667Y-49445453D01*
X63408148Y-49498229D01*
X63388927Y-49512193D01*
X63371274Y-49529847D01*
X63322115Y-49560735D01*
X63270860Y-49597975D01*
X63243372Y-49610213D01*
X63217314Y-49626587D01*
X63167251Y-49644104D01*
X63115836Y-49666996D01*
X63080154Y-49674580D01*
X63045687Y-49686641D01*
X62998291Y-49691981D01*
X62949850Y-49702278D01*
X62906908Y-49702278D01*
X62865000Y-49707000D01*
X62823092Y-49702278D01*
X62780150Y-49702278D01*
X62731708Y-49691981D01*
X62684313Y-49686641D01*
X62649846Y-49674580D01*
X62614163Y-49666996D01*
X62562743Y-49644102D01*
X62512686Y-49626587D01*
X62486629Y-49610214D01*
X62459139Y-49597975D01*
X62407876Y-49560730D01*
X62358726Y-49529847D01*
X62341075Y-49512196D01*
X62321851Y-49498229D01*
X62274322Y-49445443D01*
X62230153Y-49401274D01*
X62219993Y-49385104D01*
X62208297Y-49372115D01*
X62168286Y-49302815D01*
X62133413Y-49247314D01*
X62129058Y-49234869D01*
X62123454Y-49225162D01*
X62094749Y-49136817D01*
X62073359Y-49075687D01*
X62072547Y-49068489D01*
X62071013Y-49063765D01*
X62057092Y-48931323D01*
X62053000Y-48895000D01*
X62057092Y-48858679D01*
X62071013Y-48726234D01*
X62072548Y-48721509D01*
X62073359Y-48714313D01*
X62094744Y-48653195D01*
X62123454Y-48564837D01*
X62129059Y-48555128D01*
X62133413Y-48542686D01*
X62168279Y-48487196D01*
X62208297Y-48417884D01*
X62219995Y-48404891D01*
X62230153Y-48388726D01*
X62274313Y-48344565D01*
X62321851Y-48291770D01*
X62341078Y-48277800D01*
X62358726Y-48260153D01*
X62407872Y-48229271D01*
X62459139Y-48192025D01*
X62486630Y-48179784D01*
X62512686Y-48163413D01*
X62562735Y-48145900D01*
X62614165Y-48123002D01*
X62649855Y-48115415D01*
X62684313Y-48103359D01*
X62731703Y-48098019D01*
X62780150Y-48087722D01*
X62823092Y-48087722D01*
X62865000Y-48083000D01*
X62906908Y-48087722D01*
G37*
G36*
X65446908Y-48087722D02*
G01*
X65489850Y-48087722D01*
X65538294Y-48098018D01*
X65585687Y-48103359D01*
X65620148Y-48115417D01*
X65655836Y-48123003D01*
X65707262Y-48145899D01*
X65757314Y-48163413D01*
X65783367Y-48179783D01*
X65810860Y-48192024D01*
X65862126Y-48229271D01*
X65911274Y-48260153D01*
X65928923Y-48277802D01*
X65948148Y-48291770D01*
X65995676Y-48344555D01*
X66039847Y-48388726D01*
X66050006Y-48404895D01*
X66061702Y-48417884D01*
X66101707Y-48487176D01*
X66136587Y-48542686D01*
X66140942Y-48555132D01*
X66146545Y-48564837D01*
X66175241Y-48653155D01*
X66196641Y-48714313D01*
X66197452Y-48721513D01*
X66198986Y-48726234D01*
X66212892Y-48858547D01*
X66217000Y-48895000D01*
X66212892Y-48931455D01*
X66198986Y-49063765D01*
X66197452Y-49068484D01*
X66196641Y-49075687D01*
X66175236Y-49136857D01*
X66146545Y-49225162D01*
X66140943Y-49234864D01*
X66136587Y-49247314D01*
X66101700Y-49302834D01*
X66061702Y-49372115D01*
X66050009Y-49385101D01*
X66039847Y-49401274D01*
X65995667Y-49445453D01*
X65948148Y-49498229D01*
X65928927Y-49512193D01*
X65911274Y-49529847D01*
X65862115Y-49560735D01*
X65810860Y-49597975D01*
X65783372Y-49610213D01*
X65757314Y-49626587D01*
X65707251Y-49644104D01*
X65655836Y-49666996D01*
X65620154Y-49674580D01*
X65585687Y-49686641D01*
X65538291Y-49691981D01*
X65489850Y-49702278D01*
X65446908Y-49702278D01*
X65405000Y-49707000D01*
X65363092Y-49702278D01*
X65320150Y-49702278D01*
X65271708Y-49691981D01*
X65224313Y-49686641D01*
X65189846Y-49674580D01*
X65154163Y-49666996D01*
X65102743Y-49644102D01*
X65052686Y-49626587D01*
X65026629Y-49610214D01*
X64999139Y-49597975D01*
X64947876Y-49560730D01*
X64898726Y-49529847D01*
X64881075Y-49512196D01*
X64861851Y-49498229D01*
X64814322Y-49445443D01*
X64770153Y-49401274D01*
X64759993Y-49385104D01*
X64748297Y-49372115D01*
X64708286Y-49302815D01*
X64673413Y-49247314D01*
X64669058Y-49234869D01*
X64663454Y-49225162D01*
X64634749Y-49136817D01*
X64613359Y-49075687D01*
X64612547Y-49068489D01*
X64611013Y-49063765D01*
X64597092Y-48931323D01*
X64593000Y-48895000D01*
X64597092Y-48858679D01*
X64611013Y-48726234D01*
X64612548Y-48721509D01*
X64613359Y-48714313D01*
X64634744Y-48653195D01*
X64663454Y-48564837D01*
X64669059Y-48555128D01*
X64673413Y-48542686D01*
X64708279Y-48487196D01*
X64748297Y-48417884D01*
X64759995Y-48404891D01*
X64770153Y-48388726D01*
X64814313Y-48344565D01*
X64861851Y-48291770D01*
X64881078Y-48277800D01*
X64898726Y-48260153D01*
X64947872Y-48229271D01*
X64999139Y-48192025D01*
X65026630Y-48179784D01*
X65052686Y-48163413D01*
X65102735Y-48145900D01*
X65154165Y-48123002D01*
X65189855Y-48115415D01*
X65224313Y-48103359D01*
X65271703Y-48098019D01*
X65320150Y-48087722D01*
X65363092Y-48087722D01*
X65405000Y-48083000D01*
X65446908Y-48087722D01*
G37*
G36*
X67986908Y-48087722D02*
G01*
X68029850Y-48087722D01*
X68078294Y-48098018D01*
X68125687Y-48103359D01*
X68160148Y-48115417D01*
X68195836Y-48123003D01*
X68247262Y-48145899D01*
X68297314Y-48163413D01*
X68323367Y-48179783D01*
X68350860Y-48192024D01*
X68402126Y-48229271D01*
X68451274Y-48260153D01*
X68468923Y-48277802D01*
X68488148Y-48291770D01*
X68535676Y-48344555D01*
X68579847Y-48388726D01*
X68590006Y-48404895D01*
X68601702Y-48417884D01*
X68641707Y-48487176D01*
X68676587Y-48542686D01*
X68680942Y-48555132D01*
X68686545Y-48564837D01*
X68715241Y-48653155D01*
X68736641Y-48714313D01*
X68737452Y-48721513D01*
X68738986Y-48726234D01*
X68752892Y-48858547D01*
X68757000Y-48895000D01*
X68752892Y-48931455D01*
X68738986Y-49063765D01*
X68737452Y-49068484D01*
X68736641Y-49075687D01*
X68715236Y-49136857D01*
X68686545Y-49225162D01*
X68680943Y-49234864D01*
X68676587Y-49247314D01*
X68641700Y-49302834D01*
X68601702Y-49372115D01*
X68590009Y-49385101D01*
X68579847Y-49401274D01*
X68535667Y-49445453D01*
X68488148Y-49498229D01*
X68468927Y-49512193D01*
X68451274Y-49529847D01*
X68402115Y-49560735D01*
X68350860Y-49597975D01*
X68323372Y-49610213D01*
X68297314Y-49626587D01*
X68247251Y-49644104D01*
X68195836Y-49666996D01*
X68160154Y-49674580D01*
X68125687Y-49686641D01*
X68078291Y-49691981D01*
X68029850Y-49702278D01*
X67986908Y-49702278D01*
X67945000Y-49707000D01*
X67903092Y-49702278D01*
X67860150Y-49702278D01*
X67811708Y-49691981D01*
X67764313Y-49686641D01*
X67729846Y-49674580D01*
X67694163Y-49666996D01*
X67642743Y-49644102D01*
X67592686Y-49626587D01*
X67566629Y-49610214D01*
X67539139Y-49597975D01*
X67487876Y-49560730D01*
X67438726Y-49529847D01*
X67421075Y-49512196D01*
X67401851Y-49498229D01*
X67354322Y-49445443D01*
X67310153Y-49401274D01*
X67299993Y-49385104D01*
X67288297Y-49372115D01*
X67248286Y-49302815D01*
X67213413Y-49247314D01*
X67209058Y-49234869D01*
X67203454Y-49225162D01*
X67174749Y-49136817D01*
X67153359Y-49075687D01*
X67152547Y-49068489D01*
X67151013Y-49063765D01*
X67137092Y-48931323D01*
X67133000Y-48895000D01*
X67137092Y-48858679D01*
X67151013Y-48726234D01*
X67152548Y-48721509D01*
X67153359Y-48714313D01*
X67174744Y-48653195D01*
X67203454Y-48564837D01*
X67209059Y-48555128D01*
X67213413Y-48542686D01*
X67248279Y-48487196D01*
X67288297Y-48417884D01*
X67299995Y-48404891D01*
X67310153Y-48388726D01*
X67354313Y-48344565D01*
X67401851Y-48291770D01*
X67421078Y-48277800D01*
X67438726Y-48260153D01*
X67487872Y-48229271D01*
X67539139Y-48192025D01*
X67566630Y-48179784D01*
X67592686Y-48163413D01*
X67642735Y-48145900D01*
X67694165Y-48123002D01*
X67729855Y-48115415D01*
X67764313Y-48103359D01*
X67811703Y-48098019D01*
X67860150Y-48087722D01*
X67903092Y-48087722D01*
X67945000Y-48083000D01*
X67986908Y-48087722D01*
G37*
G36*
X97590657Y-44534782D02*
G01*
X97647468Y-44534782D01*
X97710085Y-44545230D01*
X97770425Y-44550510D01*
X97817808Y-44563206D01*
X97867361Y-44571475D01*
X97933834Y-44594295D01*
X97997727Y-44611415D01*
X98036864Y-44629665D01*
X98078219Y-44643862D01*
X98146166Y-44680633D01*
X98211000Y-44710866D01*
X98241522Y-44732238D01*
X98274288Y-44749970D01*
X98340990Y-44801885D01*
X98403763Y-44845840D01*
X98425884Y-44867961D01*
X98450213Y-44886897D01*
X98512705Y-44954782D01*
X98570160Y-45012237D01*
X98584663Y-45032950D01*
X98601202Y-45050916D01*
X98656380Y-45135372D01*
X98705134Y-45205000D01*
X98713271Y-45222450D01*
X98723139Y-45237554D01*
X98767922Y-45339650D01*
X98804585Y-45418273D01*
X98807999Y-45431016D01*
X98812691Y-45441712D01*
X98844117Y-45565810D01*
X98865490Y-45645575D01*
X98866109Y-45652654D01*
X98867419Y-45657826D01*
X98882751Y-45842868D01*
X98886000Y-45880000D01*
X98882751Y-45917134D01*
X98867419Y-46102173D01*
X98866109Y-46107343D01*
X98865490Y-46114425D01*
X98844112Y-46194207D01*
X98812691Y-46318287D01*
X98808000Y-46328980D01*
X98804585Y-46341727D01*
X98767915Y-46420364D01*
X98723139Y-46522445D01*
X98713272Y-46537546D01*
X98705134Y-46555000D01*
X98656370Y-46624641D01*
X98601202Y-46709083D01*
X98584666Y-46727045D01*
X98570160Y-46747763D01*
X98512694Y-46805228D01*
X98450213Y-46873102D01*
X98425888Y-46892034D01*
X98403763Y-46914160D01*
X98340977Y-46958122D01*
X98274288Y-47010029D01*
X98241528Y-47027757D01*
X98211000Y-47049134D01*
X98146152Y-47079372D01*
X98078219Y-47116137D01*
X98036872Y-47130331D01*
X97997727Y-47148585D01*
X97933821Y-47165708D01*
X97867361Y-47188524D01*
X97817816Y-47196791D01*
X97770425Y-47209490D01*
X97710082Y-47214769D01*
X97647468Y-47225218D01*
X97590657Y-47225218D01*
X97536000Y-47230000D01*
X97481343Y-47225218D01*
X97424532Y-47225218D01*
X97361917Y-47214769D01*
X97301575Y-47209490D01*
X97254185Y-47196791D01*
X97204638Y-47188524D01*
X97138174Y-47165707D01*
X97074273Y-47148585D01*
X97035130Y-47130332D01*
X96993780Y-47116137D01*
X96925839Y-47079369D01*
X96861000Y-47049134D01*
X96830474Y-47027759D01*
X96797711Y-47010029D01*
X96731012Y-46958116D01*
X96668237Y-46914160D01*
X96646114Y-46892037D01*
X96621786Y-46873102D01*
X96559293Y-46805216D01*
X96501840Y-46747763D01*
X96487336Y-46727049D01*
X96470797Y-46709083D01*
X96415614Y-46624620D01*
X96366866Y-46555000D01*
X96358729Y-46537551D01*
X96348860Y-46522445D01*
X96304067Y-46420328D01*
X96267415Y-46341727D01*
X96264001Y-46328986D01*
X96259308Y-46318287D01*
X96227869Y-46194139D01*
X96206510Y-46114425D01*
X96205891Y-46107349D01*
X96204580Y-46102173D01*
X96189230Y-45916918D01*
X96186000Y-45880000D01*
X96189229Y-45843084D01*
X96204580Y-45657826D01*
X96205891Y-45652648D01*
X96206510Y-45645575D01*
X96227864Y-45565878D01*
X96259308Y-45441712D01*
X96264001Y-45431011D01*
X96267415Y-45418273D01*
X96304060Y-45339687D01*
X96348860Y-45237554D01*
X96358731Y-45222444D01*
X96366866Y-45205000D01*
X96415604Y-45135393D01*
X96470797Y-45050916D01*
X96487339Y-45032946D01*
X96501840Y-45012237D01*
X96559281Y-44954795D01*
X96621786Y-44886897D01*
X96646119Y-44867957D01*
X96668237Y-44845840D01*
X96730999Y-44801892D01*
X96797711Y-44749970D01*
X96830480Y-44732235D01*
X96861000Y-44710866D01*
X96925826Y-44680636D01*
X96993780Y-44643862D01*
X97035138Y-44629663D01*
X97074273Y-44611415D01*
X97138161Y-44594296D01*
X97204638Y-44571475D01*
X97254192Y-44563205D01*
X97301575Y-44550510D01*
X97361913Y-44545230D01*
X97424532Y-44534782D01*
X97481343Y-44534782D01*
X97536000Y-44530000D01*
X97590657Y-44534782D01*
G37*
G36*
X98855134Y-39293806D02*
G01*
X98871355Y-39304645D01*
X98882194Y-39320866D01*
X98886000Y-39340000D01*
X98886000Y-41940000D01*
X98882194Y-41959134D01*
X98871355Y-41975355D01*
X98855134Y-41986194D01*
X98836000Y-41990000D01*
X96236000Y-41990000D01*
X96216866Y-41986194D01*
X96200645Y-41975355D01*
X96189806Y-41959134D01*
X96186000Y-41940000D01*
X96186000Y-39340000D01*
X96189806Y-39320866D01*
X96200645Y-39304645D01*
X96216866Y-39293806D01*
X96236000Y-39290000D01*
X98836000Y-39290000D01*
X98855134Y-39293806D01*
G37*
G36*
X97590657Y-34294782D02*
G01*
X97647468Y-34294782D01*
X97710085Y-34305230D01*
X97770425Y-34310510D01*
X97817808Y-34323206D01*
X97867361Y-34331475D01*
X97933834Y-34354295D01*
X97997727Y-34371415D01*
X98036864Y-34389665D01*
X98078219Y-34403862D01*
X98146166Y-34440633D01*
X98211000Y-34470866D01*
X98241522Y-34492238D01*
X98274288Y-34509970D01*
X98340990Y-34561885D01*
X98403763Y-34605840D01*
X98425884Y-34627961D01*
X98450213Y-34646897D01*
X98512705Y-34714782D01*
X98570160Y-34772237D01*
X98584663Y-34792950D01*
X98601202Y-34810916D01*
X98656380Y-34895372D01*
X98705134Y-34965000D01*
X98713271Y-34982450D01*
X98723139Y-34997554D01*
X98767922Y-35099650D01*
X98804585Y-35178273D01*
X98807999Y-35191016D01*
X98812691Y-35201712D01*
X98844117Y-35325810D01*
X98865490Y-35405575D01*
X98866109Y-35412654D01*
X98867419Y-35417826D01*
X98882751Y-35602868D01*
X98886000Y-35640000D01*
X98882751Y-35677134D01*
X98867419Y-35862173D01*
X98866109Y-35867343D01*
X98865490Y-35874425D01*
X98844112Y-35954207D01*
X98812691Y-36078287D01*
X98808000Y-36088980D01*
X98804585Y-36101727D01*
X98767915Y-36180364D01*
X98723139Y-36282445D01*
X98713272Y-36297546D01*
X98705134Y-36315000D01*
X98656370Y-36384641D01*
X98601202Y-36469083D01*
X98584666Y-36487045D01*
X98570160Y-36507763D01*
X98512694Y-36565228D01*
X98450213Y-36633102D01*
X98425888Y-36652034D01*
X98403763Y-36674160D01*
X98340977Y-36718122D01*
X98274288Y-36770029D01*
X98241528Y-36787757D01*
X98211000Y-36809134D01*
X98146152Y-36839372D01*
X98078219Y-36876137D01*
X98036872Y-36890331D01*
X97997727Y-36908585D01*
X97933821Y-36925708D01*
X97867361Y-36948524D01*
X97817816Y-36956791D01*
X97770425Y-36969490D01*
X97710082Y-36974769D01*
X97647468Y-36985218D01*
X97590657Y-36985218D01*
X97536000Y-36990000D01*
X97481343Y-36985218D01*
X97424532Y-36985218D01*
X97361917Y-36974769D01*
X97301575Y-36969490D01*
X97254185Y-36956791D01*
X97204638Y-36948524D01*
X97138174Y-36925707D01*
X97074273Y-36908585D01*
X97035130Y-36890332D01*
X96993780Y-36876137D01*
X96925839Y-36839369D01*
X96861000Y-36809134D01*
X96830474Y-36787759D01*
X96797711Y-36770029D01*
X96731012Y-36718116D01*
X96668237Y-36674160D01*
X96646114Y-36652037D01*
X96621786Y-36633102D01*
X96559293Y-36565216D01*
X96501840Y-36507763D01*
X96487336Y-36487049D01*
X96470797Y-36469083D01*
X96415614Y-36384620D01*
X96366866Y-36315000D01*
X96358729Y-36297551D01*
X96348860Y-36282445D01*
X96304067Y-36180328D01*
X96267415Y-36101727D01*
X96264001Y-36088986D01*
X96259308Y-36078287D01*
X96227869Y-35954139D01*
X96206510Y-35874425D01*
X96205891Y-35867349D01*
X96204580Y-35862173D01*
X96189230Y-35676918D01*
X96186000Y-35640000D01*
X96189229Y-35603084D01*
X96204580Y-35417826D01*
X96205891Y-35412648D01*
X96206510Y-35405575D01*
X96227864Y-35325878D01*
X96259308Y-35201712D01*
X96264001Y-35191011D01*
X96267415Y-35178273D01*
X96304060Y-35099687D01*
X96348860Y-34997554D01*
X96358731Y-34982444D01*
X96366866Y-34965000D01*
X96415604Y-34895393D01*
X96470797Y-34810916D01*
X96487339Y-34792946D01*
X96501840Y-34772237D01*
X96559281Y-34714795D01*
X96621786Y-34646897D01*
X96646119Y-34627957D01*
X96668237Y-34605840D01*
X96730999Y-34561892D01*
X96797711Y-34509970D01*
X96830480Y-34492235D01*
X96861000Y-34470866D01*
X96925826Y-34440636D01*
X96993780Y-34403862D01*
X97035138Y-34389663D01*
X97074273Y-34371415D01*
X97138161Y-34354296D01*
X97204638Y-34331475D01*
X97254192Y-34323205D01*
X97301575Y-34310510D01*
X97361913Y-34305230D01*
X97424532Y-34294782D01*
X97481343Y-34294782D01*
X97536000Y-34290000D01*
X97590657Y-34294782D01*
G37*
G36*
X97590657Y-29294782D02*
G01*
X97647468Y-29294782D01*
X97710085Y-29305230D01*
X97770425Y-29310510D01*
X97817808Y-29323206D01*
X97867361Y-29331475D01*
X97933834Y-29354295D01*
X97997727Y-29371415D01*
X98036864Y-29389665D01*
X98078219Y-29403862D01*
X98146166Y-29440633D01*
X98211000Y-29470866D01*
X98241522Y-29492238D01*
X98274288Y-29509970D01*
X98340990Y-29561885D01*
X98403763Y-29605840D01*
X98425884Y-29627961D01*
X98450213Y-29646897D01*
X98512705Y-29714782D01*
X98570160Y-29772237D01*
X98584663Y-29792950D01*
X98601202Y-29810916D01*
X98656380Y-29895372D01*
X98705134Y-29965000D01*
X98713271Y-29982450D01*
X98723139Y-29997554D01*
X98767922Y-30099650D01*
X98804585Y-30178273D01*
X98807999Y-30191016D01*
X98812691Y-30201712D01*
X98844117Y-30325810D01*
X98865490Y-30405575D01*
X98866109Y-30412654D01*
X98867419Y-30417826D01*
X98882751Y-30602868D01*
X98886000Y-30640000D01*
X98882751Y-30677134D01*
X98867419Y-30862173D01*
X98866109Y-30867343D01*
X98865490Y-30874425D01*
X98844112Y-30954207D01*
X98812691Y-31078287D01*
X98808000Y-31088980D01*
X98804585Y-31101727D01*
X98767915Y-31180364D01*
X98723139Y-31282445D01*
X98713272Y-31297546D01*
X98705134Y-31315000D01*
X98656370Y-31384641D01*
X98601202Y-31469083D01*
X98584666Y-31487045D01*
X98570160Y-31507763D01*
X98512694Y-31565228D01*
X98450213Y-31633102D01*
X98425888Y-31652034D01*
X98403763Y-31674160D01*
X98340977Y-31718122D01*
X98274288Y-31770029D01*
X98241528Y-31787757D01*
X98211000Y-31809134D01*
X98146152Y-31839372D01*
X98078219Y-31876137D01*
X98036872Y-31890331D01*
X97997727Y-31908585D01*
X97933821Y-31925708D01*
X97867361Y-31948524D01*
X97817816Y-31956791D01*
X97770425Y-31969490D01*
X97710082Y-31974769D01*
X97647468Y-31985218D01*
X97590657Y-31985218D01*
X97536000Y-31990000D01*
X97481343Y-31985218D01*
X97424532Y-31985218D01*
X97361917Y-31974769D01*
X97301575Y-31969490D01*
X97254185Y-31956791D01*
X97204638Y-31948524D01*
X97138174Y-31925707D01*
X97074273Y-31908585D01*
X97035130Y-31890332D01*
X96993780Y-31876137D01*
X96925839Y-31839369D01*
X96861000Y-31809134D01*
X96830474Y-31787759D01*
X96797711Y-31770029D01*
X96731012Y-31718116D01*
X96668237Y-31674160D01*
X96646114Y-31652037D01*
X96621786Y-31633102D01*
X96559293Y-31565216D01*
X96501840Y-31507763D01*
X96487336Y-31487049D01*
X96470797Y-31469083D01*
X96415614Y-31384620D01*
X96366866Y-31315000D01*
X96358729Y-31297551D01*
X96348860Y-31282445D01*
X96304067Y-31180328D01*
X96267415Y-31101727D01*
X96264001Y-31088986D01*
X96259308Y-31078287D01*
X96227869Y-30954139D01*
X96206510Y-30874425D01*
X96205891Y-30867349D01*
X96204580Y-30862173D01*
X96189230Y-30676918D01*
X96186000Y-30640000D01*
X96189229Y-30603084D01*
X96204580Y-30417826D01*
X96205891Y-30412648D01*
X96206510Y-30405575D01*
X96227864Y-30325878D01*
X96259308Y-30201712D01*
X96264001Y-30191011D01*
X96267415Y-30178273D01*
X96304060Y-30099687D01*
X96348860Y-29997554D01*
X96358731Y-29982444D01*
X96366866Y-29965000D01*
X96415604Y-29895393D01*
X96470797Y-29810916D01*
X96487339Y-29792946D01*
X96501840Y-29772237D01*
X96559281Y-29714795D01*
X96621786Y-29646897D01*
X96646119Y-29627957D01*
X96668237Y-29605840D01*
X96730999Y-29561892D01*
X96797711Y-29509970D01*
X96830480Y-29492235D01*
X96861000Y-29470866D01*
X96925826Y-29440636D01*
X96993780Y-29403862D01*
X97035138Y-29389663D01*
X97074273Y-29371415D01*
X97138161Y-29354296D01*
X97204638Y-29331475D01*
X97254192Y-29323205D01*
X97301575Y-29310510D01*
X97361913Y-29305230D01*
X97424532Y-29294782D01*
X97481343Y-29294782D01*
X97536000Y-29290000D01*
X97590657Y-29294782D01*
G37*
G36*
X97590657Y-24294782D02*
G01*
X97647468Y-24294782D01*
X97710085Y-24305230D01*
X97770425Y-24310510D01*
X97817808Y-24323206D01*
X97867361Y-24331475D01*
X97933834Y-24354295D01*
X97997727Y-24371415D01*
X98036864Y-24389665D01*
X98078219Y-24403862D01*
X98146166Y-24440633D01*
X98211000Y-24470866D01*
X98241522Y-24492238D01*
X98274288Y-24509970D01*
X98340990Y-24561885D01*
X98403763Y-24605840D01*
X98425884Y-24627961D01*
X98450213Y-24646897D01*
X98512705Y-24714782D01*
X98570160Y-24772237D01*
X98584663Y-24792950D01*
X98601202Y-24810916D01*
X98656380Y-24895372D01*
X98705134Y-24965000D01*
X98713271Y-24982450D01*
X98723139Y-24997554D01*
X98767922Y-25099650D01*
X98804585Y-25178273D01*
X98807999Y-25191016D01*
X98812691Y-25201712D01*
X98844117Y-25325810D01*
X98865490Y-25405575D01*
X98866109Y-25412654D01*
X98867419Y-25417826D01*
X98882751Y-25602868D01*
X98886000Y-25640000D01*
X98882751Y-25677134D01*
X98867419Y-25862173D01*
X98866109Y-25867343D01*
X98865490Y-25874425D01*
X98844112Y-25954207D01*
X98812691Y-26078287D01*
X98808000Y-26088980D01*
X98804585Y-26101727D01*
X98767915Y-26180364D01*
X98723139Y-26282445D01*
X98713272Y-26297546D01*
X98705134Y-26315000D01*
X98656370Y-26384641D01*
X98601202Y-26469083D01*
X98584666Y-26487045D01*
X98570160Y-26507763D01*
X98512694Y-26565228D01*
X98450213Y-26633102D01*
X98425888Y-26652034D01*
X98403763Y-26674160D01*
X98340977Y-26718122D01*
X98274288Y-26770029D01*
X98241528Y-26787757D01*
X98211000Y-26809134D01*
X98146152Y-26839372D01*
X98078219Y-26876137D01*
X98036872Y-26890331D01*
X97997727Y-26908585D01*
X97933821Y-26925708D01*
X97867361Y-26948524D01*
X97817816Y-26956791D01*
X97770425Y-26969490D01*
X97710082Y-26974769D01*
X97647468Y-26985218D01*
X97590657Y-26985218D01*
X97536000Y-26990000D01*
X97481343Y-26985218D01*
X97424532Y-26985218D01*
X97361917Y-26974769D01*
X97301575Y-26969490D01*
X97254185Y-26956791D01*
X97204638Y-26948524D01*
X97138174Y-26925707D01*
X97074273Y-26908585D01*
X97035130Y-26890332D01*
X96993780Y-26876137D01*
X96925839Y-26839369D01*
X96861000Y-26809134D01*
X96830474Y-26787759D01*
X96797711Y-26770029D01*
X96731012Y-26718116D01*
X96668237Y-26674160D01*
X96646114Y-26652037D01*
X96621786Y-26633102D01*
X96559293Y-26565216D01*
X96501840Y-26507763D01*
X96487336Y-26487049D01*
X96470797Y-26469083D01*
X96415614Y-26384620D01*
X96366866Y-26315000D01*
X96358729Y-26297551D01*
X96348860Y-26282445D01*
X96304067Y-26180328D01*
X96267415Y-26101727D01*
X96264001Y-26088986D01*
X96259308Y-26078287D01*
X96227869Y-25954139D01*
X96206510Y-25874425D01*
X96205891Y-25867349D01*
X96204580Y-25862173D01*
X96189230Y-25676918D01*
X96186000Y-25640000D01*
X96189229Y-25603084D01*
X96204580Y-25417826D01*
X96205891Y-25412648D01*
X96206510Y-25405575D01*
X96227864Y-25325878D01*
X96259308Y-25201712D01*
X96264001Y-25191011D01*
X96267415Y-25178273D01*
X96304060Y-25099687D01*
X96348860Y-24997554D01*
X96358731Y-24982444D01*
X96366866Y-24965000D01*
X96415604Y-24895393D01*
X96470797Y-24810916D01*
X96487339Y-24792946D01*
X96501840Y-24772237D01*
X96559281Y-24714795D01*
X96621786Y-24646897D01*
X96646119Y-24627957D01*
X96668237Y-24605840D01*
X96730999Y-24561892D01*
X96797711Y-24509970D01*
X96830480Y-24492235D01*
X96861000Y-24470866D01*
X96925826Y-24440636D01*
X96993780Y-24403862D01*
X97035138Y-24389663D01*
X97074273Y-24371415D01*
X97138161Y-24354296D01*
X97204638Y-24331475D01*
X97254192Y-24323205D01*
X97301575Y-24310510D01*
X97361913Y-24305230D01*
X97424532Y-24294782D01*
X97481343Y-24294782D01*
X97536000Y-24290000D01*
X97590657Y-24294782D01*
G37*
G36*
X32426908Y-22687722D02*
G01*
X32469850Y-22687722D01*
X32518294Y-22698018D01*
X32565687Y-22703359D01*
X32600148Y-22715417D01*
X32635836Y-22723003D01*
X32687262Y-22745899D01*
X32737314Y-22763413D01*
X32763367Y-22779783D01*
X32790860Y-22792024D01*
X32842126Y-22829271D01*
X32891274Y-22860153D01*
X32908923Y-22877802D01*
X32928148Y-22891770D01*
X32975676Y-22944555D01*
X33019847Y-22988726D01*
X33030006Y-23004895D01*
X33041702Y-23017884D01*
X33081707Y-23087176D01*
X33116587Y-23142686D01*
X33120942Y-23155132D01*
X33126545Y-23164837D01*
X33155241Y-23253155D01*
X33176641Y-23314313D01*
X33177452Y-23321513D01*
X33178986Y-23326234D01*
X33192892Y-23458547D01*
X33197000Y-23495000D01*
X33192892Y-23531455D01*
X33178986Y-23663765D01*
X33177452Y-23668484D01*
X33176641Y-23675687D01*
X33155236Y-23736857D01*
X33126545Y-23825162D01*
X33120943Y-23834864D01*
X33116587Y-23847314D01*
X33081700Y-23902834D01*
X33041702Y-23972115D01*
X33030009Y-23985101D01*
X33019847Y-24001274D01*
X32975667Y-24045453D01*
X32928148Y-24098229D01*
X32908927Y-24112193D01*
X32891274Y-24129847D01*
X32842115Y-24160735D01*
X32790860Y-24197975D01*
X32763372Y-24210213D01*
X32737314Y-24226587D01*
X32687251Y-24244104D01*
X32635836Y-24266996D01*
X32600154Y-24274580D01*
X32565687Y-24286641D01*
X32518291Y-24291981D01*
X32469850Y-24302278D01*
X32426908Y-24302278D01*
X32385000Y-24307000D01*
X32343092Y-24302278D01*
X32300150Y-24302278D01*
X32251708Y-24291981D01*
X32204313Y-24286641D01*
X32169846Y-24274580D01*
X32134163Y-24266996D01*
X32082743Y-24244102D01*
X32032686Y-24226587D01*
X32006629Y-24210214D01*
X31979139Y-24197975D01*
X31927876Y-24160730D01*
X31878726Y-24129847D01*
X31861075Y-24112196D01*
X31841851Y-24098229D01*
X31794322Y-24045443D01*
X31750153Y-24001274D01*
X31739993Y-23985104D01*
X31728297Y-23972115D01*
X31688286Y-23902815D01*
X31653413Y-23847314D01*
X31649058Y-23834869D01*
X31643454Y-23825162D01*
X31614749Y-23736817D01*
X31593359Y-23675687D01*
X31592547Y-23668489D01*
X31591013Y-23663765D01*
X31577092Y-23531323D01*
X31573000Y-23495000D01*
X31577092Y-23458679D01*
X31591013Y-23326234D01*
X31592548Y-23321509D01*
X31593359Y-23314313D01*
X31614744Y-23253195D01*
X31643454Y-23164837D01*
X31649059Y-23155128D01*
X31653413Y-23142686D01*
X31688279Y-23087196D01*
X31728297Y-23017884D01*
X31739995Y-23004891D01*
X31750153Y-22988726D01*
X31794313Y-22944565D01*
X31841851Y-22891770D01*
X31861078Y-22877800D01*
X31878726Y-22860153D01*
X31927872Y-22829271D01*
X31979139Y-22792025D01*
X32006630Y-22779784D01*
X32032686Y-22763413D01*
X32082735Y-22745900D01*
X32134165Y-22723002D01*
X32169855Y-22715415D01*
X32204313Y-22703359D01*
X32251703Y-22698019D01*
X32300150Y-22687722D01*
X32343092Y-22687722D01*
X32385000Y-22683000D01*
X32426908Y-22687722D01*
G37*
G36*
X34966908Y-22687722D02*
G01*
X35009850Y-22687722D01*
X35058294Y-22698018D01*
X35105687Y-22703359D01*
X35140148Y-22715417D01*
X35175836Y-22723003D01*
X35227262Y-22745899D01*
X35277314Y-22763413D01*
X35303367Y-22779783D01*
X35330860Y-22792024D01*
X35382126Y-22829271D01*
X35431274Y-22860153D01*
X35448923Y-22877802D01*
X35468148Y-22891770D01*
X35515676Y-22944555D01*
X35559847Y-22988726D01*
X35570006Y-23004895D01*
X35581702Y-23017884D01*
X35621707Y-23087176D01*
X35656587Y-23142686D01*
X35660942Y-23155132D01*
X35666545Y-23164837D01*
X35695241Y-23253155D01*
X35716641Y-23314313D01*
X35717452Y-23321513D01*
X35718986Y-23326234D01*
X35732892Y-23458547D01*
X35737000Y-23495000D01*
X35732892Y-23531455D01*
X35718986Y-23663765D01*
X35717452Y-23668484D01*
X35716641Y-23675687D01*
X35695236Y-23736857D01*
X35666545Y-23825162D01*
X35660943Y-23834864D01*
X35656587Y-23847314D01*
X35621700Y-23902834D01*
X35581702Y-23972115D01*
X35570009Y-23985101D01*
X35559847Y-24001274D01*
X35515667Y-24045453D01*
X35468148Y-24098229D01*
X35448927Y-24112193D01*
X35431274Y-24129847D01*
X35382115Y-24160735D01*
X35330860Y-24197975D01*
X35303372Y-24210213D01*
X35277314Y-24226587D01*
X35227251Y-24244104D01*
X35175836Y-24266996D01*
X35140154Y-24274580D01*
X35105687Y-24286641D01*
X35058291Y-24291981D01*
X35009850Y-24302278D01*
X34966908Y-24302278D01*
X34925000Y-24307000D01*
X34883092Y-24302278D01*
X34840150Y-24302278D01*
X34791708Y-24291981D01*
X34744313Y-24286641D01*
X34709846Y-24274580D01*
X34674163Y-24266996D01*
X34622743Y-24244102D01*
X34572686Y-24226587D01*
X34546629Y-24210214D01*
X34519139Y-24197975D01*
X34467876Y-24160730D01*
X34418726Y-24129847D01*
X34401075Y-24112196D01*
X34381851Y-24098229D01*
X34334322Y-24045443D01*
X34290153Y-24001274D01*
X34279993Y-23985104D01*
X34268297Y-23972115D01*
X34228286Y-23902815D01*
X34193413Y-23847314D01*
X34189058Y-23834869D01*
X34183454Y-23825162D01*
X34154749Y-23736817D01*
X34133359Y-23675687D01*
X34132547Y-23668489D01*
X34131013Y-23663765D01*
X34117092Y-23531323D01*
X34113000Y-23495000D01*
X34117092Y-23458679D01*
X34131013Y-23326234D01*
X34132548Y-23321509D01*
X34133359Y-23314313D01*
X34154744Y-23253195D01*
X34183454Y-23164837D01*
X34189059Y-23155128D01*
X34193413Y-23142686D01*
X34228279Y-23087196D01*
X34268297Y-23017884D01*
X34279995Y-23004891D01*
X34290153Y-22988726D01*
X34334313Y-22944565D01*
X34381851Y-22891770D01*
X34401078Y-22877800D01*
X34418726Y-22860153D01*
X34467872Y-22829271D01*
X34519139Y-22792025D01*
X34546630Y-22779784D01*
X34572686Y-22763413D01*
X34622735Y-22745900D01*
X34674165Y-22723002D01*
X34709855Y-22715415D01*
X34744313Y-22703359D01*
X34791703Y-22698019D01*
X34840150Y-22687722D01*
X34883092Y-22687722D01*
X34925000Y-22683000D01*
X34966908Y-22687722D01*
G37*
G36*
X37506908Y-22687722D02*
G01*
X37549850Y-22687722D01*
X37598294Y-22698018D01*
X37645687Y-22703359D01*
X37680148Y-22715417D01*
X37715836Y-22723003D01*
X37767262Y-22745899D01*
X37817314Y-22763413D01*
X37843367Y-22779783D01*
X37870860Y-22792024D01*
X37922126Y-22829271D01*
X37971274Y-22860153D01*
X37988923Y-22877802D01*
X38008148Y-22891770D01*
X38055676Y-22944555D01*
X38099847Y-22988726D01*
X38110006Y-23004895D01*
X38121702Y-23017884D01*
X38161707Y-23087176D01*
X38196587Y-23142686D01*
X38200942Y-23155132D01*
X38206545Y-23164837D01*
X38235241Y-23253155D01*
X38256641Y-23314313D01*
X38257452Y-23321513D01*
X38258986Y-23326234D01*
X38272892Y-23458547D01*
X38277000Y-23495000D01*
X38272892Y-23531455D01*
X38258986Y-23663765D01*
X38257452Y-23668484D01*
X38256641Y-23675687D01*
X38235236Y-23736857D01*
X38206545Y-23825162D01*
X38200943Y-23834864D01*
X38196587Y-23847314D01*
X38161700Y-23902834D01*
X38121702Y-23972115D01*
X38110009Y-23985101D01*
X38099847Y-24001274D01*
X38055667Y-24045453D01*
X38008148Y-24098229D01*
X37988927Y-24112193D01*
X37971274Y-24129847D01*
X37922115Y-24160735D01*
X37870860Y-24197975D01*
X37843372Y-24210213D01*
X37817314Y-24226587D01*
X37767251Y-24244104D01*
X37715836Y-24266996D01*
X37680154Y-24274580D01*
X37645687Y-24286641D01*
X37598291Y-24291981D01*
X37549850Y-24302278D01*
X37506908Y-24302278D01*
X37465000Y-24307000D01*
X37423092Y-24302278D01*
X37380150Y-24302278D01*
X37331708Y-24291981D01*
X37284313Y-24286641D01*
X37249846Y-24274580D01*
X37214163Y-24266996D01*
X37162743Y-24244102D01*
X37112686Y-24226587D01*
X37086629Y-24210214D01*
X37059139Y-24197975D01*
X37007876Y-24160730D01*
X36958726Y-24129847D01*
X36941075Y-24112196D01*
X36921851Y-24098229D01*
X36874322Y-24045443D01*
X36830153Y-24001274D01*
X36819993Y-23985104D01*
X36808297Y-23972115D01*
X36768286Y-23902815D01*
X36733413Y-23847314D01*
X36729058Y-23834869D01*
X36723454Y-23825162D01*
X36694749Y-23736817D01*
X36673359Y-23675687D01*
X36672547Y-23668489D01*
X36671013Y-23663765D01*
X36657092Y-23531323D01*
X36653000Y-23495000D01*
X36657092Y-23458679D01*
X36671013Y-23326234D01*
X36672548Y-23321509D01*
X36673359Y-23314313D01*
X36694744Y-23253195D01*
X36723454Y-23164837D01*
X36729059Y-23155128D01*
X36733413Y-23142686D01*
X36768279Y-23087196D01*
X36808297Y-23017884D01*
X36819995Y-23004891D01*
X36830153Y-22988726D01*
X36874313Y-22944565D01*
X36921851Y-22891770D01*
X36941078Y-22877800D01*
X36958726Y-22860153D01*
X37007872Y-22829271D01*
X37059139Y-22792025D01*
X37086630Y-22779784D01*
X37112686Y-22763413D01*
X37162735Y-22745900D01*
X37214165Y-22723002D01*
X37249855Y-22715415D01*
X37284313Y-22703359D01*
X37331703Y-22698019D01*
X37380150Y-22687722D01*
X37423092Y-22687722D01*
X37465000Y-22683000D01*
X37506908Y-22687722D01*
G37*
G36*
X40046908Y-22687722D02*
G01*
X40089850Y-22687722D01*
X40138294Y-22698018D01*
X40185687Y-22703359D01*
X40220148Y-22715417D01*
X40255836Y-22723003D01*
X40307262Y-22745899D01*
X40357314Y-22763413D01*
X40383367Y-22779783D01*
X40410860Y-22792024D01*
X40462126Y-22829271D01*
X40511274Y-22860153D01*
X40528923Y-22877802D01*
X40548148Y-22891770D01*
X40595676Y-22944555D01*
X40639847Y-22988726D01*
X40650006Y-23004895D01*
X40661702Y-23017884D01*
X40701707Y-23087176D01*
X40736587Y-23142686D01*
X40740942Y-23155132D01*
X40746545Y-23164837D01*
X40775241Y-23253155D01*
X40796641Y-23314313D01*
X40797452Y-23321513D01*
X40798986Y-23326234D01*
X40812892Y-23458547D01*
X40817000Y-23495000D01*
X40812892Y-23531455D01*
X40798986Y-23663765D01*
X40797452Y-23668484D01*
X40796641Y-23675687D01*
X40775236Y-23736857D01*
X40746545Y-23825162D01*
X40740943Y-23834864D01*
X40736587Y-23847314D01*
X40701700Y-23902834D01*
X40661702Y-23972115D01*
X40650009Y-23985101D01*
X40639847Y-24001274D01*
X40595667Y-24045453D01*
X40548148Y-24098229D01*
X40528927Y-24112193D01*
X40511274Y-24129847D01*
X40462115Y-24160735D01*
X40410860Y-24197975D01*
X40383372Y-24210213D01*
X40357314Y-24226587D01*
X40307251Y-24244104D01*
X40255836Y-24266996D01*
X40220154Y-24274580D01*
X40185687Y-24286641D01*
X40138291Y-24291981D01*
X40089850Y-24302278D01*
X40046908Y-24302278D01*
X40005000Y-24307000D01*
X39963092Y-24302278D01*
X39920150Y-24302278D01*
X39871708Y-24291981D01*
X39824313Y-24286641D01*
X39789846Y-24274580D01*
X39754163Y-24266996D01*
X39702743Y-24244102D01*
X39652686Y-24226587D01*
X39626629Y-24210214D01*
X39599139Y-24197975D01*
X39547876Y-24160730D01*
X39498726Y-24129847D01*
X39481075Y-24112196D01*
X39461851Y-24098229D01*
X39414322Y-24045443D01*
X39370153Y-24001274D01*
X39359993Y-23985104D01*
X39348297Y-23972115D01*
X39308286Y-23902815D01*
X39273413Y-23847314D01*
X39269058Y-23834869D01*
X39263454Y-23825162D01*
X39234749Y-23736817D01*
X39213359Y-23675687D01*
X39212547Y-23668489D01*
X39211013Y-23663765D01*
X39197092Y-23531323D01*
X39193000Y-23495000D01*
X39197092Y-23458679D01*
X39211013Y-23326234D01*
X39212548Y-23321509D01*
X39213359Y-23314313D01*
X39234744Y-23253195D01*
X39263454Y-23164837D01*
X39269059Y-23155128D01*
X39273413Y-23142686D01*
X39308279Y-23087196D01*
X39348297Y-23017884D01*
X39359995Y-23004891D01*
X39370153Y-22988726D01*
X39414313Y-22944565D01*
X39461851Y-22891770D01*
X39481078Y-22877800D01*
X39498726Y-22860153D01*
X39547872Y-22829271D01*
X39599139Y-22792025D01*
X39626630Y-22779784D01*
X39652686Y-22763413D01*
X39702735Y-22745900D01*
X39754165Y-22723002D01*
X39789855Y-22715415D01*
X39824313Y-22703359D01*
X39871703Y-22698019D01*
X39920150Y-22687722D01*
X39963092Y-22687722D01*
X40005000Y-22683000D01*
X40046908Y-22687722D01*
G37*
G36*
X42586908Y-22687722D02*
G01*
X42629850Y-22687722D01*
X42678294Y-22698018D01*
X42725687Y-22703359D01*
X42760148Y-22715417D01*
X42795836Y-22723003D01*
X42847262Y-22745899D01*
X42897314Y-22763413D01*
X42923367Y-22779783D01*
X42950860Y-22792024D01*
X43002126Y-22829271D01*
X43051274Y-22860153D01*
X43068923Y-22877802D01*
X43088148Y-22891770D01*
X43135676Y-22944555D01*
X43179847Y-22988726D01*
X43190006Y-23004895D01*
X43201702Y-23017884D01*
X43241707Y-23087176D01*
X43276587Y-23142686D01*
X43280942Y-23155132D01*
X43286545Y-23164837D01*
X43315241Y-23253155D01*
X43336641Y-23314313D01*
X43337452Y-23321513D01*
X43338986Y-23326234D01*
X43352892Y-23458547D01*
X43357000Y-23495000D01*
X43352892Y-23531455D01*
X43338986Y-23663765D01*
X43337452Y-23668484D01*
X43336641Y-23675687D01*
X43315236Y-23736857D01*
X43286545Y-23825162D01*
X43280943Y-23834864D01*
X43276587Y-23847314D01*
X43241700Y-23902834D01*
X43201702Y-23972115D01*
X43190009Y-23985101D01*
X43179847Y-24001274D01*
X43135667Y-24045453D01*
X43088148Y-24098229D01*
X43068927Y-24112193D01*
X43051274Y-24129847D01*
X43002115Y-24160735D01*
X42950860Y-24197975D01*
X42923372Y-24210213D01*
X42897314Y-24226587D01*
X42847251Y-24244104D01*
X42795836Y-24266996D01*
X42760154Y-24274580D01*
X42725687Y-24286641D01*
X42678291Y-24291981D01*
X42629850Y-24302278D01*
X42586908Y-24302278D01*
X42545000Y-24307000D01*
X42503092Y-24302278D01*
X42460150Y-24302278D01*
X42411708Y-24291981D01*
X42364313Y-24286641D01*
X42329846Y-24274580D01*
X42294163Y-24266996D01*
X42242743Y-24244102D01*
X42192686Y-24226587D01*
X42166629Y-24210214D01*
X42139139Y-24197975D01*
X42087876Y-24160730D01*
X42038726Y-24129847D01*
X42021075Y-24112196D01*
X42001851Y-24098229D01*
X41954322Y-24045443D01*
X41910153Y-24001274D01*
X41899993Y-23985104D01*
X41888297Y-23972115D01*
X41848286Y-23902815D01*
X41813413Y-23847314D01*
X41809058Y-23834869D01*
X41803454Y-23825162D01*
X41774749Y-23736817D01*
X41753359Y-23675687D01*
X41752547Y-23668489D01*
X41751013Y-23663765D01*
X41737092Y-23531323D01*
X41733000Y-23495000D01*
X41737092Y-23458679D01*
X41751013Y-23326234D01*
X41752548Y-23321509D01*
X41753359Y-23314313D01*
X41774744Y-23253195D01*
X41803454Y-23164837D01*
X41809059Y-23155128D01*
X41813413Y-23142686D01*
X41848279Y-23087196D01*
X41888297Y-23017884D01*
X41899995Y-23004891D01*
X41910153Y-22988726D01*
X41954313Y-22944565D01*
X42001851Y-22891770D01*
X42021078Y-22877800D01*
X42038726Y-22860153D01*
X42087872Y-22829271D01*
X42139139Y-22792025D01*
X42166630Y-22779784D01*
X42192686Y-22763413D01*
X42242735Y-22745900D01*
X42294165Y-22723002D01*
X42329855Y-22715415D01*
X42364313Y-22703359D01*
X42411703Y-22698019D01*
X42460150Y-22687722D01*
X42503092Y-22687722D01*
X42545000Y-22683000D01*
X42586908Y-22687722D01*
G37*
G36*
X45126908Y-22687722D02*
G01*
X45169850Y-22687722D01*
X45218294Y-22698018D01*
X45265687Y-22703359D01*
X45300148Y-22715417D01*
X45335836Y-22723003D01*
X45387262Y-22745899D01*
X45437314Y-22763413D01*
X45463367Y-22779783D01*
X45490860Y-22792024D01*
X45542126Y-22829271D01*
X45591274Y-22860153D01*
X45608923Y-22877802D01*
X45628148Y-22891770D01*
X45675676Y-22944555D01*
X45719847Y-22988726D01*
X45730006Y-23004895D01*
X45741702Y-23017884D01*
X45781707Y-23087176D01*
X45816587Y-23142686D01*
X45820942Y-23155132D01*
X45826545Y-23164837D01*
X45855241Y-23253155D01*
X45876641Y-23314313D01*
X45877452Y-23321513D01*
X45878986Y-23326234D01*
X45892892Y-23458547D01*
X45897000Y-23495000D01*
X45892892Y-23531455D01*
X45878986Y-23663765D01*
X45877452Y-23668484D01*
X45876641Y-23675687D01*
X45855236Y-23736857D01*
X45826545Y-23825162D01*
X45820943Y-23834864D01*
X45816587Y-23847314D01*
X45781700Y-23902834D01*
X45741702Y-23972115D01*
X45730009Y-23985101D01*
X45719847Y-24001274D01*
X45675667Y-24045453D01*
X45628148Y-24098229D01*
X45608927Y-24112193D01*
X45591274Y-24129847D01*
X45542115Y-24160735D01*
X45490860Y-24197975D01*
X45463372Y-24210213D01*
X45437314Y-24226587D01*
X45387251Y-24244104D01*
X45335836Y-24266996D01*
X45300154Y-24274580D01*
X45265687Y-24286641D01*
X45218291Y-24291981D01*
X45169850Y-24302278D01*
X45126908Y-24302278D01*
X45085000Y-24307000D01*
X45043092Y-24302278D01*
X45000150Y-24302278D01*
X44951708Y-24291981D01*
X44904313Y-24286641D01*
X44869846Y-24274580D01*
X44834163Y-24266996D01*
X44782743Y-24244102D01*
X44732686Y-24226587D01*
X44706629Y-24210214D01*
X44679139Y-24197975D01*
X44627876Y-24160730D01*
X44578726Y-24129847D01*
X44561075Y-24112196D01*
X44541851Y-24098229D01*
X44494322Y-24045443D01*
X44450153Y-24001274D01*
X44439993Y-23985104D01*
X44428297Y-23972115D01*
X44388286Y-23902815D01*
X44353413Y-23847314D01*
X44349058Y-23834869D01*
X44343454Y-23825162D01*
X44314749Y-23736817D01*
X44293359Y-23675687D01*
X44292547Y-23668489D01*
X44291013Y-23663765D01*
X44277092Y-23531323D01*
X44273000Y-23495000D01*
X44277092Y-23458679D01*
X44291013Y-23326234D01*
X44292548Y-23321509D01*
X44293359Y-23314313D01*
X44314744Y-23253195D01*
X44343454Y-23164837D01*
X44349059Y-23155128D01*
X44353413Y-23142686D01*
X44388279Y-23087196D01*
X44428297Y-23017884D01*
X44439995Y-23004891D01*
X44450153Y-22988726D01*
X44494313Y-22944565D01*
X44541851Y-22891770D01*
X44561078Y-22877800D01*
X44578726Y-22860153D01*
X44627872Y-22829271D01*
X44679139Y-22792025D01*
X44706630Y-22779784D01*
X44732686Y-22763413D01*
X44782735Y-22745900D01*
X44834165Y-22723002D01*
X44869855Y-22715415D01*
X44904313Y-22703359D01*
X44951703Y-22698019D01*
X45000150Y-22687722D01*
X45043092Y-22687722D01*
X45085000Y-22683000D01*
X45126908Y-22687722D01*
G37*
G36*
X47666908Y-22687722D02*
G01*
X47709850Y-22687722D01*
X47758294Y-22698018D01*
X47805687Y-22703359D01*
X47840148Y-22715417D01*
X47875836Y-22723003D01*
X47927262Y-22745899D01*
X47977314Y-22763413D01*
X48003367Y-22779783D01*
X48030860Y-22792024D01*
X48082126Y-22829271D01*
X48131274Y-22860153D01*
X48148923Y-22877802D01*
X48168148Y-22891770D01*
X48215676Y-22944555D01*
X48259847Y-22988726D01*
X48270006Y-23004895D01*
X48281702Y-23017884D01*
X48321707Y-23087176D01*
X48356587Y-23142686D01*
X48360942Y-23155132D01*
X48366545Y-23164837D01*
X48395241Y-23253155D01*
X48416641Y-23314313D01*
X48417452Y-23321513D01*
X48418986Y-23326234D01*
X48432892Y-23458547D01*
X48437000Y-23495000D01*
X48432892Y-23531455D01*
X48418986Y-23663765D01*
X48417452Y-23668484D01*
X48416641Y-23675687D01*
X48395236Y-23736857D01*
X48366545Y-23825162D01*
X48360943Y-23834864D01*
X48356587Y-23847314D01*
X48321700Y-23902834D01*
X48281702Y-23972115D01*
X48270009Y-23985101D01*
X48259847Y-24001274D01*
X48215667Y-24045453D01*
X48168148Y-24098229D01*
X48148927Y-24112193D01*
X48131274Y-24129847D01*
X48082115Y-24160735D01*
X48030860Y-24197975D01*
X48003372Y-24210213D01*
X47977314Y-24226587D01*
X47927251Y-24244104D01*
X47875836Y-24266996D01*
X47840154Y-24274580D01*
X47805687Y-24286641D01*
X47758291Y-24291981D01*
X47709850Y-24302278D01*
X47666908Y-24302278D01*
X47625000Y-24307000D01*
X47583092Y-24302278D01*
X47540150Y-24302278D01*
X47491708Y-24291981D01*
X47444313Y-24286641D01*
X47409846Y-24274580D01*
X47374163Y-24266996D01*
X47322743Y-24244102D01*
X47272686Y-24226587D01*
X47246629Y-24210214D01*
X47219139Y-24197975D01*
X47167876Y-24160730D01*
X47118726Y-24129847D01*
X47101075Y-24112196D01*
X47081851Y-24098229D01*
X47034322Y-24045443D01*
X46990153Y-24001274D01*
X46979993Y-23985104D01*
X46968297Y-23972115D01*
X46928286Y-23902815D01*
X46893413Y-23847314D01*
X46889058Y-23834869D01*
X46883454Y-23825162D01*
X46854749Y-23736817D01*
X46833359Y-23675687D01*
X46832547Y-23668489D01*
X46831013Y-23663765D01*
X46817092Y-23531323D01*
X46813000Y-23495000D01*
X46817092Y-23458679D01*
X46831013Y-23326234D01*
X46832548Y-23321509D01*
X46833359Y-23314313D01*
X46854744Y-23253195D01*
X46883454Y-23164837D01*
X46889059Y-23155128D01*
X46893413Y-23142686D01*
X46928279Y-23087196D01*
X46968297Y-23017884D01*
X46979995Y-23004891D01*
X46990153Y-22988726D01*
X47034313Y-22944565D01*
X47081851Y-22891770D01*
X47101078Y-22877800D01*
X47118726Y-22860153D01*
X47167872Y-22829271D01*
X47219139Y-22792025D01*
X47246630Y-22779784D01*
X47272686Y-22763413D01*
X47322735Y-22745900D01*
X47374165Y-22723002D01*
X47409855Y-22715415D01*
X47444313Y-22703359D01*
X47491703Y-22698019D01*
X47540150Y-22687722D01*
X47583092Y-22687722D01*
X47625000Y-22683000D01*
X47666908Y-22687722D01*
G37*
G36*
X50206908Y-22687722D02*
G01*
X50249850Y-22687722D01*
X50298294Y-22698018D01*
X50345687Y-22703359D01*
X50380148Y-22715417D01*
X50415836Y-22723003D01*
X50467262Y-22745899D01*
X50517314Y-22763413D01*
X50543367Y-22779783D01*
X50570860Y-22792024D01*
X50622126Y-22829271D01*
X50671274Y-22860153D01*
X50688923Y-22877802D01*
X50708148Y-22891770D01*
X50755676Y-22944555D01*
X50799847Y-22988726D01*
X50810006Y-23004895D01*
X50821702Y-23017884D01*
X50861707Y-23087176D01*
X50896587Y-23142686D01*
X50900942Y-23155132D01*
X50906545Y-23164837D01*
X50935241Y-23253155D01*
X50956641Y-23314313D01*
X50957452Y-23321513D01*
X50958986Y-23326234D01*
X50972892Y-23458547D01*
X50977000Y-23495000D01*
X50972892Y-23531455D01*
X50958986Y-23663765D01*
X50957452Y-23668484D01*
X50956641Y-23675687D01*
X50935236Y-23736857D01*
X50906545Y-23825162D01*
X50900943Y-23834864D01*
X50896587Y-23847314D01*
X50861700Y-23902834D01*
X50821702Y-23972115D01*
X50810009Y-23985101D01*
X50799847Y-24001274D01*
X50755667Y-24045453D01*
X50708148Y-24098229D01*
X50688927Y-24112193D01*
X50671274Y-24129847D01*
X50622115Y-24160735D01*
X50570860Y-24197975D01*
X50543372Y-24210213D01*
X50517314Y-24226587D01*
X50467251Y-24244104D01*
X50415836Y-24266996D01*
X50380154Y-24274580D01*
X50345687Y-24286641D01*
X50298291Y-24291981D01*
X50249850Y-24302278D01*
X50206908Y-24302278D01*
X50165000Y-24307000D01*
X50123092Y-24302278D01*
X50080150Y-24302278D01*
X50031708Y-24291981D01*
X49984313Y-24286641D01*
X49949846Y-24274580D01*
X49914163Y-24266996D01*
X49862743Y-24244102D01*
X49812686Y-24226587D01*
X49786629Y-24210214D01*
X49759139Y-24197975D01*
X49707876Y-24160730D01*
X49658726Y-24129847D01*
X49641075Y-24112196D01*
X49621851Y-24098229D01*
X49574322Y-24045443D01*
X49530153Y-24001274D01*
X49519993Y-23985104D01*
X49508297Y-23972115D01*
X49468286Y-23902815D01*
X49433413Y-23847314D01*
X49429058Y-23834869D01*
X49423454Y-23825162D01*
X49394749Y-23736817D01*
X49373359Y-23675687D01*
X49372547Y-23668489D01*
X49371013Y-23663765D01*
X49357092Y-23531323D01*
X49353000Y-23495000D01*
X49357092Y-23458679D01*
X49371013Y-23326234D01*
X49372548Y-23321509D01*
X49373359Y-23314313D01*
X49394744Y-23253195D01*
X49423454Y-23164837D01*
X49429059Y-23155128D01*
X49433413Y-23142686D01*
X49468279Y-23087196D01*
X49508297Y-23017884D01*
X49519995Y-23004891D01*
X49530153Y-22988726D01*
X49574313Y-22944565D01*
X49621851Y-22891770D01*
X49641078Y-22877800D01*
X49658726Y-22860153D01*
X49707872Y-22829271D01*
X49759139Y-22792025D01*
X49786630Y-22779784D01*
X49812686Y-22763413D01*
X49862735Y-22745900D01*
X49914165Y-22723002D01*
X49949855Y-22715415D01*
X49984313Y-22703359D01*
X50031703Y-22698019D01*
X50080150Y-22687722D01*
X50123092Y-22687722D01*
X50165000Y-22683000D01*
X50206908Y-22687722D01*
G37*
G36*
X52746908Y-22687722D02*
G01*
X52789850Y-22687722D01*
X52838294Y-22698018D01*
X52885687Y-22703359D01*
X52920148Y-22715417D01*
X52955836Y-22723003D01*
X53007262Y-22745899D01*
X53057314Y-22763413D01*
X53083367Y-22779783D01*
X53110860Y-22792024D01*
X53162126Y-22829271D01*
X53211274Y-22860153D01*
X53228923Y-22877802D01*
X53248148Y-22891770D01*
X53295676Y-22944555D01*
X53339847Y-22988726D01*
X53350006Y-23004895D01*
X53361702Y-23017884D01*
X53401707Y-23087176D01*
X53436587Y-23142686D01*
X53440942Y-23155132D01*
X53446545Y-23164837D01*
X53475241Y-23253155D01*
X53496641Y-23314313D01*
X53497452Y-23321513D01*
X53498986Y-23326234D01*
X53512892Y-23458547D01*
X53517000Y-23495000D01*
X53512892Y-23531455D01*
X53498986Y-23663765D01*
X53497452Y-23668484D01*
X53496641Y-23675687D01*
X53475236Y-23736857D01*
X53446545Y-23825162D01*
X53440943Y-23834864D01*
X53436587Y-23847314D01*
X53401700Y-23902834D01*
X53361702Y-23972115D01*
X53350009Y-23985101D01*
X53339847Y-24001274D01*
X53295667Y-24045453D01*
X53248148Y-24098229D01*
X53228927Y-24112193D01*
X53211274Y-24129847D01*
X53162115Y-24160735D01*
X53110860Y-24197975D01*
X53083372Y-24210213D01*
X53057314Y-24226587D01*
X53007251Y-24244104D01*
X52955836Y-24266996D01*
X52920154Y-24274580D01*
X52885687Y-24286641D01*
X52838291Y-24291981D01*
X52789850Y-24302278D01*
X52746908Y-24302278D01*
X52705000Y-24307000D01*
X52663092Y-24302278D01*
X52620150Y-24302278D01*
X52571708Y-24291981D01*
X52524313Y-24286641D01*
X52489846Y-24274580D01*
X52454163Y-24266996D01*
X52402743Y-24244102D01*
X52352686Y-24226587D01*
X52326629Y-24210214D01*
X52299139Y-24197975D01*
X52247876Y-24160730D01*
X52198726Y-24129847D01*
X52181075Y-24112196D01*
X52161851Y-24098229D01*
X52114322Y-24045443D01*
X52070153Y-24001274D01*
X52059993Y-23985104D01*
X52048297Y-23972115D01*
X52008286Y-23902815D01*
X51973413Y-23847314D01*
X51969058Y-23834869D01*
X51963454Y-23825162D01*
X51934749Y-23736817D01*
X51913359Y-23675687D01*
X51912547Y-23668489D01*
X51911013Y-23663765D01*
X51897092Y-23531323D01*
X51893000Y-23495000D01*
X51897092Y-23458679D01*
X51911013Y-23326234D01*
X51912548Y-23321509D01*
X51913359Y-23314313D01*
X51934744Y-23253195D01*
X51963454Y-23164837D01*
X51969059Y-23155128D01*
X51973413Y-23142686D01*
X52008279Y-23087196D01*
X52048297Y-23017884D01*
X52059995Y-23004891D01*
X52070153Y-22988726D01*
X52114313Y-22944565D01*
X52161851Y-22891770D01*
X52181078Y-22877800D01*
X52198726Y-22860153D01*
X52247872Y-22829271D01*
X52299139Y-22792025D01*
X52326630Y-22779784D01*
X52352686Y-22763413D01*
X52402735Y-22745900D01*
X52454165Y-22723002D01*
X52489855Y-22715415D01*
X52524313Y-22703359D01*
X52571703Y-22698019D01*
X52620150Y-22687722D01*
X52663092Y-22687722D01*
X52705000Y-22683000D01*
X52746908Y-22687722D01*
G37*
G36*
X55286908Y-22687722D02*
G01*
X55329850Y-22687722D01*
X55378294Y-22698018D01*
X55425687Y-22703359D01*
X55460148Y-22715417D01*
X55495836Y-22723003D01*
X55547262Y-22745899D01*
X55597314Y-22763413D01*
X55623367Y-22779783D01*
X55650860Y-22792024D01*
X55702126Y-22829271D01*
X55751274Y-22860153D01*
X55768923Y-22877802D01*
X55788148Y-22891770D01*
X55835676Y-22944555D01*
X55879847Y-22988726D01*
X55890006Y-23004895D01*
X55901702Y-23017884D01*
X55941707Y-23087176D01*
X55976587Y-23142686D01*
X55980942Y-23155132D01*
X55986545Y-23164837D01*
X56015241Y-23253155D01*
X56036641Y-23314313D01*
X56037452Y-23321513D01*
X56038986Y-23326234D01*
X56052892Y-23458547D01*
X56057000Y-23495000D01*
X56052892Y-23531455D01*
X56038986Y-23663765D01*
X56037452Y-23668484D01*
X56036641Y-23675687D01*
X56015236Y-23736857D01*
X55986545Y-23825162D01*
X55980943Y-23834864D01*
X55976587Y-23847314D01*
X55941700Y-23902834D01*
X55901702Y-23972115D01*
X55890009Y-23985101D01*
X55879847Y-24001274D01*
X55835667Y-24045453D01*
X55788148Y-24098229D01*
X55768927Y-24112193D01*
X55751274Y-24129847D01*
X55702115Y-24160735D01*
X55650860Y-24197975D01*
X55623372Y-24210213D01*
X55597314Y-24226587D01*
X55547251Y-24244104D01*
X55495836Y-24266996D01*
X55460154Y-24274580D01*
X55425687Y-24286641D01*
X55378291Y-24291981D01*
X55329850Y-24302278D01*
X55286908Y-24302278D01*
X55245000Y-24307000D01*
X55203092Y-24302278D01*
X55160150Y-24302278D01*
X55111708Y-24291981D01*
X55064313Y-24286641D01*
X55029846Y-24274580D01*
X54994163Y-24266996D01*
X54942743Y-24244102D01*
X54892686Y-24226587D01*
X54866629Y-24210214D01*
X54839139Y-24197975D01*
X54787876Y-24160730D01*
X54738726Y-24129847D01*
X54721075Y-24112196D01*
X54701851Y-24098229D01*
X54654322Y-24045443D01*
X54610153Y-24001274D01*
X54599993Y-23985104D01*
X54588297Y-23972115D01*
X54548286Y-23902815D01*
X54513413Y-23847314D01*
X54509058Y-23834869D01*
X54503454Y-23825162D01*
X54474749Y-23736817D01*
X54453359Y-23675687D01*
X54452547Y-23668489D01*
X54451013Y-23663765D01*
X54437092Y-23531323D01*
X54433000Y-23495000D01*
X54437092Y-23458679D01*
X54451013Y-23326234D01*
X54452548Y-23321509D01*
X54453359Y-23314313D01*
X54474744Y-23253195D01*
X54503454Y-23164837D01*
X54509059Y-23155128D01*
X54513413Y-23142686D01*
X54548279Y-23087196D01*
X54588297Y-23017884D01*
X54599995Y-23004891D01*
X54610153Y-22988726D01*
X54654313Y-22944565D01*
X54701851Y-22891770D01*
X54721078Y-22877800D01*
X54738726Y-22860153D01*
X54787872Y-22829271D01*
X54839139Y-22792025D01*
X54866630Y-22779784D01*
X54892686Y-22763413D01*
X54942735Y-22745900D01*
X54994165Y-22723002D01*
X55029855Y-22715415D01*
X55064313Y-22703359D01*
X55111703Y-22698019D01*
X55160150Y-22687722D01*
X55203092Y-22687722D01*
X55245000Y-22683000D01*
X55286908Y-22687722D01*
G37*
G36*
X57826908Y-22687722D02*
G01*
X57869850Y-22687722D01*
X57918294Y-22698018D01*
X57965687Y-22703359D01*
X58000148Y-22715417D01*
X58035836Y-22723003D01*
X58087262Y-22745899D01*
X58137314Y-22763413D01*
X58163367Y-22779783D01*
X58190860Y-22792024D01*
X58242126Y-22829271D01*
X58291274Y-22860153D01*
X58308923Y-22877802D01*
X58328148Y-22891770D01*
X58375676Y-22944555D01*
X58419847Y-22988726D01*
X58430006Y-23004895D01*
X58441702Y-23017884D01*
X58481707Y-23087176D01*
X58516587Y-23142686D01*
X58520942Y-23155132D01*
X58526545Y-23164837D01*
X58555241Y-23253155D01*
X58576641Y-23314313D01*
X58577452Y-23321513D01*
X58578986Y-23326234D01*
X58592892Y-23458547D01*
X58597000Y-23495000D01*
X58592892Y-23531455D01*
X58578986Y-23663765D01*
X58577452Y-23668484D01*
X58576641Y-23675687D01*
X58555236Y-23736857D01*
X58526545Y-23825162D01*
X58520943Y-23834864D01*
X58516587Y-23847314D01*
X58481700Y-23902834D01*
X58441702Y-23972115D01*
X58430009Y-23985101D01*
X58419847Y-24001274D01*
X58375667Y-24045453D01*
X58328148Y-24098229D01*
X58308927Y-24112193D01*
X58291274Y-24129847D01*
X58242115Y-24160735D01*
X58190860Y-24197975D01*
X58163372Y-24210213D01*
X58137314Y-24226587D01*
X58087251Y-24244104D01*
X58035836Y-24266996D01*
X58000154Y-24274580D01*
X57965687Y-24286641D01*
X57918291Y-24291981D01*
X57869850Y-24302278D01*
X57826908Y-24302278D01*
X57785000Y-24307000D01*
X57743092Y-24302278D01*
X57700150Y-24302278D01*
X57651708Y-24291981D01*
X57604313Y-24286641D01*
X57569846Y-24274580D01*
X57534163Y-24266996D01*
X57482743Y-24244102D01*
X57432686Y-24226587D01*
X57406629Y-24210214D01*
X57379139Y-24197975D01*
X57327876Y-24160730D01*
X57278726Y-24129847D01*
X57261075Y-24112196D01*
X57241851Y-24098229D01*
X57194322Y-24045443D01*
X57150153Y-24001274D01*
X57139993Y-23985104D01*
X57128297Y-23972115D01*
X57088286Y-23902815D01*
X57053413Y-23847314D01*
X57049058Y-23834869D01*
X57043454Y-23825162D01*
X57014749Y-23736817D01*
X56993359Y-23675687D01*
X56992547Y-23668489D01*
X56991013Y-23663765D01*
X56977092Y-23531323D01*
X56973000Y-23495000D01*
X56977092Y-23458679D01*
X56991013Y-23326234D01*
X56992548Y-23321509D01*
X56993359Y-23314313D01*
X57014744Y-23253195D01*
X57043454Y-23164837D01*
X57049059Y-23155128D01*
X57053413Y-23142686D01*
X57088279Y-23087196D01*
X57128297Y-23017884D01*
X57139995Y-23004891D01*
X57150153Y-22988726D01*
X57194313Y-22944565D01*
X57241851Y-22891770D01*
X57261078Y-22877800D01*
X57278726Y-22860153D01*
X57327872Y-22829271D01*
X57379139Y-22792025D01*
X57406630Y-22779784D01*
X57432686Y-22763413D01*
X57482735Y-22745900D01*
X57534165Y-22723002D01*
X57569855Y-22715415D01*
X57604313Y-22703359D01*
X57651703Y-22698019D01*
X57700150Y-22687722D01*
X57743092Y-22687722D01*
X57785000Y-22683000D01*
X57826908Y-22687722D01*
G37*
G36*
X60366908Y-22687722D02*
G01*
X60409850Y-22687722D01*
X60458294Y-22698018D01*
X60505687Y-22703359D01*
X60540148Y-22715417D01*
X60575836Y-22723003D01*
X60627262Y-22745899D01*
X60677314Y-22763413D01*
X60703367Y-22779783D01*
X60730860Y-22792024D01*
X60782126Y-22829271D01*
X60831274Y-22860153D01*
X60848923Y-22877802D01*
X60868148Y-22891770D01*
X60915676Y-22944555D01*
X60959847Y-22988726D01*
X60970006Y-23004895D01*
X60981702Y-23017884D01*
X61021707Y-23087176D01*
X61056587Y-23142686D01*
X61060942Y-23155132D01*
X61066545Y-23164837D01*
X61095241Y-23253155D01*
X61116641Y-23314313D01*
X61117452Y-23321513D01*
X61118986Y-23326234D01*
X61132892Y-23458547D01*
X61137000Y-23495000D01*
X61132892Y-23531455D01*
X61118986Y-23663765D01*
X61117452Y-23668484D01*
X61116641Y-23675687D01*
X61095236Y-23736857D01*
X61066545Y-23825162D01*
X61060943Y-23834864D01*
X61056587Y-23847314D01*
X61021700Y-23902834D01*
X60981702Y-23972115D01*
X60970009Y-23985101D01*
X60959847Y-24001274D01*
X60915667Y-24045453D01*
X60868148Y-24098229D01*
X60848927Y-24112193D01*
X60831274Y-24129847D01*
X60782115Y-24160735D01*
X60730860Y-24197975D01*
X60703372Y-24210213D01*
X60677314Y-24226587D01*
X60627251Y-24244104D01*
X60575836Y-24266996D01*
X60540154Y-24274580D01*
X60505687Y-24286641D01*
X60458291Y-24291981D01*
X60409850Y-24302278D01*
X60366908Y-24302278D01*
X60325000Y-24307000D01*
X60283092Y-24302278D01*
X60240150Y-24302278D01*
X60191708Y-24291981D01*
X60144313Y-24286641D01*
X60109846Y-24274580D01*
X60074163Y-24266996D01*
X60022743Y-24244102D01*
X59972686Y-24226587D01*
X59946629Y-24210214D01*
X59919139Y-24197975D01*
X59867876Y-24160730D01*
X59818726Y-24129847D01*
X59801075Y-24112196D01*
X59781851Y-24098229D01*
X59734322Y-24045443D01*
X59690153Y-24001274D01*
X59679993Y-23985104D01*
X59668297Y-23972115D01*
X59628286Y-23902815D01*
X59593413Y-23847314D01*
X59589058Y-23834869D01*
X59583454Y-23825162D01*
X59554749Y-23736817D01*
X59533359Y-23675687D01*
X59532547Y-23668489D01*
X59531013Y-23663765D01*
X59517092Y-23531323D01*
X59513000Y-23495000D01*
X59517092Y-23458679D01*
X59531013Y-23326234D01*
X59532548Y-23321509D01*
X59533359Y-23314313D01*
X59554744Y-23253195D01*
X59583454Y-23164837D01*
X59589059Y-23155128D01*
X59593413Y-23142686D01*
X59628279Y-23087196D01*
X59668297Y-23017884D01*
X59679995Y-23004891D01*
X59690153Y-22988726D01*
X59734313Y-22944565D01*
X59781851Y-22891770D01*
X59801078Y-22877800D01*
X59818726Y-22860153D01*
X59867872Y-22829271D01*
X59919139Y-22792025D01*
X59946630Y-22779784D01*
X59972686Y-22763413D01*
X60022735Y-22745900D01*
X60074165Y-22723002D01*
X60109855Y-22715415D01*
X60144313Y-22703359D01*
X60191703Y-22698019D01*
X60240150Y-22687722D01*
X60283092Y-22687722D01*
X60325000Y-22683000D01*
X60366908Y-22687722D01*
G37*
G36*
X62906908Y-22687722D02*
G01*
X62949850Y-22687722D01*
X62998294Y-22698018D01*
X63045687Y-22703359D01*
X63080148Y-22715417D01*
X63115836Y-22723003D01*
X63167262Y-22745899D01*
X63217314Y-22763413D01*
X63243367Y-22779783D01*
X63270860Y-22792024D01*
X63322126Y-22829271D01*
X63371274Y-22860153D01*
X63388923Y-22877802D01*
X63408148Y-22891770D01*
X63455676Y-22944555D01*
X63499847Y-22988726D01*
X63510006Y-23004895D01*
X63521702Y-23017884D01*
X63561707Y-23087176D01*
X63596587Y-23142686D01*
X63600942Y-23155132D01*
X63606545Y-23164837D01*
X63635241Y-23253155D01*
X63656641Y-23314313D01*
X63657452Y-23321513D01*
X63658986Y-23326234D01*
X63672892Y-23458547D01*
X63677000Y-23495000D01*
X63672892Y-23531455D01*
X63658986Y-23663765D01*
X63657452Y-23668484D01*
X63656641Y-23675687D01*
X63635236Y-23736857D01*
X63606545Y-23825162D01*
X63600943Y-23834864D01*
X63596587Y-23847314D01*
X63561700Y-23902834D01*
X63521702Y-23972115D01*
X63510009Y-23985101D01*
X63499847Y-24001274D01*
X63455667Y-24045453D01*
X63408148Y-24098229D01*
X63388927Y-24112193D01*
X63371274Y-24129847D01*
X63322115Y-24160735D01*
X63270860Y-24197975D01*
X63243372Y-24210213D01*
X63217314Y-24226587D01*
X63167251Y-24244104D01*
X63115836Y-24266996D01*
X63080154Y-24274580D01*
X63045687Y-24286641D01*
X62998291Y-24291981D01*
X62949850Y-24302278D01*
X62906908Y-24302278D01*
X62865000Y-24307000D01*
X62823092Y-24302278D01*
X62780150Y-24302278D01*
X62731708Y-24291981D01*
X62684313Y-24286641D01*
X62649846Y-24274580D01*
X62614163Y-24266996D01*
X62562743Y-24244102D01*
X62512686Y-24226587D01*
X62486629Y-24210214D01*
X62459139Y-24197975D01*
X62407876Y-24160730D01*
X62358726Y-24129847D01*
X62341075Y-24112196D01*
X62321851Y-24098229D01*
X62274322Y-24045443D01*
X62230153Y-24001274D01*
X62219993Y-23985104D01*
X62208297Y-23972115D01*
X62168286Y-23902815D01*
X62133413Y-23847314D01*
X62129058Y-23834869D01*
X62123454Y-23825162D01*
X62094749Y-23736817D01*
X62073359Y-23675687D01*
X62072547Y-23668489D01*
X62071013Y-23663765D01*
X62057092Y-23531323D01*
X62053000Y-23495000D01*
X62057092Y-23458679D01*
X62071013Y-23326234D01*
X62072548Y-23321509D01*
X62073359Y-23314313D01*
X62094744Y-23253195D01*
X62123454Y-23164837D01*
X62129059Y-23155128D01*
X62133413Y-23142686D01*
X62168279Y-23087196D01*
X62208297Y-23017884D01*
X62219995Y-23004891D01*
X62230153Y-22988726D01*
X62274313Y-22944565D01*
X62321851Y-22891770D01*
X62341078Y-22877800D01*
X62358726Y-22860153D01*
X62407872Y-22829271D01*
X62459139Y-22792025D01*
X62486630Y-22779784D01*
X62512686Y-22763413D01*
X62562735Y-22745900D01*
X62614165Y-22723002D01*
X62649855Y-22715415D01*
X62684313Y-22703359D01*
X62731703Y-22698019D01*
X62780150Y-22687722D01*
X62823092Y-22687722D01*
X62865000Y-22683000D01*
X62906908Y-22687722D01*
G37*
G36*
X65446908Y-22687722D02*
G01*
X65489850Y-22687722D01*
X65538294Y-22698018D01*
X65585687Y-22703359D01*
X65620148Y-22715417D01*
X65655836Y-22723003D01*
X65707262Y-22745899D01*
X65757314Y-22763413D01*
X65783367Y-22779783D01*
X65810860Y-22792024D01*
X65862126Y-22829271D01*
X65911274Y-22860153D01*
X65928923Y-22877802D01*
X65948148Y-22891770D01*
X65995676Y-22944555D01*
X66039847Y-22988726D01*
X66050006Y-23004895D01*
X66061702Y-23017884D01*
X66101707Y-23087176D01*
X66136587Y-23142686D01*
X66140942Y-23155132D01*
X66146545Y-23164837D01*
X66175241Y-23253155D01*
X66196641Y-23314313D01*
X66197452Y-23321513D01*
X66198986Y-23326234D01*
X66212892Y-23458547D01*
X66217000Y-23495000D01*
X66212892Y-23531455D01*
X66198986Y-23663765D01*
X66197452Y-23668484D01*
X66196641Y-23675687D01*
X66175236Y-23736857D01*
X66146545Y-23825162D01*
X66140943Y-23834864D01*
X66136587Y-23847314D01*
X66101700Y-23902834D01*
X66061702Y-23972115D01*
X66050009Y-23985101D01*
X66039847Y-24001274D01*
X65995667Y-24045453D01*
X65948148Y-24098229D01*
X65928927Y-24112193D01*
X65911274Y-24129847D01*
X65862115Y-24160735D01*
X65810860Y-24197975D01*
X65783372Y-24210213D01*
X65757314Y-24226587D01*
X65707251Y-24244104D01*
X65655836Y-24266996D01*
X65620154Y-24274580D01*
X65585687Y-24286641D01*
X65538291Y-24291981D01*
X65489850Y-24302278D01*
X65446908Y-24302278D01*
X65405000Y-24307000D01*
X65363092Y-24302278D01*
X65320150Y-24302278D01*
X65271708Y-24291981D01*
X65224313Y-24286641D01*
X65189846Y-24274580D01*
X65154163Y-24266996D01*
X65102743Y-24244102D01*
X65052686Y-24226587D01*
X65026629Y-24210214D01*
X64999139Y-24197975D01*
X64947876Y-24160730D01*
X64898726Y-24129847D01*
X64881075Y-24112196D01*
X64861851Y-24098229D01*
X64814322Y-24045443D01*
X64770153Y-24001274D01*
X64759993Y-23985104D01*
X64748297Y-23972115D01*
X64708286Y-23902815D01*
X64673413Y-23847314D01*
X64669058Y-23834869D01*
X64663454Y-23825162D01*
X64634749Y-23736817D01*
X64613359Y-23675687D01*
X64612547Y-23668489D01*
X64611013Y-23663765D01*
X64597092Y-23531323D01*
X64593000Y-23495000D01*
X64597092Y-23458679D01*
X64611013Y-23326234D01*
X64612548Y-23321509D01*
X64613359Y-23314313D01*
X64634744Y-23253195D01*
X64663454Y-23164837D01*
X64669059Y-23155128D01*
X64673413Y-23142686D01*
X64708279Y-23087196D01*
X64748297Y-23017884D01*
X64759995Y-23004891D01*
X64770153Y-22988726D01*
X64814313Y-22944565D01*
X64861851Y-22891770D01*
X64881078Y-22877800D01*
X64898726Y-22860153D01*
X64947872Y-22829271D01*
X64999139Y-22792025D01*
X65026630Y-22779784D01*
X65052686Y-22763413D01*
X65102735Y-22745900D01*
X65154165Y-22723002D01*
X65189855Y-22715415D01*
X65224313Y-22703359D01*
X65271703Y-22698019D01*
X65320150Y-22687722D01*
X65363092Y-22687722D01*
X65405000Y-22683000D01*
X65446908Y-22687722D01*
G37*
G36*
X68726134Y-22686806D02*
G01*
X68742355Y-22697645D01*
X68753194Y-22713866D01*
X68757000Y-22733000D01*
X68757000Y-24257000D01*
X68753194Y-24276134D01*
X68742355Y-24292355D01*
X68726134Y-24303194D01*
X68707000Y-24307000D01*
X67183000Y-24307000D01*
X67163866Y-24303194D01*
X67147645Y-24292355D01*
X67136806Y-24276134D01*
X67133000Y-24257000D01*
X67133000Y-22733000D01*
X67136806Y-22713866D01*
X67147645Y-22697645D01*
X67163866Y-22686806D01*
X67183000Y-22683000D01*
X68707000Y-22683000D01*
X68726134Y-22686806D01*
G37*
M02*
