G04 #@! TF.GenerationSoftware,KiCad,Pcbnew,8.0.2*
G04 #@! TF.CreationDate,2024-07-01T07:58:36+02:00*
G04 #@! TF.ProjectId,energiRegistrationForHA,656e6572-6769-4526-9567-697374726174,0*
G04 #@! TF.SameCoordinates,Original*
G04 #@! TF.FileFunction,Paste,Top*
G04 #@! TF.FilePolarity,Positive*
%FSLAX46Y46*%
G04 Gerber Fmt 4.6, Leading zero omitted, Abs format (unit mm)*
G04 Created by KiCad (PCBNEW 8.0.2) date 2024-07-01 07:58:36*
%MOMM*%
%LPD*%
G01*
G04 APERTURE LIST*
G04 Aperture macros list*
%AMRoundRect*
0 Rectangle with rounded corners*
0 $1 Rounding radius*
0 $2 $3 $4 $5 $6 $7 $8 $9 X,Y pos of 4 corners*
0 Add a 4 corners polygon primitive as box body*
4,1,4,$2,$3,$4,$5,$6,$7,$8,$9,$2,$3,0*
0 Add four circle primitives for the rounded corners*
1,1,$1+$1,$2,$3*
1,1,$1+$1,$4,$5*
1,1,$1+$1,$6,$7*
1,1,$1+$1,$8,$9*
0 Add four rect primitives between the rounded corners*
20,1,$1+$1,$2,$3,$4,$5,0*
20,1,$1+$1,$4,$5,$6,$7,0*
20,1,$1+$1,$6,$7,$8,$9,0*
20,1,$1+$1,$8,$9,$2,$3,0*%
G04 Aperture macros list end*
%ADD10RoundRect,0.243750X-0.243750X-0.456250X0.243750X-0.456250X0.243750X0.456250X-0.243750X0.456250X0*%
%ADD11RoundRect,0.150000X-0.587500X-0.150000X0.587500X-0.150000X0.587500X0.150000X-0.587500X0.150000X0*%
%ADD12RoundRect,0.140000X0.140000X0.170000X-0.140000X0.170000X-0.140000X-0.170000X0.140000X-0.170000X0*%
%ADD13RoundRect,0.135000X-0.185000X0.135000X-0.185000X-0.135000X0.185000X-0.135000X0.185000X0.135000X0*%
%ADD14RoundRect,0.140000X-0.140000X-0.170000X0.140000X-0.170000X0.140000X0.170000X-0.140000X0.170000X0*%
%ADD15RoundRect,0.150000X0.825000X0.150000X-0.825000X0.150000X-0.825000X-0.150000X0.825000X-0.150000X0*%
%ADD16RoundRect,0.135000X-0.135000X-0.185000X0.135000X-0.185000X0.135000X0.185000X-0.135000X0.185000X0*%
%ADD17RoundRect,0.150000X-0.825000X-0.150000X0.825000X-0.150000X0.825000X0.150000X-0.825000X0.150000X0*%
%ADD18R,0.750000X0.800000*%
%ADD19R,0.580000X0.800000*%
%ADD20RoundRect,0.250000X-0.650000X1.000000X-0.650000X-1.000000X0.650000X-1.000000X0.650000X1.000000X0*%
%ADD21RoundRect,0.250000X-0.450000X0.262500X-0.450000X-0.262500X0.450000X-0.262500X0.450000X0.262500X0*%
G04 APERTURE END LIST*
D10*
X55062500Y-77000000D03*
X56937500Y-77000000D03*
D11*
X63530000Y-70805000D03*
X63530000Y-72705000D03*
X65405000Y-71755000D03*
D12*
X78740000Y-53340000D03*
X77780000Y-53340000D03*
D11*
X54005000Y-81280000D03*
X54005000Y-83180000D03*
X55880000Y-82230000D03*
D13*
X60960000Y-71245000D03*
X60960000Y-72265000D03*
D14*
X90480000Y-57150000D03*
X91440000Y-57150000D03*
X90480000Y-34290000D03*
X91440000Y-34290000D03*
X90480000Y-52070000D03*
X91440000Y-52070000D03*
X90480000Y-36830000D03*
X91440000Y-36830000D03*
D15*
X87565000Y-36830000D03*
X87565000Y-35560000D03*
X87565000Y-34290000D03*
X87565000Y-33020000D03*
X87565000Y-31750000D03*
X87565000Y-30480000D03*
X87565000Y-29210000D03*
X82615000Y-29210000D03*
X82615000Y-30480000D03*
X82615000Y-31750000D03*
X82615000Y-33020000D03*
X82615000Y-34290000D03*
X82615000Y-35560000D03*
X82615000Y-36830000D03*
D13*
X58420000Y-71245000D03*
X58420000Y-72265000D03*
D16*
X72390000Y-58420000D03*
X73410000Y-58420000D03*
D11*
X63832500Y-81280000D03*
X63832500Y-83180000D03*
X65707500Y-82230000D03*
D17*
X82680000Y-50800000D03*
X82680000Y-52070000D03*
X82680000Y-53340000D03*
X82680000Y-54610000D03*
X82680000Y-55880000D03*
X82680000Y-57150000D03*
X82680000Y-58420000D03*
X87630000Y-58420000D03*
X87630000Y-57150000D03*
X87630000Y-55880000D03*
X87630000Y-54610000D03*
X87630000Y-53340000D03*
X87630000Y-52070000D03*
X87630000Y-50800000D03*
D10*
X61292500Y-77000000D03*
X63167500Y-77000000D03*
D18*
X86370000Y-41110000D03*
D19*
X85490000Y-41110000D03*
X84690000Y-41110000D03*
D18*
X83810000Y-41110000D03*
X83810000Y-42710000D03*
D19*
X84690000Y-42710000D03*
X85490000Y-42710000D03*
D18*
X86370000Y-42710000D03*
D12*
X78740000Y-50800000D03*
X77780000Y-50800000D03*
D20*
X90170000Y-75470000D03*
X90170000Y-79470000D03*
D11*
X54130000Y-70805000D03*
X54130000Y-72705000D03*
X56005000Y-71755000D03*
D21*
X60960000Y-81280000D03*
X60960000Y-83105000D03*
D12*
X78740000Y-55880000D03*
X77780000Y-55880000D03*
D18*
X83820000Y-46990000D03*
D19*
X84700000Y-46990000D03*
X85500000Y-46990000D03*
D18*
X86380000Y-46990000D03*
X86380000Y-45390000D03*
D19*
X85500000Y-45390000D03*
X84700000Y-45390000D03*
D18*
X83820000Y-45390000D03*
D21*
X58420000Y-81280000D03*
X58420000Y-83105000D03*
D14*
X90480000Y-54610000D03*
X91440000Y-54610000D03*
M02*
