G04 #@! TF.GenerationSoftware,KiCad,Pcbnew,8.0.2*
G04 #@! TF.CreationDate,2024-07-01T07:58:36+02:00*
G04 #@! TF.ProjectId,energiRegistrationForHA,656e6572-6769-4526-9567-697374726174,0*
G04 #@! TF.SameCoordinates,Original*
G04 #@! TF.FileFunction,Legend,Top*
G04 #@! TF.FilePolarity,Positive*
%FSLAX46Y46*%
G04 Gerber Fmt 4.6, Leading zero omitted, Abs format (unit mm)*
G04 Created by KiCad (PCBNEW 8.0.2) date 2024-07-01 07:58:36*
%MOMM*%
%LPD*%
G01*
G04 APERTURE LIST*
G04 Aperture macros list*
%AMRoundRect*
0 Rectangle with rounded corners*
0 $1 Rounding radius*
0 $2 $3 $4 $5 $6 $7 $8 $9 X,Y pos of 4 corners*
0 Add a 4 corners polygon primitive as box body*
4,1,4,$2,$3,$4,$5,$6,$7,$8,$9,$2,$3,0*
0 Add four circle primitives for the rounded corners*
1,1,$1+$1,$2,$3*
1,1,$1+$1,$4,$5*
1,1,$1+$1,$6,$7*
1,1,$1+$1,$8,$9*
0 Add four rect primitives between the rounded corners*
20,1,$1+$1,$2,$3,$4,$5,0*
20,1,$1+$1,$4,$5,$6,$7,0*
20,1,$1+$1,$6,$7,$8,$9,0*
20,1,$1+$1,$8,$9,$2,$3,0*%
%AMFreePoly0*
4,1,35,0.535355,0.785355,0.550000,0.750000,0.550000,-0.750000,0.535355,-0.785355,0.500000,-0.800000,0.000000,-0.800000,-0.012286,-0.794911,-0.071157,-0.794911,-0.085244,-0.792886,-0.221795,-0.752791,-0.234740,-0.746879,-0.354462,-0.669938,-0.365217,-0.660618,-0.458414,-0.553063,-0.466109,-0.541091,-0.525228,-0.411637,-0.529237,-0.397982,-0.549491,-0.257116,-0.550000,-0.250000,-0.550000,0.250000,
-0.549491,0.257116,-0.529237,0.397982,-0.525228,0.411637,-0.466109,0.541091,-0.458414,0.553063,-0.365217,0.660618,-0.354462,0.669938,-0.234740,0.746879,-0.221795,0.752791,-0.085244,0.792886,-0.071157,0.794911,-0.012286,0.794911,0.000000,0.800000,0.500000,0.800000,0.535355,0.785355,0.535355,0.785355,$1*%
%AMFreePoly1*
4,1,35,0.012286,0.794911,0.071157,0.794911,0.085244,0.792886,0.221795,0.752791,0.234740,0.746879,0.354462,0.669938,0.365217,0.660618,0.458414,0.553063,0.466109,0.541091,0.525228,0.411637,0.529237,0.397982,0.549491,0.257116,0.550000,0.250000,0.550000,-0.250000,0.549491,-0.257116,0.529237,-0.397982,0.525228,-0.411637,0.466109,-0.541091,0.458414,-0.553063,0.365217,-0.660618,
0.354462,-0.669938,0.234740,-0.746879,0.221795,-0.752791,0.085244,-0.792886,0.071157,-0.794911,0.012286,-0.794911,0.000000,-0.800000,-0.500000,-0.800000,-0.535355,-0.785355,-0.550000,-0.750000,-0.550000,0.750000,-0.535355,0.785355,-0.500000,0.800000,0.000000,0.800000,0.012286,0.794911,0.012286,0.794911,$1*%
G04 Aperture macros list end*
%ADD10C,0.150000*%
%ADD11C,0.100000*%
%ADD12C,0.080000*%
%ADD13C,0.101600*%
%ADD14C,0.120000*%
%ADD15C,0.200000*%
%ADD16C,1.000000*%
%ADD17C,0.800000*%
%ADD18RoundRect,0.268750X-0.268750X-0.481250X0.268750X-0.481250X0.268750X0.481250X-0.268750X0.481250X0*%
%ADD19RoundRect,0.175000X-0.612500X-0.175000X0.612500X-0.175000X0.612500X0.175000X-0.612500X0.175000X0*%
%ADD20RoundRect,0.165000X0.165000X0.195000X-0.165000X0.195000X-0.165000X-0.195000X0.165000X-0.195000X0*%
%ADD21FreePoly0,180.000000*%
%ADD22FreePoly1,180.000000*%
%ADD23FreePoly0,270.000000*%
%ADD24FreePoly1,270.000000*%
%ADD25RoundRect,0.160000X-0.210000X0.160000X-0.210000X-0.160000X0.210000X-0.160000X0.210000X0.160000X0*%
%ADD26RoundRect,0.165000X-0.165000X-0.195000X0.165000X-0.195000X0.165000X0.195000X-0.165000X0.195000X0*%
%ADD27C,2.132000*%
%ADD28FreePoly0,0.000000*%
%ADD29FreePoly1,0.000000*%
%ADD30FreePoly0,90.000000*%
%ADD31FreePoly1,90.000000*%
%ADD32RoundRect,0.050000X1.300000X-1.300000X1.300000X1.300000X-1.300000X1.300000X-1.300000X-1.300000X0*%
%ADD33C,2.700000*%
%ADD34RoundRect,0.175000X0.850000X0.175000X-0.850000X0.175000X-0.850000X-0.175000X0.850000X-0.175000X0*%
%ADD35RoundRect,0.160000X-0.160000X-0.210000X0.160000X-0.210000X0.160000X0.210000X-0.160000X0.210000X0*%
%ADD36RoundRect,0.175000X-0.850000X-0.175000X0.850000X-0.175000X0.850000X0.175000X-0.850000X0.175000X0*%
%ADD37RoundRect,0.050000X-0.375000X0.400000X-0.375000X-0.400000X0.375000X-0.400000X0.375000X0.400000X0*%
%ADD38RoundRect,0.050000X-0.290000X0.400000X-0.290000X-0.400000X0.290000X-0.400000X0.290000X0.400000X0*%
%ADD39RoundRect,0.263889X-0.686111X1.036111X-0.686111X-1.036111X0.686111X-1.036111X0.686111X1.036111X0*%
%ADD40RoundRect,0.050000X-0.762000X0.762000X-0.762000X-0.762000X0.762000X-0.762000X0.762000X0.762000X0*%
%ADD41C,1.624000*%
%ADD42RoundRect,0.274390X-0.475610X0.288110X-0.475610X-0.288110X0.475610X-0.288110X0.475610X0.288110X0*%
%ADD43RoundRect,0.050000X-0.850000X-0.850000X0.850000X-0.850000X0.850000X0.850000X-0.850000X0.850000X0*%
%ADD44O,1.800000X1.800000*%
%ADD45RoundRect,0.050000X0.375000X-0.400000X0.375000X0.400000X-0.375000X0.400000X-0.375000X-0.400000X0*%
%ADD46RoundRect,0.050000X0.290000X-0.400000X0.290000X0.400000X-0.290000X0.400000X-0.290000X-0.400000X0*%
G04 APERTURE END LIST*
D10*
X64700000Y-77000000D02*
G75*
G02*
X59700000Y-77000000I-2500000J0D01*
G01*
X59700000Y-77000000D02*
G75*
G02*
X64700000Y-77000000I2500000J0D01*
G01*
X58500000Y-77000000D02*
G75*
G02*
X53500000Y-77000000I-2500000J0D01*
G01*
X53500000Y-77000000D02*
G75*
G02*
X58500000Y-77000000I2500000J0D01*
G01*
X35134779Y-57019819D02*
X35134779Y-56019819D01*
X35134779Y-56019819D02*
X35372874Y-56019819D01*
X35372874Y-56019819D02*
X35515731Y-56067438D01*
X35515731Y-56067438D02*
X35610969Y-56162676D01*
X35610969Y-56162676D02*
X35658588Y-56257914D01*
X35658588Y-56257914D02*
X35706207Y-56448390D01*
X35706207Y-56448390D02*
X35706207Y-56591247D01*
X35706207Y-56591247D02*
X35658588Y-56781723D01*
X35658588Y-56781723D02*
X35610969Y-56876961D01*
X35610969Y-56876961D02*
X35515731Y-56972200D01*
X35515731Y-56972200D02*
X35372874Y-57019819D01*
X35372874Y-57019819D02*
X35134779Y-57019819D01*
X36039541Y-56019819D02*
X36658588Y-56019819D01*
X36658588Y-56019819D02*
X36325255Y-56400771D01*
X36325255Y-56400771D02*
X36468112Y-56400771D01*
X36468112Y-56400771D02*
X36563350Y-56448390D01*
X36563350Y-56448390D02*
X36610969Y-56496009D01*
X36610969Y-56496009D02*
X36658588Y-56591247D01*
X36658588Y-56591247D02*
X36658588Y-56829342D01*
X36658588Y-56829342D02*
X36610969Y-56924580D01*
X36610969Y-56924580D02*
X36563350Y-56972200D01*
X36563350Y-56972200D02*
X36468112Y-57019819D01*
X36468112Y-57019819D02*
X36182398Y-57019819D01*
X36182398Y-57019819D02*
X36087160Y-56972200D01*
X36087160Y-56972200D02*
X36039541Y-56924580D01*
X37515731Y-56353152D02*
X37515731Y-57019819D01*
X37277636Y-55972200D02*
X37039541Y-56686485D01*
X37039541Y-56686485D02*
X37658588Y-56686485D01*
X44278779Y-57019819D02*
X44278779Y-56019819D01*
X44278779Y-56019819D02*
X44516874Y-56019819D01*
X44516874Y-56019819D02*
X44659731Y-56067438D01*
X44659731Y-56067438D02*
X44754969Y-56162676D01*
X44754969Y-56162676D02*
X44802588Y-56257914D01*
X44802588Y-56257914D02*
X44850207Y-56448390D01*
X44850207Y-56448390D02*
X44850207Y-56591247D01*
X44850207Y-56591247D02*
X44802588Y-56781723D01*
X44802588Y-56781723D02*
X44754969Y-56876961D01*
X44754969Y-56876961D02*
X44659731Y-56972200D01*
X44659731Y-56972200D02*
X44516874Y-57019819D01*
X44516874Y-57019819D02*
X44278779Y-57019819D01*
X45183541Y-56019819D02*
X45802588Y-56019819D01*
X45802588Y-56019819D02*
X45469255Y-56400771D01*
X45469255Y-56400771D02*
X45612112Y-56400771D01*
X45612112Y-56400771D02*
X45707350Y-56448390D01*
X45707350Y-56448390D02*
X45754969Y-56496009D01*
X45754969Y-56496009D02*
X45802588Y-56591247D01*
X45802588Y-56591247D02*
X45802588Y-56829342D01*
X45802588Y-56829342D02*
X45754969Y-56924580D01*
X45754969Y-56924580D02*
X45707350Y-56972200D01*
X45707350Y-56972200D02*
X45612112Y-57019819D01*
X45612112Y-57019819D02*
X45326398Y-57019819D01*
X45326398Y-57019819D02*
X45231160Y-56972200D01*
X45231160Y-56972200D02*
X45183541Y-56924580D01*
X46183541Y-56115057D02*
X46231160Y-56067438D01*
X46231160Y-56067438D02*
X46326398Y-56019819D01*
X46326398Y-56019819D02*
X46564493Y-56019819D01*
X46564493Y-56019819D02*
X46659731Y-56067438D01*
X46659731Y-56067438D02*
X46707350Y-56115057D01*
X46707350Y-56115057D02*
X46754969Y-56210295D01*
X46754969Y-56210295D02*
X46754969Y-56305533D01*
X46754969Y-56305533D02*
X46707350Y-56448390D01*
X46707350Y-56448390D02*
X46135922Y-57019819D01*
X46135922Y-57019819D02*
X46754969Y-57019819D01*
X64344779Y-56765819D02*
X64344779Y-55765819D01*
X64344779Y-55765819D02*
X64582874Y-55765819D01*
X64582874Y-55765819D02*
X64725731Y-55813438D01*
X64725731Y-55813438D02*
X64820969Y-55908676D01*
X64820969Y-55908676D02*
X64868588Y-56003914D01*
X64868588Y-56003914D02*
X64916207Y-56194390D01*
X64916207Y-56194390D02*
X64916207Y-56337247D01*
X64916207Y-56337247D02*
X64868588Y-56527723D01*
X64868588Y-56527723D02*
X64820969Y-56622961D01*
X64820969Y-56622961D02*
X64725731Y-56718200D01*
X64725731Y-56718200D02*
X64582874Y-56765819D01*
X64582874Y-56765819D02*
X64344779Y-56765819D01*
X65868588Y-56765819D02*
X65297160Y-56765819D01*
X65582874Y-56765819D02*
X65582874Y-55765819D01*
X65582874Y-55765819D02*
X65487636Y-55908676D01*
X65487636Y-55908676D02*
X65392398Y-56003914D01*
X65392398Y-56003914D02*
X65297160Y-56051533D01*
X66725731Y-55765819D02*
X66535255Y-55765819D01*
X66535255Y-55765819D02*
X66440017Y-55813438D01*
X66440017Y-55813438D02*
X66392398Y-55861057D01*
X66392398Y-55861057D02*
X66297160Y-56003914D01*
X66297160Y-56003914D02*
X66249541Y-56194390D01*
X66249541Y-56194390D02*
X66249541Y-56575342D01*
X66249541Y-56575342D02*
X66297160Y-56670580D01*
X66297160Y-56670580D02*
X66344779Y-56718200D01*
X66344779Y-56718200D02*
X66440017Y-56765819D01*
X66440017Y-56765819D02*
X66630493Y-56765819D01*
X66630493Y-56765819D02*
X66725731Y-56718200D01*
X66725731Y-56718200D02*
X66773350Y-56670580D01*
X66773350Y-56670580D02*
X66820969Y-56575342D01*
X66820969Y-56575342D02*
X66820969Y-56337247D01*
X66820969Y-56337247D02*
X66773350Y-56242009D01*
X66773350Y-56242009D02*
X66725731Y-56194390D01*
X66725731Y-56194390D02*
X66630493Y-56146771D01*
X66630493Y-56146771D02*
X66440017Y-56146771D01*
X66440017Y-56146771D02*
X66344779Y-56194390D01*
X66344779Y-56194390D02*
X66297160Y-56242009D01*
X66297160Y-56242009D02*
X66249541Y-56337247D01*
X70916969Y-56765819D02*
X70440779Y-56765819D01*
X70440779Y-56765819D02*
X70440779Y-55765819D01*
X71250303Y-56242009D02*
X71583636Y-56242009D01*
X71726493Y-56765819D02*
X71250303Y-56765819D01*
X71250303Y-56765819D02*
X71250303Y-55765819D01*
X71250303Y-55765819D02*
X71726493Y-55765819D01*
X72155065Y-56765819D02*
X72155065Y-55765819D01*
X72155065Y-55765819D02*
X72393160Y-55765819D01*
X72393160Y-55765819D02*
X72536017Y-55813438D01*
X72536017Y-55813438D02*
X72631255Y-55908676D01*
X72631255Y-55908676D02*
X72678874Y-56003914D01*
X72678874Y-56003914D02*
X72726493Y-56194390D01*
X72726493Y-56194390D02*
X72726493Y-56337247D01*
X72726493Y-56337247D02*
X72678874Y-56527723D01*
X72678874Y-56527723D02*
X72631255Y-56622961D01*
X72631255Y-56622961D02*
X72536017Y-56718200D01*
X72536017Y-56718200D02*
X72393160Y-56765819D01*
X72393160Y-56765819D02*
X72155065Y-56765819D01*
X73869351Y-55861057D02*
X73916970Y-55813438D01*
X73916970Y-55813438D02*
X74012208Y-55765819D01*
X74012208Y-55765819D02*
X74250303Y-55765819D01*
X74250303Y-55765819D02*
X74345541Y-55813438D01*
X74345541Y-55813438D02*
X74393160Y-55861057D01*
X74393160Y-55861057D02*
X74440779Y-55956295D01*
X74440779Y-55956295D02*
X74440779Y-56051533D01*
X74440779Y-56051533D02*
X74393160Y-56194390D01*
X74393160Y-56194390D02*
X73821732Y-56765819D01*
X73821732Y-56765819D02*
X74440779Y-56765819D01*
X49612779Y-56765819D02*
X49612779Y-55765819D01*
X49612779Y-55765819D02*
X49850874Y-55765819D01*
X49850874Y-55765819D02*
X49993731Y-55813438D01*
X49993731Y-55813438D02*
X50088969Y-55908676D01*
X50088969Y-55908676D02*
X50136588Y-56003914D01*
X50136588Y-56003914D02*
X50184207Y-56194390D01*
X50184207Y-56194390D02*
X50184207Y-56337247D01*
X50184207Y-56337247D02*
X50136588Y-56527723D01*
X50136588Y-56527723D02*
X50088969Y-56622961D01*
X50088969Y-56622961D02*
X49993731Y-56718200D01*
X49993731Y-56718200D02*
X49850874Y-56765819D01*
X49850874Y-56765819D02*
X49612779Y-56765819D01*
X50565160Y-55861057D02*
X50612779Y-55813438D01*
X50612779Y-55813438D02*
X50708017Y-55765819D01*
X50708017Y-55765819D02*
X50946112Y-55765819D01*
X50946112Y-55765819D02*
X51041350Y-55813438D01*
X51041350Y-55813438D02*
X51088969Y-55861057D01*
X51088969Y-55861057D02*
X51136588Y-55956295D01*
X51136588Y-55956295D02*
X51136588Y-56051533D01*
X51136588Y-56051533D02*
X51088969Y-56194390D01*
X51088969Y-56194390D02*
X50517541Y-56765819D01*
X50517541Y-56765819D02*
X51136588Y-56765819D01*
X51612779Y-56765819D02*
X51803255Y-56765819D01*
X51803255Y-56765819D02*
X51898493Y-56718200D01*
X51898493Y-56718200D02*
X51946112Y-56670580D01*
X51946112Y-56670580D02*
X52041350Y-56527723D01*
X52041350Y-56527723D02*
X52088969Y-56337247D01*
X52088969Y-56337247D02*
X52088969Y-55956295D01*
X52088969Y-55956295D02*
X52041350Y-55861057D01*
X52041350Y-55861057D02*
X51993731Y-55813438D01*
X51993731Y-55813438D02*
X51898493Y-55765819D01*
X51898493Y-55765819D02*
X51708017Y-55765819D01*
X51708017Y-55765819D02*
X51612779Y-55813438D01*
X51612779Y-55813438D02*
X51565160Y-55861057D01*
X51565160Y-55861057D02*
X51517541Y-55956295D01*
X51517541Y-55956295D02*
X51517541Y-56194390D01*
X51517541Y-56194390D02*
X51565160Y-56289628D01*
X51565160Y-56289628D02*
X51612779Y-56337247D01*
X51612779Y-56337247D02*
X51708017Y-56384866D01*
X51708017Y-56384866D02*
X51898493Y-56384866D01*
X51898493Y-56384866D02*
X51993731Y-56337247D01*
X51993731Y-56337247D02*
X52041350Y-56289628D01*
X52041350Y-56289628D02*
X52088969Y-56194390D01*
X39452779Y-57019819D02*
X39452779Y-56019819D01*
X39452779Y-56019819D02*
X39690874Y-56019819D01*
X39690874Y-56019819D02*
X39833731Y-56067438D01*
X39833731Y-56067438D02*
X39928969Y-56162676D01*
X39928969Y-56162676D02*
X39976588Y-56257914D01*
X39976588Y-56257914D02*
X40024207Y-56448390D01*
X40024207Y-56448390D02*
X40024207Y-56591247D01*
X40024207Y-56591247D02*
X39976588Y-56781723D01*
X39976588Y-56781723D02*
X39928969Y-56876961D01*
X39928969Y-56876961D02*
X39833731Y-56972200D01*
X39833731Y-56972200D02*
X39690874Y-57019819D01*
X39690874Y-57019819D02*
X39452779Y-57019819D01*
X40357541Y-56019819D02*
X40976588Y-56019819D01*
X40976588Y-56019819D02*
X40643255Y-56400771D01*
X40643255Y-56400771D02*
X40786112Y-56400771D01*
X40786112Y-56400771D02*
X40881350Y-56448390D01*
X40881350Y-56448390D02*
X40928969Y-56496009D01*
X40928969Y-56496009D02*
X40976588Y-56591247D01*
X40976588Y-56591247D02*
X40976588Y-56829342D01*
X40976588Y-56829342D02*
X40928969Y-56924580D01*
X40928969Y-56924580D02*
X40881350Y-56972200D01*
X40881350Y-56972200D02*
X40786112Y-57019819D01*
X40786112Y-57019819D02*
X40500398Y-57019819D01*
X40500398Y-57019819D02*
X40405160Y-56972200D01*
X40405160Y-56972200D02*
X40357541Y-56924580D01*
X41309922Y-56019819D02*
X41928969Y-56019819D01*
X41928969Y-56019819D02*
X41595636Y-56400771D01*
X41595636Y-56400771D02*
X41738493Y-56400771D01*
X41738493Y-56400771D02*
X41833731Y-56448390D01*
X41833731Y-56448390D02*
X41881350Y-56496009D01*
X41881350Y-56496009D02*
X41928969Y-56591247D01*
X41928969Y-56591247D02*
X41928969Y-56829342D01*
X41928969Y-56829342D02*
X41881350Y-56924580D01*
X41881350Y-56924580D02*
X41833731Y-56972200D01*
X41833731Y-56972200D02*
X41738493Y-57019819D01*
X41738493Y-57019819D02*
X41452779Y-57019819D01*
X41452779Y-57019819D02*
X41357541Y-56972200D01*
X41357541Y-56972200D02*
X41309922Y-56924580D01*
X59772779Y-56765819D02*
X59772779Y-55765819D01*
X59772779Y-55765819D02*
X60010874Y-55765819D01*
X60010874Y-55765819D02*
X60153731Y-55813438D01*
X60153731Y-55813438D02*
X60248969Y-55908676D01*
X60248969Y-55908676D02*
X60296588Y-56003914D01*
X60296588Y-56003914D02*
X60344207Y-56194390D01*
X60344207Y-56194390D02*
X60344207Y-56337247D01*
X60344207Y-56337247D02*
X60296588Y-56527723D01*
X60296588Y-56527723D02*
X60248969Y-56622961D01*
X60248969Y-56622961D02*
X60153731Y-56718200D01*
X60153731Y-56718200D02*
X60010874Y-56765819D01*
X60010874Y-56765819D02*
X59772779Y-56765819D01*
X61296588Y-56765819D02*
X60725160Y-56765819D01*
X61010874Y-56765819D02*
X61010874Y-55765819D01*
X61010874Y-55765819D02*
X60915636Y-55908676D01*
X60915636Y-55908676D02*
X60820398Y-56003914D01*
X60820398Y-56003914D02*
X60725160Y-56051533D01*
X61629922Y-55765819D02*
X62296588Y-55765819D01*
X62296588Y-55765819D02*
X61868017Y-56765819D01*
X54184779Y-56765819D02*
X54184779Y-55765819D01*
X54184779Y-55765819D02*
X54422874Y-55765819D01*
X54422874Y-55765819D02*
X54565731Y-55813438D01*
X54565731Y-55813438D02*
X54660969Y-55908676D01*
X54660969Y-55908676D02*
X54708588Y-56003914D01*
X54708588Y-56003914D02*
X54756207Y-56194390D01*
X54756207Y-56194390D02*
X54756207Y-56337247D01*
X54756207Y-56337247D02*
X54708588Y-56527723D01*
X54708588Y-56527723D02*
X54660969Y-56622961D01*
X54660969Y-56622961D02*
X54565731Y-56718200D01*
X54565731Y-56718200D02*
X54422874Y-56765819D01*
X54422874Y-56765819D02*
X54184779Y-56765819D01*
X55137160Y-55861057D02*
X55184779Y-55813438D01*
X55184779Y-55813438D02*
X55280017Y-55765819D01*
X55280017Y-55765819D02*
X55518112Y-55765819D01*
X55518112Y-55765819D02*
X55613350Y-55813438D01*
X55613350Y-55813438D02*
X55660969Y-55861057D01*
X55660969Y-55861057D02*
X55708588Y-55956295D01*
X55708588Y-55956295D02*
X55708588Y-56051533D01*
X55708588Y-56051533D02*
X55660969Y-56194390D01*
X55660969Y-56194390D02*
X55089541Y-56765819D01*
X55089541Y-56765819D02*
X55708588Y-56765819D01*
X56565731Y-55765819D02*
X56375255Y-55765819D01*
X56375255Y-55765819D02*
X56280017Y-55813438D01*
X56280017Y-55813438D02*
X56232398Y-55861057D01*
X56232398Y-55861057D02*
X56137160Y-56003914D01*
X56137160Y-56003914D02*
X56089541Y-56194390D01*
X56089541Y-56194390D02*
X56089541Y-56575342D01*
X56089541Y-56575342D02*
X56137160Y-56670580D01*
X56137160Y-56670580D02*
X56184779Y-56718200D01*
X56184779Y-56718200D02*
X56280017Y-56765819D01*
X56280017Y-56765819D02*
X56470493Y-56765819D01*
X56470493Y-56765819D02*
X56565731Y-56718200D01*
X56565731Y-56718200D02*
X56613350Y-56670580D01*
X56613350Y-56670580D02*
X56660969Y-56575342D01*
X56660969Y-56575342D02*
X56660969Y-56337247D01*
X56660969Y-56337247D02*
X56613350Y-56242009D01*
X56613350Y-56242009D02*
X56565731Y-56194390D01*
X56565731Y-56194390D02*
X56470493Y-56146771D01*
X56470493Y-56146771D02*
X56280017Y-56146771D01*
X56280017Y-56146771D02*
X56184779Y-56194390D01*
X56184779Y-56194390D02*
X56137160Y-56242009D01*
X56137160Y-56242009D02*
X56089541Y-56337247D01*
X30816779Y-57019819D02*
X30816779Y-56019819D01*
X30816779Y-56019819D02*
X31054874Y-56019819D01*
X31054874Y-56019819D02*
X31197731Y-56067438D01*
X31197731Y-56067438D02*
X31292969Y-56162676D01*
X31292969Y-56162676D02*
X31340588Y-56257914D01*
X31340588Y-56257914D02*
X31388207Y-56448390D01*
X31388207Y-56448390D02*
X31388207Y-56591247D01*
X31388207Y-56591247D02*
X31340588Y-56781723D01*
X31340588Y-56781723D02*
X31292969Y-56876961D01*
X31292969Y-56876961D02*
X31197731Y-56972200D01*
X31197731Y-56972200D02*
X31054874Y-57019819D01*
X31054874Y-57019819D02*
X30816779Y-57019819D01*
X31721541Y-56019819D02*
X32340588Y-56019819D01*
X32340588Y-56019819D02*
X32007255Y-56400771D01*
X32007255Y-56400771D02*
X32150112Y-56400771D01*
X32150112Y-56400771D02*
X32245350Y-56448390D01*
X32245350Y-56448390D02*
X32292969Y-56496009D01*
X32292969Y-56496009D02*
X32340588Y-56591247D01*
X32340588Y-56591247D02*
X32340588Y-56829342D01*
X32340588Y-56829342D02*
X32292969Y-56924580D01*
X32292969Y-56924580D02*
X32245350Y-56972200D01*
X32245350Y-56972200D02*
X32150112Y-57019819D01*
X32150112Y-57019819D02*
X31864398Y-57019819D01*
X31864398Y-57019819D02*
X31769160Y-56972200D01*
X31769160Y-56972200D02*
X31721541Y-56924580D01*
X33245350Y-56019819D02*
X32769160Y-56019819D01*
X32769160Y-56019819D02*
X32721541Y-56496009D01*
X32721541Y-56496009D02*
X32769160Y-56448390D01*
X32769160Y-56448390D02*
X32864398Y-56400771D01*
X32864398Y-56400771D02*
X33102493Y-56400771D01*
X33102493Y-56400771D02*
X33197731Y-56448390D01*
X33197731Y-56448390D02*
X33245350Y-56496009D01*
X33245350Y-56496009D02*
X33292969Y-56591247D01*
X33292969Y-56591247D02*
X33292969Y-56829342D01*
X33292969Y-56829342D02*
X33245350Y-56924580D01*
X33245350Y-56924580D02*
X33197731Y-56972200D01*
X33197731Y-56972200D02*
X33102493Y-57019819D01*
X33102493Y-57019819D02*
X32864398Y-57019819D01*
X32864398Y-57019819D02*
X32769160Y-56972200D01*
X32769160Y-56972200D02*
X32721541Y-56924580D01*
X55261905Y-75804819D02*
X55261905Y-74804819D01*
X55261905Y-74804819D02*
X55500000Y-74804819D01*
X55500000Y-74804819D02*
X55642857Y-74852438D01*
X55642857Y-74852438D02*
X55738095Y-74947676D01*
X55738095Y-74947676D02*
X55785714Y-75042914D01*
X55785714Y-75042914D02*
X55833333Y-75233390D01*
X55833333Y-75233390D02*
X55833333Y-75376247D01*
X55833333Y-75376247D02*
X55785714Y-75566723D01*
X55785714Y-75566723D02*
X55738095Y-75661961D01*
X55738095Y-75661961D02*
X55642857Y-75757200D01*
X55642857Y-75757200D02*
X55500000Y-75804819D01*
X55500000Y-75804819D02*
X55261905Y-75804819D01*
X56166667Y-74804819D02*
X56785714Y-74804819D01*
X56785714Y-74804819D02*
X56452381Y-75185771D01*
X56452381Y-75185771D02*
X56595238Y-75185771D01*
X56595238Y-75185771D02*
X56690476Y-75233390D01*
X56690476Y-75233390D02*
X56738095Y-75281009D01*
X56738095Y-75281009D02*
X56785714Y-75376247D01*
X56785714Y-75376247D02*
X56785714Y-75614342D01*
X56785714Y-75614342D02*
X56738095Y-75709580D01*
X56738095Y-75709580D02*
X56690476Y-75757200D01*
X56690476Y-75757200D02*
X56595238Y-75804819D01*
X56595238Y-75804819D02*
X56309524Y-75804819D01*
X56309524Y-75804819D02*
X56214286Y-75757200D01*
X56214286Y-75757200D02*
X56166667Y-75709580D01*
X64372261Y-69905057D02*
X64277023Y-69857438D01*
X64277023Y-69857438D02*
X64181785Y-69762200D01*
X64181785Y-69762200D02*
X64038928Y-69619342D01*
X64038928Y-69619342D02*
X63943690Y-69571723D01*
X63943690Y-69571723D02*
X63848452Y-69571723D01*
X63896071Y-69809819D02*
X63800833Y-69762200D01*
X63800833Y-69762200D02*
X63705595Y-69666961D01*
X63705595Y-69666961D02*
X63657976Y-69476485D01*
X63657976Y-69476485D02*
X63657976Y-69143152D01*
X63657976Y-69143152D02*
X63705595Y-68952676D01*
X63705595Y-68952676D02*
X63800833Y-68857438D01*
X63800833Y-68857438D02*
X63896071Y-68809819D01*
X63896071Y-68809819D02*
X64086547Y-68809819D01*
X64086547Y-68809819D02*
X64181785Y-68857438D01*
X64181785Y-68857438D02*
X64277023Y-68952676D01*
X64277023Y-68952676D02*
X64324642Y-69143152D01*
X64324642Y-69143152D02*
X64324642Y-69476485D01*
X64324642Y-69476485D02*
X64277023Y-69666961D01*
X64277023Y-69666961D02*
X64181785Y-69762200D01*
X64181785Y-69762200D02*
X64086547Y-69809819D01*
X64086547Y-69809819D02*
X63896071Y-69809819D01*
X64705595Y-68905057D02*
X64753214Y-68857438D01*
X64753214Y-68857438D02*
X64848452Y-68809819D01*
X64848452Y-68809819D02*
X65086547Y-68809819D01*
X65086547Y-68809819D02*
X65181785Y-68857438D01*
X65181785Y-68857438D02*
X65229404Y-68905057D01*
X65229404Y-68905057D02*
X65277023Y-69000295D01*
X65277023Y-69000295D02*
X65277023Y-69095533D01*
X65277023Y-69095533D02*
X65229404Y-69238390D01*
X65229404Y-69238390D02*
X64657976Y-69809819D01*
X64657976Y-69809819D02*
X65277023Y-69809819D01*
X78093333Y-54859580D02*
X78045714Y-54907200D01*
X78045714Y-54907200D02*
X77902857Y-54954819D01*
X77902857Y-54954819D02*
X77807619Y-54954819D01*
X77807619Y-54954819D02*
X77664762Y-54907200D01*
X77664762Y-54907200D02*
X77569524Y-54811961D01*
X77569524Y-54811961D02*
X77521905Y-54716723D01*
X77521905Y-54716723D02*
X77474286Y-54526247D01*
X77474286Y-54526247D02*
X77474286Y-54383390D01*
X77474286Y-54383390D02*
X77521905Y-54192914D01*
X77521905Y-54192914D02*
X77569524Y-54097676D01*
X77569524Y-54097676D02*
X77664762Y-54002438D01*
X77664762Y-54002438D02*
X77807619Y-53954819D01*
X77807619Y-53954819D02*
X77902857Y-53954819D01*
X77902857Y-53954819D02*
X78045714Y-54002438D01*
X78045714Y-54002438D02*
X78093333Y-54050057D01*
X78474286Y-54050057D02*
X78521905Y-54002438D01*
X78521905Y-54002438D02*
X78617143Y-53954819D01*
X78617143Y-53954819D02*
X78855238Y-53954819D01*
X78855238Y-53954819D02*
X78950476Y-54002438D01*
X78950476Y-54002438D02*
X78998095Y-54050057D01*
X78998095Y-54050057D02*
X79045714Y-54145295D01*
X79045714Y-54145295D02*
X79045714Y-54240533D01*
X79045714Y-54240533D02*
X78998095Y-54383390D01*
X78998095Y-54383390D02*
X78426667Y-54954819D01*
X78426667Y-54954819D02*
X79045714Y-54954819D01*
X54847261Y-85320057D02*
X54752023Y-85272438D01*
X54752023Y-85272438D02*
X54656785Y-85177200D01*
X54656785Y-85177200D02*
X54513928Y-85034342D01*
X54513928Y-85034342D02*
X54418690Y-84986723D01*
X54418690Y-84986723D02*
X54323452Y-84986723D01*
X54371071Y-85224819D02*
X54275833Y-85177200D01*
X54275833Y-85177200D02*
X54180595Y-85081961D01*
X54180595Y-85081961D02*
X54132976Y-84891485D01*
X54132976Y-84891485D02*
X54132976Y-84558152D01*
X54132976Y-84558152D02*
X54180595Y-84367676D01*
X54180595Y-84367676D02*
X54275833Y-84272438D01*
X54275833Y-84272438D02*
X54371071Y-84224819D01*
X54371071Y-84224819D02*
X54561547Y-84224819D01*
X54561547Y-84224819D02*
X54656785Y-84272438D01*
X54656785Y-84272438D02*
X54752023Y-84367676D01*
X54752023Y-84367676D02*
X54799642Y-84558152D01*
X54799642Y-84558152D02*
X54799642Y-84891485D01*
X54799642Y-84891485D02*
X54752023Y-85081961D01*
X54752023Y-85081961D02*
X54656785Y-85177200D01*
X54656785Y-85177200D02*
X54561547Y-85224819D01*
X54561547Y-85224819D02*
X54371071Y-85224819D01*
X55656785Y-84558152D02*
X55656785Y-85224819D01*
X55418690Y-84177200D02*
X55180595Y-84891485D01*
X55180595Y-84891485D02*
X55799642Y-84891485D01*
X77256666Y-38084819D02*
X77256666Y-38799104D01*
X77256666Y-38799104D02*
X77209047Y-38941961D01*
X77209047Y-38941961D02*
X77113809Y-39037200D01*
X77113809Y-39037200D02*
X76970952Y-39084819D01*
X76970952Y-39084819D02*
X76875714Y-39084819D01*
X77732857Y-39084819D02*
X77732857Y-38084819D01*
X77732857Y-38084819D02*
X78113809Y-38084819D01*
X78113809Y-38084819D02*
X78209047Y-38132438D01*
X78209047Y-38132438D02*
X78256666Y-38180057D01*
X78256666Y-38180057D02*
X78304285Y-38275295D01*
X78304285Y-38275295D02*
X78304285Y-38418152D01*
X78304285Y-38418152D02*
X78256666Y-38513390D01*
X78256666Y-38513390D02*
X78209047Y-38561009D01*
X78209047Y-38561009D02*
X78113809Y-38608628D01*
X78113809Y-38608628D02*
X77732857Y-38608628D01*
X79161428Y-38418152D02*
X79161428Y-39084819D01*
X78923333Y-38037200D02*
X78685238Y-38751485D01*
X78685238Y-38751485D02*
X79304285Y-38751485D01*
X37449819Y-54793333D02*
X38164104Y-54793333D01*
X38164104Y-54793333D02*
X38306961Y-54840952D01*
X38306961Y-54840952D02*
X38402200Y-54936190D01*
X38402200Y-54936190D02*
X38449819Y-55079047D01*
X38449819Y-55079047D02*
X38449819Y-55174285D01*
X38449819Y-54317142D02*
X37449819Y-54317142D01*
X37449819Y-54317142D02*
X37449819Y-53936190D01*
X37449819Y-53936190D02*
X37497438Y-53840952D01*
X37497438Y-53840952D02*
X37545057Y-53793333D01*
X37545057Y-53793333D02*
X37640295Y-53745714D01*
X37640295Y-53745714D02*
X37783152Y-53745714D01*
X37783152Y-53745714D02*
X37878390Y-53793333D01*
X37878390Y-53793333D02*
X37926009Y-53840952D01*
X37926009Y-53840952D02*
X37973628Y-53936190D01*
X37973628Y-53936190D02*
X37973628Y-54317142D01*
X37449819Y-52888571D02*
X37449819Y-53079047D01*
X37449819Y-53079047D02*
X37497438Y-53174285D01*
X37497438Y-53174285D02*
X37545057Y-53221904D01*
X37545057Y-53221904D02*
X37687914Y-53317142D01*
X37687914Y-53317142D02*
X37878390Y-53364761D01*
X37878390Y-53364761D02*
X38259342Y-53364761D01*
X38259342Y-53364761D02*
X38354580Y-53317142D01*
X38354580Y-53317142D02*
X38402200Y-53269523D01*
X38402200Y-53269523D02*
X38449819Y-53174285D01*
X38449819Y-53174285D02*
X38449819Y-52983809D01*
X38449819Y-52983809D02*
X38402200Y-52888571D01*
X38402200Y-52888571D02*
X38354580Y-52840952D01*
X38354580Y-52840952D02*
X38259342Y-52793333D01*
X38259342Y-52793333D02*
X38021247Y-52793333D01*
X38021247Y-52793333D02*
X37926009Y-52840952D01*
X37926009Y-52840952D02*
X37878390Y-52888571D01*
X37878390Y-52888571D02*
X37830771Y-52983809D01*
X37830771Y-52983809D02*
X37830771Y-53174285D01*
X37830771Y-53174285D02*
X37878390Y-53269523D01*
X37878390Y-53269523D02*
X37926009Y-53317142D01*
X37926009Y-53317142D02*
X38021247Y-53364761D01*
X60793333Y-70304819D02*
X60460000Y-69828628D01*
X60221905Y-70304819D02*
X60221905Y-69304819D01*
X60221905Y-69304819D02*
X60602857Y-69304819D01*
X60602857Y-69304819D02*
X60698095Y-69352438D01*
X60698095Y-69352438D02*
X60745714Y-69400057D01*
X60745714Y-69400057D02*
X60793333Y-69495295D01*
X60793333Y-69495295D02*
X60793333Y-69638152D01*
X60793333Y-69638152D02*
X60745714Y-69733390D01*
X60745714Y-69733390D02*
X60698095Y-69781009D01*
X60698095Y-69781009D02*
X60602857Y-69828628D01*
X60602857Y-69828628D02*
X60221905Y-69828628D01*
X61174286Y-69400057D02*
X61221905Y-69352438D01*
X61221905Y-69352438D02*
X61317143Y-69304819D01*
X61317143Y-69304819D02*
X61555238Y-69304819D01*
X61555238Y-69304819D02*
X61650476Y-69352438D01*
X61650476Y-69352438D02*
X61698095Y-69400057D01*
X61698095Y-69400057D02*
X61745714Y-69495295D01*
X61745714Y-69495295D02*
X61745714Y-69590533D01*
X61745714Y-69590533D02*
X61698095Y-69733390D01*
X61698095Y-69733390D02*
X61126667Y-70304819D01*
X61126667Y-70304819D02*
X61745714Y-70304819D01*
X90793333Y-56349580D02*
X90745714Y-56397200D01*
X90745714Y-56397200D02*
X90602857Y-56444819D01*
X90602857Y-56444819D02*
X90507619Y-56444819D01*
X90507619Y-56444819D02*
X90364762Y-56397200D01*
X90364762Y-56397200D02*
X90269524Y-56301961D01*
X90269524Y-56301961D02*
X90221905Y-56206723D01*
X90221905Y-56206723D02*
X90174286Y-56016247D01*
X90174286Y-56016247D02*
X90174286Y-55873390D01*
X90174286Y-55873390D02*
X90221905Y-55682914D01*
X90221905Y-55682914D02*
X90269524Y-55587676D01*
X90269524Y-55587676D02*
X90364762Y-55492438D01*
X90364762Y-55492438D02*
X90507619Y-55444819D01*
X90507619Y-55444819D02*
X90602857Y-55444819D01*
X90602857Y-55444819D02*
X90745714Y-55492438D01*
X90745714Y-55492438D02*
X90793333Y-55540057D01*
X91650476Y-55778152D02*
X91650476Y-56444819D01*
X91412381Y-55397200D02*
X91174286Y-56111485D01*
X91174286Y-56111485D02*
X91793333Y-56111485D01*
D11*
X81108295Y-73072714D02*
X81108295Y-73548904D01*
X80822580Y-72977476D02*
X81822580Y-73310809D01*
X81822580Y-73310809D02*
X80822580Y-73644142D01*
X81822580Y-73882238D02*
X81822580Y-74501285D01*
X81822580Y-74501285D02*
X81441628Y-74167952D01*
X81441628Y-74167952D02*
X81441628Y-74310809D01*
X81441628Y-74310809D02*
X81394009Y-74406047D01*
X81394009Y-74406047D02*
X81346390Y-74453666D01*
X81346390Y-74453666D02*
X81251152Y-74501285D01*
X81251152Y-74501285D02*
X81013057Y-74501285D01*
X81013057Y-74501285D02*
X80917819Y-74453666D01*
X80917819Y-74453666D02*
X80870200Y-74406047D01*
X80870200Y-74406047D02*
X80822580Y-74310809D01*
X80822580Y-74310809D02*
X80822580Y-74025095D01*
X80822580Y-74025095D02*
X80870200Y-73929857D01*
X80870200Y-73929857D02*
X80917819Y-73882238D01*
X70485580Y-79170884D02*
X71485580Y-79170884D01*
X70485580Y-79647074D02*
X71485580Y-79647074D01*
X71485580Y-79647074D02*
X70485580Y-80218502D01*
X70485580Y-80218502D02*
X71485580Y-80218502D01*
X70866533Y-80694693D02*
X70866533Y-81456598D01*
X83693580Y-79170884D02*
X84693580Y-79170884D01*
X83693580Y-79647074D02*
X84693580Y-79647074D01*
X84693580Y-79647074D02*
X83693580Y-80218502D01*
X83693580Y-80218502D02*
X84693580Y-80218502D01*
X84074533Y-80694693D02*
X84074533Y-81456598D01*
X83693580Y-81075645D02*
X84455485Y-81075645D01*
X71485580Y-66407360D02*
X71485580Y-66597836D01*
X71485580Y-66597836D02*
X71437961Y-66693074D01*
X71437961Y-66693074D02*
X71342723Y-66788312D01*
X71342723Y-66788312D02*
X71152247Y-66835931D01*
X71152247Y-66835931D02*
X70818914Y-66835931D01*
X70818914Y-66835931D02*
X70628438Y-66788312D01*
X70628438Y-66788312D02*
X70533200Y-66693074D01*
X70533200Y-66693074D02*
X70485580Y-66597836D01*
X70485580Y-66597836D02*
X70485580Y-66407360D01*
X70485580Y-66407360D02*
X70533200Y-66312122D01*
X70533200Y-66312122D02*
X70628438Y-66216884D01*
X70628438Y-66216884D02*
X70818914Y-66169265D01*
X70818914Y-66169265D02*
X71152247Y-66169265D01*
X71152247Y-66169265D02*
X71342723Y-66216884D01*
X71342723Y-66216884D02*
X71437961Y-66312122D01*
X71437961Y-66312122D02*
X71485580Y-66407360D01*
X71485580Y-67264503D02*
X70676057Y-67264503D01*
X70676057Y-67264503D02*
X70580819Y-67312122D01*
X70580819Y-67312122D02*
X70533200Y-67359741D01*
X70533200Y-67359741D02*
X70485580Y-67454979D01*
X70485580Y-67454979D02*
X70485580Y-67645455D01*
X70485580Y-67645455D02*
X70533200Y-67740693D01*
X70533200Y-67740693D02*
X70580819Y-67788312D01*
X70580819Y-67788312D02*
X70676057Y-67835931D01*
X70676057Y-67835931D02*
X71485580Y-67835931D01*
X71485580Y-68169265D02*
X71485580Y-68740693D01*
X70485580Y-68454979D02*
X71485580Y-68454979D01*
X70866533Y-69074027D02*
X70866533Y-69835932D01*
X84693580Y-66153360D02*
X84693580Y-66343836D01*
X84693580Y-66343836D02*
X84645961Y-66439074D01*
X84645961Y-66439074D02*
X84550723Y-66534312D01*
X84550723Y-66534312D02*
X84360247Y-66581931D01*
X84360247Y-66581931D02*
X84026914Y-66581931D01*
X84026914Y-66581931D02*
X83836438Y-66534312D01*
X83836438Y-66534312D02*
X83741200Y-66439074D01*
X83741200Y-66439074D02*
X83693580Y-66343836D01*
X83693580Y-66343836D02*
X83693580Y-66153360D01*
X83693580Y-66153360D02*
X83741200Y-66058122D01*
X83741200Y-66058122D02*
X83836438Y-65962884D01*
X83836438Y-65962884D02*
X84026914Y-65915265D01*
X84026914Y-65915265D02*
X84360247Y-65915265D01*
X84360247Y-65915265D02*
X84550723Y-65962884D01*
X84550723Y-65962884D02*
X84645961Y-66058122D01*
X84645961Y-66058122D02*
X84693580Y-66153360D01*
X84693580Y-67010503D02*
X83884057Y-67010503D01*
X83884057Y-67010503D02*
X83788819Y-67058122D01*
X83788819Y-67058122D02*
X83741200Y-67105741D01*
X83741200Y-67105741D02*
X83693580Y-67200979D01*
X83693580Y-67200979D02*
X83693580Y-67391455D01*
X83693580Y-67391455D02*
X83741200Y-67486693D01*
X83741200Y-67486693D02*
X83788819Y-67534312D01*
X83788819Y-67534312D02*
X83884057Y-67581931D01*
X83884057Y-67581931D02*
X84693580Y-67581931D01*
X84693580Y-67915265D02*
X84693580Y-68486693D01*
X83693580Y-68200979D02*
X84693580Y-68200979D01*
X84074533Y-68820027D02*
X84074533Y-69581932D01*
X83693580Y-69200979D02*
X84455485Y-69200979D01*
D10*
X90793333Y-33489580D02*
X90745714Y-33537200D01*
X90745714Y-33537200D02*
X90602857Y-33584819D01*
X90602857Y-33584819D02*
X90507619Y-33584819D01*
X90507619Y-33584819D02*
X90364762Y-33537200D01*
X90364762Y-33537200D02*
X90269524Y-33441961D01*
X90269524Y-33441961D02*
X90221905Y-33346723D01*
X90221905Y-33346723D02*
X90174286Y-33156247D01*
X90174286Y-33156247D02*
X90174286Y-33013390D01*
X90174286Y-33013390D02*
X90221905Y-32822914D01*
X90221905Y-32822914D02*
X90269524Y-32727676D01*
X90269524Y-32727676D02*
X90364762Y-32632438D01*
X90364762Y-32632438D02*
X90507619Y-32584819D01*
X90507619Y-32584819D02*
X90602857Y-32584819D01*
X90602857Y-32584819D02*
X90745714Y-32632438D01*
X90745714Y-32632438D02*
X90793333Y-32680057D01*
X91364762Y-33013390D02*
X91269524Y-32965771D01*
X91269524Y-32965771D02*
X91221905Y-32918152D01*
X91221905Y-32918152D02*
X91174286Y-32822914D01*
X91174286Y-32822914D02*
X91174286Y-32775295D01*
X91174286Y-32775295D02*
X91221905Y-32680057D01*
X91221905Y-32680057D02*
X91269524Y-32632438D01*
X91269524Y-32632438D02*
X91364762Y-32584819D01*
X91364762Y-32584819D02*
X91555238Y-32584819D01*
X91555238Y-32584819D02*
X91650476Y-32632438D01*
X91650476Y-32632438D02*
X91698095Y-32680057D01*
X91698095Y-32680057D02*
X91745714Y-32775295D01*
X91745714Y-32775295D02*
X91745714Y-32822914D01*
X91745714Y-32822914D02*
X91698095Y-32918152D01*
X91698095Y-32918152D02*
X91650476Y-32965771D01*
X91650476Y-32965771D02*
X91555238Y-33013390D01*
X91555238Y-33013390D02*
X91364762Y-33013390D01*
X91364762Y-33013390D02*
X91269524Y-33061009D01*
X91269524Y-33061009D02*
X91221905Y-33108628D01*
X91221905Y-33108628D02*
X91174286Y-33203866D01*
X91174286Y-33203866D02*
X91174286Y-33394342D01*
X91174286Y-33394342D02*
X91221905Y-33489580D01*
X91221905Y-33489580D02*
X91269524Y-33537200D01*
X91269524Y-33537200D02*
X91364762Y-33584819D01*
X91364762Y-33584819D02*
X91555238Y-33584819D01*
X91555238Y-33584819D02*
X91650476Y-33537200D01*
X91650476Y-33537200D02*
X91698095Y-33489580D01*
X91698095Y-33489580D02*
X91745714Y-33394342D01*
X91745714Y-33394342D02*
X91745714Y-33203866D01*
X91745714Y-33203866D02*
X91698095Y-33108628D01*
X91698095Y-33108628D02*
X91650476Y-33061009D01*
X91650476Y-33061009D02*
X91555238Y-33013390D01*
X46339819Y-55269523D02*
X47054104Y-55269523D01*
X47054104Y-55269523D02*
X47196961Y-55317142D01*
X47196961Y-55317142D02*
X47292200Y-55412380D01*
X47292200Y-55412380D02*
X47339819Y-55555237D01*
X47339819Y-55555237D02*
X47339819Y-55650475D01*
X47339819Y-54793332D02*
X46339819Y-54793332D01*
X46339819Y-54793332D02*
X46339819Y-54412380D01*
X46339819Y-54412380D02*
X46387438Y-54317142D01*
X46387438Y-54317142D02*
X46435057Y-54269523D01*
X46435057Y-54269523D02*
X46530295Y-54221904D01*
X46530295Y-54221904D02*
X46673152Y-54221904D01*
X46673152Y-54221904D02*
X46768390Y-54269523D01*
X46768390Y-54269523D02*
X46816009Y-54317142D01*
X46816009Y-54317142D02*
X46863628Y-54412380D01*
X46863628Y-54412380D02*
X46863628Y-54793332D01*
X47339819Y-53269523D02*
X47339819Y-53840951D01*
X47339819Y-53555237D02*
X46339819Y-53555237D01*
X46339819Y-53555237D02*
X46482676Y-53650475D01*
X46482676Y-53650475D02*
X46577914Y-53745713D01*
X46577914Y-53745713D02*
X46625533Y-53840951D01*
X46435057Y-52888570D02*
X46387438Y-52840951D01*
X46387438Y-52840951D02*
X46339819Y-52745713D01*
X46339819Y-52745713D02*
X46339819Y-52507618D01*
X46339819Y-52507618D02*
X46387438Y-52412380D01*
X46387438Y-52412380D02*
X46435057Y-52364761D01*
X46435057Y-52364761D02*
X46530295Y-52317142D01*
X46530295Y-52317142D02*
X46625533Y-52317142D01*
X46625533Y-52317142D02*
X46768390Y-52364761D01*
X46768390Y-52364761D02*
X47339819Y-52936189D01*
X47339819Y-52936189D02*
X47339819Y-52317142D01*
X77286666Y-30674819D02*
X77286666Y-31389104D01*
X77286666Y-31389104D02*
X77239047Y-31531961D01*
X77239047Y-31531961D02*
X77143809Y-31627200D01*
X77143809Y-31627200D02*
X77000952Y-31674819D01*
X77000952Y-31674819D02*
X76905714Y-31674819D01*
X77762857Y-31674819D02*
X77762857Y-30674819D01*
X77762857Y-30674819D02*
X78143809Y-30674819D01*
X78143809Y-30674819D02*
X78239047Y-30722438D01*
X78239047Y-30722438D02*
X78286666Y-30770057D01*
X78286666Y-30770057D02*
X78334285Y-30865295D01*
X78334285Y-30865295D02*
X78334285Y-31008152D01*
X78334285Y-31008152D02*
X78286666Y-31103390D01*
X78286666Y-31103390D02*
X78239047Y-31151009D01*
X78239047Y-31151009D02*
X78143809Y-31198628D01*
X78143809Y-31198628D02*
X77762857Y-31198628D01*
X78715238Y-30770057D02*
X78762857Y-30722438D01*
X78762857Y-30722438D02*
X78858095Y-30674819D01*
X78858095Y-30674819D02*
X79096190Y-30674819D01*
X79096190Y-30674819D02*
X79191428Y-30722438D01*
X79191428Y-30722438D02*
X79239047Y-30770057D01*
X79239047Y-30770057D02*
X79286666Y-30865295D01*
X79286666Y-30865295D02*
X79286666Y-30960533D01*
X79286666Y-30960533D02*
X79239047Y-31103390D01*
X79239047Y-31103390D02*
X78667619Y-31674819D01*
X78667619Y-31674819D02*
X79286666Y-31674819D01*
X70044819Y-54793333D02*
X70759104Y-54793333D01*
X70759104Y-54793333D02*
X70901961Y-54840952D01*
X70901961Y-54840952D02*
X70997200Y-54936190D01*
X70997200Y-54936190D02*
X71044819Y-55079047D01*
X71044819Y-55079047D02*
X71044819Y-55174285D01*
X71044819Y-54317142D02*
X70044819Y-54317142D01*
X70044819Y-54317142D02*
X70044819Y-53936190D01*
X70044819Y-53936190D02*
X70092438Y-53840952D01*
X70092438Y-53840952D02*
X70140057Y-53793333D01*
X70140057Y-53793333D02*
X70235295Y-53745714D01*
X70235295Y-53745714D02*
X70378152Y-53745714D01*
X70378152Y-53745714D02*
X70473390Y-53793333D01*
X70473390Y-53793333D02*
X70521009Y-53840952D01*
X70521009Y-53840952D02*
X70568628Y-53936190D01*
X70568628Y-53936190D02*
X70568628Y-54317142D01*
X70044819Y-53412380D02*
X70044819Y-52793333D01*
X70044819Y-52793333D02*
X70425771Y-53126666D01*
X70425771Y-53126666D02*
X70425771Y-52983809D01*
X70425771Y-52983809D02*
X70473390Y-52888571D01*
X70473390Y-52888571D02*
X70521009Y-52840952D01*
X70521009Y-52840952D02*
X70616247Y-52793333D01*
X70616247Y-52793333D02*
X70854342Y-52793333D01*
X70854342Y-52793333D02*
X70949580Y-52840952D01*
X70949580Y-52840952D02*
X70997200Y-52888571D01*
X70997200Y-52888571D02*
X71044819Y-52983809D01*
X71044819Y-52983809D02*
X71044819Y-53269523D01*
X71044819Y-53269523D02*
X70997200Y-53364761D01*
X70997200Y-53364761D02*
X70949580Y-53412380D01*
X90793333Y-51269580D02*
X90745714Y-51317200D01*
X90745714Y-51317200D02*
X90602857Y-51364819D01*
X90602857Y-51364819D02*
X90507619Y-51364819D01*
X90507619Y-51364819D02*
X90364762Y-51317200D01*
X90364762Y-51317200D02*
X90269524Y-51221961D01*
X90269524Y-51221961D02*
X90221905Y-51126723D01*
X90221905Y-51126723D02*
X90174286Y-50936247D01*
X90174286Y-50936247D02*
X90174286Y-50793390D01*
X90174286Y-50793390D02*
X90221905Y-50602914D01*
X90221905Y-50602914D02*
X90269524Y-50507676D01*
X90269524Y-50507676D02*
X90364762Y-50412438D01*
X90364762Y-50412438D02*
X90507619Y-50364819D01*
X90507619Y-50364819D02*
X90602857Y-50364819D01*
X90602857Y-50364819D02*
X90745714Y-50412438D01*
X90745714Y-50412438D02*
X90793333Y-50460057D01*
X91650476Y-50364819D02*
X91460000Y-50364819D01*
X91460000Y-50364819D02*
X91364762Y-50412438D01*
X91364762Y-50412438D02*
X91317143Y-50460057D01*
X91317143Y-50460057D02*
X91221905Y-50602914D01*
X91221905Y-50602914D02*
X91174286Y-50793390D01*
X91174286Y-50793390D02*
X91174286Y-51174342D01*
X91174286Y-51174342D02*
X91221905Y-51269580D01*
X91221905Y-51269580D02*
X91269524Y-51317200D01*
X91269524Y-51317200D02*
X91364762Y-51364819D01*
X91364762Y-51364819D02*
X91555238Y-51364819D01*
X91555238Y-51364819D02*
X91650476Y-51317200D01*
X91650476Y-51317200D02*
X91698095Y-51269580D01*
X91698095Y-51269580D02*
X91745714Y-51174342D01*
X91745714Y-51174342D02*
X91745714Y-50936247D01*
X91745714Y-50936247D02*
X91698095Y-50841009D01*
X91698095Y-50841009D02*
X91650476Y-50793390D01*
X91650476Y-50793390D02*
X91555238Y-50745771D01*
X91555238Y-50745771D02*
X91364762Y-50745771D01*
X91364762Y-50745771D02*
X91269524Y-50793390D01*
X91269524Y-50793390D02*
X91221905Y-50841009D01*
X91221905Y-50841009D02*
X91174286Y-50936247D01*
X90793333Y-36029580D02*
X90745714Y-36077200D01*
X90745714Y-36077200D02*
X90602857Y-36124819D01*
X90602857Y-36124819D02*
X90507619Y-36124819D01*
X90507619Y-36124819D02*
X90364762Y-36077200D01*
X90364762Y-36077200D02*
X90269524Y-35981961D01*
X90269524Y-35981961D02*
X90221905Y-35886723D01*
X90221905Y-35886723D02*
X90174286Y-35696247D01*
X90174286Y-35696247D02*
X90174286Y-35553390D01*
X90174286Y-35553390D02*
X90221905Y-35362914D01*
X90221905Y-35362914D02*
X90269524Y-35267676D01*
X90269524Y-35267676D02*
X90364762Y-35172438D01*
X90364762Y-35172438D02*
X90507619Y-35124819D01*
X90507619Y-35124819D02*
X90602857Y-35124819D01*
X90602857Y-35124819D02*
X90745714Y-35172438D01*
X90745714Y-35172438D02*
X90793333Y-35220057D01*
X91126667Y-35124819D02*
X91793333Y-35124819D01*
X91793333Y-35124819D02*
X91364762Y-36124819D01*
X100240819Y-53363333D02*
X100955104Y-53363333D01*
X100955104Y-53363333D02*
X101097961Y-53410952D01*
X101097961Y-53410952D02*
X101193200Y-53506190D01*
X101193200Y-53506190D02*
X101240819Y-53649047D01*
X101240819Y-53649047D02*
X101240819Y-53744285D01*
X100336057Y-52934761D02*
X100288438Y-52887142D01*
X100288438Y-52887142D02*
X100240819Y-52791904D01*
X100240819Y-52791904D02*
X100240819Y-52553809D01*
X100240819Y-52553809D02*
X100288438Y-52458571D01*
X100288438Y-52458571D02*
X100336057Y-52410952D01*
X100336057Y-52410952D02*
X100431295Y-52363333D01*
X100431295Y-52363333D02*
X100526533Y-52363333D01*
X100526533Y-52363333D02*
X100669390Y-52410952D01*
X100669390Y-52410952D02*
X101240819Y-52982380D01*
X101240819Y-52982380D02*
X101240819Y-52363333D01*
X84328095Y-37754819D02*
X84328095Y-38564342D01*
X84328095Y-38564342D02*
X84375714Y-38659580D01*
X84375714Y-38659580D02*
X84423333Y-38707200D01*
X84423333Y-38707200D02*
X84518571Y-38754819D01*
X84518571Y-38754819D02*
X84709047Y-38754819D01*
X84709047Y-38754819D02*
X84804285Y-38707200D01*
X84804285Y-38707200D02*
X84851904Y-38659580D01*
X84851904Y-38659580D02*
X84899523Y-38564342D01*
X84899523Y-38564342D02*
X84899523Y-37754819D01*
X85328095Y-37850057D02*
X85375714Y-37802438D01*
X85375714Y-37802438D02*
X85470952Y-37754819D01*
X85470952Y-37754819D02*
X85709047Y-37754819D01*
X85709047Y-37754819D02*
X85804285Y-37802438D01*
X85804285Y-37802438D02*
X85851904Y-37850057D01*
X85851904Y-37850057D02*
X85899523Y-37945295D01*
X85899523Y-37945295D02*
X85899523Y-38040533D01*
X85899523Y-38040533D02*
X85851904Y-38183390D01*
X85851904Y-38183390D02*
X85280476Y-38754819D01*
X85280476Y-38754819D02*
X85899523Y-38754819D01*
X58253333Y-70304819D02*
X57920000Y-69828628D01*
X57681905Y-70304819D02*
X57681905Y-69304819D01*
X57681905Y-69304819D02*
X58062857Y-69304819D01*
X58062857Y-69304819D02*
X58158095Y-69352438D01*
X58158095Y-69352438D02*
X58205714Y-69400057D01*
X58205714Y-69400057D02*
X58253333Y-69495295D01*
X58253333Y-69495295D02*
X58253333Y-69638152D01*
X58253333Y-69638152D02*
X58205714Y-69733390D01*
X58205714Y-69733390D02*
X58158095Y-69781009D01*
X58158095Y-69781009D02*
X58062857Y-69828628D01*
X58062857Y-69828628D02*
X57681905Y-69828628D01*
X58586667Y-69304819D02*
X59205714Y-69304819D01*
X59205714Y-69304819D02*
X58872381Y-69685771D01*
X58872381Y-69685771D02*
X59015238Y-69685771D01*
X59015238Y-69685771D02*
X59110476Y-69733390D01*
X59110476Y-69733390D02*
X59158095Y-69781009D01*
X59158095Y-69781009D02*
X59205714Y-69876247D01*
X59205714Y-69876247D02*
X59205714Y-70114342D01*
X59205714Y-70114342D02*
X59158095Y-70209580D01*
X59158095Y-70209580D02*
X59110476Y-70257200D01*
X59110476Y-70257200D02*
X59015238Y-70304819D01*
X59015238Y-70304819D02*
X58729524Y-70304819D01*
X58729524Y-70304819D02*
X58634286Y-70257200D01*
X58634286Y-70257200D02*
X58586667Y-70209580D01*
X72731333Y-60144819D02*
X72398000Y-59668628D01*
X72159905Y-60144819D02*
X72159905Y-59144819D01*
X72159905Y-59144819D02*
X72540857Y-59144819D01*
X72540857Y-59144819D02*
X72636095Y-59192438D01*
X72636095Y-59192438D02*
X72683714Y-59240057D01*
X72683714Y-59240057D02*
X72731333Y-59335295D01*
X72731333Y-59335295D02*
X72731333Y-59478152D01*
X72731333Y-59478152D02*
X72683714Y-59573390D01*
X72683714Y-59573390D02*
X72636095Y-59621009D01*
X72636095Y-59621009D02*
X72540857Y-59668628D01*
X72540857Y-59668628D02*
X72159905Y-59668628D01*
X73636095Y-59144819D02*
X73159905Y-59144819D01*
X73159905Y-59144819D02*
X73112286Y-59621009D01*
X73112286Y-59621009D02*
X73159905Y-59573390D01*
X73159905Y-59573390D02*
X73255143Y-59525771D01*
X73255143Y-59525771D02*
X73493238Y-59525771D01*
X73493238Y-59525771D02*
X73588476Y-59573390D01*
X73588476Y-59573390D02*
X73636095Y-59621009D01*
X73636095Y-59621009D02*
X73683714Y-59716247D01*
X73683714Y-59716247D02*
X73683714Y-59954342D01*
X73683714Y-59954342D02*
X73636095Y-60049580D01*
X73636095Y-60049580D02*
X73588476Y-60097200D01*
X73588476Y-60097200D02*
X73493238Y-60144819D01*
X73493238Y-60144819D02*
X73255143Y-60144819D01*
X73255143Y-60144819D02*
X73159905Y-60097200D01*
X73159905Y-60097200D02*
X73112286Y-60049580D01*
X52054819Y-55269523D02*
X52769104Y-55269523D01*
X52769104Y-55269523D02*
X52911961Y-55317142D01*
X52911961Y-55317142D02*
X53007200Y-55412380D01*
X53007200Y-55412380D02*
X53054819Y-55555237D01*
X53054819Y-55555237D02*
X53054819Y-55650475D01*
X53054819Y-54793332D02*
X52054819Y-54793332D01*
X52054819Y-54793332D02*
X52054819Y-54412380D01*
X52054819Y-54412380D02*
X52102438Y-54317142D01*
X52102438Y-54317142D02*
X52150057Y-54269523D01*
X52150057Y-54269523D02*
X52245295Y-54221904D01*
X52245295Y-54221904D02*
X52388152Y-54221904D01*
X52388152Y-54221904D02*
X52483390Y-54269523D01*
X52483390Y-54269523D02*
X52531009Y-54317142D01*
X52531009Y-54317142D02*
X52578628Y-54412380D01*
X52578628Y-54412380D02*
X52578628Y-54793332D01*
X53054819Y-53269523D02*
X53054819Y-53840951D01*
X53054819Y-53555237D02*
X52054819Y-53555237D01*
X52054819Y-53555237D02*
X52197676Y-53650475D01*
X52197676Y-53650475D02*
X52292914Y-53745713D01*
X52292914Y-53745713D02*
X52340533Y-53840951D01*
X53054819Y-52317142D02*
X53054819Y-52888570D01*
X53054819Y-52602856D02*
X52054819Y-52602856D01*
X52054819Y-52602856D02*
X52197676Y-52698094D01*
X52197676Y-52698094D02*
X52292914Y-52793332D01*
X52292914Y-52793332D02*
X52340533Y-52888570D01*
X64674761Y-85320057D02*
X64579523Y-85272438D01*
X64579523Y-85272438D02*
X64484285Y-85177200D01*
X64484285Y-85177200D02*
X64341428Y-85034342D01*
X64341428Y-85034342D02*
X64246190Y-84986723D01*
X64246190Y-84986723D02*
X64150952Y-84986723D01*
X64198571Y-85224819D02*
X64103333Y-85177200D01*
X64103333Y-85177200D02*
X64008095Y-85081961D01*
X64008095Y-85081961D02*
X63960476Y-84891485D01*
X63960476Y-84891485D02*
X63960476Y-84558152D01*
X63960476Y-84558152D02*
X64008095Y-84367676D01*
X64008095Y-84367676D02*
X64103333Y-84272438D01*
X64103333Y-84272438D02*
X64198571Y-84224819D01*
X64198571Y-84224819D02*
X64389047Y-84224819D01*
X64389047Y-84224819D02*
X64484285Y-84272438D01*
X64484285Y-84272438D02*
X64579523Y-84367676D01*
X64579523Y-84367676D02*
X64627142Y-84558152D01*
X64627142Y-84558152D02*
X64627142Y-84891485D01*
X64627142Y-84891485D02*
X64579523Y-85081961D01*
X64579523Y-85081961D02*
X64484285Y-85177200D01*
X64484285Y-85177200D02*
X64389047Y-85224819D01*
X64389047Y-85224819D02*
X64198571Y-85224819D01*
X65579523Y-85224819D02*
X65008095Y-85224819D01*
X65293809Y-85224819D02*
X65293809Y-84224819D01*
X65293809Y-84224819D02*
X65198571Y-84367676D01*
X65198571Y-84367676D02*
X65103333Y-84462914D01*
X65103333Y-84462914D02*
X65008095Y-84510533D01*
X84393095Y-48784819D02*
X84393095Y-49594342D01*
X84393095Y-49594342D02*
X84440714Y-49689580D01*
X84440714Y-49689580D02*
X84488333Y-49737200D01*
X84488333Y-49737200D02*
X84583571Y-49784819D01*
X84583571Y-49784819D02*
X84774047Y-49784819D01*
X84774047Y-49784819D02*
X84869285Y-49737200D01*
X84869285Y-49737200D02*
X84916904Y-49689580D01*
X84916904Y-49689580D02*
X84964523Y-49594342D01*
X84964523Y-49594342D02*
X84964523Y-48784819D01*
X85964523Y-49784819D02*
X85393095Y-49784819D01*
X85678809Y-49784819D02*
X85678809Y-48784819D01*
X85678809Y-48784819D02*
X85583571Y-48927676D01*
X85583571Y-48927676D02*
X85488333Y-49022914D01*
X85488333Y-49022914D02*
X85393095Y-49070533D01*
X61491905Y-75804819D02*
X61491905Y-74804819D01*
X61491905Y-74804819D02*
X61730000Y-74804819D01*
X61730000Y-74804819D02*
X61872857Y-74852438D01*
X61872857Y-74852438D02*
X61968095Y-74947676D01*
X61968095Y-74947676D02*
X62015714Y-75042914D01*
X62015714Y-75042914D02*
X62063333Y-75233390D01*
X62063333Y-75233390D02*
X62063333Y-75376247D01*
X62063333Y-75376247D02*
X62015714Y-75566723D01*
X62015714Y-75566723D02*
X61968095Y-75661961D01*
X61968095Y-75661961D02*
X61872857Y-75757200D01*
X61872857Y-75757200D02*
X61730000Y-75804819D01*
X61730000Y-75804819D02*
X61491905Y-75804819D01*
X63015714Y-75804819D02*
X62444286Y-75804819D01*
X62730000Y-75804819D02*
X62730000Y-74804819D01*
X62730000Y-74804819D02*
X62634762Y-74947676D01*
X62634762Y-74947676D02*
X62539524Y-75042914D01*
X62539524Y-75042914D02*
X62444286Y-75090533D01*
D12*
X88474091Y-42367035D02*
X88123859Y-42612198D01*
X88474091Y-42787314D02*
X87738604Y-42787314D01*
X87738604Y-42787314D02*
X87738604Y-42507128D01*
X87738604Y-42507128D02*
X87773627Y-42437082D01*
X87773627Y-42437082D02*
X87808650Y-42402058D01*
X87808650Y-42402058D02*
X87878696Y-42367035D01*
X87878696Y-42367035D02*
X87983766Y-42367035D01*
X87983766Y-42367035D02*
X88053812Y-42402058D01*
X88053812Y-42402058D02*
X88088836Y-42437082D01*
X88088836Y-42437082D02*
X88123859Y-42507128D01*
X88123859Y-42507128D02*
X88123859Y-42787314D01*
X88474091Y-42051827D02*
X87738604Y-42051827D01*
X87738604Y-42051827D02*
X88474091Y-41631548D01*
X88474091Y-41631548D02*
X87738604Y-41631548D01*
X87808650Y-41316340D02*
X87773627Y-41281317D01*
X87773627Y-41281317D02*
X87738604Y-41211270D01*
X87738604Y-41211270D02*
X87738604Y-41036154D01*
X87738604Y-41036154D02*
X87773627Y-40966108D01*
X87773627Y-40966108D02*
X87808650Y-40931085D01*
X87808650Y-40931085D02*
X87878696Y-40896061D01*
X87878696Y-40896061D02*
X87948743Y-40896061D01*
X87948743Y-40896061D02*
X88053812Y-40931085D01*
X88053812Y-40931085D02*
X88474091Y-41351363D01*
X88474091Y-41351363D02*
X88474091Y-40896061D01*
D10*
X78093333Y-52319580D02*
X78045714Y-52367200D01*
X78045714Y-52367200D02*
X77902857Y-52414819D01*
X77902857Y-52414819D02*
X77807619Y-52414819D01*
X77807619Y-52414819D02*
X77664762Y-52367200D01*
X77664762Y-52367200D02*
X77569524Y-52271961D01*
X77569524Y-52271961D02*
X77521905Y-52176723D01*
X77521905Y-52176723D02*
X77474286Y-51986247D01*
X77474286Y-51986247D02*
X77474286Y-51843390D01*
X77474286Y-51843390D02*
X77521905Y-51652914D01*
X77521905Y-51652914D02*
X77569524Y-51557676D01*
X77569524Y-51557676D02*
X77664762Y-51462438D01*
X77664762Y-51462438D02*
X77807619Y-51414819D01*
X77807619Y-51414819D02*
X77902857Y-51414819D01*
X77902857Y-51414819D02*
X78045714Y-51462438D01*
X78045714Y-51462438D02*
X78093333Y-51510057D01*
X79045714Y-52414819D02*
X78474286Y-52414819D01*
X78760000Y-52414819D02*
X78760000Y-51414819D01*
X78760000Y-51414819D02*
X78664762Y-51557676D01*
X78664762Y-51557676D02*
X78569524Y-51652914D01*
X78569524Y-51652914D02*
X78474286Y-51700533D01*
X100240819Y-33123333D02*
X100955104Y-33123333D01*
X100955104Y-33123333D02*
X101097961Y-33170952D01*
X101097961Y-33170952D02*
X101193200Y-33266190D01*
X101193200Y-33266190D02*
X101240819Y-33409047D01*
X101240819Y-33409047D02*
X101240819Y-33504285D01*
X100240819Y-32742380D02*
X100240819Y-32123333D01*
X100240819Y-32123333D02*
X100621771Y-32456666D01*
X100621771Y-32456666D02*
X100621771Y-32313809D01*
X100621771Y-32313809D02*
X100669390Y-32218571D01*
X100669390Y-32218571D02*
X100717009Y-32170952D01*
X100717009Y-32170952D02*
X100812247Y-32123333D01*
X100812247Y-32123333D02*
X101050342Y-32123333D01*
X101050342Y-32123333D02*
X101145580Y-32170952D01*
X101145580Y-32170952D02*
X101193200Y-32218571D01*
X101193200Y-32218571D02*
X101240819Y-32313809D01*
X101240819Y-32313809D02*
X101240819Y-32599523D01*
X101240819Y-32599523D02*
X101193200Y-32694761D01*
X101193200Y-32694761D02*
X101145580Y-32742380D01*
X66659819Y-54793333D02*
X67374104Y-54793333D01*
X67374104Y-54793333D02*
X67516961Y-54840952D01*
X67516961Y-54840952D02*
X67612200Y-54936190D01*
X67612200Y-54936190D02*
X67659819Y-55079047D01*
X67659819Y-55079047D02*
X67659819Y-55174285D01*
X67659819Y-54317142D02*
X66659819Y-54317142D01*
X66659819Y-54317142D02*
X66659819Y-53936190D01*
X66659819Y-53936190D02*
X66707438Y-53840952D01*
X66707438Y-53840952D02*
X66755057Y-53793333D01*
X66755057Y-53793333D02*
X66850295Y-53745714D01*
X66850295Y-53745714D02*
X66993152Y-53745714D01*
X66993152Y-53745714D02*
X67088390Y-53793333D01*
X67088390Y-53793333D02*
X67136009Y-53840952D01*
X67136009Y-53840952D02*
X67183628Y-53936190D01*
X67183628Y-53936190D02*
X67183628Y-54317142D01*
X67088390Y-53174285D02*
X67040771Y-53269523D01*
X67040771Y-53269523D02*
X66993152Y-53317142D01*
X66993152Y-53317142D02*
X66897914Y-53364761D01*
X66897914Y-53364761D02*
X66850295Y-53364761D01*
X66850295Y-53364761D02*
X66755057Y-53317142D01*
X66755057Y-53317142D02*
X66707438Y-53269523D01*
X66707438Y-53269523D02*
X66659819Y-53174285D01*
X66659819Y-53174285D02*
X66659819Y-52983809D01*
X66659819Y-52983809D02*
X66707438Y-52888571D01*
X66707438Y-52888571D02*
X66755057Y-52840952D01*
X66755057Y-52840952D02*
X66850295Y-52793333D01*
X66850295Y-52793333D02*
X66897914Y-52793333D01*
X66897914Y-52793333D02*
X66993152Y-52840952D01*
X66993152Y-52840952D02*
X67040771Y-52888571D01*
X67040771Y-52888571D02*
X67088390Y-52983809D01*
X67088390Y-52983809D02*
X67088390Y-53174285D01*
X67088390Y-53174285D02*
X67136009Y-53269523D01*
X67136009Y-53269523D02*
X67183628Y-53317142D01*
X67183628Y-53317142D02*
X67278866Y-53364761D01*
X67278866Y-53364761D02*
X67469342Y-53364761D01*
X67469342Y-53364761D02*
X67564580Y-53317142D01*
X67564580Y-53317142D02*
X67612200Y-53269523D01*
X67612200Y-53269523D02*
X67659819Y-53174285D01*
X67659819Y-53174285D02*
X67659819Y-52983809D01*
X67659819Y-52983809D02*
X67612200Y-52888571D01*
X67612200Y-52888571D02*
X67564580Y-52840952D01*
X67564580Y-52840952D02*
X67469342Y-52793333D01*
X67469342Y-52793333D02*
X67278866Y-52793333D01*
X67278866Y-52793333D02*
X67183628Y-52840952D01*
X67183628Y-52840952D02*
X67136009Y-52888571D01*
X67136009Y-52888571D02*
X67088390Y-52983809D01*
X100240819Y-73763333D02*
X100955104Y-73763333D01*
X100955104Y-73763333D02*
X101097961Y-73810952D01*
X101097961Y-73810952D02*
X101193200Y-73906190D01*
X101193200Y-73906190D02*
X101240819Y-74049047D01*
X101240819Y-74049047D02*
X101240819Y-74144285D01*
X101240819Y-72763333D02*
X101240819Y-73334761D01*
X101240819Y-73049047D02*
X100240819Y-73049047D01*
X100240819Y-73049047D02*
X100383676Y-73144285D01*
X100383676Y-73144285D02*
X100478914Y-73239523D01*
X100478914Y-73239523D02*
X100526533Y-73334761D01*
X77286666Y-43904819D02*
X77286666Y-44619104D01*
X77286666Y-44619104D02*
X77239047Y-44761961D01*
X77239047Y-44761961D02*
X77143809Y-44857200D01*
X77143809Y-44857200D02*
X77000952Y-44904819D01*
X77000952Y-44904819D02*
X76905714Y-44904819D01*
X77762857Y-44904819D02*
X77762857Y-43904819D01*
X77762857Y-43904819D02*
X78143809Y-43904819D01*
X78143809Y-43904819D02*
X78239047Y-43952438D01*
X78239047Y-43952438D02*
X78286666Y-44000057D01*
X78286666Y-44000057D02*
X78334285Y-44095295D01*
X78334285Y-44095295D02*
X78334285Y-44238152D01*
X78334285Y-44238152D02*
X78286666Y-44333390D01*
X78286666Y-44333390D02*
X78239047Y-44381009D01*
X78239047Y-44381009D02*
X78143809Y-44428628D01*
X78143809Y-44428628D02*
X77762857Y-44428628D01*
X79286666Y-44904819D02*
X78715238Y-44904819D01*
X79000952Y-44904819D02*
X79000952Y-43904819D01*
X79000952Y-43904819D02*
X78905714Y-44047676D01*
X78905714Y-44047676D02*
X78810476Y-44142914D01*
X78810476Y-44142914D02*
X78715238Y-44190533D01*
X93124819Y-78208094D02*
X92124819Y-78208094D01*
X92124819Y-78208094D02*
X92124819Y-77969999D01*
X92124819Y-77969999D02*
X92172438Y-77827142D01*
X92172438Y-77827142D02*
X92267676Y-77731904D01*
X92267676Y-77731904D02*
X92362914Y-77684285D01*
X92362914Y-77684285D02*
X92553390Y-77636666D01*
X92553390Y-77636666D02*
X92696247Y-77636666D01*
X92696247Y-77636666D02*
X92886723Y-77684285D01*
X92886723Y-77684285D02*
X92981961Y-77731904D01*
X92981961Y-77731904D02*
X93077200Y-77827142D01*
X93077200Y-77827142D02*
X93124819Y-77969999D01*
X93124819Y-77969999D02*
X93124819Y-78208094D01*
X92220057Y-77255713D02*
X92172438Y-77208094D01*
X92172438Y-77208094D02*
X92124819Y-77112856D01*
X92124819Y-77112856D02*
X92124819Y-76874761D01*
X92124819Y-76874761D02*
X92172438Y-76779523D01*
X92172438Y-76779523D02*
X92220057Y-76731904D01*
X92220057Y-76731904D02*
X92315295Y-76684285D01*
X92315295Y-76684285D02*
X92410533Y-76684285D01*
X92410533Y-76684285D02*
X92553390Y-76731904D01*
X92553390Y-76731904D02*
X93124819Y-77303332D01*
X93124819Y-77303332D02*
X93124819Y-76684285D01*
X56499819Y-55269523D02*
X57214104Y-55269523D01*
X57214104Y-55269523D02*
X57356961Y-55317142D01*
X57356961Y-55317142D02*
X57452200Y-55412380D01*
X57452200Y-55412380D02*
X57499819Y-55555237D01*
X57499819Y-55555237D02*
X57499819Y-55650475D01*
X57499819Y-54793332D02*
X56499819Y-54793332D01*
X56499819Y-54793332D02*
X56499819Y-54412380D01*
X56499819Y-54412380D02*
X56547438Y-54317142D01*
X56547438Y-54317142D02*
X56595057Y-54269523D01*
X56595057Y-54269523D02*
X56690295Y-54221904D01*
X56690295Y-54221904D02*
X56833152Y-54221904D01*
X56833152Y-54221904D02*
X56928390Y-54269523D01*
X56928390Y-54269523D02*
X56976009Y-54317142D01*
X56976009Y-54317142D02*
X57023628Y-54412380D01*
X57023628Y-54412380D02*
X57023628Y-54793332D01*
X57499819Y-53269523D02*
X57499819Y-53840951D01*
X57499819Y-53555237D02*
X56499819Y-53555237D01*
X56499819Y-53555237D02*
X56642676Y-53650475D01*
X56642676Y-53650475D02*
X56737914Y-53745713D01*
X56737914Y-53745713D02*
X56785533Y-53840951D01*
X56499819Y-52650475D02*
X56499819Y-52555237D01*
X56499819Y-52555237D02*
X56547438Y-52459999D01*
X56547438Y-52459999D02*
X56595057Y-52412380D01*
X56595057Y-52412380D02*
X56690295Y-52364761D01*
X56690295Y-52364761D02*
X56880771Y-52317142D01*
X56880771Y-52317142D02*
X57118866Y-52317142D01*
X57118866Y-52317142D02*
X57309342Y-52364761D01*
X57309342Y-52364761D02*
X57404580Y-52412380D01*
X57404580Y-52412380D02*
X57452200Y-52459999D01*
X57452200Y-52459999D02*
X57499819Y-52555237D01*
X57499819Y-52555237D02*
X57499819Y-52650475D01*
X57499819Y-52650475D02*
X57452200Y-52745713D01*
X57452200Y-52745713D02*
X57404580Y-52793332D01*
X57404580Y-52793332D02*
X57309342Y-52840951D01*
X57309342Y-52840951D02*
X57118866Y-52888570D01*
X57118866Y-52888570D02*
X56880771Y-52888570D01*
X56880771Y-52888570D02*
X56690295Y-52840951D01*
X56690295Y-52840951D02*
X56595057Y-52793332D01*
X56595057Y-52793332D02*
X56547438Y-52745713D01*
X56547438Y-52745713D02*
X56499819Y-52650475D01*
X41894819Y-55269523D02*
X42609104Y-55269523D01*
X42609104Y-55269523D02*
X42751961Y-55317142D01*
X42751961Y-55317142D02*
X42847200Y-55412380D01*
X42847200Y-55412380D02*
X42894819Y-55555237D01*
X42894819Y-55555237D02*
X42894819Y-55650475D01*
X42894819Y-54793332D02*
X41894819Y-54793332D01*
X41894819Y-54793332D02*
X41894819Y-54412380D01*
X41894819Y-54412380D02*
X41942438Y-54317142D01*
X41942438Y-54317142D02*
X41990057Y-54269523D01*
X41990057Y-54269523D02*
X42085295Y-54221904D01*
X42085295Y-54221904D02*
X42228152Y-54221904D01*
X42228152Y-54221904D02*
X42323390Y-54269523D01*
X42323390Y-54269523D02*
X42371009Y-54317142D01*
X42371009Y-54317142D02*
X42418628Y-54412380D01*
X42418628Y-54412380D02*
X42418628Y-54793332D01*
X42894819Y-53269523D02*
X42894819Y-53840951D01*
X42894819Y-53555237D02*
X41894819Y-53555237D01*
X41894819Y-53555237D02*
X42037676Y-53650475D01*
X42037676Y-53650475D02*
X42132914Y-53745713D01*
X42132914Y-53745713D02*
X42180533Y-53840951D01*
X41894819Y-52936189D02*
X41894819Y-52317142D01*
X41894819Y-52317142D02*
X42275771Y-52650475D01*
X42275771Y-52650475D02*
X42275771Y-52507618D01*
X42275771Y-52507618D02*
X42323390Y-52412380D01*
X42323390Y-52412380D02*
X42371009Y-52364761D01*
X42371009Y-52364761D02*
X42466247Y-52317142D01*
X42466247Y-52317142D02*
X42704342Y-52317142D01*
X42704342Y-52317142D02*
X42799580Y-52364761D01*
X42799580Y-52364761D02*
X42847200Y-52412380D01*
X42847200Y-52412380D02*
X42894819Y-52507618D01*
X42894819Y-52507618D02*
X42894819Y-52793332D01*
X42894819Y-52793332D02*
X42847200Y-52888570D01*
X42847200Y-52888570D02*
X42799580Y-52936189D01*
X57644104Y-36909285D02*
X57644104Y-36433095D01*
X57929819Y-37004523D02*
X56929819Y-36671190D01*
X56929819Y-36671190D02*
X57929819Y-36337857D01*
X57929819Y-35480714D02*
X57929819Y-36052142D01*
X57929819Y-35766428D02*
X56929819Y-35766428D01*
X56929819Y-35766428D02*
X57072676Y-35861666D01*
X57072676Y-35861666D02*
X57167914Y-35956904D01*
X57167914Y-35956904D02*
X57215533Y-36052142D01*
D13*
X59738699Y-47018461D02*
X59484699Y-46655604D01*
X59303270Y-47018461D02*
X59303270Y-46256461D01*
X59303270Y-46256461D02*
X59593556Y-46256461D01*
X59593556Y-46256461D02*
X59666127Y-46292747D01*
X59666127Y-46292747D02*
X59702413Y-46329033D01*
X59702413Y-46329033D02*
X59738699Y-46401604D01*
X59738699Y-46401604D02*
X59738699Y-46510461D01*
X59738699Y-46510461D02*
X59702413Y-46583033D01*
X59702413Y-46583033D02*
X59666127Y-46619318D01*
X59666127Y-46619318D02*
X59593556Y-46655604D01*
X59593556Y-46655604D02*
X59303270Y-46655604D01*
X59992699Y-46256461D02*
X60500699Y-47018461D01*
X60500699Y-46256461D02*
X59992699Y-47018461D01*
X60936127Y-46256461D02*
X61008698Y-46256461D01*
X61008698Y-46256461D02*
X61081270Y-46292747D01*
X61081270Y-46292747D02*
X61117556Y-46329033D01*
X61117556Y-46329033D02*
X61153841Y-46401604D01*
X61153841Y-46401604D02*
X61190127Y-46546747D01*
X61190127Y-46546747D02*
X61190127Y-46728176D01*
X61190127Y-46728176D02*
X61153841Y-46873318D01*
X61153841Y-46873318D02*
X61117556Y-46945890D01*
X61117556Y-46945890D02*
X61081270Y-46982176D01*
X61081270Y-46982176D02*
X61008698Y-47018461D01*
X61008698Y-47018461D02*
X60936127Y-47018461D01*
X60936127Y-47018461D02*
X60863556Y-46982176D01*
X60863556Y-46982176D02*
X60827270Y-46945890D01*
X60827270Y-46945890D02*
X60790984Y-46873318D01*
X60790984Y-46873318D02*
X60754698Y-46728176D01*
X60754698Y-46728176D02*
X60754698Y-46546747D01*
X60754698Y-46546747D02*
X60790984Y-46401604D01*
X60790984Y-46401604D02*
X60827270Y-46329033D01*
X60827270Y-46329033D02*
X60863556Y-46292747D01*
X60863556Y-46292747D02*
X60936127Y-46256461D01*
X34090428Y-46292747D02*
X34017857Y-46256461D01*
X34017857Y-46256461D02*
X33908999Y-46256461D01*
X33908999Y-46256461D02*
X33800142Y-46292747D01*
X33800142Y-46292747D02*
X33727571Y-46365318D01*
X33727571Y-46365318D02*
X33691285Y-46437890D01*
X33691285Y-46437890D02*
X33654999Y-46583033D01*
X33654999Y-46583033D02*
X33654999Y-46691890D01*
X33654999Y-46691890D02*
X33691285Y-46837033D01*
X33691285Y-46837033D02*
X33727571Y-46909604D01*
X33727571Y-46909604D02*
X33800142Y-46982176D01*
X33800142Y-46982176D02*
X33908999Y-47018461D01*
X33908999Y-47018461D02*
X33981571Y-47018461D01*
X33981571Y-47018461D02*
X34090428Y-46982176D01*
X34090428Y-46982176D02*
X34126714Y-46945890D01*
X34126714Y-46945890D02*
X34126714Y-46691890D01*
X34126714Y-46691890D02*
X33981571Y-46691890D01*
X34453285Y-47018461D02*
X34453285Y-46256461D01*
X34453285Y-46256461D02*
X34888714Y-47018461D01*
X34888714Y-47018461D02*
X34888714Y-46256461D01*
X35251571Y-47018461D02*
X35251571Y-46256461D01*
X35251571Y-46256461D02*
X35433000Y-46256461D01*
X35433000Y-46256461D02*
X35541857Y-46292747D01*
X35541857Y-46292747D02*
X35614428Y-46365318D01*
X35614428Y-46365318D02*
X35650714Y-46437890D01*
X35650714Y-46437890D02*
X35687000Y-46583033D01*
X35687000Y-46583033D02*
X35687000Y-46691890D01*
X35687000Y-46691890D02*
X35650714Y-46837033D01*
X35650714Y-46837033D02*
X35614428Y-46909604D01*
X35614428Y-46909604D02*
X35541857Y-46982176D01*
X35541857Y-46982176D02*
X35433000Y-47018461D01*
X35433000Y-47018461D02*
X35251571Y-47018461D01*
X67177270Y-47018461D02*
X67177270Y-46256461D01*
X67177270Y-46256461D02*
X67358699Y-46256461D01*
X67358699Y-46256461D02*
X67467556Y-46292747D01*
X67467556Y-46292747D02*
X67540127Y-46365318D01*
X67540127Y-46365318D02*
X67576413Y-46437890D01*
X67576413Y-46437890D02*
X67612699Y-46583033D01*
X67612699Y-46583033D02*
X67612699Y-46691890D01*
X67612699Y-46691890D02*
X67576413Y-46837033D01*
X67576413Y-46837033D02*
X67540127Y-46909604D01*
X67540127Y-46909604D02*
X67467556Y-46982176D01*
X67467556Y-46982176D02*
X67358699Y-47018461D01*
X67358699Y-47018461D02*
X67177270Y-47018461D01*
X67902984Y-46329033D02*
X67939270Y-46292747D01*
X67939270Y-46292747D02*
X68011842Y-46256461D01*
X68011842Y-46256461D02*
X68193270Y-46256461D01*
X68193270Y-46256461D02*
X68265842Y-46292747D01*
X68265842Y-46292747D02*
X68302127Y-46329033D01*
X68302127Y-46329033D02*
X68338413Y-46401604D01*
X68338413Y-46401604D02*
X68338413Y-46474176D01*
X68338413Y-46474176D02*
X68302127Y-46583033D01*
X68302127Y-46583033D02*
X67866699Y-47018461D01*
X67866699Y-47018461D02*
X68338413Y-47018461D01*
X68592413Y-46256461D02*
X69064127Y-46256461D01*
X69064127Y-46256461D02*
X68810127Y-46546747D01*
X68810127Y-46546747D02*
X68918984Y-46546747D01*
X68918984Y-46546747D02*
X68991556Y-46583033D01*
X68991556Y-46583033D02*
X69027841Y-46619318D01*
X69027841Y-46619318D02*
X69064127Y-46691890D01*
X69064127Y-46691890D02*
X69064127Y-46873318D01*
X69064127Y-46873318D02*
X69027841Y-46945890D01*
X69027841Y-46945890D02*
X68991556Y-46982176D01*
X68991556Y-46982176D02*
X68918984Y-47018461D01*
X68918984Y-47018461D02*
X68701270Y-47018461D01*
X68701270Y-47018461D02*
X68628698Y-46982176D01*
X68628698Y-46982176D02*
X68592413Y-46945890D01*
D10*
X28196009Y-44934047D02*
X28243628Y-44791190D01*
X28243628Y-44791190D02*
X28291247Y-44743571D01*
X28291247Y-44743571D02*
X28386485Y-44695952D01*
X28386485Y-44695952D02*
X28529342Y-44695952D01*
X28529342Y-44695952D02*
X28624580Y-44743571D01*
X28624580Y-44743571D02*
X28672200Y-44791190D01*
X28672200Y-44791190D02*
X28719819Y-44886428D01*
X28719819Y-44886428D02*
X28719819Y-45267380D01*
X28719819Y-45267380D02*
X27719819Y-45267380D01*
X27719819Y-45267380D02*
X27719819Y-44934047D01*
X27719819Y-44934047D02*
X27767438Y-44838809D01*
X27767438Y-44838809D02*
X27815057Y-44791190D01*
X27815057Y-44791190D02*
X27910295Y-44743571D01*
X27910295Y-44743571D02*
X28005533Y-44743571D01*
X28005533Y-44743571D02*
X28100771Y-44791190D01*
X28100771Y-44791190D02*
X28148390Y-44838809D01*
X28148390Y-44838809D02*
X28196009Y-44934047D01*
X28196009Y-44934047D02*
X28196009Y-45267380D01*
X28719819Y-44124523D02*
X28672200Y-44219761D01*
X28672200Y-44219761D02*
X28624580Y-44267380D01*
X28624580Y-44267380D02*
X28529342Y-44314999D01*
X28529342Y-44314999D02*
X28243628Y-44314999D01*
X28243628Y-44314999D02*
X28148390Y-44267380D01*
X28148390Y-44267380D02*
X28100771Y-44219761D01*
X28100771Y-44219761D02*
X28053152Y-44124523D01*
X28053152Y-44124523D02*
X28053152Y-43981666D01*
X28053152Y-43981666D02*
X28100771Y-43886428D01*
X28100771Y-43886428D02*
X28148390Y-43838809D01*
X28148390Y-43838809D02*
X28243628Y-43791190D01*
X28243628Y-43791190D02*
X28529342Y-43791190D01*
X28529342Y-43791190D02*
X28624580Y-43838809D01*
X28624580Y-43838809D02*
X28672200Y-43886428D01*
X28672200Y-43886428D02*
X28719819Y-43981666D01*
X28719819Y-43981666D02*
X28719819Y-44124523D01*
X28719819Y-43219761D02*
X28672200Y-43314999D01*
X28672200Y-43314999D02*
X28624580Y-43362618D01*
X28624580Y-43362618D02*
X28529342Y-43410237D01*
X28529342Y-43410237D02*
X28243628Y-43410237D01*
X28243628Y-43410237D02*
X28148390Y-43362618D01*
X28148390Y-43362618D02*
X28100771Y-43314999D01*
X28100771Y-43314999D02*
X28053152Y-43219761D01*
X28053152Y-43219761D02*
X28053152Y-43076904D01*
X28053152Y-43076904D02*
X28100771Y-42981666D01*
X28100771Y-42981666D02*
X28148390Y-42934047D01*
X28148390Y-42934047D02*
X28243628Y-42886428D01*
X28243628Y-42886428D02*
X28529342Y-42886428D01*
X28529342Y-42886428D02*
X28624580Y-42934047D01*
X28624580Y-42934047D02*
X28672200Y-42981666D01*
X28672200Y-42981666D02*
X28719819Y-43076904D01*
X28719819Y-43076904D02*
X28719819Y-43219761D01*
X28053152Y-42600713D02*
X28053152Y-42219761D01*
X27719819Y-42457856D02*
X28576961Y-42457856D01*
X28576961Y-42457856D02*
X28672200Y-42410237D01*
X28672200Y-42410237D02*
X28719819Y-42314999D01*
X28719819Y-42314999D02*
X28719819Y-42219761D01*
D13*
X64383270Y-47018461D02*
X64383270Y-46256461D01*
X64383270Y-46256461D02*
X64564699Y-46256461D01*
X64564699Y-46256461D02*
X64673556Y-46292747D01*
X64673556Y-46292747D02*
X64746127Y-46365318D01*
X64746127Y-46365318D02*
X64782413Y-46437890D01*
X64782413Y-46437890D02*
X64818699Y-46583033D01*
X64818699Y-46583033D02*
X64818699Y-46691890D01*
X64818699Y-46691890D02*
X64782413Y-46837033D01*
X64782413Y-46837033D02*
X64746127Y-46909604D01*
X64746127Y-46909604D02*
X64673556Y-46982176D01*
X64673556Y-46982176D02*
X64564699Y-47018461D01*
X64564699Y-47018461D02*
X64383270Y-47018461D01*
X65108984Y-46329033D02*
X65145270Y-46292747D01*
X65145270Y-46292747D02*
X65217842Y-46256461D01*
X65217842Y-46256461D02*
X65399270Y-46256461D01*
X65399270Y-46256461D02*
X65471842Y-46292747D01*
X65471842Y-46292747D02*
X65508127Y-46329033D01*
X65508127Y-46329033D02*
X65544413Y-46401604D01*
X65544413Y-46401604D02*
X65544413Y-46474176D01*
X65544413Y-46474176D02*
X65508127Y-46583033D01*
X65508127Y-46583033D02*
X65072699Y-47018461D01*
X65072699Y-47018461D02*
X65544413Y-47018461D01*
X65834698Y-46329033D02*
X65870984Y-46292747D01*
X65870984Y-46292747D02*
X65943556Y-46256461D01*
X65943556Y-46256461D02*
X66124984Y-46256461D01*
X66124984Y-46256461D02*
X66197556Y-46292747D01*
X66197556Y-46292747D02*
X66233841Y-46329033D01*
X66233841Y-46329033D02*
X66270127Y-46401604D01*
X66270127Y-46401604D02*
X66270127Y-46474176D01*
X66270127Y-46474176D02*
X66233841Y-46583033D01*
X66233841Y-46583033D02*
X65798413Y-47018461D01*
X65798413Y-47018461D02*
X66270127Y-47018461D01*
X36443270Y-47018461D02*
X36443270Y-46256461D01*
X36443270Y-46256461D02*
X36624699Y-46256461D01*
X36624699Y-46256461D02*
X36733556Y-46292747D01*
X36733556Y-46292747D02*
X36806127Y-46365318D01*
X36806127Y-46365318D02*
X36842413Y-46437890D01*
X36842413Y-46437890D02*
X36878699Y-46583033D01*
X36878699Y-46583033D02*
X36878699Y-46691890D01*
X36878699Y-46691890D02*
X36842413Y-46837033D01*
X36842413Y-46837033D02*
X36806127Y-46909604D01*
X36806127Y-46909604D02*
X36733556Y-46982176D01*
X36733556Y-46982176D02*
X36624699Y-47018461D01*
X36624699Y-47018461D02*
X36443270Y-47018461D01*
X37604413Y-47018461D02*
X37168984Y-47018461D01*
X37386699Y-47018461D02*
X37386699Y-46256461D01*
X37386699Y-46256461D02*
X37314127Y-46365318D01*
X37314127Y-46365318D02*
X37241556Y-46437890D01*
X37241556Y-46437890D02*
X37168984Y-46474176D01*
X38293841Y-46256461D02*
X37930984Y-46256461D01*
X37930984Y-46256461D02*
X37894698Y-46619318D01*
X37894698Y-46619318D02*
X37930984Y-46583033D01*
X37930984Y-46583033D02*
X38003556Y-46546747D01*
X38003556Y-46546747D02*
X38184984Y-46546747D01*
X38184984Y-46546747D02*
X38257556Y-46583033D01*
X38257556Y-46583033D02*
X38293841Y-46619318D01*
X38293841Y-46619318D02*
X38330127Y-46691890D01*
X38330127Y-46691890D02*
X38330127Y-46873318D01*
X38330127Y-46873318D02*
X38293841Y-46945890D01*
X38293841Y-46945890D02*
X38257556Y-46982176D01*
X38257556Y-46982176D02*
X38184984Y-47018461D01*
X38184984Y-47018461D02*
X38003556Y-47018461D01*
X38003556Y-47018461D02*
X37930984Y-46982176D01*
X37930984Y-46982176D02*
X37894698Y-46945890D01*
X67177270Y-25283318D02*
X67431270Y-25283318D01*
X67540127Y-25682461D02*
X67177270Y-25682461D01*
X67177270Y-25682461D02*
X67177270Y-24920461D01*
X67177270Y-24920461D02*
X67540127Y-24920461D01*
X67866699Y-25682461D02*
X67866699Y-24920461D01*
X67866699Y-24920461D02*
X68302128Y-25682461D01*
X68302128Y-25682461D02*
X68302128Y-24920461D01*
X49397270Y-47018461D02*
X49397270Y-46256461D01*
X49397270Y-46256461D02*
X49578699Y-46256461D01*
X49578699Y-46256461D02*
X49687556Y-46292747D01*
X49687556Y-46292747D02*
X49760127Y-46365318D01*
X49760127Y-46365318D02*
X49796413Y-46437890D01*
X49796413Y-46437890D02*
X49832699Y-46583033D01*
X49832699Y-46583033D02*
X49832699Y-46691890D01*
X49832699Y-46691890D02*
X49796413Y-46837033D01*
X49796413Y-46837033D02*
X49760127Y-46909604D01*
X49760127Y-46909604D02*
X49687556Y-46982176D01*
X49687556Y-46982176D02*
X49578699Y-47018461D01*
X49578699Y-47018461D02*
X49397270Y-47018461D01*
X50522127Y-46256461D02*
X50159270Y-46256461D01*
X50159270Y-46256461D02*
X50122984Y-46619318D01*
X50122984Y-46619318D02*
X50159270Y-46583033D01*
X50159270Y-46583033D02*
X50231842Y-46546747D01*
X50231842Y-46546747D02*
X50413270Y-46546747D01*
X50413270Y-46546747D02*
X50485842Y-46583033D01*
X50485842Y-46583033D02*
X50522127Y-46619318D01*
X50522127Y-46619318D02*
X50558413Y-46691890D01*
X50558413Y-46691890D02*
X50558413Y-46873318D01*
X50558413Y-46873318D02*
X50522127Y-46945890D01*
X50522127Y-46945890D02*
X50485842Y-46982176D01*
X50485842Y-46982176D02*
X50413270Y-47018461D01*
X50413270Y-47018461D02*
X50231842Y-47018461D01*
X50231842Y-47018461D02*
X50159270Y-46982176D01*
X50159270Y-46982176D02*
X50122984Y-46945890D01*
X31550428Y-24920461D02*
X31804428Y-25682461D01*
X31804428Y-25682461D02*
X32058428Y-24920461D01*
X32312428Y-25682461D02*
X32312428Y-24920461D01*
X32675285Y-25682461D02*
X32675285Y-24920461D01*
X32675285Y-24920461D02*
X33110714Y-25682461D01*
X33110714Y-25682461D02*
X33110714Y-24920461D01*
X51683270Y-25682461D02*
X51683270Y-24920461D01*
X51683270Y-24920461D02*
X51864699Y-24920461D01*
X51864699Y-24920461D02*
X51973556Y-24956747D01*
X51973556Y-24956747D02*
X52046127Y-25029318D01*
X52046127Y-25029318D02*
X52082413Y-25101890D01*
X52082413Y-25101890D02*
X52118699Y-25247033D01*
X52118699Y-25247033D02*
X52118699Y-25355890D01*
X52118699Y-25355890D02*
X52082413Y-25501033D01*
X52082413Y-25501033D02*
X52046127Y-25573604D01*
X52046127Y-25573604D02*
X51973556Y-25646176D01*
X51973556Y-25646176D02*
X51864699Y-25682461D01*
X51864699Y-25682461D02*
X51683270Y-25682461D01*
X52372699Y-24920461D02*
X52844413Y-24920461D01*
X52844413Y-24920461D02*
X52590413Y-25210747D01*
X52590413Y-25210747D02*
X52699270Y-25210747D01*
X52699270Y-25210747D02*
X52771842Y-25247033D01*
X52771842Y-25247033D02*
X52808127Y-25283318D01*
X52808127Y-25283318D02*
X52844413Y-25355890D01*
X52844413Y-25355890D02*
X52844413Y-25537318D01*
X52844413Y-25537318D02*
X52808127Y-25609890D01*
X52808127Y-25609890D02*
X52771842Y-25646176D01*
X52771842Y-25646176D02*
X52699270Y-25682461D01*
X52699270Y-25682461D02*
X52481556Y-25682461D01*
X52481556Y-25682461D02*
X52408984Y-25646176D01*
X52408984Y-25646176D02*
X52372699Y-25609890D01*
X53098413Y-24920461D02*
X53570127Y-24920461D01*
X53570127Y-24920461D02*
X53316127Y-25210747D01*
X53316127Y-25210747D02*
X53424984Y-25210747D01*
X53424984Y-25210747D02*
X53497556Y-25247033D01*
X53497556Y-25247033D02*
X53533841Y-25283318D01*
X53533841Y-25283318D02*
X53570127Y-25355890D01*
X53570127Y-25355890D02*
X53570127Y-25537318D01*
X53570127Y-25537318D02*
X53533841Y-25609890D01*
X53533841Y-25609890D02*
X53497556Y-25646176D01*
X53497556Y-25646176D02*
X53424984Y-25682461D01*
X53424984Y-25682461D02*
X53207270Y-25682461D01*
X53207270Y-25682461D02*
X53134698Y-25646176D01*
X53134698Y-25646176D02*
X53098413Y-25609890D01*
X64782413Y-24920461D02*
X65036413Y-25682461D01*
X65036413Y-25682461D02*
X65290413Y-24920461D01*
X65544413Y-25682461D02*
X65544413Y-24920461D01*
X65544413Y-24920461D02*
X65834699Y-24920461D01*
X65834699Y-24920461D02*
X65907270Y-24956747D01*
X65907270Y-24956747D02*
X65943556Y-24993033D01*
X65943556Y-24993033D02*
X65979842Y-25065604D01*
X65979842Y-25065604D02*
X65979842Y-25174461D01*
X65979842Y-25174461D02*
X65943556Y-25247033D01*
X65943556Y-25247033D02*
X65907270Y-25283318D01*
X65907270Y-25283318D02*
X65834699Y-25319604D01*
X65834699Y-25319604D02*
X65544413Y-25319604D01*
X56763270Y-47018461D02*
X56763270Y-46256461D01*
X56763270Y-46256461D02*
X56944699Y-46256461D01*
X56944699Y-46256461D02*
X57053556Y-46292747D01*
X57053556Y-46292747D02*
X57126127Y-46365318D01*
X57126127Y-46365318D02*
X57162413Y-46437890D01*
X57162413Y-46437890D02*
X57198699Y-46583033D01*
X57198699Y-46583033D02*
X57198699Y-46691890D01*
X57198699Y-46691890D02*
X57162413Y-46837033D01*
X57162413Y-46837033D02*
X57126127Y-46909604D01*
X57126127Y-46909604D02*
X57053556Y-46982176D01*
X57053556Y-46982176D02*
X56944699Y-47018461D01*
X56944699Y-47018461D02*
X56763270Y-47018461D01*
X57488984Y-46329033D02*
X57525270Y-46292747D01*
X57525270Y-46292747D02*
X57597842Y-46256461D01*
X57597842Y-46256461D02*
X57779270Y-46256461D01*
X57779270Y-46256461D02*
X57851842Y-46292747D01*
X57851842Y-46292747D02*
X57888127Y-46329033D01*
X57888127Y-46329033D02*
X57924413Y-46401604D01*
X57924413Y-46401604D02*
X57924413Y-46474176D01*
X57924413Y-46474176D02*
X57888127Y-46583033D01*
X57888127Y-46583033D02*
X57452699Y-47018461D01*
X57452699Y-47018461D02*
X57924413Y-47018461D01*
X58650127Y-47018461D02*
X58214698Y-47018461D01*
X58432413Y-47018461D02*
X58432413Y-46256461D01*
X58432413Y-46256461D02*
X58359841Y-46365318D01*
X58359841Y-46365318D02*
X58287270Y-46437890D01*
X58287270Y-46437890D02*
X58214698Y-46474176D01*
X36539714Y-25682461D02*
X36539714Y-24920461D01*
X36539714Y-24920461D02*
X36721143Y-24920461D01*
X36721143Y-24920461D02*
X36830000Y-24956747D01*
X36830000Y-24956747D02*
X36902571Y-25029318D01*
X36902571Y-25029318D02*
X36938857Y-25101890D01*
X36938857Y-25101890D02*
X36975143Y-25247033D01*
X36975143Y-25247033D02*
X36975143Y-25355890D01*
X36975143Y-25355890D02*
X36938857Y-25501033D01*
X36938857Y-25501033D02*
X36902571Y-25573604D01*
X36902571Y-25573604D02*
X36830000Y-25646176D01*
X36830000Y-25646176D02*
X36721143Y-25682461D01*
X36721143Y-25682461D02*
X36539714Y-25682461D01*
X37700857Y-25682461D02*
X37265428Y-25682461D01*
X37483143Y-25682461D02*
X37483143Y-24920461D01*
X37483143Y-24920461D02*
X37410571Y-25029318D01*
X37410571Y-25029318D02*
X37338000Y-25101890D01*
X37338000Y-25101890D02*
X37265428Y-25138176D01*
X37954857Y-24920461D02*
X38426571Y-24920461D01*
X38426571Y-24920461D02*
X38172571Y-25210747D01*
X38172571Y-25210747D02*
X38281428Y-25210747D01*
X38281428Y-25210747D02*
X38354000Y-25247033D01*
X38354000Y-25247033D02*
X38390285Y-25283318D01*
X38390285Y-25283318D02*
X38426571Y-25355890D01*
X38426571Y-25355890D02*
X38426571Y-25537318D01*
X38426571Y-25537318D02*
X38390285Y-25609890D01*
X38390285Y-25609890D02*
X38354000Y-25646176D01*
X38354000Y-25646176D02*
X38281428Y-25682461D01*
X38281428Y-25682461D02*
X38063714Y-25682461D01*
X38063714Y-25682461D02*
X37991142Y-25646176D01*
X37991142Y-25646176D02*
X37954857Y-25609890D01*
X46699714Y-25682461D02*
X46699714Y-24920461D01*
X46699714Y-24920461D02*
X46881143Y-24920461D01*
X46881143Y-24920461D02*
X46990000Y-24956747D01*
X46990000Y-24956747D02*
X47062571Y-25029318D01*
X47062571Y-25029318D02*
X47098857Y-25101890D01*
X47098857Y-25101890D02*
X47135143Y-25247033D01*
X47135143Y-25247033D02*
X47135143Y-25355890D01*
X47135143Y-25355890D02*
X47098857Y-25501033D01*
X47098857Y-25501033D02*
X47062571Y-25573604D01*
X47062571Y-25573604D02*
X46990000Y-25646176D01*
X46990000Y-25646176D02*
X46881143Y-25682461D01*
X46881143Y-25682461D02*
X46699714Y-25682461D01*
X47425428Y-24993033D02*
X47461714Y-24956747D01*
X47461714Y-24956747D02*
X47534286Y-24920461D01*
X47534286Y-24920461D02*
X47715714Y-24920461D01*
X47715714Y-24920461D02*
X47788286Y-24956747D01*
X47788286Y-24956747D02*
X47824571Y-24993033D01*
X47824571Y-24993033D02*
X47860857Y-25065604D01*
X47860857Y-25065604D02*
X47860857Y-25138176D01*
X47860857Y-25138176D02*
X47824571Y-25247033D01*
X47824571Y-25247033D02*
X47389143Y-25682461D01*
X47389143Y-25682461D02*
X47860857Y-25682461D01*
X48514000Y-24920461D02*
X48368857Y-24920461D01*
X48368857Y-24920461D02*
X48296285Y-24956747D01*
X48296285Y-24956747D02*
X48260000Y-24993033D01*
X48260000Y-24993033D02*
X48187428Y-25101890D01*
X48187428Y-25101890D02*
X48151142Y-25247033D01*
X48151142Y-25247033D02*
X48151142Y-25537318D01*
X48151142Y-25537318D02*
X48187428Y-25609890D01*
X48187428Y-25609890D02*
X48223714Y-25646176D01*
X48223714Y-25646176D02*
X48296285Y-25682461D01*
X48296285Y-25682461D02*
X48441428Y-25682461D01*
X48441428Y-25682461D02*
X48514000Y-25646176D01*
X48514000Y-25646176D02*
X48550285Y-25609890D01*
X48550285Y-25609890D02*
X48586571Y-25537318D01*
X48586571Y-25537318D02*
X48586571Y-25355890D01*
X48586571Y-25355890D02*
X48550285Y-25283318D01*
X48550285Y-25283318D02*
X48514000Y-25247033D01*
X48514000Y-25247033D02*
X48441428Y-25210747D01*
X48441428Y-25210747D02*
X48296285Y-25210747D01*
X48296285Y-25210747D02*
X48223714Y-25247033D01*
X48223714Y-25247033D02*
X48187428Y-25283318D01*
X48187428Y-25283318D02*
X48151142Y-25355890D01*
X54223270Y-47018461D02*
X54223270Y-46256461D01*
X54223270Y-46256461D02*
X54404699Y-46256461D01*
X54404699Y-46256461D02*
X54513556Y-46292747D01*
X54513556Y-46292747D02*
X54586127Y-46365318D01*
X54586127Y-46365318D02*
X54622413Y-46437890D01*
X54622413Y-46437890D02*
X54658699Y-46583033D01*
X54658699Y-46583033D02*
X54658699Y-46691890D01*
X54658699Y-46691890D02*
X54622413Y-46837033D01*
X54622413Y-46837033D02*
X54586127Y-46909604D01*
X54586127Y-46909604D02*
X54513556Y-46982176D01*
X54513556Y-46982176D02*
X54404699Y-47018461D01*
X54404699Y-47018461D02*
X54223270Y-47018461D01*
X55384413Y-47018461D02*
X54948984Y-47018461D01*
X55166699Y-47018461D02*
X55166699Y-46256461D01*
X55166699Y-46256461D02*
X55094127Y-46365318D01*
X55094127Y-46365318D02*
X55021556Y-46437890D01*
X55021556Y-46437890D02*
X54948984Y-46474176D01*
X55747270Y-47018461D02*
X55892413Y-47018461D01*
X55892413Y-47018461D02*
X55964984Y-46982176D01*
X55964984Y-46982176D02*
X56001270Y-46945890D01*
X56001270Y-46945890D02*
X56073841Y-46837033D01*
X56073841Y-46837033D02*
X56110127Y-46691890D01*
X56110127Y-46691890D02*
X56110127Y-46401604D01*
X56110127Y-46401604D02*
X56073841Y-46329033D01*
X56073841Y-46329033D02*
X56037556Y-46292747D01*
X56037556Y-46292747D02*
X55964984Y-46256461D01*
X55964984Y-46256461D02*
X55819841Y-46256461D01*
X55819841Y-46256461D02*
X55747270Y-46292747D01*
X55747270Y-46292747D02*
X55710984Y-46329033D01*
X55710984Y-46329033D02*
X55674698Y-46401604D01*
X55674698Y-46401604D02*
X55674698Y-46583033D01*
X55674698Y-46583033D02*
X55710984Y-46655604D01*
X55710984Y-46655604D02*
X55747270Y-46691890D01*
X55747270Y-46691890D02*
X55819841Y-46728176D01*
X55819841Y-46728176D02*
X55964984Y-46728176D01*
X55964984Y-46728176D02*
X56037556Y-46691890D01*
X56037556Y-46691890D02*
X56073841Y-46655604D01*
X56073841Y-46655604D02*
X56110127Y-46583033D01*
X62242413Y-24920461D02*
X62496413Y-25682461D01*
X62496413Y-25682461D02*
X62750413Y-24920461D01*
X63004413Y-25682461D02*
X63004413Y-24920461D01*
X63004413Y-24920461D02*
X63439842Y-25682461D01*
X63439842Y-25682461D02*
X63439842Y-24920461D01*
X59557270Y-25682461D02*
X59557270Y-24920461D01*
X59557270Y-24920461D02*
X59738699Y-24920461D01*
X59738699Y-24920461D02*
X59847556Y-24956747D01*
X59847556Y-24956747D02*
X59920127Y-25029318D01*
X59920127Y-25029318D02*
X59956413Y-25101890D01*
X59956413Y-25101890D02*
X59992699Y-25247033D01*
X59992699Y-25247033D02*
X59992699Y-25355890D01*
X59992699Y-25355890D02*
X59956413Y-25501033D01*
X59956413Y-25501033D02*
X59920127Y-25573604D01*
X59920127Y-25573604D02*
X59847556Y-25646176D01*
X59847556Y-25646176D02*
X59738699Y-25682461D01*
X59738699Y-25682461D02*
X59557270Y-25682461D01*
X60246699Y-24920461D02*
X60718413Y-24920461D01*
X60718413Y-24920461D02*
X60464413Y-25210747D01*
X60464413Y-25210747D02*
X60573270Y-25210747D01*
X60573270Y-25210747D02*
X60645842Y-25247033D01*
X60645842Y-25247033D02*
X60682127Y-25283318D01*
X60682127Y-25283318D02*
X60718413Y-25355890D01*
X60718413Y-25355890D02*
X60718413Y-25537318D01*
X60718413Y-25537318D02*
X60682127Y-25609890D01*
X60682127Y-25609890D02*
X60645842Y-25646176D01*
X60645842Y-25646176D02*
X60573270Y-25682461D01*
X60573270Y-25682461D02*
X60355556Y-25682461D01*
X60355556Y-25682461D02*
X60282984Y-25646176D01*
X60282984Y-25646176D02*
X60246699Y-25609890D01*
X61371556Y-25174461D02*
X61371556Y-25682461D01*
X61190127Y-24884176D02*
X61008698Y-25428461D01*
X61008698Y-25428461D02*
X61480413Y-25428461D01*
X39237270Y-47018461D02*
X39237270Y-46256461D01*
X39237270Y-46256461D02*
X39418699Y-46256461D01*
X39418699Y-46256461D02*
X39527556Y-46292747D01*
X39527556Y-46292747D02*
X39600127Y-46365318D01*
X39600127Y-46365318D02*
X39636413Y-46437890D01*
X39636413Y-46437890D02*
X39672699Y-46583033D01*
X39672699Y-46583033D02*
X39672699Y-46691890D01*
X39672699Y-46691890D02*
X39636413Y-46837033D01*
X39636413Y-46837033D02*
X39600127Y-46909604D01*
X39600127Y-46909604D02*
X39527556Y-46982176D01*
X39527556Y-46982176D02*
X39418699Y-47018461D01*
X39418699Y-47018461D02*
X39237270Y-47018461D01*
X39962984Y-46329033D02*
X39999270Y-46292747D01*
X39999270Y-46292747D02*
X40071842Y-46256461D01*
X40071842Y-46256461D02*
X40253270Y-46256461D01*
X40253270Y-46256461D02*
X40325842Y-46292747D01*
X40325842Y-46292747D02*
X40362127Y-46329033D01*
X40362127Y-46329033D02*
X40398413Y-46401604D01*
X40398413Y-46401604D02*
X40398413Y-46474176D01*
X40398413Y-46474176D02*
X40362127Y-46583033D01*
X40362127Y-46583033D02*
X39926699Y-47018461D01*
X39926699Y-47018461D02*
X40398413Y-47018461D01*
X54223270Y-25682461D02*
X54223270Y-24920461D01*
X54223270Y-24920461D02*
X54404699Y-24920461D01*
X54404699Y-24920461D02*
X54513556Y-24956747D01*
X54513556Y-24956747D02*
X54586127Y-25029318D01*
X54586127Y-25029318D02*
X54622413Y-25101890D01*
X54622413Y-25101890D02*
X54658699Y-25247033D01*
X54658699Y-25247033D02*
X54658699Y-25355890D01*
X54658699Y-25355890D02*
X54622413Y-25501033D01*
X54622413Y-25501033D02*
X54586127Y-25573604D01*
X54586127Y-25573604D02*
X54513556Y-25646176D01*
X54513556Y-25646176D02*
X54404699Y-25682461D01*
X54404699Y-25682461D02*
X54223270Y-25682461D01*
X54912699Y-24920461D02*
X55384413Y-24920461D01*
X55384413Y-24920461D02*
X55130413Y-25210747D01*
X55130413Y-25210747D02*
X55239270Y-25210747D01*
X55239270Y-25210747D02*
X55311842Y-25247033D01*
X55311842Y-25247033D02*
X55348127Y-25283318D01*
X55348127Y-25283318D02*
X55384413Y-25355890D01*
X55384413Y-25355890D02*
X55384413Y-25537318D01*
X55384413Y-25537318D02*
X55348127Y-25609890D01*
X55348127Y-25609890D02*
X55311842Y-25646176D01*
X55311842Y-25646176D02*
X55239270Y-25682461D01*
X55239270Y-25682461D02*
X55021556Y-25682461D01*
X55021556Y-25682461D02*
X54948984Y-25646176D01*
X54948984Y-25646176D02*
X54912699Y-25609890D01*
X55674698Y-24993033D02*
X55710984Y-24956747D01*
X55710984Y-24956747D02*
X55783556Y-24920461D01*
X55783556Y-24920461D02*
X55964984Y-24920461D01*
X55964984Y-24920461D02*
X56037556Y-24956747D01*
X56037556Y-24956747D02*
X56073841Y-24993033D01*
X56073841Y-24993033D02*
X56110127Y-25065604D01*
X56110127Y-25065604D02*
X56110127Y-25138176D01*
X56110127Y-25138176D02*
X56073841Y-25247033D01*
X56073841Y-25247033D02*
X55638413Y-25682461D01*
X55638413Y-25682461D02*
X56110127Y-25682461D01*
X44159714Y-25682461D02*
X44159714Y-24920461D01*
X44159714Y-24920461D02*
X44341143Y-24920461D01*
X44341143Y-24920461D02*
X44450000Y-24956747D01*
X44450000Y-24956747D02*
X44522571Y-25029318D01*
X44522571Y-25029318D02*
X44558857Y-25101890D01*
X44558857Y-25101890D02*
X44595143Y-25247033D01*
X44595143Y-25247033D02*
X44595143Y-25355890D01*
X44595143Y-25355890D02*
X44558857Y-25501033D01*
X44558857Y-25501033D02*
X44522571Y-25573604D01*
X44522571Y-25573604D02*
X44450000Y-25646176D01*
X44450000Y-25646176D02*
X44341143Y-25682461D01*
X44341143Y-25682461D02*
X44159714Y-25682461D01*
X44885428Y-24993033D02*
X44921714Y-24956747D01*
X44921714Y-24956747D02*
X44994286Y-24920461D01*
X44994286Y-24920461D02*
X45175714Y-24920461D01*
X45175714Y-24920461D02*
X45248286Y-24956747D01*
X45248286Y-24956747D02*
X45284571Y-24993033D01*
X45284571Y-24993033D02*
X45320857Y-25065604D01*
X45320857Y-25065604D02*
X45320857Y-25138176D01*
X45320857Y-25138176D02*
X45284571Y-25247033D01*
X45284571Y-25247033D02*
X44849143Y-25682461D01*
X44849143Y-25682461D02*
X45320857Y-25682461D01*
X45574857Y-24920461D02*
X46082857Y-24920461D01*
X46082857Y-24920461D02*
X45756285Y-25682461D01*
X41619714Y-25682461D02*
X41619714Y-24920461D01*
X41619714Y-24920461D02*
X41801143Y-24920461D01*
X41801143Y-24920461D02*
X41910000Y-24956747D01*
X41910000Y-24956747D02*
X41982571Y-25029318D01*
X41982571Y-25029318D02*
X42018857Y-25101890D01*
X42018857Y-25101890D02*
X42055143Y-25247033D01*
X42055143Y-25247033D02*
X42055143Y-25355890D01*
X42055143Y-25355890D02*
X42018857Y-25501033D01*
X42018857Y-25501033D02*
X41982571Y-25573604D01*
X41982571Y-25573604D02*
X41910000Y-25646176D01*
X41910000Y-25646176D02*
X41801143Y-25682461D01*
X41801143Y-25682461D02*
X41619714Y-25682461D01*
X42780857Y-25682461D02*
X42345428Y-25682461D01*
X42563143Y-25682461D02*
X42563143Y-24920461D01*
X42563143Y-24920461D02*
X42490571Y-25029318D01*
X42490571Y-25029318D02*
X42418000Y-25101890D01*
X42418000Y-25101890D02*
X42345428Y-25138176D01*
X43434000Y-25174461D02*
X43434000Y-25682461D01*
X43252571Y-24884176D02*
X43071142Y-25428461D01*
X43071142Y-25428461D02*
X43542857Y-25428461D01*
X41777270Y-47018461D02*
X41777270Y-46256461D01*
X41777270Y-46256461D02*
X41958699Y-46256461D01*
X41958699Y-46256461D02*
X42067556Y-46292747D01*
X42067556Y-46292747D02*
X42140127Y-46365318D01*
X42140127Y-46365318D02*
X42176413Y-46437890D01*
X42176413Y-46437890D02*
X42212699Y-46583033D01*
X42212699Y-46583033D02*
X42212699Y-46691890D01*
X42212699Y-46691890D02*
X42176413Y-46837033D01*
X42176413Y-46837033D02*
X42140127Y-46909604D01*
X42140127Y-46909604D02*
X42067556Y-46982176D01*
X42067556Y-46982176D02*
X41958699Y-47018461D01*
X41958699Y-47018461D02*
X41777270Y-47018461D01*
X42865842Y-46510461D02*
X42865842Y-47018461D01*
X42684413Y-46220176D02*
X42502984Y-46764461D01*
X42502984Y-46764461D02*
X42974699Y-46764461D01*
X39079714Y-25682461D02*
X39079714Y-24920461D01*
X39079714Y-24920461D02*
X39261143Y-24920461D01*
X39261143Y-24920461D02*
X39370000Y-24956747D01*
X39370000Y-24956747D02*
X39442571Y-25029318D01*
X39442571Y-25029318D02*
X39478857Y-25101890D01*
X39478857Y-25101890D02*
X39515143Y-25247033D01*
X39515143Y-25247033D02*
X39515143Y-25355890D01*
X39515143Y-25355890D02*
X39478857Y-25501033D01*
X39478857Y-25501033D02*
X39442571Y-25573604D01*
X39442571Y-25573604D02*
X39370000Y-25646176D01*
X39370000Y-25646176D02*
X39261143Y-25682461D01*
X39261143Y-25682461D02*
X39079714Y-25682461D01*
X40240857Y-25682461D02*
X39805428Y-25682461D01*
X40023143Y-25682461D02*
X40023143Y-24920461D01*
X40023143Y-24920461D02*
X39950571Y-25029318D01*
X39950571Y-25029318D02*
X39878000Y-25101890D01*
X39878000Y-25101890D02*
X39805428Y-25138176D01*
X40531142Y-24993033D02*
X40567428Y-24956747D01*
X40567428Y-24956747D02*
X40640000Y-24920461D01*
X40640000Y-24920461D02*
X40821428Y-24920461D01*
X40821428Y-24920461D02*
X40894000Y-24956747D01*
X40894000Y-24956747D02*
X40930285Y-24993033D01*
X40930285Y-24993033D02*
X40966571Y-25065604D01*
X40966571Y-25065604D02*
X40966571Y-25138176D01*
X40966571Y-25138176D02*
X40930285Y-25247033D01*
X40930285Y-25247033D02*
X40494857Y-25682461D01*
X40494857Y-25682461D02*
X40966571Y-25682461D01*
X51683270Y-47018461D02*
X51683270Y-46256461D01*
X51683270Y-46256461D02*
X51864699Y-46256461D01*
X51864699Y-46256461D02*
X51973556Y-46292747D01*
X51973556Y-46292747D02*
X52046127Y-46365318D01*
X52046127Y-46365318D02*
X52082413Y-46437890D01*
X52082413Y-46437890D02*
X52118699Y-46583033D01*
X52118699Y-46583033D02*
X52118699Y-46691890D01*
X52118699Y-46691890D02*
X52082413Y-46837033D01*
X52082413Y-46837033D02*
X52046127Y-46909604D01*
X52046127Y-46909604D02*
X51973556Y-46982176D01*
X51973556Y-46982176D02*
X51864699Y-47018461D01*
X51864699Y-47018461D02*
X51683270Y-47018461D01*
X52844413Y-47018461D02*
X52408984Y-47018461D01*
X52626699Y-47018461D02*
X52626699Y-46256461D01*
X52626699Y-46256461D02*
X52554127Y-46365318D01*
X52554127Y-46365318D02*
X52481556Y-46437890D01*
X52481556Y-46437890D02*
X52408984Y-46474176D01*
X53279841Y-46583033D02*
X53207270Y-46546747D01*
X53207270Y-46546747D02*
X53170984Y-46510461D01*
X53170984Y-46510461D02*
X53134698Y-46437890D01*
X53134698Y-46437890D02*
X53134698Y-46401604D01*
X53134698Y-46401604D02*
X53170984Y-46329033D01*
X53170984Y-46329033D02*
X53207270Y-46292747D01*
X53207270Y-46292747D02*
X53279841Y-46256461D01*
X53279841Y-46256461D02*
X53424984Y-46256461D01*
X53424984Y-46256461D02*
X53497556Y-46292747D01*
X53497556Y-46292747D02*
X53533841Y-46329033D01*
X53533841Y-46329033D02*
X53570127Y-46401604D01*
X53570127Y-46401604D02*
X53570127Y-46437890D01*
X53570127Y-46437890D02*
X53533841Y-46510461D01*
X53533841Y-46510461D02*
X53497556Y-46546747D01*
X53497556Y-46546747D02*
X53424984Y-46583033D01*
X53424984Y-46583033D02*
X53279841Y-46583033D01*
X53279841Y-46583033D02*
X53207270Y-46619318D01*
X53207270Y-46619318D02*
X53170984Y-46655604D01*
X53170984Y-46655604D02*
X53134698Y-46728176D01*
X53134698Y-46728176D02*
X53134698Y-46873318D01*
X53134698Y-46873318D02*
X53170984Y-46945890D01*
X53170984Y-46945890D02*
X53207270Y-46982176D01*
X53207270Y-46982176D02*
X53279841Y-47018461D01*
X53279841Y-47018461D02*
X53424984Y-47018461D01*
X53424984Y-47018461D02*
X53497556Y-46982176D01*
X53497556Y-46982176D02*
X53533841Y-46945890D01*
X53533841Y-46945890D02*
X53570127Y-46873318D01*
X53570127Y-46873318D02*
X53570127Y-46728176D01*
X53570127Y-46728176D02*
X53533841Y-46655604D01*
X53533841Y-46655604D02*
X53497556Y-46619318D01*
X53497556Y-46619318D02*
X53424984Y-46583033D01*
X34344428Y-24956747D02*
X34271857Y-24920461D01*
X34271857Y-24920461D02*
X34162999Y-24920461D01*
X34162999Y-24920461D02*
X34054142Y-24956747D01*
X34054142Y-24956747D02*
X33981571Y-25029318D01*
X33981571Y-25029318D02*
X33945285Y-25101890D01*
X33945285Y-25101890D02*
X33908999Y-25247033D01*
X33908999Y-25247033D02*
X33908999Y-25355890D01*
X33908999Y-25355890D02*
X33945285Y-25501033D01*
X33945285Y-25501033D02*
X33981571Y-25573604D01*
X33981571Y-25573604D02*
X34054142Y-25646176D01*
X34054142Y-25646176D02*
X34162999Y-25682461D01*
X34162999Y-25682461D02*
X34235571Y-25682461D01*
X34235571Y-25682461D02*
X34344428Y-25646176D01*
X34344428Y-25646176D02*
X34380714Y-25609890D01*
X34380714Y-25609890D02*
X34380714Y-25355890D01*
X34380714Y-25355890D02*
X34235571Y-25355890D01*
X34707285Y-25682461D02*
X34707285Y-24920461D01*
X34707285Y-24920461D02*
X35142714Y-25682461D01*
X35142714Y-25682461D02*
X35142714Y-24920461D01*
X35505571Y-25682461D02*
X35505571Y-24920461D01*
X35505571Y-24920461D02*
X35687000Y-24920461D01*
X35687000Y-24920461D02*
X35795857Y-24956747D01*
X35795857Y-24956747D02*
X35868428Y-25029318D01*
X35868428Y-25029318D02*
X35904714Y-25101890D01*
X35904714Y-25101890D02*
X35941000Y-25247033D01*
X35941000Y-25247033D02*
X35941000Y-25355890D01*
X35941000Y-25355890D02*
X35904714Y-25501033D01*
X35904714Y-25501033D02*
X35868428Y-25573604D01*
X35868428Y-25573604D02*
X35795857Y-25646176D01*
X35795857Y-25646176D02*
X35687000Y-25682461D01*
X35687000Y-25682461D02*
X35505571Y-25682461D01*
X57017270Y-25682461D02*
X57017270Y-24920461D01*
X57017270Y-24920461D02*
X57198699Y-24920461D01*
X57198699Y-24920461D02*
X57307556Y-24956747D01*
X57307556Y-24956747D02*
X57380127Y-25029318D01*
X57380127Y-25029318D02*
X57416413Y-25101890D01*
X57416413Y-25101890D02*
X57452699Y-25247033D01*
X57452699Y-25247033D02*
X57452699Y-25355890D01*
X57452699Y-25355890D02*
X57416413Y-25501033D01*
X57416413Y-25501033D02*
X57380127Y-25573604D01*
X57380127Y-25573604D02*
X57307556Y-25646176D01*
X57307556Y-25646176D02*
X57198699Y-25682461D01*
X57198699Y-25682461D02*
X57017270Y-25682461D01*
X57706699Y-24920461D02*
X58178413Y-24920461D01*
X58178413Y-24920461D02*
X57924413Y-25210747D01*
X57924413Y-25210747D02*
X58033270Y-25210747D01*
X58033270Y-25210747D02*
X58105842Y-25247033D01*
X58105842Y-25247033D02*
X58142127Y-25283318D01*
X58142127Y-25283318D02*
X58178413Y-25355890D01*
X58178413Y-25355890D02*
X58178413Y-25537318D01*
X58178413Y-25537318D02*
X58142127Y-25609890D01*
X58142127Y-25609890D02*
X58105842Y-25646176D01*
X58105842Y-25646176D02*
X58033270Y-25682461D01*
X58033270Y-25682461D02*
X57815556Y-25682461D01*
X57815556Y-25682461D02*
X57742984Y-25646176D01*
X57742984Y-25646176D02*
X57706699Y-25609890D01*
X58867841Y-24920461D02*
X58504984Y-24920461D01*
X58504984Y-24920461D02*
X58468698Y-25283318D01*
X58468698Y-25283318D02*
X58504984Y-25247033D01*
X58504984Y-25247033D02*
X58577556Y-25210747D01*
X58577556Y-25210747D02*
X58758984Y-25210747D01*
X58758984Y-25210747D02*
X58831556Y-25247033D01*
X58831556Y-25247033D02*
X58867841Y-25283318D01*
X58867841Y-25283318D02*
X58904127Y-25355890D01*
X58904127Y-25355890D02*
X58904127Y-25537318D01*
X58904127Y-25537318D02*
X58867841Y-25609890D01*
X58867841Y-25609890D02*
X58831556Y-25646176D01*
X58831556Y-25646176D02*
X58758984Y-25682461D01*
X58758984Y-25682461D02*
X58577556Y-25682461D01*
X58577556Y-25682461D02*
X58504984Y-25646176D01*
X58504984Y-25646176D02*
X58468698Y-25609890D01*
D10*
X23909819Y-37456904D02*
X24719342Y-37456904D01*
X24719342Y-37456904D02*
X24814580Y-37409285D01*
X24814580Y-37409285D02*
X24862200Y-37361666D01*
X24862200Y-37361666D02*
X24909819Y-37266428D01*
X24909819Y-37266428D02*
X24909819Y-37075952D01*
X24909819Y-37075952D02*
X24862200Y-36980714D01*
X24862200Y-36980714D02*
X24814580Y-36933095D01*
X24814580Y-36933095D02*
X24719342Y-36885476D01*
X24719342Y-36885476D02*
X23909819Y-36885476D01*
X24862200Y-36456904D02*
X24909819Y-36314047D01*
X24909819Y-36314047D02*
X24909819Y-36075952D01*
X24909819Y-36075952D02*
X24862200Y-35980714D01*
X24862200Y-35980714D02*
X24814580Y-35933095D01*
X24814580Y-35933095D02*
X24719342Y-35885476D01*
X24719342Y-35885476D02*
X24624104Y-35885476D01*
X24624104Y-35885476D02*
X24528866Y-35933095D01*
X24528866Y-35933095D02*
X24481247Y-35980714D01*
X24481247Y-35980714D02*
X24433628Y-36075952D01*
X24433628Y-36075952D02*
X24386009Y-36266428D01*
X24386009Y-36266428D02*
X24338390Y-36361666D01*
X24338390Y-36361666D02*
X24290771Y-36409285D01*
X24290771Y-36409285D02*
X24195533Y-36456904D01*
X24195533Y-36456904D02*
X24100295Y-36456904D01*
X24100295Y-36456904D02*
X24005057Y-36409285D01*
X24005057Y-36409285D02*
X23957438Y-36361666D01*
X23957438Y-36361666D02*
X23909819Y-36266428D01*
X23909819Y-36266428D02*
X23909819Y-36028333D01*
X23909819Y-36028333D02*
X23957438Y-35885476D01*
X24386009Y-35123571D02*
X24433628Y-34980714D01*
X24433628Y-34980714D02*
X24481247Y-34933095D01*
X24481247Y-34933095D02*
X24576485Y-34885476D01*
X24576485Y-34885476D02*
X24719342Y-34885476D01*
X24719342Y-34885476D02*
X24814580Y-34933095D01*
X24814580Y-34933095D02*
X24862200Y-34980714D01*
X24862200Y-34980714D02*
X24909819Y-35075952D01*
X24909819Y-35075952D02*
X24909819Y-35456904D01*
X24909819Y-35456904D02*
X23909819Y-35456904D01*
X23909819Y-35456904D02*
X23909819Y-35123571D01*
X23909819Y-35123571D02*
X23957438Y-35028333D01*
X23957438Y-35028333D02*
X24005057Y-34980714D01*
X24005057Y-34980714D02*
X24100295Y-34933095D01*
X24100295Y-34933095D02*
X24195533Y-34933095D01*
X24195533Y-34933095D02*
X24290771Y-34980714D01*
X24290771Y-34980714D02*
X24338390Y-35028333D01*
X24338390Y-35028333D02*
X24386009Y-35123571D01*
X24386009Y-35123571D02*
X24386009Y-35456904D01*
D13*
X44498699Y-47018461D02*
X44244699Y-46655604D01*
X44063270Y-47018461D02*
X44063270Y-46256461D01*
X44063270Y-46256461D02*
X44353556Y-46256461D01*
X44353556Y-46256461D02*
X44426127Y-46292747D01*
X44426127Y-46292747D02*
X44462413Y-46329033D01*
X44462413Y-46329033D02*
X44498699Y-46401604D01*
X44498699Y-46401604D02*
X44498699Y-46510461D01*
X44498699Y-46510461D02*
X44462413Y-46583033D01*
X44462413Y-46583033D02*
X44426127Y-46619318D01*
X44426127Y-46619318D02*
X44353556Y-46655604D01*
X44353556Y-46655604D02*
X44063270Y-46655604D01*
X44752699Y-46256461D02*
X45260699Y-47018461D01*
X45260699Y-46256461D02*
X44752699Y-47018461D01*
X45514698Y-46329033D02*
X45550984Y-46292747D01*
X45550984Y-46292747D02*
X45623556Y-46256461D01*
X45623556Y-46256461D02*
X45804984Y-46256461D01*
X45804984Y-46256461D02*
X45877556Y-46292747D01*
X45877556Y-46292747D02*
X45913841Y-46329033D01*
X45913841Y-46329033D02*
X45950127Y-46401604D01*
X45950127Y-46401604D02*
X45950127Y-46474176D01*
X45950127Y-46474176D02*
X45913841Y-46583033D01*
X45913841Y-46583033D02*
X45478413Y-47018461D01*
X45478413Y-47018461D02*
X45950127Y-47018461D01*
X49239714Y-25682461D02*
X49239714Y-24920461D01*
X49239714Y-24920461D02*
X49421143Y-24920461D01*
X49421143Y-24920461D02*
X49530000Y-24956747D01*
X49530000Y-24956747D02*
X49602571Y-25029318D01*
X49602571Y-25029318D02*
X49638857Y-25101890D01*
X49638857Y-25101890D02*
X49675143Y-25247033D01*
X49675143Y-25247033D02*
X49675143Y-25355890D01*
X49675143Y-25355890D02*
X49638857Y-25501033D01*
X49638857Y-25501033D02*
X49602571Y-25573604D01*
X49602571Y-25573604D02*
X49530000Y-25646176D01*
X49530000Y-25646176D02*
X49421143Y-25682461D01*
X49421143Y-25682461D02*
X49239714Y-25682461D01*
X49965428Y-24993033D02*
X50001714Y-24956747D01*
X50001714Y-24956747D02*
X50074286Y-24920461D01*
X50074286Y-24920461D02*
X50255714Y-24920461D01*
X50255714Y-24920461D02*
X50328286Y-24956747D01*
X50328286Y-24956747D02*
X50364571Y-24993033D01*
X50364571Y-24993033D02*
X50400857Y-25065604D01*
X50400857Y-25065604D02*
X50400857Y-25138176D01*
X50400857Y-25138176D02*
X50364571Y-25247033D01*
X50364571Y-25247033D02*
X49929143Y-25682461D01*
X49929143Y-25682461D02*
X50400857Y-25682461D01*
X51090285Y-24920461D02*
X50727428Y-24920461D01*
X50727428Y-24920461D02*
X50691142Y-25283318D01*
X50691142Y-25283318D02*
X50727428Y-25247033D01*
X50727428Y-25247033D02*
X50800000Y-25210747D01*
X50800000Y-25210747D02*
X50981428Y-25210747D01*
X50981428Y-25210747D02*
X51054000Y-25247033D01*
X51054000Y-25247033D02*
X51090285Y-25283318D01*
X51090285Y-25283318D02*
X51126571Y-25355890D01*
X51126571Y-25355890D02*
X51126571Y-25537318D01*
X51126571Y-25537318D02*
X51090285Y-25609890D01*
X51090285Y-25609890D02*
X51054000Y-25646176D01*
X51054000Y-25646176D02*
X50981428Y-25682461D01*
X50981428Y-25682461D02*
X50800000Y-25682461D01*
X50800000Y-25682461D02*
X50727428Y-25646176D01*
X50727428Y-25646176D02*
X50691142Y-25609890D01*
X46494413Y-46256461D02*
X46929842Y-46256461D01*
X46712127Y-47018461D02*
X46712127Y-46256461D01*
X47111270Y-46256461D02*
X47619270Y-47018461D01*
X47619270Y-46256461D02*
X47111270Y-47018461D01*
X47873269Y-46329033D02*
X47909555Y-46292747D01*
X47909555Y-46292747D02*
X47982127Y-46256461D01*
X47982127Y-46256461D02*
X48163555Y-46256461D01*
X48163555Y-46256461D02*
X48236127Y-46292747D01*
X48236127Y-46292747D02*
X48272412Y-46329033D01*
X48272412Y-46329033D02*
X48308698Y-46401604D01*
X48308698Y-46401604D02*
X48308698Y-46474176D01*
X48308698Y-46474176D02*
X48272412Y-46583033D01*
X48272412Y-46583033D02*
X47836984Y-47018461D01*
X47836984Y-47018461D02*
X48308698Y-47018461D01*
D10*
X28196009Y-30836904D02*
X28196009Y-30503571D01*
X28719819Y-30360714D02*
X28719819Y-30836904D01*
X28719819Y-30836904D02*
X27719819Y-30836904D01*
X27719819Y-30836904D02*
X27719819Y-30360714D01*
X28053152Y-29932142D02*
X28719819Y-29932142D01*
X28148390Y-29932142D02*
X28100771Y-29884523D01*
X28100771Y-29884523D02*
X28053152Y-29789285D01*
X28053152Y-29789285D02*
X28053152Y-29646428D01*
X28053152Y-29646428D02*
X28100771Y-29551190D01*
X28100771Y-29551190D02*
X28196009Y-29503571D01*
X28196009Y-29503571D02*
X28719819Y-29503571D01*
X28719819Y-28598809D02*
X28196009Y-28598809D01*
X28196009Y-28598809D02*
X28100771Y-28646428D01*
X28100771Y-28646428D02*
X28053152Y-28741666D01*
X28053152Y-28741666D02*
X28053152Y-28932142D01*
X28053152Y-28932142D02*
X28100771Y-29027380D01*
X28672200Y-28598809D02*
X28719819Y-28694047D01*
X28719819Y-28694047D02*
X28719819Y-28932142D01*
X28719819Y-28932142D02*
X28672200Y-29027380D01*
X28672200Y-29027380D02*
X28576961Y-29074999D01*
X28576961Y-29074999D02*
X28481723Y-29074999D01*
X28481723Y-29074999D02*
X28386485Y-29027380D01*
X28386485Y-29027380D02*
X28338866Y-28932142D01*
X28338866Y-28932142D02*
X28338866Y-28694047D01*
X28338866Y-28694047D02*
X28291247Y-28598809D01*
X28719819Y-28122618D02*
X27719819Y-28122618D01*
X28100771Y-28122618D02*
X28053152Y-28027380D01*
X28053152Y-28027380D02*
X28053152Y-27836904D01*
X28053152Y-27836904D02*
X28100771Y-27741666D01*
X28100771Y-27741666D02*
X28148390Y-27694047D01*
X28148390Y-27694047D02*
X28243628Y-27646428D01*
X28243628Y-27646428D02*
X28529342Y-27646428D01*
X28529342Y-27646428D02*
X28624580Y-27694047D01*
X28624580Y-27694047D02*
X28672200Y-27741666D01*
X28672200Y-27741666D02*
X28719819Y-27836904D01*
X28719819Y-27836904D02*
X28719819Y-28027380D01*
X28719819Y-28027380D02*
X28672200Y-28122618D01*
X28719819Y-27074999D02*
X28672200Y-27170237D01*
X28672200Y-27170237D02*
X28576961Y-27217856D01*
X28576961Y-27217856D02*
X27719819Y-27217856D01*
X28672200Y-26313094D02*
X28719819Y-26408332D01*
X28719819Y-26408332D02*
X28719819Y-26598808D01*
X28719819Y-26598808D02*
X28672200Y-26694046D01*
X28672200Y-26694046D02*
X28576961Y-26741665D01*
X28576961Y-26741665D02*
X28196009Y-26741665D01*
X28196009Y-26741665D02*
X28100771Y-26694046D01*
X28100771Y-26694046D02*
X28053152Y-26598808D01*
X28053152Y-26598808D02*
X28053152Y-26408332D01*
X28053152Y-26408332D02*
X28100771Y-26313094D01*
X28100771Y-26313094D02*
X28196009Y-26265475D01*
X28196009Y-26265475D02*
X28291247Y-26265475D01*
X28291247Y-26265475D02*
X28386485Y-26741665D01*
D13*
X61734413Y-46256461D02*
X62169842Y-46256461D01*
X61952127Y-47018461D02*
X61952127Y-46256461D01*
X62351270Y-46256461D02*
X62859270Y-47018461D01*
X62859270Y-46256461D02*
X62351270Y-47018461D01*
X63294698Y-46256461D02*
X63367269Y-46256461D01*
X63367269Y-46256461D02*
X63439841Y-46292747D01*
X63439841Y-46292747D02*
X63476127Y-46329033D01*
X63476127Y-46329033D02*
X63512412Y-46401604D01*
X63512412Y-46401604D02*
X63548698Y-46546747D01*
X63548698Y-46546747D02*
X63548698Y-46728176D01*
X63548698Y-46728176D02*
X63512412Y-46873318D01*
X63512412Y-46873318D02*
X63476127Y-46945890D01*
X63476127Y-46945890D02*
X63439841Y-46982176D01*
X63439841Y-46982176D02*
X63367269Y-47018461D01*
X63367269Y-47018461D02*
X63294698Y-47018461D01*
X63294698Y-47018461D02*
X63222127Y-46982176D01*
X63222127Y-46982176D02*
X63185841Y-46945890D01*
X63185841Y-46945890D02*
X63149555Y-46873318D01*
X63149555Y-46873318D02*
X63113269Y-46728176D01*
X63113269Y-46728176D02*
X63113269Y-46546747D01*
X63113269Y-46546747D02*
X63149555Y-46401604D01*
X63149555Y-46401604D02*
X63185841Y-46329033D01*
X63185841Y-46329033D02*
X63222127Y-46292747D01*
X63222127Y-46292747D02*
X63294698Y-46256461D01*
X31187572Y-46256461D02*
X31659286Y-46256461D01*
X31659286Y-46256461D02*
X31405286Y-46546747D01*
X31405286Y-46546747D02*
X31514143Y-46546747D01*
X31514143Y-46546747D02*
X31586715Y-46583033D01*
X31586715Y-46583033D02*
X31623000Y-46619318D01*
X31623000Y-46619318D02*
X31659286Y-46691890D01*
X31659286Y-46691890D02*
X31659286Y-46873318D01*
X31659286Y-46873318D02*
X31623000Y-46945890D01*
X31623000Y-46945890D02*
X31586715Y-46982176D01*
X31586715Y-46982176D02*
X31514143Y-47018461D01*
X31514143Y-47018461D02*
X31296429Y-47018461D01*
X31296429Y-47018461D02*
X31223857Y-46982176D01*
X31223857Y-46982176D02*
X31187572Y-46945890D01*
X31877000Y-46256461D02*
X32131000Y-47018461D01*
X32131000Y-47018461D02*
X32385000Y-46256461D01*
X32566429Y-46256461D02*
X33038143Y-46256461D01*
X33038143Y-46256461D02*
X32784143Y-46546747D01*
X32784143Y-46546747D02*
X32893000Y-46546747D01*
X32893000Y-46546747D02*
X32965572Y-46583033D01*
X32965572Y-46583033D02*
X33001857Y-46619318D01*
X33001857Y-46619318D02*
X33038143Y-46691890D01*
X33038143Y-46691890D02*
X33038143Y-46873318D01*
X33038143Y-46873318D02*
X33001857Y-46945890D01*
X33001857Y-46945890D02*
X32965572Y-46982176D01*
X32965572Y-46982176D02*
X32893000Y-47018461D01*
X32893000Y-47018461D02*
X32675286Y-47018461D01*
X32675286Y-47018461D02*
X32602714Y-46982176D01*
X32602714Y-46982176D02*
X32566429Y-46945890D01*
D10*
X33004819Y-54793333D02*
X33719104Y-54793333D01*
X33719104Y-54793333D02*
X33861961Y-54840952D01*
X33861961Y-54840952D02*
X33957200Y-54936190D01*
X33957200Y-54936190D02*
X34004819Y-55079047D01*
X34004819Y-55079047D02*
X34004819Y-55174285D01*
X34004819Y-54317142D02*
X33004819Y-54317142D01*
X33004819Y-54317142D02*
X33004819Y-53936190D01*
X33004819Y-53936190D02*
X33052438Y-53840952D01*
X33052438Y-53840952D02*
X33100057Y-53793333D01*
X33100057Y-53793333D02*
X33195295Y-53745714D01*
X33195295Y-53745714D02*
X33338152Y-53745714D01*
X33338152Y-53745714D02*
X33433390Y-53793333D01*
X33433390Y-53793333D02*
X33481009Y-53840952D01*
X33481009Y-53840952D02*
X33528628Y-53936190D01*
X33528628Y-53936190D02*
X33528628Y-54317142D01*
X33004819Y-53412380D02*
X33004819Y-52745714D01*
X33004819Y-52745714D02*
X34004819Y-53174285D01*
X54972261Y-69905057D02*
X54877023Y-69857438D01*
X54877023Y-69857438D02*
X54781785Y-69762200D01*
X54781785Y-69762200D02*
X54638928Y-69619342D01*
X54638928Y-69619342D02*
X54543690Y-69571723D01*
X54543690Y-69571723D02*
X54448452Y-69571723D01*
X54496071Y-69809819D02*
X54400833Y-69762200D01*
X54400833Y-69762200D02*
X54305595Y-69666961D01*
X54305595Y-69666961D02*
X54257976Y-69476485D01*
X54257976Y-69476485D02*
X54257976Y-69143152D01*
X54257976Y-69143152D02*
X54305595Y-68952676D01*
X54305595Y-68952676D02*
X54400833Y-68857438D01*
X54400833Y-68857438D02*
X54496071Y-68809819D01*
X54496071Y-68809819D02*
X54686547Y-68809819D01*
X54686547Y-68809819D02*
X54781785Y-68857438D01*
X54781785Y-68857438D02*
X54877023Y-68952676D01*
X54877023Y-68952676D02*
X54924642Y-69143152D01*
X54924642Y-69143152D02*
X54924642Y-69476485D01*
X54924642Y-69476485D02*
X54877023Y-69666961D01*
X54877023Y-69666961D02*
X54781785Y-69762200D01*
X54781785Y-69762200D02*
X54686547Y-69809819D01*
X54686547Y-69809819D02*
X54496071Y-69809819D01*
X55257976Y-68809819D02*
X55877023Y-68809819D01*
X55877023Y-68809819D02*
X55543690Y-69190771D01*
X55543690Y-69190771D02*
X55686547Y-69190771D01*
X55686547Y-69190771D02*
X55781785Y-69238390D01*
X55781785Y-69238390D02*
X55829404Y-69286009D01*
X55829404Y-69286009D02*
X55877023Y-69381247D01*
X55877023Y-69381247D02*
X55877023Y-69619342D01*
X55877023Y-69619342D02*
X55829404Y-69714580D01*
X55829404Y-69714580D02*
X55781785Y-69762200D01*
X55781785Y-69762200D02*
X55686547Y-69809819D01*
X55686547Y-69809819D02*
X55400833Y-69809819D01*
X55400833Y-69809819D02*
X55305595Y-69762200D01*
X55305595Y-69762200D02*
X55257976Y-69714580D01*
X60793333Y-85187319D02*
X60460000Y-84711128D01*
X60221905Y-85187319D02*
X60221905Y-84187319D01*
X60221905Y-84187319D02*
X60602857Y-84187319D01*
X60602857Y-84187319D02*
X60698095Y-84234938D01*
X60698095Y-84234938D02*
X60745714Y-84282557D01*
X60745714Y-84282557D02*
X60793333Y-84377795D01*
X60793333Y-84377795D02*
X60793333Y-84520652D01*
X60793333Y-84520652D02*
X60745714Y-84615890D01*
X60745714Y-84615890D02*
X60698095Y-84663509D01*
X60698095Y-84663509D02*
X60602857Y-84711128D01*
X60602857Y-84711128D02*
X60221905Y-84711128D01*
X61745714Y-85187319D02*
X61174286Y-85187319D01*
X61460000Y-85187319D02*
X61460000Y-84187319D01*
X61460000Y-84187319D02*
X61364762Y-84330176D01*
X61364762Y-84330176D02*
X61269524Y-84425414D01*
X61269524Y-84425414D02*
X61174286Y-84473033D01*
X46669214Y-85259104D02*
X47145404Y-85259104D01*
X46573976Y-85544819D02*
X46907309Y-84544819D01*
X46907309Y-84544819D02*
X47240642Y-85544819D01*
X47526357Y-84640057D02*
X47573976Y-84592438D01*
X47573976Y-84592438D02*
X47669214Y-84544819D01*
X47669214Y-84544819D02*
X47907309Y-84544819D01*
X47907309Y-84544819D02*
X48002547Y-84592438D01*
X48002547Y-84592438D02*
X48050166Y-84640057D01*
X48050166Y-84640057D02*
X48097785Y-84735295D01*
X48097785Y-84735295D02*
X48097785Y-84830533D01*
X48097785Y-84830533D02*
X48050166Y-84973390D01*
X48050166Y-84973390D02*
X47478738Y-85544819D01*
X47478738Y-85544819D02*
X48097785Y-85544819D01*
D13*
X48901770Y-82493176D02*
X49482342Y-82493176D01*
X49192056Y-82783461D02*
X49192056Y-82202890D01*
X49772628Y-82021461D02*
X50244342Y-82021461D01*
X50244342Y-82021461D02*
X49990342Y-82311747D01*
X49990342Y-82311747D02*
X50099199Y-82311747D01*
X50099199Y-82311747D02*
X50171771Y-82348033D01*
X50171771Y-82348033D02*
X50208056Y-82384318D01*
X50208056Y-82384318D02*
X50244342Y-82456890D01*
X50244342Y-82456890D02*
X50244342Y-82638318D01*
X50244342Y-82638318D02*
X50208056Y-82710890D01*
X50208056Y-82710890D02*
X50171771Y-82747176D01*
X50171771Y-82747176D02*
X50099199Y-82783461D01*
X50099199Y-82783461D02*
X49881485Y-82783461D01*
X49881485Y-82783461D02*
X49808913Y-82747176D01*
X49808913Y-82747176D02*
X49772628Y-82710890D01*
X50570913Y-82710890D02*
X50607199Y-82747176D01*
X50607199Y-82747176D02*
X50570913Y-82783461D01*
X50570913Y-82783461D02*
X50534627Y-82747176D01*
X50534627Y-82747176D02*
X50570913Y-82710890D01*
X50570913Y-82710890D02*
X50570913Y-82783461D01*
X50861199Y-82021461D02*
X51332913Y-82021461D01*
X51332913Y-82021461D02*
X51078913Y-82311747D01*
X51078913Y-82311747D02*
X51187770Y-82311747D01*
X51187770Y-82311747D02*
X51260342Y-82348033D01*
X51260342Y-82348033D02*
X51296627Y-82384318D01*
X51296627Y-82384318D02*
X51332913Y-82456890D01*
X51332913Y-82456890D02*
X51332913Y-82638318D01*
X51332913Y-82638318D02*
X51296627Y-82710890D01*
X51296627Y-82710890D02*
X51260342Y-82747176D01*
X51260342Y-82747176D02*
X51187770Y-82783461D01*
X51187770Y-82783461D02*
X50970056Y-82783461D01*
X50970056Y-82783461D02*
X50897484Y-82747176D01*
X50897484Y-82747176D02*
X50861199Y-82710890D01*
X51550627Y-82021461D02*
X51804627Y-82783461D01*
X51804627Y-82783461D02*
X52058627Y-82021461D01*
X49591199Y-75344890D02*
X49554913Y-75381176D01*
X49554913Y-75381176D02*
X49446056Y-75417461D01*
X49446056Y-75417461D02*
X49373484Y-75417461D01*
X49373484Y-75417461D02*
X49264627Y-75381176D01*
X49264627Y-75381176D02*
X49192056Y-75308604D01*
X49192056Y-75308604D02*
X49155770Y-75236033D01*
X49155770Y-75236033D02*
X49119484Y-75090890D01*
X49119484Y-75090890D02*
X49119484Y-74982033D01*
X49119484Y-74982033D02*
X49155770Y-74836890D01*
X49155770Y-74836890D02*
X49192056Y-74764318D01*
X49192056Y-74764318D02*
X49264627Y-74691747D01*
X49264627Y-74691747D02*
X49373484Y-74655461D01*
X49373484Y-74655461D02*
X49446056Y-74655461D01*
X49446056Y-74655461D02*
X49554913Y-74691747D01*
X49554913Y-74691747D02*
X49591199Y-74728033D01*
X50280627Y-75417461D02*
X49917770Y-75417461D01*
X49917770Y-75417461D02*
X49917770Y-74655461D01*
X50534627Y-75417461D02*
X50534627Y-74655461D01*
X50970056Y-75417461D02*
X50643484Y-74982033D01*
X50970056Y-74655461D02*
X50534627Y-75090890D01*
X49591199Y-80170890D02*
X49554913Y-80207176D01*
X49554913Y-80207176D02*
X49446056Y-80243461D01*
X49446056Y-80243461D02*
X49373484Y-80243461D01*
X49373484Y-80243461D02*
X49264627Y-80207176D01*
X49264627Y-80207176D02*
X49192056Y-80134604D01*
X49192056Y-80134604D02*
X49155770Y-80062033D01*
X49155770Y-80062033D02*
X49119484Y-79916890D01*
X49119484Y-79916890D02*
X49119484Y-79808033D01*
X49119484Y-79808033D02*
X49155770Y-79662890D01*
X49155770Y-79662890D02*
X49192056Y-79590318D01*
X49192056Y-79590318D02*
X49264627Y-79517747D01*
X49264627Y-79517747D02*
X49373484Y-79481461D01*
X49373484Y-79481461D02*
X49446056Y-79481461D01*
X49446056Y-79481461D02*
X49554913Y-79517747D01*
X49554913Y-79517747D02*
X49591199Y-79554033D01*
X49881484Y-80207176D02*
X49990342Y-80243461D01*
X49990342Y-80243461D02*
X50171770Y-80243461D01*
X50171770Y-80243461D02*
X50244342Y-80207176D01*
X50244342Y-80207176D02*
X50280627Y-80170890D01*
X50280627Y-80170890D02*
X50316913Y-80098318D01*
X50316913Y-80098318D02*
X50316913Y-80025747D01*
X50316913Y-80025747D02*
X50280627Y-79953176D01*
X50280627Y-79953176D02*
X50244342Y-79916890D01*
X50244342Y-79916890D02*
X50171770Y-79880604D01*
X50171770Y-79880604D02*
X50026627Y-79844318D01*
X50026627Y-79844318D02*
X49954056Y-79808033D01*
X49954056Y-79808033D02*
X49917770Y-79771747D01*
X49917770Y-79771747D02*
X49881484Y-79699176D01*
X49881484Y-79699176D02*
X49881484Y-79626604D01*
X49881484Y-79626604D02*
X49917770Y-79554033D01*
X49917770Y-79554033D02*
X49954056Y-79517747D01*
X49954056Y-79517747D02*
X50026627Y-79481461D01*
X50026627Y-79481461D02*
X50208056Y-79481461D01*
X50208056Y-79481461D02*
X50316913Y-79517747D01*
X49155770Y-77957461D02*
X49155770Y-77195461D01*
X49155770Y-77195461D02*
X49409770Y-77739747D01*
X49409770Y-77739747D02*
X49663770Y-77195461D01*
X49663770Y-77195461D02*
X49663770Y-77957461D01*
X50171770Y-77195461D02*
X50316913Y-77195461D01*
X50316913Y-77195461D02*
X50389484Y-77231747D01*
X50389484Y-77231747D02*
X50462056Y-77304318D01*
X50462056Y-77304318D02*
X50498341Y-77449461D01*
X50498341Y-77449461D02*
X50498341Y-77703461D01*
X50498341Y-77703461D02*
X50462056Y-77848604D01*
X50462056Y-77848604D02*
X50389484Y-77921176D01*
X50389484Y-77921176D02*
X50316913Y-77957461D01*
X50316913Y-77957461D02*
X50171770Y-77957461D01*
X50171770Y-77957461D02*
X50099199Y-77921176D01*
X50099199Y-77921176D02*
X50026627Y-77848604D01*
X50026627Y-77848604D02*
X49990341Y-77703461D01*
X49990341Y-77703461D02*
X49990341Y-77449461D01*
X49990341Y-77449461D02*
X50026627Y-77304318D01*
X50026627Y-77304318D02*
X50099199Y-77231747D01*
X50099199Y-77231747D02*
X50171770Y-77195461D01*
X50788627Y-77921176D02*
X50897485Y-77957461D01*
X50897485Y-77957461D02*
X51078913Y-77957461D01*
X51078913Y-77957461D02*
X51151485Y-77921176D01*
X51151485Y-77921176D02*
X51187770Y-77884890D01*
X51187770Y-77884890D02*
X51224056Y-77812318D01*
X51224056Y-77812318D02*
X51224056Y-77739747D01*
X51224056Y-77739747D02*
X51187770Y-77667176D01*
X51187770Y-77667176D02*
X51151485Y-77630890D01*
X51151485Y-77630890D02*
X51078913Y-77594604D01*
X51078913Y-77594604D02*
X50933770Y-77558318D01*
X50933770Y-77558318D02*
X50861199Y-77522033D01*
X50861199Y-77522033D02*
X50824913Y-77485747D01*
X50824913Y-77485747D02*
X50788627Y-77413176D01*
X50788627Y-77413176D02*
X50788627Y-77340604D01*
X50788627Y-77340604D02*
X50824913Y-77268033D01*
X50824913Y-77268033D02*
X50861199Y-77231747D01*
X50861199Y-77231747D02*
X50933770Y-77195461D01*
X50933770Y-77195461D02*
X51115199Y-77195461D01*
X51115199Y-77195461D02*
X51224056Y-77231747D01*
X51550627Y-77957461D02*
X51550627Y-77195461D01*
X49155770Y-72623461D02*
X49155770Y-71861461D01*
X49155770Y-71861461D02*
X49409770Y-72405747D01*
X49409770Y-72405747D02*
X49663770Y-71861461D01*
X49663770Y-71861461D02*
X49663770Y-72623461D01*
X50026627Y-72623461D02*
X50026627Y-71861461D01*
X50353198Y-72587176D02*
X50462056Y-72623461D01*
X50462056Y-72623461D02*
X50643484Y-72623461D01*
X50643484Y-72623461D02*
X50716056Y-72587176D01*
X50716056Y-72587176D02*
X50752341Y-72550890D01*
X50752341Y-72550890D02*
X50788627Y-72478318D01*
X50788627Y-72478318D02*
X50788627Y-72405747D01*
X50788627Y-72405747D02*
X50752341Y-72333176D01*
X50752341Y-72333176D02*
X50716056Y-72296890D01*
X50716056Y-72296890D02*
X50643484Y-72260604D01*
X50643484Y-72260604D02*
X50498341Y-72224318D01*
X50498341Y-72224318D02*
X50425770Y-72188033D01*
X50425770Y-72188033D02*
X50389484Y-72151747D01*
X50389484Y-72151747D02*
X50353198Y-72079176D01*
X50353198Y-72079176D02*
X50353198Y-72006604D01*
X50353198Y-72006604D02*
X50389484Y-71934033D01*
X50389484Y-71934033D02*
X50425770Y-71897747D01*
X50425770Y-71897747D02*
X50498341Y-71861461D01*
X50498341Y-71861461D02*
X50679770Y-71861461D01*
X50679770Y-71861461D02*
X50788627Y-71897747D01*
X51260341Y-71861461D02*
X51405484Y-71861461D01*
X51405484Y-71861461D02*
X51478055Y-71897747D01*
X51478055Y-71897747D02*
X51550627Y-71970318D01*
X51550627Y-71970318D02*
X51586912Y-72115461D01*
X51586912Y-72115461D02*
X51586912Y-72369461D01*
X51586912Y-72369461D02*
X51550627Y-72514604D01*
X51550627Y-72514604D02*
X51478055Y-72587176D01*
X51478055Y-72587176D02*
X51405484Y-72623461D01*
X51405484Y-72623461D02*
X51260341Y-72623461D01*
X51260341Y-72623461D02*
X51187770Y-72587176D01*
X51187770Y-72587176D02*
X51115198Y-72514604D01*
X51115198Y-72514604D02*
X51078912Y-72369461D01*
X51078912Y-72369461D02*
X51078912Y-72115461D01*
X51078912Y-72115461D02*
X51115198Y-71970318D01*
X51115198Y-71970318D02*
X51187770Y-71897747D01*
X51187770Y-71897747D02*
X51260341Y-71861461D01*
X49554913Y-69357747D02*
X49482342Y-69321461D01*
X49482342Y-69321461D02*
X49373484Y-69321461D01*
X49373484Y-69321461D02*
X49264627Y-69357747D01*
X49264627Y-69357747D02*
X49192056Y-69430318D01*
X49192056Y-69430318D02*
X49155770Y-69502890D01*
X49155770Y-69502890D02*
X49119484Y-69648033D01*
X49119484Y-69648033D02*
X49119484Y-69756890D01*
X49119484Y-69756890D02*
X49155770Y-69902033D01*
X49155770Y-69902033D02*
X49192056Y-69974604D01*
X49192056Y-69974604D02*
X49264627Y-70047176D01*
X49264627Y-70047176D02*
X49373484Y-70083461D01*
X49373484Y-70083461D02*
X49446056Y-70083461D01*
X49446056Y-70083461D02*
X49554913Y-70047176D01*
X49554913Y-70047176D02*
X49591199Y-70010890D01*
X49591199Y-70010890D02*
X49591199Y-69756890D01*
X49591199Y-69756890D02*
X49446056Y-69756890D01*
X49917770Y-70083461D02*
X49917770Y-69321461D01*
X49917770Y-69321461D02*
X50353199Y-70083461D01*
X50353199Y-70083461D02*
X50353199Y-69321461D01*
X50716056Y-70083461D02*
X50716056Y-69321461D01*
X50716056Y-69321461D02*
X50897485Y-69321461D01*
X50897485Y-69321461D02*
X51006342Y-69357747D01*
X51006342Y-69357747D02*
X51078913Y-69430318D01*
X51078913Y-69430318D02*
X51115199Y-69502890D01*
X51115199Y-69502890D02*
X51151485Y-69648033D01*
X51151485Y-69648033D02*
X51151485Y-69756890D01*
X51151485Y-69756890D02*
X51115199Y-69902033D01*
X51115199Y-69902033D02*
X51078913Y-69974604D01*
X51078913Y-69974604D02*
X51006342Y-70047176D01*
X51006342Y-70047176D02*
X50897485Y-70083461D01*
X50897485Y-70083461D02*
X50716056Y-70083461D01*
D10*
X77286666Y-24854819D02*
X77286666Y-25569104D01*
X77286666Y-25569104D02*
X77239047Y-25711961D01*
X77239047Y-25711961D02*
X77143809Y-25807200D01*
X77143809Y-25807200D02*
X77000952Y-25854819D01*
X77000952Y-25854819D02*
X76905714Y-25854819D01*
X77762857Y-25854819D02*
X77762857Y-24854819D01*
X77762857Y-24854819D02*
X78143809Y-24854819D01*
X78143809Y-24854819D02*
X78239047Y-24902438D01*
X78239047Y-24902438D02*
X78286666Y-24950057D01*
X78286666Y-24950057D02*
X78334285Y-25045295D01*
X78334285Y-25045295D02*
X78334285Y-25188152D01*
X78334285Y-25188152D02*
X78286666Y-25283390D01*
X78286666Y-25283390D02*
X78239047Y-25331009D01*
X78239047Y-25331009D02*
X78143809Y-25378628D01*
X78143809Y-25378628D02*
X77762857Y-25378628D01*
X79239047Y-24854819D02*
X78762857Y-24854819D01*
X78762857Y-24854819D02*
X78715238Y-25331009D01*
X78715238Y-25331009D02*
X78762857Y-25283390D01*
X78762857Y-25283390D02*
X78858095Y-25235771D01*
X78858095Y-25235771D02*
X79096190Y-25235771D01*
X79096190Y-25235771D02*
X79191428Y-25283390D01*
X79191428Y-25283390D02*
X79239047Y-25331009D01*
X79239047Y-25331009D02*
X79286666Y-25426247D01*
X79286666Y-25426247D02*
X79286666Y-25664342D01*
X79286666Y-25664342D02*
X79239047Y-25759580D01*
X79239047Y-25759580D02*
X79191428Y-25807200D01*
X79191428Y-25807200D02*
X79096190Y-25854819D01*
X79096190Y-25854819D02*
X78858095Y-25854819D01*
X78858095Y-25854819D02*
X78762857Y-25807200D01*
X78762857Y-25807200D02*
X78715238Y-25759580D01*
X78093333Y-57399580D02*
X78045714Y-57447200D01*
X78045714Y-57447200D02*
X77902857Y-57494819D01*
X77902857Y-57494819D02*
X77807619Y-57494819D01*
X77807619Y-57494819D02*
X77664762Y-57447200D01*
X77664762Y-57447200D02*
X77569524Y-57351961D01*
X77569524Y-57351961D02*
X77521905Y-57256723D01*
X77521905Y-57256723D02*
X77474286Y-57066247D01*
X77474286Y-57066247D02*
X77474286Y-56923390D01*
X77474286Y-56923390D02*
X77521905Y-56732914D01*
X77521905Y-56732914D02*
X77569524Y-56637676D01*
X77569524Y-56637676D02*
X77664762Y-56542438D01*
X77664762Y-56542438D02*
X77807619Y-56494819D01*
X77807619Y-56494819D02*
X77902857Y-56494819D01*
X77902857Y-56494819D02*
X78045714Y-56542438D01*
X78045714Y-56542438D02*
X78093333Y-56590057D01*
X78426667Y-56494819D02*
X79045714Y-56494819D01*
X79045714Y-56494819D02*
X78712381Y-56875771D01*
X78712381Y-56875771D02*
X78855238Y-56875771D01*
X78855238Y-56875771D02*
X78950476Y-56923390D01*
X78950476Y-56923390D02*
X78998095Y-56971009D01*
X78998095Y-56971009D02*
X79045714Y-57066247D01*
X79045714Y-57066247D02*
X79045714Y-57304342D01*
X79045714Y-57304342D02*
X78998095Y-57399580D01*
X78998095Y-57399580D02*
X78950476Y-57447200D01*
X78950476Y-57447200D02*
X78855238Y-57494819D01*
X78855238Y-57494819D02*
X78569524Y-57494819D01*
X78569524Y-57494819D02*
X78474286Y-57447200D01*
X78474286Y-57447200D02*
X78426667Y-57399580D01*
D12*
X82388091Y-46748635D02*
X82037859Y-46993798D01*
X82388091Y-47168914D02*
X81652604Y-47168914D01*
X81652604Y-47168914D02*
X81652604Y-46888728D01*
X81652604Y-46888728D02*
X81687627Y-46818682D01*
X81687627Y-46818682D02*
X81722650Y-46783658D01*
X81722650Y-46783658D02*
X81792696Y-46748635D01*
X81792696Y-46748635D02*
X81897766Y-46748635D01*
X81897766Y-46748635D02*
X81967812Y-46783658D01*
X81967812Y-46783658D02*
X82002836Y-46818682D01*
X82002836Y-46818682D02*
X82037859Y-46888728D01*
X82037859Y-46888728D02*
X82037859Y-47168914D01*
X82388091Y-46433427D02*
X81652604Y-46433427D01*
X81652604Y-46433427D02*
X82388091Y-46013148D01*
X82388091Y-46013148D02*
X81652604Y-46013148D01*
X82388091Y-45277661D02*
X82388091Y-45697940D01*
X82388091Y-45487801D02*
X81652604Y-45487801D01*
X81652604Y-45487801D02*
X81757673Y-45557847D01*
X81757673Y-45557847D02*
X81827720Y-45627893D01*
X81827720Y-45627893D02*
X81862743Y-45697940D01*
D10*
X58253333Y-85187319D02*
X57920000Y-84711128D01*
X57681905Y-85187319D02*
X57681905Y-84187319D01*
X57681905Y-84187319D02*
X58062857Y-84187319D01*
X58062857Y-84187319D02*
X58158095Y-84234938D01*
X58158095Y-84234938D02*
X58205714Y-84282557D01*
X58205714Y-84282557D02*
X58253333Y-84377795D01*
X58253333Y-84377795D02*
X58253333Y-84520652D01*
X58253333Y-84520652D02*
X58205714Y-84615890D01*
X58205714Y-84615890D02*
X58158095Y-84663509D01*
X58158095Y-84663509D02*
X58062857Y-84711128D01*
X58062857Y-84711128D02*
X57681905Y-84711128D01*
X59110476Y-84520652D02*
X59110476Y-85187319D01*
X58872381Y-84139700D02*
X58634286Y-84853985D01*
X58634286Y-84853985D02*
X59253333Y-84853985D01*
X62214819Y-54823333D02*
X62929104Y-54823333D01*
X62929104Y-54823333D02*
X63071961Y-54870952D01*
X63071961Y-54870952D02*
X63167200Y-54966190D01*
X63167200Y-54966190D02*
X63214819Y-55109047D01*
X63214819Y-55109047D02*
X63214819Y-55204285D01*
X63214819Y-54347142D02*
X62214819Y-54347142D01*
X62214819Y-54347142D02*
X62214819Y-53966190D01*
X62214819Y-53966190D02*
X62262438Y-53870952D01*
X62262438Y-53870952D02*
X62310057Y-53823333D01*
X62310057Y-53823333D02*
X62405295Y-53775714D01*
X62405295Y-53775714D02*
X62548152Y-53775714D01*
X62548152Y-53775714D02*
X62643390Y-53823333D01*
X62643390Y-53823333D02*
X62691009Y-53870952D01*
X62691009Y-53870952D02*
X62738628Y-53966190D01*
X62738628Y-53966190D02*
X62738628Y-54347142D01*
X63214819Y-53299523D02*
X63214819Y-53109047D01*
X63214819Y-53109047D02*
X63167200Y-53013809D01*
X63167200Y-53013809D02*
X63119580Y-52966190D01*
X63119580Y-52966190D02*
X62976723Y-52870952D01*
X62976723Y-52870952D02*
X62786247Y-52823333D01*
X62786247Y-52823333D02*
X62405295Y-52823333D01*
X62405295Y-52823333D02*
X62310057Y-52870952D01*
X62310057Y-52870952D02*
X62262438Y-52918571D01*
X62262438Y-52918571D02*
X62214819Y-53013809D01*
X62214819Y-53013809D02*
X62214819Y-53204285D01*
X62214819Y-53204285D02*
X62262438Y-53299523D01*
X62262438Y-53299523D02*
X62310057Y-53347142D01*
X62310057Y-53347142D02*
X62405295Y-53394761D01*
X62405295Y-53394761D02*
X62643390Y-53394761D01*
X62643390Y-53394761D02*
X62738628Y-53347142D01*
X62738628Y-53347142D02*
X62786247Y-53299523D01*
X62786247Y-53299523D02*
X62833866Y-53204285D01*
X62833866Y-53204285D02*
X62833866Y-53013809D01*
X62833866Y-53013809D02*
X62786247Y-52918571D01*
X62786247Y-52918571D02*
X62738628Y-52870952D01*
X62738628Y-52870952D02*
X62643390Y-52823333D01*
X90793333Y-53809580D02*
X90745714Y-53857200D01*
X90745714Y-53857200D02*
X90602857Y-53904819D01*
X90602857Y-53904819D02*
X90507619Y-53904819D01*
X90507619Y-53904819D02*
X90364762Y-53857200D01*
X90364762Y-53857200D02*
X90269524Y-53761961D01*
X90269524Y-53761961D02*
X90221905Y-53666723D01*
X90221905Y-53666723D02*
X90174286Y-53476247D01*
X90174286Y-53476247D02*
X90174286Y-53333390D01*
X90174286Y-53333390D02*
X90221905Y-53142914D01*
X90221905Y-53142914D02*
X90269524Y-53047676D01*
X90269524Y-53047676D02*
X90364762Y-52952438D01*
X90364762Y-52952438D02*
X90507619Y-52904819D01*
X90507619Y-52904819D02*
X90602857Y-52904819D01*
X90602857Y-52904819D02*
X90745714Y-52952438D01*
X90745714Y-52952438D02*
X90793333Y-53000057D01*
X91698095Y-52904819D02*
X91221905Y-52904819D01*
X91221905Y-52904819D02*
X91174286Y-53381009D01*
X91174286Y-53381009D02*
X91221905Y-53333390D01*
X91221905Y-53333390D02*
X91317143Y-53285771D01*
X91317143Y-53285771D02*
X91555238Y-53285771D01*
X91555238Y-53285771D02*
X91650476Y-53333390D01*
X91650476Y-53333390D02*
X91698095Y-53381009D01*
X91698095Y-53381009D02*
X91745714Y-53476247D01*
X91745714Y-53476247D02*
X91745714Y-53714342D01*
X91745714Y-53714342D02*
X91698095Y-53809580D01*
X91698095Y-53809580D02*
X91650476Y-53857200D01*
X91650476Y-53857200D02*
X91555238Y-53904819D01*
X91555238Y-53904819D02*
X91317143Y-53904819D01*
X91317143Y-53904819D02*
X91221905Y-53857200D01*
X91221905Y-53857200D02*
X91174286Y-53809580D01*
D14*
X54315000Y-76040000D02*
X54315000Y-77960000D01*
X54315000Y-77960000D02*
X57000000Y-77960000D01*
X57000000Y-76040000D02*
X54315000Y-76040000D01*
X64467500Y-70195000D02*
X63817500Y-70195000D01*
X64467500Y-70195000D02*
X65117500Y-70195000D01*
X64467500Y-73315000D02*
X63817500Y-73315000D01*
X64467500Y-73315000D02*
X65117500Y-73315000D01*
X63305000Y-70245000D02*
X63065000Y-69915000D01*
X63545000Y-69915000D01*
X63305000Y-70245000D01*
G36*
X63305000Y-70245000D02*
G01*
X63065000Y-69915000D01*
X63545000Y-69915000D01*
X63305000Y-70245000D01*
G37*
X78367836Y-52980000D02*
X78152164Y-52980000D01*
X78367836Y-53700000D02*
X78152164Y-53700000D01*
X54942500Y-80670000D02*
X54292500Y-80670000D01*
X54942500Y-80670000D02*
X55592500Y-80670000D01*
X54942500Y-83790000D02*
X54292500Y-83790000D01*
X54942500Y-83790000D02*
X55592500Y-83790000D01*
X53780000Y-80720000D02*
X53540000Y-80390000D01*
X54020000Y-80390000D01*
X53780000Y-80720000D01*
G36*
X53780000Y-80720000D02*
G01*
X53540000Y-80390000D01*
X54020000Y-80390000D01*
X53780000Y-80720000D01*
G37*
X76690000Y-37130000D02*
X76690000Y-36530000D01*
X77390000Y-35830000D02*
X78790000Y-35830000D01*
X78790000Y-37830000D02*
X77390000Y-37830000D01*
X79490000Y-36530000D02*
X79490000Y-37130000D01*
X76690000Y-36530000D02*
G75*
G02*
X77390000Y-35830000I700000J0D01*
G01*
X77390000Y-37830000D02*
G75*
G02*
X76690000Y-37130000I0J700000D01*
G01*
X78790000Y-35830000D02*
G75*
G02*
X79490000Y-36530000I1J-699999D01*
G01*
X79490000Y-37130000D02*
G75*
G02*
X78790000Y-37830000I-699999J-1D01*
G01*
X35195000Y-54660000D02*
X35195000Y-53260000D01*
X35895000Y-52560000D02*
X36495000Y-52560000D01*
X36495000Y-55360000D02*
X35895000Y-55360000D01*
X37195000Y-53260000D02*
X37195000Y-54660000D01*
X35195000Y-53260000D02*
G75*
G02*
X35895000Y-52560000I699999J1D01*
G01*
X35895000Y-55360000D02*
G75*
G02*
X35195000Y-54660000I0J700000D01*
G01*
X36495000Y-52560000D02*
G75*
G02*
X37195000Y-53260000I1J-699999D01*
G01*
X37195000Y-54660000D02*
G75*
G02*
X36495000Y-55360000I-700000J0D01*
G01*
X60580000Y-71601359D02*
X60580000Y-71908641D01*
X61340000Y-71601359D02*
X61340000Y-71908641D01*
X90852164Y-56790000D02*
X91067836Y-56790000D01*
X90852164Y-57510000D02*
X91067836Y-57510000D01*
D11*
X85852000Y-62611000D02*
X69088000Y-62611000D01*
X69088000Y-84709000D01*
X85852000Y-84709000D01*
X85852000Y-62611000D01*
D14*
X90852164Y-33930000D02*
X91067836Y-33930000D01*
X90852164Y-34650000D02*
X91067836Y-34650000D01*
X44085000Y-54660000D02*
X44085000Y-53260000D01*
X44785000Y-52560000D02*
X45385000Y-52560000D01*
X45385000Y-55360000D02*
X44785000Y-55360000D01*
X46085000Y-53260000D02*
X46085000Y-54660000D01*
X44085000Y-53260000D02*
G75*
G02*
X44785000Y-52560000I699999J1D01*
G01*
X44785000Y-55360000D02*
G75*
G02*
X44085000Y-54660000I0J700000D01*
G01*
X45385000Y-52560000D02*
G75*
G02*
X46085000Y-53260000I1J-699999D01*
G01*
X46085000Y-54660000D02*
G75*
G02*
X45385000Y-55360000I-700000J0D01*
G01*
X76720000Y-33320000D02*
X76720000Y-32720000D01*
X77420000Y-32020000D02*
X78820000Y-32020000D01*
X78820000Y-34020000D02*
X77420000Y-34020000D01*
X79520000Y-32720000D02*
X79520000Y-33320000D01*
X76720000Y-32720000D02*
G75*
G02*
X77420000Y-32020000I699999J1D01*
G01*
X77420000Y-34020000D02*
G75*
G02*
X76720000Y-33320000I-1J699999D01*
G01*
X78820000Y-32020000D02*
G75*
G02*
X79520000Y-32720000I0J-700000D01*
G01*
X79520000Y-33320000D02*
G75*
G02*
X78820000Y-34020000I-700000J0D01*
G01*
X71390000Y-54660000D02*
X71390000Y-53260000D01*
X72090000Y-52560000D02*
X72690000Y-52560000D01*
X72690000Y-55360000D02*
X72090000Y-55360000D01*
X73390000Y-53260000D02*
X73390000Y-54660000D01*
X71390000Y-53260000D02*
G75*
G02*
X72090000Y-52560000I700000J0D01*
G01*
X72090000Y-55360000D02*
G75*
G02*
X71390000Y-54660000I-1J699999D01*
G01*
X72690000Y-52560000D02*
G75*
G02*
X73390000Y-53260000I0J-700000D01*
G01*
X73390000Y-54660000D02*
G75*
G02*
X72690000Y-55360000I-699999J-1D01*
G01*
X90852164Y-51710000D02*
X91067836Y-51710000D01*
X90852164Y-52430000D02*
X91067836Y-52430000D01*
X90852164Y-36470000D02*
X91067836Y-36470000D01*
X90852164Y-37190000D02*
X91067836Y-37190000D01*
X92316000Y-63380000D02*
X92316000Y-62980000D01*
X92956000Y-63380000D02*
X92316000Y-63380000D01*
X93286000Y-43380000D02*
X93286000Y-63380000D01*
X93656000Y-43380000D02*
X93656000Y-63380000D01*
X95096000Y-43380000D02*
X95096000Y-63380000D01*
X96102000Y-50133000D02*
X95722000Y-49753000D01*
X96102000Y-55133000D02*
X95722000Y-54753000D01*
X96102000Y-59770000D02*
X95836000Y-59480000D01*
X96156000Y-45070000D02*
X95776000Y-44690000D01*
X96384000Y-49882000D02*
X95988000Y-49487000D01*
X96384000Y-54882000D02*
X95988000Y-54487000D01*
X96404000Y-44747500D02*
X96008000Y-44352500D01*
X96482000Y-59425000D02*
X96186000Y-59130000D01*
X98690000Y-52757000D02*
X98362000Y-52403000D01*
X98722000Y-57755000D02*
X98326000Y-57360000D01*
X98774000Y-47627500D02*
X98378000Y-47232500D01*
X98886000Y-62580000D02*
X98588000Y-62282500D01*
X98966000Y-52430000D02*
X98586000Y-52050000D01*
X99016000Y-57520000D02*
X98636000Y-57140000D01*
X99026000Y-47390000D02*
X98646000Y-47010000D01*
X99236000Y-62180000D02*
X98946000Y-61890000D01*
X101786000Y-43380000D02*
X93286000Y-43380000D01*
X101786000Y-43380000D02*
X101786000Y-63380000D01*
X101786000Y-63380000D02*
X93286000Y-63380000D01*
X99716000Y-45880000D02*
G75*
G02*
X95356000Y-45880000I-2180000J0D01*
G01*
X95356000Y-45880000D02*
G75*
G02*
X99716000Y-45880000I2180000J0D01*
G01*
X99716000Y-50880000D02*
G75*
G02*
X95356000Y-50880000I-2180000J0D01*
G01*
X95356000Y-50880000D02*
G75*
G02*
X99716000Y-50880000I2180000J0D01*
G01*
X99716000Y-55880000D02*
G75*
G02*
X95356000Y-55880000I-2180000J0D01*
G01*
X95356000Y-55880000D02*
G75*
G02*
X99716000Y-55880000I2180000J0D01*
G01*
X99716000Y-60880000D02*
G75*
G02*
X95356000Y-60880000I-2180000J0D01*
G01*
X95356000Y-60880000D02*
G75*
G02*
X99716000Y-60880000I2180000J0D01*
G01*
X85090000Y-28585000D02*
X83140000Y-28585000D01*
X85090000Y-28585000D02*
X87040000Y-28585000D01*
X85090000Y-37455000D02*
X83140000Y-37455000D01*
X85090000Y-37455000D02*
X87040000Y-37455000D01*
X88030000Y-37720000D02*
X87550000Y-37720000D01*
X87790000Y-37390000D01*
X88030000Y-37720000D01*
G36*
X88030000Y-37720000D02*
G01*
X87550000Y-37720000D01*
X87790000Y-37390000D01*
X88030000Y-37720000D01*
G37*
X58040000Y-71601359D02*
X58040000Y-71908641D01*
X58800000Y-71601359D02*
X58800000Y-71908641D01*
X72746359Y-58040000D02*
X73053641Y-58040000D01*
X72746359Y-58800000D02*
X73053641Y-58800000D01*
X49800000Y-54660000D02*
X49800000Y-53260000D01*
X50500000Y-52560000D02*
X51100000Y-52560000D01*
X51100000Y-55360000D02*
X50500000Y-55360000D01*
X51800000Y-53260000D02*
X51800000Y-54660000D01*
X49800000Y-53260000D02*
G75*
G02*
X50500000Y-52560000I699999J1D01*
G01*
X50500000Y-55360000D02*
G75*
G02*
X49800000Y-54660000I0J700000D01*
G01*
X51100000Y-52560000D02*
G75*
G02*
X51800000Y-53260000I1J-699999D01*
G01*
X51800000Y-54660000D02*
G75*
G02*
X51100000Y-55360000I-700000J0D01*
G01*
X64770000Y-80670000D02*
X64120000Y-80670000D01*
X64770000Y-80670000D02*
X65420000Y-80670000D01*
X64770000Y-83790000D02*
X64120000Y-83790000D01*
X64770000Y-83790000D02*
X65420000Y-83790000D01*
X63607500Y-80720000D02*
X63367500Y-80390000D01*
X63847500Y-80390000D01*
X63607500Y-80720000D01*
G36*
X63607500Y-80720000D02*
G01*
X63367500Y-80390000D01*
X63847500Y-80390000D01*
X63607500Y-80720000D01*
G37*
X85155000Y-50175000D02*
X83205000Y-50175000D01*
X85155000Y-50175000D02*
X87105000Y-50175000D01*
X85155000Y-59045000D02*
X83205000Y-59045000D01*
X85155000Y-59045000D02*
X87105000Y-59045000D01*
X82455000Y-50240000D02*
X82215000Y-49910000D01*
X82695000Y-49910000D01*
X82455000Y-50240000D01*
G36*
X82455000Y-50240000D02*
G01*
X82215000Y-49910000D01*
X82695000Y-49910000D01*
X82455000Y-50240000D01*
G37*
X60545000Y-76040000D02*
X60545000Y-77960000D01*
X60545000Y-77960000D02*
X63230000Y-77960000D01*
X63230000Y-76040000D02*
X60545000Y-76040000D01*
D15*
X86460000Y-40005000D02*
G75*
G02*
X86260000Y-40005000I-100000J0D01*
G01*
X86260000Y-40005000D02*
G75*
G02*
X86460000Y-40005000I100000J0D01*
G01*
D14*
X78367836Y-50440000D02*
X78152164Y-50440000D01*
X78367836Y-51160000D02*
X78152164Y-51160000D01*
X92316000Y-43140000D02*
X92316000Y-42740000D01*
X92956000Y-43140000D02*
X92316000Y-43140000D01*
X93286000Y-23140000D02*
X93286000Y-43140000D01*
X93656000Y-23140000D02*
X93656000Y-43140000D01*
X95096000Y-23140000D02*
X95096000Y-43140000D01*
X96102000Y-29893000D02*
X95722000Y-29513000D01*
X96102000Y-34893000D02*
X95722000Y-34513000D01*
X96102000Y-39530000D02*
X95836000Y-39240000D01*
X96156000Y-24830000D02*
X95776000Y-24450000D01*
X96384000Y-29642000D02*
X95988000Y-29247000D01*
X96384000Y-34642000D02*
X95988000Y-34247000D01*
X96404000Y-24507500D02*
X96008000Y-24112500D01*
X96482000Y-39185000D02*
X96186000Y-38890000D01*
X98690000Y-32517000D02*
X98362000Y-32163000D01*
X98722000Y-37515000D02*
X98326000Y-37120000D01*
X98774000Y-27387500D02*
X98378000Y-26992500D01*
X98886000Y-42340000D02*
X98588000Y-42042500D01*
X98966000Y-32190000D02*
X98586000Y-31810000D01*
X99016000Y-37280000D02*
X98636000Y-36900000D01*
X99026000Y-27150000D02*
X98646000Y-26770000D01*
X99236000Y-41940000D02*
X98946000Y-41650000D01*
X101786000Y-23140000D02*
X93286000Y-23140000D01*
X101786000Y-23140000D02*
X101786000Y-43140000D01*
X101786000Y-43140000D02*
X93286000Y-43140000D01*
X99716000Y-25640000D02*
G75*
G02*
X95356000Y-25640000I-2180000J0D01*
G01*
X95356000Y-25640000D02*
G75*
G02*
X99716000Y-25640000I2180000J0D01*
G01*
X99716000Y-30640000D02*
G75*
G02*
X95356000Y-30640000I-2180000J0D01*
G01*
X95356000Y-30640000D02*
G75*
G02*
X99716000Y-30640000I2180000J0D01*
G01*
X99716000Y-35640000D02*
G75*
G02*
X95356000Y-35640000I-2180000J0D01*
G01*
X95356000Y-35640000D02*
G75*
G02*
X99716000Y-35640000I2180000J0D01*
G01*
X99716000Y-40640000D02*
G75*
G02*
X95356000Y-40640000I-2180000J0D01*
G01*
X95356000Y-40640000D02*
G75*
G02*
X99716000Y-40640000I2180000J0D01*
G01*
X64405000Y-54660000D02*
X64405000Y-53260000D01*
X65105000Y-52560000D02*
X65705000Y-52560000D01*
X65705000Y-55360000D02*
X65105000Y-55360000D01*
X66405000Y-53260000D02*
X66405000Y-54660000D01*
X64405000Y-53260000D02*
G75*
G02*
X65105000Y-52560000I699999J1D01*
G01*
X65105000Y-55360000D02*
G75*
G02*
X64405000Y-54660000I0J700000D01*
G01*
X65705000Y-52560000D02*
G75*
G02*
X66405000Y-53260000I1J-699999D01*
G01*
X66405000Y-54660000D02*
G75*
G02*
X65705000Y-55360000I-700000J0D01*
G01*
X92316000Y-83780000D02*
X92316000Y-83380000D01*
X92956000Y-83780000D02*
X92316000Y-83780000D01*
X93286000Y-63780000D02*
X93286000Y-83780000D01*
X93656000Y-63780000D02*
X93656000Y-83780000D01*
X95096000Y-63780000D02*
X95096000Y-83780000D01*
X96102000Y-70533000D02*
X95722000Y-70153000D01*
X96102000Y-75533000D02*
X95722000Y-75153000D01*
X96102000Y-80170000D02*
X95836000Y-79880000D01*
X96156000Y-65470000D02*
X95776000Y-65090000D01*
X96384000Y-70282000D02*
X95988000Y-69887000D01*
X96384000Y-75282000D02*
X95988000Y-74887000D01*
X96404000Y-65147500D02*
X96008000Y-64752500D01*
X96482000Y-79825000D02*
X96186000Y-79530000D01*
X98690000Y-73157000D02*
X98362000Y-72803000D01*
X98722000Y-78155000D02*
X98326000Y-77760000D01*
X98774000Y-68027500D02*
X98378000Y-67632500D01*
X98886000Y-82980000D02*
X98588000Y-82682500D01*
X98966000Y-72830000D02*
X98586000Y-72450000D01*
X99016000Y-77920000D02*
X98636000Y-77540000D01*
X99026000Y-67790000D02*
X98646000Y-67410000D01*
X99236000Y-82580000D02*
X98946000Y-82290000D01*
X101786000Y-63780000D02*
X93286000Y-63780000D01*
X101786000Y-63780000D02*
X101786000Y-83780000D01*
X101786000Y-83780000D02*
X93286000Y-83780000D01*
X99716000Y-66280000D02*
G75*
G02*
X95356000Y-66280000I-2180000J0D01*
G01*
X95356000Y-66280000D02*
G75*
G02*
X99716000Y-66280000I2180000J0D01*
G01*
X99716000Y-71280000D02*
G75*
G02*
X95356000Y-71280000I-2180000J0D01*
G01*
X95356000Y-71280000D02*
G75*
G02*
X99716000Y-71280000I2180000J0D01*
G01*
X99716000Y-76280000D02*
G75*
G02*
X95356000Y-76280000I-2180000J0D01*
G01*
X95356000Y-76280000D02*
G75*
G02*
X99716000Y-76280000I2180000J0D01*
G01*
X99716000Y-81280000D02*
G75*
G02*
X95356000Y-81280000I-2180000J0D01*
G01*
X95356000Y-81280000D02*
G75*
G02*
X99716000Y-81280000I2180000J0D01*
G01*
X76720000Y-42210000D02*
X76720000Y-41610000D01*
X77420000Y-40910000D02*
X78820000Y-40910000D01*
X78820000Y-42910000D02*
X77420000Y-42910000D01*
X79520000Y-41610000D02*
X79520000Y-42210000D01*
X76720000Y-41610000D02*
G75*
G02*
X77420000Y-40910000I699999J1D01*
G01*
X77420000Y-42910000D02*
G75*
G02*
X76720000Y-42210000I-1J699999D01*
G01*
X78820000Y-40910000D02*
G75*
G02*
X79520000Y-41610000I0J-700000D01*
G01*
X79520000Y-42210000D02*
G75*
G02*
X78820000Y-42910000I-700000J0D01*
G01*
X88520000Y-73960000D02*
X88520000Y-79470000D01*
X91820000Y-73960000D02*
X88520000Y-73960000D01*
X91820000Y-73960000D02*
X91820000Y-79470000D01*
X54245000Y-54660000D02*
X54245000Y-53260000D01*
X54945000Y-52560000D02*
X55545000Y-52560000D01*
X55545000Y-55360000D02*
X54945000Y-55360000D01*
X56245000Y-53260000D02*
X56245000Y-54660000D01*
X54245000Y-53260000D02*
G75*
G02*
X54945000Y-52560000I699999J1D01*
G01*
X54945000Y-55360000D02*
G75*
G02*
X54245000Y-54660000I0J700000D01*
G01*
X55545000Y-52560000D02*
G75*
G02*
X56245000Y-53260000I1J-699999D01*
G01*
X56245000Y-54660000D02*
G75*
G02*
X55545000Y-55360000I-700000J0D01*
G01*
X39640000Y-54660000D02*
X39640000Y-53260000D01*
X40340000Y-52560000D02*
X40940000Y-52560000D01*
X40940000Y-55360000D02*
X40340000Y-55360000D01*
X41640000Y-53260000D02*
X41640000Y-54660000D01*
X39640000Y-53260000D02*
G75*
G02*
X40340000Y-52560000I699999J1D01*
G01*
X40340000Y-55360000D02*
G75*
G02*
X39640000Y-54660000I0J700000D01*
G01*
X40940000Y-52560000D02*
G75*
G02*
X41640000Y-53260000I1J-699999D01*
G01*
X41640000Y-54660000D02*
G75*
G02*
X40940000Y-55360000I-700000J0D01*
G01*
X22485000Y-24195000D02*
X22485000Y-48195000D01*
X23185000Y-27305000D02*
X26995000Y-27305000D01*
X23185000Y-29845000D02*
X23185000Y-27305000D01*
X23185000Y-42545000D02*
X26995000Y-42545000D01*
X23185000Y-45085000D02*
X23185000Y-42545000D01*
X24485000Y-50195000D02*
X71985000Y-50195000D01*
X26995000Y-27305000D02*
X26995000Y-29845000D01*
X26995000Y-29845000D02*
X23185000Y-29845000D01*
X26995000Y-42545000D02*
X26995000Y-45085000D01*
X26995000Y-45085000D02*
X23185000Y-45085000D01*
X28485000Y-32195000D02*
X22485000Y-32195000D01*
X28485000Y-32195000D02*
X28485000Y-40195000D01*
X28485000Y-40195000D02*
X22485000Y-40195000D01*
X48985000Y-28695000D02*
X66985000Y-28695000D01*
X48985000Y-43695000D02*
X48985000Y-28695000D01*
X66985000Y-28695000D02*
X66985000Y-43695000D01*
X66985000Y-43695000D02*
X48985000Y-43695000D01*
X67635000Y-27305000D02*
X72715000Y-27305000D01*
X67635000Y-45085000D02*
X67635000Y-27305000D01*
X68397000Y-28575000D02*
X71953000Y-28575000D01*
X69921000Y-31115000D02*
X69921000Y-33655000D01*
X69921000Y-33655000D02*
X71953000Y-33655000D01*
X69921000Y-36195000D02*
X69921000Y-38735000D01*
X69921000Y-38735000D02*
X71953000Y-38735000D01*
X71953000Y-28575000D02*
X71953000Y-31115000D01*
X71953000Y-31115000D02*
X69921000Y-31115000D01*
X71953000Y-33655000D02*
X71953000Y-36195000D01*
X71953000Y-36195000D02*
X69921000Y-36195000D01*
X71953000Y-38735000D02*
X71953000Y-43815000D01*
X71953000Y-41275000D02*
X68397000Y-41275000D01*
X71953000Y-43815000D02*
X68397000Y-43815000D01*
X71985000Y-22195000D02*
X24485000Y-22195000D01*
X72715000Y-27305000D02*
X72715000Y-45085000D01*
X72715000Y-45085000D02*
X67635000Y-45085000D01*
X73985000Y-24195000D02*
X73985000Y-48195000D01*
X22485000Y-24195000D02*
G75*
G02*
X24485000Y-22195000I1999999J1D01*
G01*
X24485000Y-50195000D02*
G75*
G02*
X22485000Y-48195000I0J2000000D01*
G01*
X71985000Y-22195000D02*
G75*
G02*
X73985000Y-24195000I1J-1999999D01*
G01*
X73985000Y-48195000D02*
G75*
G02*
X71985000Y-50195000I-2000000J0D01*
G01*
X25985000Y-24495000D02*
G75*
G02*
X22985000Y-24495000I-1500000J0D01*
G01*
X22985000Y-24495000D02*
G75*
G02*
X25985000Y-24495000I1500000J0D01*
G01*
X25985000Y-47895000D02*
G75*
G02*
X22985000Y-47895000I-1500000J0D01*
G01*
X22985000Y-47895000D02*
G75*
G02*
X25985000Y-47895000I1500000J0D01*
G01*
D16*
X25390000Y-28575000D02*
G75*
G02*
X24790000Y-28575000I-300000J0D01*
G01*
X24790000Y-28575000D02*
G75*
G02*
X25390000Y-28575000I300000J0D01*
G01*
X25390000Y-43815000D02*
G75*
G02*
X24790000Y-43815000I-300000J0D01*
G01*
X24790000Y-43815000D02*
G75*
G02*
X25390000Y-43815000I300000J0D01*
G01*
D17*
X51525000Y-31115000D02*
G75*
G02*
X50725000Y-31115000I-400000J0D01*
G01*
X50725000Y-31115000D02*
G75*
G02*
X51525000Y-31115000I400000J0D01*
G01*
D14*
X73485000Y-24495000D02*
G75*
G02*
X70485000Y-24495000I-1500000J0D01*
G01*
X70485000Y-24495000D02*
G75*
G02*
X73485000Y-24495000I1500000J0D01*
G01*
X73485000Y-47895000D02*
G75*
G02*
X70485000Y-47895000I-1500000J0D01*
G01*
X70485000Y-47895000D02*
G75*
G02*
X73485000Y-47895000I1500000J0D01*
G01*
X30750000Y-54660000D02*
X30750000Y-53260000D01*
X31450000Y-52560000D02*
X32050000Y-52560000D01*
X32050000Y-55360000D02*
X31450000Y-55360000D01*
X32750000Y-53260000D02*
X32750000Y-54660000D01*
X30750000Y-53260000D02*
G75*
G02*
X31450000Y-52560000I699999J1D01*
G01*
X31450000Y-55360000D02*
G75*
G02*
X30750000Y-54660000I0J700000D01*
G01*
X32050000Y-52560000D02*
G75*
G02*
X32750000Y-53260000I1J-699999D01*
G01*
X32750000Y-54660000D02*
G75*
G02*
X32050000Y-55360000I-700000J0D01*
G01*
X55067500Y-70195000D02*
X54417500Y-70195000D01*
X55067500Y-70195000D02*
X55717500Y-70195000D01*
X55067500Y-73315000D02*
X54417500Y-73315000D01*
X55067500Y-73315000D02*
X55717500Y-73315000D01*
X53905000Y-70245000D02*
X53665000Y-69915000D01*
X54145000Y-69915000D01*
X53905000Y-70245000D01*
G36*
X53905000Y-70245000D02*
G01*
X53665000Y-69915000D01*
X54145000Y-69915000D01*
X53905000Y-70245000D01*
G37*
X60225000Y-81965436D02*
X60225000Y-82419564D01*
X61695000Y-81965436D02*
X61695000Y-82419564D01*
X45545500Y-68520000D02*
X48205500Y-68520000D01*
X45545500Y-81280000D02*
X45545500Y-68520000D01*
X45545500Y-81280000D02*
X48205500Y-81280000D01*
X45545500Y-82550000D02*
X45545500Y-83880000D01*
X45545500Y-83880000D02*
X46875500Y-83880000D01*
X48205500Y-81280000D02*
X48205500Y-68520000D01*
X76720000Y-28240000D02*
X76720000Y-27640000D01*
X77420000Y-26940000D02*
X78820000Y-26940000D01*
X78820000Y-28940000D02*
X77420000Y-28940000D01*
X79520000Y-27640000D02*
X79520000Y-28240000D01*
X76720000Y-27640000D02*
G75*
G02*
X77420000Y-26940000I700000J0D01*
G01*
X77420000Y-28940000D02*
G75*
G02*
X76720000Y-28240000I0J700000D01*
G01*
X78820000Y-26940000D02*
G75*
G02*
X79520000Y-27640000I1J-699999D01*
G01*
X79520000Y-28240000D02*
G75*
G02*
X78820000Y-28940000I-699999J-1D01*
G01*
X78367836Y-55520000D02*
X78152164Y-55520000D01*
X78367836Y-56240000D02*
X78152164Y-56240000D01*
D15*
X83930000Y-48095000D02*
G75*
G02*
X83730000Y-48095000I-100000J0D01*
G01*
X83730000Y-48095000D02*
G75*
G02*
X83930000Y-48095000I100000J0D01*
G01*
D14*
X57685000Y-81965436D02*
X57685000Y-82419564D01*
X59155000Y-81965436D02*
X59155000Y-82419564D01*
X59960000Y-54690000D02*
X59960000Y-53290000D01*
X60660000Y-52590000D02*
X61260000Y-52590000D01*
X61260000Y-55390000D02*
X60660000Y-55390000D01*
X61960000Y-53290000D02*
X61960000Y-54690000D01*
X59960000Y-53290000D02*
G75*
G02*
X60660000Y-52590000I699999J1D01*
G01*
X60660000Y-55390000D02*
G75*
G02*
X59960000Y-54690000I0J700000D01*
G01*
X61260000Y-52590000D02*
G75*
G02*
X61960000Y-53290000I1J-699999D01*
G01*
X61960000Y-54690000D02*
G75*
G02*
X61260000Y-55390000I-700000J0D01*
G01*
X90852164Y-54250000D02*
X91067836Y-54250000D01*
X90852164Y-54970000D02*
X91067836Y-54970000D01*
%LPC*%
D18*
X55062500Y-77000000D03*
X56937500Y-77000000D03*
D19*
X63530000Y-70805000D03*
X63530000Y-72705000D03*
X65405000Y-71755000D03*
D20*
X78740000Y-53340000D03*
X77780000Y-53340000D03*
D19*
X54005000Y-81280000D03*
X54005000Y-83180000D03*
X55880000Y-82230000D03*
D21*
X78740000Y-36830000D03*
D22*
X77440000Y-36830000D03*
D23*
X36195000Y-53310000D03*
D24*
X36195000Y-54610000D03*
D25*
X60960000Y-71245000D03*
X60960000Y-72265000D03*
D26*
X90480000Y-57150000D03*
X91440000Y-57150000D03*
D27*
X84074000Y-82931000D03*
X81534000Y-82931000D03*
X73406000Y-82931000D03*
X70866000Y-82931000D03*
X84074000Y-64389000D03*
X81534000Y-64389000D03*
X73406000Y-64389000D03*
X70866000Y-64389000D03*
D26*
X90480000Y-34290000D03*
X91440000Y-34290000D03*
D23*
X45085000Y-53310000D03*
D24*
X45085000Y-54610000D03*
D28*
X77470000Y-33020000D03*
D29*
X78770000Y-33020000D03*
D30*
X72390000Y-54610000D03*
D31*
X72390000Y-53310000D03*
D26*
X90480000Y-52070000D03*
X91440000Y-52070000D03*
X90480000Y-36830000D03*
X91440000Y-36830000D03*
D32*
X97536000Y-60880000D03*
D33*
X97536000Y-55880000D03*
X97536000Y-50880000D03*
X97536000Y-45880000D03*
D34*
X87565000Y-36830000D03*
X87565000Y-35560000D03*
X87565000Y-34290000D03*
X87565000Y-33020000D03*
X87565000Y-31750000D03*
X87565000Y-30480000D03*
X87565000Y-29210000D03*
X82615000Y-29210000D03*
X82615000Y-30480000D03*
X82615000Y-31750000D03*
X82615000Y-33020000D03*
X82615000Y-34290000D03*
X82615000Y-35560000D03*
X82615000Y-36830000D03*
D25*
X58420000Y-71245000D03*
X58420000Y-72265000D03*
D35*
X72390000Y-58420000D03*
X73410000Y-58420000D03*
D23*
X50800000Y-53310000D03*
D24*
X50800000Y-54610000D03*
D19*
X63832500Y-81280000D03*
X63832500Y-83180000D03*
X65707500Y-82230000D03*
D36*
X82680000Y-50800000D03*
X82680000Y-52070000D03*
X82680000Y-53340000D03*
X82680000Y-54610000D03*
X82680000Y-55880000D03*
X82680000Y-57150000D03*
X82680000Y-58420000D03*
X87630000Y-58420000D03*
X87630000Y-57150000D03*
X87630000Y-55880000D03*
X87630000Y-54610000D03*
X87630000Y-53340000D03*
X87630000Y-52070000D03*
X87630000Y-50800000D03*
D18*
X61292500Y-77000000D03*
X63167500Y-77000000D03*
D37*
X86370000Y-41110000D03*
D38*
X85490000Y-41110000D03*
X84690000Y-41110000D03*
D37*
X83810000Y-41110000D03*
X83810000Y-42710000D03*
D38*
X84690000Y-42710000D03*
X85490000Y-42710000D03*
D37*
X86370000Y-42710000D03*
D20*
X78740000Y-50800000D03*
X77780000Y-50800000D03*
D32*
X97536000Y-40640000D03*
D33*
X97536000Y-35640000D03*
X97536000Y-30640000D03*
X97536000Y-25640000D03*
D23*
X65405000Y-53310000D03*
D24*
X65405000Y-54610000D03*
D32*
X97536000Y-81280000D03*
D33*
X97536000Y-76280000D03*
X97536000Y-71280000D03*
X97536000Y-66280000D03*
D28*
X77470000Y-41910000D03*
D29*
X78770000Y-41910000D03*
D39*
X90170000Y-75470000D03*
X90170000Y-79470000D03*
D23*
X55245000Y-53310000D03*
D24*
X55245000Y-54610000D03*
D23*
X40640000Y-53310000D03*
D24*
X40640000Y-54610000D03*
D40*
X67945000Y-23495000D03*
D41*
X65405000Y-23495000D03*
X62865000Y-23495000D03*
X60325000Y-23495000D03*
X57785000Y-23495000D03*
X55245000Y-23495000D03*
X52705000Y-23495000D03*
X50165000Y-23495000D03*
X47625000Y-23495000D03*
X45085000Y-23495000D03*
X42545000Y-23495000D03*
X40005000Y-23495000D03*
X37465000Y-23495000D03*
X34925000Y-23495000D03*
X32385000Y-23495000D03*
X32385000Y-48895000D03*
X34925000Y-48895000D03*
X37465000Y-48895000D03*
X40005000Y-48895000D03*
X42545000Y-48895000D03*
X45085000Y-48895000D03*
X47625000Y-48895000D03*
X50165000Y-48895000D03*
X52705000Y-48895000D03*
X55245000Y-48895000D03*
X57785000Y-48895000D03*
X60325000Y-48895000D03*
X62865000Y-48895000D03*
X65405000Y-48895000D03*
X67945000Y-48895000D03*
D23*
X31750000Y-53310000D03*
D24*
X31750000Y-54610000D03*
D19*
X54130000Y-70805000D03*
X54130000Y-72705000D03*
X56005000Y-71755000D03*
D42*
X60960000Y-81280000D03*
X60960000Y-83105000D03*
D43*
X46875500Y-82550000D03*
D44*
X46875500Y-80010000D03*
X46875500Y-77470000D03*
X46875500Y-74930000D03*
X46875500Y-72390000D03*
X46875500Y-69850000D03*
D21*
X78770000Y-27940000D03*
D22*
X77470000Y-27940000D03*
D20*
X78740000Y-55880000D03*
X77780000Y-55880000D03*
D45*
X83820000Y-46990000D03*
D46*
X84700000Y-46990000D03*
X85500000Y-46990000D03*
D45*
X86380000Y-46990000D03*
X86380000Y-45390000D03*
D46*
X85500000Y-45390000D03*
X84700000Y-45390000D03*
D45*
X83820000Y-45390000D03*
D42*
X58420000Y-81280000D03*
X58420000Y-83105000D03*
D23*
X60960000Y-53340000D03*
D24*
X60960000Y-54640000D03*
D26*
X90480000Y-54610000D03*
X91440000Y-54610000D03*
%LPD*%
M02*
